<svg width="253" height="40" viewBox="0 0 253 40" fill="none" xmlns="http://www.w3.org/2000/svg">
<path d="M8.11576 0H243.826L253 19.5455L243.826 40H8.11576L0 19.0909L8.11576 0Z" fill="#AF2010"/>
<path d="M32.0057 27H34.9017L36.1977 21.144C36.3737 20.232 36.5497 19.304 36.7097 18.408H36.7737C36.9177 19.304 37.0777 20.232 37.2857 21.144L38.5977 27H41.5577L43.7497 15.16H41.5097L40.5497 20.936C40.3897 22.184 40.1977 23.448 40.0377 24.728H39.9577C39.6857 23.448 39.4617 22.168 39.2057 20.936L37.8297 15.16H35.7977L34.4377 20.936C34.1817 22.184 33.9257 23.448 33.6857 24.728H33.6217C33.4297 23.448 33.2537 22.184 33.0617 20.936L32.1337 15.16H29.7177L32.0057 27ZM49.2383 27.224C50.3423 27.224 51.4623 26.856 52.3423 26.248L51.5583 24.792C50.9023 25.192 50.2623 25.416 49.5423 25.416C48.2143 25.416 47.2543 24.664 47.0463 23.192H52.5823C52.6303 22.968 52.6783 22.552 52.6783 22.104C52.6783 19.624 51.4143 17.832 48.9343 17.832C46.8223 17.832 44.7743 19.624 44.7743 22.536C44.7743 25.496 46.7263 27.224 49.2383 27.224ZM47.0143 21.624C47.2063 20.312 48.0383 19.64 48.9823 19.64C50.1343 19.64 50.6783 20.408 50.6783 21.624H47.0143ZM56.8392 27.224C57.3992 27.224 57.7672 27.128 58.0392 27.032L57.7512 25.288C57.5912 25.32 57.5272 25.32 57.4472 25.32C57.2232 25.32 56.9832 25.144 56.9832 24.584V14.248H54.6312V24.488C54.6312 26.152 55.1912 27.224 56.8392 27.224ZM63.4701 27.224C64.4621 27.224 65.5661 26.888 66.4141 26.152L65.4861 24.6C64.9901 25 64.3821 25.32 63.7261 25.32C62.4461 25.32 61.5181 24.216 61.5181 22.536C61.5181 20.84 62.4301 19.752 63.8221 19.752C64.3021 19.752 64.7341 19.944 65.1821 20.328L66.2861 18.824C65.6301 18.248 64.7981 17.832 63.6781 17.832C61.2461 17.832 59.1181 19.56 59.1181 22.536C59.1181 25.496 61.0061 27.224 63.4701 27.224ZM71.2971 27.224C73.5371 27.224 75.5851 25.496 75.5851 22.536C75.5851 19.56 73.5371 17.832 71.2971 17.832C69.0411 17.832 66.9931 19.56 66.9931 22.536C66.9931 25.496 69.0411 27.224 71.2971 27.224ZM71.2971 25.32C70.0651 25.32 69.3931 24.216 69.3931 22.536C69.3931 20.84 70.0651 19.752 71.2971 19.752C72.5131 19.752 73.1851 20.84 73.1851 22.536C73.1851 24.216 72.5131 25.32 71.2971 25.32ZM77.5687 27H79.9207V20.84C80.5287 20.168 81.1207 19.848 81.6167 19.848C82.4807 19.848 82.8807 20.312 82.8807 21.72V27H85.2327V20.84C85.8727 20.168 86.4327 19.848 86.9447 19.848C87.8087 19.848 88.1927 20.312 88.1927 21.72V27H90.5447V21.416C90.5447 19.176 89.6807 17.832 87.7767 17.832C86.6087 17.832 85.7447 18.536 84.9127 19.384C84.4967 18.392 83.7447 17.832 82.4487 17.832C81.2967 17.832 80.4647 18.472 79.7127 19.24H79.6647L79.4727 18.056H77.5687V27ZM96.8946 27.224C97.9986 27.224 99.1186 26.856 99.9986 26.248L99.2146 24.792C98.5586 25.192 97.9186 25.416 97.1986 25.416C95.8706 25.416 94.9106 24.664 94.7026 23.192H100.239C100.287 22.968 100.335 22.552 100.335 22.104C100.335 19.624 99.0706 17.832 96.5906 17.832C94.4786 17.832 92.4306 19.624 92.4306 22.536C92.4306 25.496 94.3826 27.224 96.8946 27.224ZM94.6706 21.624C94.8626 20.312 95.6946 19.64 96.6386 19.64C97.7906 19.64 98.3346 20.408 98.3346 21.624H94.6706ZM109.176 27.224C109.976 27.224 110.6 27.048 111.08 26.888L110.696 25.176C110.44 25.272 110.104 25.384 109.8 25.384C109.016 25.384 108.584 24.904 108.584 23.88V19.896H110.808V18.056H108.584V15.624H106.632L106.376 18.056L104.984 18.152V19.896H106.232V23.88C106.232 25.88 107.048 27.224 109.176 27.224ZM116 27.224C118.24 27.224 120.288 25.496 120.288 22.536C120.288 19.56 118.24 17.832 116 17.832C113.744 17.832 111.696 19.56 111.696 22.536C111.696 25.496 113.744 27.224 116 27.224ZM116 25.32C114.768 25.32 114.096 24.216 114.096 22.536C114.096 20.84 114.768 19.752 116 19.752C117.216 19.752 117.888 20.84 117.888 22.536C117.888 24.216 117.216 25.32 116 25.32ZM131.177 27.224C132.809 27.224 134.217 26.6 135.017 25.8V20.472H130.793V22.408H132.905V24.744C132.569 25.016 131.993 25.176 131.417 25.176C129.097 25.176 127.913 23.64 127.913 21.048C127.913 18.52 129.273 16.984 131.257 16.984C132.313 16.984 132.985 17.416 133.577 17.976L134.825 16.456C134.057 15.688 132.873 14.952 131.177 14.952C128.025 14.952 125.497 17.224 125.497 21.128C125.497 25.08 127.961 27.224 131.177 27.224ZM137.366 27H139.718V18.056H137.366V27ZM138.534 16.6C139.35 16.6 139.91 16.088 139.91 15.304C139.91 14.536 139.35 14.04 138.534 14.04C137.718 14.04 137.174 14.536 137.174 15.304C137.174 16.088 137.718 16.6 138.534 16.6ZM142.225 27H144.577V20.84C145.233 20.2 145.697 19.848 146.433 19.848C147.297 19.848 147.697 20.312 147.697 21.72V27H150.049V21.416C150.049 19.176 149.201 17.832 147.281 17.832C146.065 17.832 145.137 18.472 144.369 19.24H144.321L144.129 18.056H142.225V27ZM155.611 30.888C158.603 30.888 160.507 29.528 160.507 27.72C160.507 26.136 159.323 25.48 157.163 25.48H155.627C154.587 25.48 154.219 25.208 154.219 24.744C154.219 24.376 154.363 24.184 154.603 23.96C155.003 24.104 155.403 24.168 155.755 24.168C157.691 24.168 159.227 23.16 159.227 21.128C159.227 20.584 159.051 20.088 158.811 19.784H160.347V18.056H157.115C156.747 17.912 156.267 17.832 155.755 17.832C153.867 17.832 152.139 18.952 152.139 21.064C152.139 22.12 152.731 22.968 153.355 23.416V23.48C152.795 23.864 152.347 24.472 152.347 25.144C152.347 25.88 152.699 26.36 153.163 26.664V26.744C152.331 27.192 151.883 27.848 151.883 28.6C151.883 30.168 153.515 30.888 155.611 30.888ZM155.755 22.728C154.971 22.728 154.347 22.12 154.347 21.064C154.347 20.008 154.971 19.432 155.755 19.432C156.555 19.432 157.163 20.008 157.163 21.064C157.163 22.12 156.539 22.728 155.755 22.728ZM155.979 29.4C154.667 29.4 153.835 28.984 153.835 28.232C153.835 27.864 154.011 27.512 154.427 27.176C154.747 27.272 155.115 27.304 155.659 27.304H156.747C157.707 27.304 158.235 27.48 158.235 28.12C158.235 28.808 157.323 29.4 155.979 29.4ZM165.535 27.224C166.639 27.224 167.759 26.856 168.639 26.248L167.855 24.792C167.199 25.192 166.559 25.416 165.839 25.416C164.511 25.416 163.551 24.664 163.343 23.192H168.879C168.927 22.968 168.975 22.552 168.975 22.104C168.975 19.624 167.711 17.832 165.231 17.832C163.119 17.832 161.071 19.624 161.071 22.536C161.071 25.496 163.023 27.224 165.535 27.224ZM163.311 21.624C163.503 20.312 164.335 19.64 165.279 19.64C166.431 19.64 166.975 20.408 166.975 21.624H163.311ZM170.928 27H173.28V21.672C173.776 20.376 174.624 19.896 175.312 19.896C175.696 19.896 175.936 19.96 176.256 20.04L176.656 18.024C176.384 17.896 176.096 17.832 175.616 17.832C174.688 17.832 173.712 18.456 173.072 19.64H173.024L172.832 18.056H170.928V27ZM181.729 27H184.097V21.88H188.577V27H190.929V15.16H188.577V19.832H184.097V15.16H181.729V27ZM197.391 27.224C199.631 27.224 201.679 25.496 201.679 22.536C201.679 19.56 199.631 17.832 197.391 17.832C195.135 17.832 193.087 19.56 193.087 22.536C193.087 25.496 195.135 27.224 197.391 27.224ZM197.391 25.32C196.159 25.32 195.487 24.216 195.487 22.536C195.487 20.84 196.159 19.752 197.391 19.752C198.607 19.752 199.279 20.84 199.279 22.536C199.279 24.216 198.607 25.32 197.391 25.32ZM206.411 27.224C207.211 27.224 207.835 27.048 208.315 26.888L207.931 25.176C207.675 25.272 207.339 25.384 207.035 25.384C206.251 25.384 205.819 24.904 205.819 23.88V19.896H208.043V18.056H205.819V15.624H203.867L203.611 18.056L202.219 18.152V19.896H203.467V23.88C203.467 25.88 204.283 27.224 206.411 27.224ZM213.395 27.224C214.499 27.224 215.619 26.856 216.499 26.248L215.715 24.792C215.059 25.192 214.419 25.416 213.699 25.416C212.371 25.416 211.411 24.664 211.203 23.192H216.739C216.787 22.968 216.835 22.552 216.835 22.104C216.835 19.624 215.571 17.832 213.091 17.832C210.979 17.832 208.931 19.624 208.931 22.536C208.931 25.496 210.883 27.224 213.395 27.224ZM211.171 21.624C211.363 20.312 212.195 19.64 213.139 19.64C214.291 19.64 214.835 20.408 214.835 21.624H211.171ZM220.995 27.224C221.555 27.224 221.923 27.128 222.195 27.032L221.907 25.288C221.747 25.32 221.683 25.32 221.603 25.32C221.379 25.32 221.139 25.144 221.139 24.584V14.248H218.787V24.488C218.787 26.152 219.347 27.224 220.995 27.224Z" fill="white"/>
<path d="M13.2918 8.39338L14.2598 6.79779L14.6872 7.05713L15.0252 6.5H15.743V6H17.7418V6.5H19.7406V6H21.7394V6.5H23.7382V6H25.737V6.5H27.7358V6H29.7346V6.5H31.7334V6H33.7322V6.5H35.731V6H37.7298V6.5H39.7286V6H41.7274V6.5H43.7261V6H45.7249V6.5H47.7237V6H49.7225V6.5H51.7213V6H53.7201V6.5H55.7189V6H57.7177V6.5H59.7165V6H61.7153V6.5H63.7141V6H65.7129V6.5H67.7117V6H69.7105V6.5H71.7093V6H73.7081V6.5H75.7069V6H77.7057V6.5H79.7045V6H81.7033V6.5H83.702V6H85.7008V6.5H87.6996V6H89.6984V6.5H91.6972V6H93.696V6.5H95.6948V6H97.6936V6.5H99.6924V6H101.691V6.5H103.69V6H105.689V6.5H107.688V6H109.686V6.5H111.685V6H113.684V6.5H115.683V6H117.682V6.5H119.68V6H121.679V6.5H123.678V6H125.677V6.5H127.675V6H129.674V6.5H131.673V6H133.672V6.5H135.671V6H137.669V6.5H139.668V6H141.667V6.5H143.666V6H145.665V6.5H147.663V6H149.662V6.5H151.661V6H153.66V6.5H155.658V6H157.657V6.5H159.656V6H161.655V6.5H163.654V6H165.652V6.5H167.651V6H169.65V6.5H171.649V6H173.648V6.5H175.646V6H177.645V6.5H179.644V6H181.643V6.5H183.642V6H185.64V6.5H187.639V6H189.638V6.5H191.637V6H193.635V6.5H195.634V6H197.633V6.5H199.632V6H201.631V6.5H203.629V6H205.628V6.5H207.627V6H209.626V6.5H211.625V6H213.623V6.5H215.622V6H217.621V6.5H219.62V6H221.619V6.5H223.617V6H225.616V6.5H227.615V6H229.614V6.5H231.612V6H233.611V6.5H235.61V6H237.609V6.5H238.32L238.638 7.04835L239.07 6.79779L239.994 8.39338L239.562 8.64394L240.485 10.2395L240.918 9.98897L241.842 11.5846L241.409 11.8351L242.333 13.4307L242.766 13.1801L243.69 14.7757L243.257 15.0263L244.181 16.6219L244.614 16.3713L245.538 17.9669L245.105 18.2175L245.434 18.7854L245.088 19.4987L245.538 19.7169L244.614 21.6213L244.164 21.4031L243.24 23.3075L243.69 23.5257L242.766 25.4301L242.316 25.2119L241.392 27.1163L241.842 27.3346L240.918 29.239L240.468 29.0207L239.544 30.9251L239.994 31.1434L239.07 33.0478L238.62 32.8295L238.295 33.5H237.609V34H235.61V33.5H233.611V34H231.613V33.5H229.614V34H227.615V33.5H225.616V34H223.617V33.5H221.619V34H219.62V33.5H217.621V34H215.622V33.5H213.623V34H211.625V33.5H209.626V34H207.627V33.5H205.628V34H203.629V33.5H201.631V34H199.632V33.5H197.633V34H195.634V33.5H193.635V34H191.637V33.5H189.638V34H187.639V33.5H185.64V34H183.642V33.5H181.643V34H179.644V33.5H177.645V34H175.646V33.5H173.648V34H171.649V33.5H169.65V34H167.651V33.5H165.652V34H163.654V33.5H161.655V34H159.656V33.5H157.657V34H155.658V33.5H153.66V34H151.661V33.5H149.662V34H147.663V33.5H145.664V34H143.666V33.5H141.667V34H139.668V33.5H137.669V34H135.67V33.5H133.672V34H131.673V33.5H129.674V34H127.675V33.5H125.677V34H123.678V33.5H121.679V34H119.68V33.5H117.681V34H115.683V33.5H113.684V34H111.685V33.5H109.686V34H107.687V33.5H105.689V34H103.69V33.5H101.691V34H99.6923V33.5H97.6935V34H95.6947V33.5H93.6959V34H91.6972V33.5H89.6984V34H87.6996V33.5H85.7008V34H83.702V33.5H81.7032V34H79.7044V33.5H77.7056V34H75.7068V33.5H73.7081V34H71.7093V33.5H69.7105V34H67.7117V33.5H65.7129V34H63.7141V33.5H61.7153V34H59.7165V33.5H57.7177V34H55.7189V33.5H53.7202V34H51.7214V33.5H49.7226V34H47.7238V33.5H45.725V34H43.7262V33.5H41.7274V34H39.7286V33.5H37.7298V34H35.731V33.5H33.7322V34H31.7335V33.5H29.7347V34H27.7359V33.5H25.7371V34H23.7383V33.5H21.7395V34H19.7407V33.5H17.7419V34H15.7431V33.5H15.0505L14.7055 32.8212L14.2598 33.0478L13.2918 31.1434L13.7375 30.9168L12.7696 29.0124L12.3238 29.239L11.3559 27.3346L11.8016 27.108L10.8336 25.2036L10.3879 25.4301L9.41992 23.5257L9.86565 23.2992L8.89768 21.3948L8.45195 21.6213L7.48398 19.7169L7.92971 19.4904L7.57179 18.7862L7.91147 18.2262L7.48398 17.9669L8.45195 16.3713L8.87944 16.6307L9.84741 15.0351L9.41992 14.7757L10.3879 13.1801L10.8154 13.4395L11.7833 11.8439L11.3559 11.5846L12.3238 9.98897L12.7513 10.2483L13.7193 8.65272L13.2918 8.39338Z" stroke="white" stroke-dasharray="2 2"/>
</svg>
