<svg width="180" height="182" viewBox="0 0 180 182" fill="none" xmlns="http://www.w3.org/2000/svg">
<ellipse cx="59.4355" cy="89.2805" rx="45.0937" ry="18.4225" transform="rotate(-35.0959 59.4355 89.2805)" fill="#E6B38E"/>
<ellipse cx="70.5393" cy="132.059" rx="45.0937" ry="21.3845" transform="rotate(-71.9689 70.5393 132.059)" fill="#E6B38E"/>
<ellipse cx="93.063" cy="93.0247" rx="29.0865" ry="21.3845" transform="rotate(-71.9689 93.063 93.0247)" fill="#E6B38E"/>
<ellipse rx="45.0937" ry="21.9818" transform="matrix(-0.309533 -0.950889 -0.950889 0.309533 104.717 131.875)" fill="#E6B38E"/>
<ellipse rx="45.0937" ry="18.6105" transform="matrix(-0.645293 0.763935 0.763936 0.645293 124.466 78.8182)" fill="#E6B38E"/>
<ellipse cx="86.6974" cy="43.8966" rx="37.4239" ry="37.4239" fill="#E6B38E"/>
<ellipse cx="76.1721" cy="41.9495" rx="4.4807" ry="4.4807" fill="#322658"/>
<ellipse cx="97.0823" cy="41.9495" rx="4.48071" ry="4.4807" fill="#322658"/>
<path d="M54.2582 114.696C54.4111 114.287 54.8115 114.025 55.2473 114.048L87.5434 115.747C87.5961 115.75 87.6489 115.749 87.7014 115.743L119.739 112.345C120.179 112.299 120.598 112.547 120.767 112.956L133.456 143.501C133.698 144.084 133.335 144.745 132.716 144.867C98.7166 151.565 80.2661 151.5 44.2468 144.833C43.636 144.72 43.2638 144.08 43.4815 143.498L54.2582 114.696Z" fill="#30475E"/>
<path d="M55.7347 110.266C55.8893 109.82 56.3356 109.542 56.8045 109.601L87.7341 113.494C87.8255 113.505 87.9181 113.504 88.0092 113.49L118.218 108.898C118.671 108.829 119.112 109.077 119.29 109.499L120.476 112.316C120.731 112.92 120.345 113.602 119.696 113.694L87.9976 118.223C87.9141 118.234 87.8295 118.236 87.7457 118.226L55.5107 114.645C54.8732 114.574 54.4663 113.93 54.6761 113.324L55.7347 110.266Z" fill="#AF2010"/>
<path d="M74.9299 124.596C78.0208 133.471 78.9633 139.156 78.1638 149.605L67.7088 148.61C72.6601 139.615 73.9122 134.125 74.9299 124.596Z" fill="#F9C267"/>
<path d="M100.312 125.066C104.614 134.097 106.192 139.305 106.607 149.001L101.5 149.5L98.3236 149.623L96.1841 149.642C99.4058 140.113 100.169 134.604 100.312 125.066Z" fill="#F9C267"/>
<path d="M121.445 123C125.78 132.015 127.82 136.53 130.5 145.5L120.008 147.164C121.504 137.816 121.955 133.037 121.445 123Z" fill="#F9C267"/>
<path d="M58.3775 122.42C58.8007 132.414 58.4983 137.7 57.4188 147L52.5 146.5L47.2941 145.312C52.3597 137.314 54.883 131.844 58.3775 122.42Z" fill="#F9C267"/>
<path fill-rule="evenodd" clip-rule="evenodd" d="M113.16 29.0537C118.482 28.2884 121.974 26.6444 121.974 23.2254C121.974 15.3393 103.399 0.996094 86.6261 0.996094C69.8536 0.996094 51.2783 15.3393 51.2783 23.2254C51.2783 29.9846 64.9244 29.8062 79.3851 29.6173C81.796 29.5857 84.2294 29.5539 86.6261 29.5539C89.0227 29.5539 91.4562 29.5857 93.867 29.6173C95.4428 29.6378 97.0088 29.6583 98.5486 29.6697L103.553 21.836L113.16 29.0537Z" fill="#FFD372"/>
<path d="M132.43 13.5705C133.923 16.5577 135.417 26.7637 145.374 26.7637C140.826 30.3813 140.395 34.2315 129.691 29.9998C121.228 20.7894 131.185 14.5662 109.528 11.5791C117.27 15.5619 118.223 -3.86693 132.43 13.5705Z" fill="#FFD372"/>
<rect x="105.546" y="9.53809" width="7.46784" height="11.9485" rx="3.73392" transform="rotate(-41.3016 105.546 9.53809)" fill="#005452"/>
<path d="M58.9846 69.934C58.7873 69.1762 59.4742 68.4649 60.2311 68.6655L87.3323 75.8461C87.5216 75.8963 87.7215 75.8898 87.9071 75.8274L114.471 66.8965C115.275 66.6261 116.033 67.4233 115.745 68.2216C110.956 81.5126 111.585 91.1945 116.948 103.958C117.267 104.717 116.596 105.534 115.792 105.357C94.1407 100.586 80.7887 100.465 57.4205 105.436C56.6765 105.595 56.0243 104.901 56.2372 104.17C59.6757 92.3736 62.0529 81.7241 58.9846 69.934Z" fill="#30475E"/>
<path d="M58.862 69.8074C58.6959 69.0769 59.3625 68.43 60.0877 68.6177L87.0592 75.6003C87.2451 75.6484 87.4409 75.642 87.6233 75.5818L114.824 66.6009C115.611 66.3411 116.354 67.0963 116.082 67.879L114.917 71.228C114.815 71.5201 114.584 71.7488 114.291 71.8474L87.6268 80.8065C87.4423 80.8685 87.2436 80.8753 87.0553 80.826L60.3302 73.8362C59.9692 73.7418 59.6908 73.4543 59.6081 73.0904L58.862 69.8074Z" fill="#AF2010"/>
<path d="M7.76416 121.014L25.1387 109.754L26.7439 112.24L5.35474 126.046L7.76416 121.014Z" fill="#F9C267" stroke="#DEE3E9"/>
<path d="M6.61064 125.394L27.7546 111.722L29.3601 114.209L7.12681 128.56L6.61064 125.394Z" fill="#F9C267" stroke="#DEE3E9"/>
<path d="M11.5252 114.137L24.2348 106.511L25.8492 109.013L11.6198 118.197L11.5252 114.137Z" fill="#F9C267" stroke="#DEE3E9"/>
<path d="M25.2219 105.672L26.0707 108.51L7.78885 114.038L5.98512 111.425L25.2219 105.672Z" fill="#F9C267" stroke="#DEE3E9"/>
<rect x="25.4166" y="106.715" width="2.9609" height="13.4532" transform="rotate(98.4115 25.4166 106.715)" fill="#F9C267" stroke="#DEE3E9"/>
<path d="M26.3269 105.087L25.3877 107.886L14.0732 103.862L13.8205 100.89L26.3269 105.087Z" fill="#F9C267" stroke="#DEE3E9"/>
<path d="M31.8247 115.048L34.7741 115.348L33.7782 125.912L30.5148 127.922L31.8247 115.048Z" fill="#F9C267" stroke="#DEE3E9"/>
<path d="M14.0473 125.938L25.2587 112.149L27.5713 114.003L14.4081 130.418L14.0473 125.938Z" fill="#F9C267" stroke="#DEE3E9"/>
<path d="M12.2353 134.075L28.2514 113.239L30.5532 115.085L12.9604 137.023L12.2353 134.075Z" fill="#F9C267" stroke="#DEE3E9"/>
<rect x="28.6502" y="113.986" width="2.9609" height="20.364" transform="rotate(25.8238 28.6502 113.986)" fill="#F9C267" stroke="#DEE3E9"/>
<path d="M29.6982 113.779L32.5235 114.648L24.4954 139.846L21.6769 139.874L29.6982 113.779Z" fill="#F9C267" stroke="#DEE3E9"/>
<path d="M87.0898 83.8535C88.1732 84.0312 88.7275 84.6025 88.7529 85.5674C88.7699 85.8382 88.6895 86.0117 88.5117 86.0879C88.334 86.1556 88.207 86.1387 88.1309 86.0371C87.9954 85.5039 87.7204 85.1527 87.3057 84.9834C86.7979 84.8141 86.29 84.9199 85.7822 85.3008C84.7243 86.2572 84.2757 87.9202 84.4365 90.29C84.8766 91.7712 85.541 92.5583 86.4297 92.6514L86.4551 91.4072L86.4678 89.8584L86.4551 89.2617L85.2109 89.3379C85.0501 89.2786 84.9401 89.1305 84.8809 88.8936C84.8216 88.6566 84.8555 88.4746 84.9824 88.3477C86.7767 88.2546 88.0928 88.2038 88.9307 88.1953C89.0576 88.1868 89.1211 88.3434 89.1211 88.665C89.1211 88.9782 89.0661 89.1432 88.9561 89.1602L87.4961 89.2236L87.458 90.8613V92.6133C87.915 92.4863 88.2663 92.3128 88.5117 92.0928C88.7233 91.9235 88.8883 91.8854 89.0068 91.9785C89.1253 92.0632 89.1465 92.2324 89.0703 92.4863C88.7572 93.265 88.0674 93.6882 87.001 93.7559H86.3027C85.0247 93.6966 84.0768 92.7529 83.459 90.9248C83.2982 90.0869 83.2855 89.139 83.4209 88.0811C83.6748 86.0921 84.4365 84.7295 85.7061 83.9932C86.1377 83.8154 86.599 83.7689 87.0898 83.8535Z" fill="white"/>
<path d="M172.236 39.7327L154.861 50.9935L153.256 48.5066L174.645 34.7007L172.236 39.7327Z" fill="#F9C267" stroke="#DEE3E9"/>
<path d="M173.389 35.3533L152.245 49.0252L150.64 46.5379L172.873 32.1871L173.389 35.3533Z" fill="#F9C267" stroke="#DEE3E9"/>
<path d="M168.475 46.6102L155.765 54.2356L154.151 51.7343L168.38 42.5498L168.475 46.6102Z" fill="#F9C267" stroke="#DEE3E9"/>
<path d="M154.778 55.075L153.929 52.2368L172.211 46.7088L174.015 49.3216L154.778 55.075Z" fill="#F9C267" stroke="#DEE3E9"/>
<rect x="154.583" y="54.0316" width="2.9609" height="13.4532" transform="rotate(-81.5885 154.583 54.0316)" fill="#F9C267" stroke="#DEE3E9"/>
<path d="M153.673 55.6597L154.612 52.8612L165.927 56.8855L166.179 59.8569L153.673 55.6597Z" fill="#F9C267" stroke="#DEE3E9"/>
<path d="M148.175 45.699L145.226 45.3989L146.222 34.8355L149.485 32.825L148.175 45.699Z" fill="#F9C267" stroke="#DEE3E9"/>
<path d="M165.953 34.8092L154.741 48.5982L152.429 46.7438L165.592 30.3292L165.953 34.8092Z" fill="#F9C267" stroke="#DEE3E9"/>
<path d="M167.765 26.6716L151.749 47.5084L149.447 45.6625L167.04 23.7243L167.765 26.6716Z" fill="#F9C267" stroke="#DEE3E9"/>
<rect x="151.35" y="46.7608" width="2.9609" height="20.364" transform="rotate(-154.176 151.35 46.7608)" fill="#F9C267" stroke="#DEE3E9"/>
<path d="M150.302 46.9679L147.476 46.0995L155.505 20.9014L158.323 20.873L150.302 46.9679Z" fill="#F9C267" stroke="#DEE3E9"/>
<path d="M82.2451 37.1726C75.0626 32.7757 68.5995 36.6659 66.4779 40.8741" stroke="#322658" stroke-width="2"/>
<path d="M90.1484 36.9128C97.3309 32.516 103.794 36.4061 105.916 40.6143" stroke="#322658" stroke-width="2"/>
<ellipse cx="71.0382" cy="49.7485" rx="6.40146" ry="3.0727" fill="#E07272" fill-opacity="0.3"/>
<ellipse cx="103.814" cy="49.7485" rx="6.40146" ry="3.0727" fill="#E07272" fill-opacity="0.3"/>
<path d="M79.4881 53.9022C79.4881 49.5982 82.9273 50.9862 87.1698 50.9862C91.4123 50.9862 94.8516 49.5982 94.8516 53.9022C94.8516 58.2062 91.4123 61.6953 87.1698 61.6953C82.9273 61.6953 79.4881 58.2062 79.4881 53.9022Z" fill="#E07272"/>
<line x1="67.0571" y1="34.5632" x2="68.5354" y2="37.7978" stroke="#322658" stroke-width="1.5"/>
<line y1="-0.75" x2="3.55639" y2="-0.75" transform="matrix(-0.415674 0.909513 0.909513 0.415675 106.02 34.6152)" stroke="#322658" stroke-width="1.5"/>
<line x1="69.3071" y1="33.4382" x2="70.7854" y2="36.6728" stroke="#322658" stroke-width="1.5"/>
<line y1="-0.75" x2="3.55639" y2="-0.75" transform="matrix(-0.415674 0.909513 0.909513 0.415675 103.77 33.4902)" stroke="#322658" stroke-width="1.5"/>
</svg>
