<svg width="163" height="232" viewBox="0 0 163 232" fill="none" xmlns="http://www.w3.org/2000/svg">
<rect x="107.442" y="11.3691" width="3.1865" height="5.46258" rx="1.59325" transform="rotate(11.7094 107.442 11.3691)" fill="#DF6F6F"/>
<g filter="url(#filter0_d_1189_44083)">
<path fill-rule="evenodd" clip-rule="evenodd" d="M109.861 207.284C127.148 206.527 140.523 201.355 140.523 195.089C140.523 188.301 124.83 182.798 105.472 182.798C86.1134 182.798 62.9091 188.301 62.9091 195.089C62.9091 195.207 62.9162 195.325 62.9302 195.443C59.0367 194.92 54.8092 194.633 50.3908 194.633C31.0324 194.633 7.82812 200.136 7.82812 206.924C7.82812 213.712 31.0324 219.215 50.3908 219.215C52.9784 219.215 55.5004 219.117 57.9283 218.93C64.2166 222.57 78.6303 225.133 91.1618 225.133C107.739 225.133 121.177 220.649 121.177 215.118C121.177 211.946 116.757 209.119 109.861 207.284Z" fill="#B4CDE6"/>
</g>
<ellipse cx="46.42" cy="124.867" rx="41.2314" ry="16.8447" transform="rotate(-35.0959 46.42 124.867)" fill="#E6B38E"/>
<ellipse cx="56.5719" cy="163.982" rx="41.2314" ry="19.5529" transform="rotate(-71.9689 56.5719 163.982)" fill="#E6B38E"/>
<ellipse rx="41.2314" ry="20.099" transform="matrix(-0.309533 -0.950889 -0.950889 0.309533 87.8228 163.814)" fill="#E6B38E"/>
<ellipse rx="27.2262" ry="17.0165" transform="matrix(-0.818191 -0.574947 -0.574947 0.818191 84.5866 116.675)" fill="#E6B38E"/>
<ellipse cx="71.3465" cy="83.37" rx="34.2186" ry="34.2186" fill="#E6B38E"/>
<ellipse cx="61.7229" cy="80.5608" rx="4.09693" ry="4.09693" fill="#322658"/>
<ellipse cx="80.842" cy="80.5608" rx="4.09693" ry="4.09693" fill="#322658"/>
<ellipse cx="72.6477" cy="126.993" rx="4.09693" ry="4.09694" fill="#A4688F"/>
<circle cx="72.6477" cy="143.381" r="4.09693" fill="#A4688F"/>
<path d="M32.825 171.392C33.6087 168.111 37.3504 166.532 40.2482 168.259L65.5609 183.347C67.9567 184.775 68.7209 187.887 67.2591 190.263L66.2752 191.862L62.8611 196.869L58.7642 201.421L55.6883 204.316C55.1654 204.808 54.5428 205.182 53.8626 205.412L49.6295 206.843C49.1137 207.017 48.5728 207.106 48.0283 207.106L44.8758 207.106C44.4255 207.106 43.9773 207.045 43.5433 206.925L41.0116 206.225C40.4094 206.059 39.8438 205.781 39.344 205.406L37.229 203.82C36.7201 203.438 36.2887 202.963 35.958 202.42L33.5908 198.531C33.3791 198.183 33.2107 197.811 33.0893 197.422L31.2237 191.452C31.0728 190.969 30.9961 190.466 30.9961 189.961L30.9961 181.788C30.9961 181.524 31.0169 181.261 31.0585 181L32.1219 174.336L32.825 171.392Z" fill="#DF6F6F"/>
<path d="M111.443 171.392C110.659 168.111 106.917 166.532 104.019 168.259L78.7067 183.347C76.3109 184.775 75.5467 187.887 77.0084 190.263L77.9924 191.862L81.4065 196.869L85.5034 201.421L88.5793 204.316C89.1021 204.808 89.7248 205.182 90.405 205.412L94.6381 206.843C95.1539 207.017 95.6947 207.106 96.2392 207.106L99.3918 207.106C99.8421 207.106 100.29 207.045 100.724 206.925L103.256 206.225C103.858 206.059 104.424 205.781 104.924 205.406L107.039 203.82C107.547 203.438 107.979 202.963 108.31 202.42L110.677 198.531C110.888 198.183 111.057 197.811 111.178 197.422L113.044 191.452C113.195 190.969 113.272 190.466 113.272 189.961L113.272 181.788C113.272 181.524 113.251 181.261 113.209 181L112.146 174.336L111.443 171.392Z" fill="#DF6F6F"/>
<rect x="104.669" y="21.8389" width="7.14494" height="117.5" rx="3.57247" transform="rotate(8.09393 104.669 21.8389)" fill="#DF6F6F"/>
<path d="M155.963 77.5356C139.792 58.0279 133.388 60.4278 103.602 52.7929C64.4179 42.7487 67.4129 46.7813 45.0743 55.8884C50.5416 27.8822 79.797 10.0246 110.418 16.0023C141.039 21.98 161.431 49.5294 155.963 77.5356Z" fill="#DF6F6F"/>
<path d="M149.579 69.8634C139.792 63.4904 137.289 64.8561 123.995 76.378C115.893 62.3524 111.797 55.7517 97.4573 53.4756C97.9605 46.8323 114.978 43.9665 126.384 44.8305C137.791 45.6946 151.4 64.1732 149.579 69.8634Z" fill="#DF6F6F"/>
<path d="M117.259 58.2555C99.3295 56.8974 102.009 48.2408 77.3686 63.4836C77.3686 47.7857 70.372 47.7858 52.6187 51.4275C53.1219 44.7842 79.3703 36.281 90.7767 37.145C102.183 38.009 117.762 51.6123 117.259 58.2555Z" fill="#DF6F6F"/>
<path d="M75.4019 74.4365C82.0495 71.0509 88.9842 74.6066 91.6205 76.8076" stroke="#322658" stroke-width="2"/>
<path d="M67.4711 74.6035C60.8235 71.2179 53.8889 74.7736 51.2525 76.9746" stroke="#322658" stroke-width="2"/>
<g filter="url(#filter1_d_1189_44083)">
<path d="M18.933 90.1207C18.933 93.6283 18.7089 95.5682 14.9829 96.0385C12.3324 95.3557 11.6496 94.9864 11.1943 90.1207C15.0123 80.3623 14.1532 80.7888 14.9829 78.2852C16.2017 81.6993 15.1151 80.5974 18.933 90.1207Z" fill="#B4CDE6"/>
</g>
<g filter="url(#filter2_d_1189_44083)">
<path d="M133.192 116.068C133.192 119.576 132.968 121.516 129.242 121.986C126.591 121.303 125.908 120.934 125.453 116.068C129.271 106.31 128.412 106.736 129.242 104.232C130.46 107.647 129.374 106.545 133.192 116.068Z" fill="#B4CDE6"/>
</g>
<ellipse cx="57.3982" cy="87.4012" rx="5.69019" ry="2.73129" fill="#E07272" fill-opacity="0.3"/>
<ellipse cx="86.532" cy="87.4012" rx="5.69019" ry="2.73129" fill="#E07272" fill-opacity="0.3"/>
<path d="M64.909 91.0933C64.909 87.2675 67.9661 88.5013 71.7372 88.5013C75.5083 88.5013 78.5654 87.2675 78.5654 91.0933C78.5654 94.9191 75.5083 98.0205 71.7372 98.0205C67.9661 98.0205 64.909 94.9191 64.909 91.0933Z" fill="#E07272"/>
<path d="M85.4039 113.623C83.0406 116.644 82.9029 121.056 84.7538 125.84C86.6003 130.612 90.3992 135.662 95.7307 139.833C101.062 144.003 106.879 146.473 111.956 147.116C117.044 147.76 121.293 146.564 123.656 143.543C126.019 140.521 126.157 136.11 124.306 131.326C122.46 126.553 118.661 121.503 113.329 117.333C107.998 113.163 102.181 110.692 97.1043 110.049C92.0156 109.405 87.7672 110.601 85.4039 113.623Z" fill="#E6B38E" stroke="#DB9F74"/>
<g filter="url(#filter3_d_1189_44083)">
<path d="M10.7387 31.8532C10.7387 35.3607 10.5146 37.3007 6.78861 37.771C4.13804 37.0881 3.45521 36.7188 3 31.8532C6.81793 22.0947 5.9589 22.5213 6.78856 20.0176C8.00736 23.4317 6.92072 22.3298 10.7387 31.8532Z" fill="#B4CDE6"/>
</g>
<g filter="url(#filter4_d_1189_44083)">
<path d="M35.7758 50.5172C35.7758 54.0248 35.5517 55.9647 31.8257 56.435C29.1751 55.7522 28.4923 55.3829 28.0371 50.5172C31.855 40.7587 30.996 41.1853 31.8257 38.6816C33.0445 42.0958 31.9578 40.9939 35.7758 50.5172Z" fill="#B4CDE6"/>
</g>
<path d="M77.8828 63.2635L84.711 44.1446L88.808 36.6334L94.0429 28.4398L106.596 15.8002" stroke="#DADADA" stroke-opacity="0.2" stroke-width="3"/>
<path d="M123.86 75.7812L123.86 53.2482L121.584 40.9575L117.487 30.9426L106.643 15.8481" stroke="#DADADA" stroke-opacity="0.2" stroke-width="3"/>
<path d="M155.724 76.9197L146.62 50.9724L137.516 36.8607L126.135 24.7975L107.227 15.8564" stroke="#DADADA" stroke-opacity="0.2" stroke-width="3"/>
<path d="M45.79 55.2969L61.7226 35.0398L75.1514 26.3907L86.987 20.0177L107.469 15.4802" stroke="#DADADA" stroke-opacity="0.2" stroke-width="3"/>
<defs>
<filter id="filter0_d_1189_44083" x="2.82812" y="178.798" width="142.695" height="52.335" filterUnits="userSpaceOnUse" color-interpolation-filters="sRGB">
<feFlood flood-opacity="0" result="BackgroundImageFix"/>
<feColorMatrix in="SourceAlpha" type="matrix" values="0 0 0 0 0 0 0 0 0 0 0 0 0 0 0 0 0 0 127 0" result="hardAlpha"/>
<feOffset dy="1"/>
<feGaussianBlur stdDeviation="2.5"/>
<feComposite in2="hardAlpha" operator="out"/>
<feColorMatrix type="matrix" values="0 0 0 0 0 0 0 0 0 0 0 0 0 0 0 0 0 0 0.1 0"/>
<feBlend mode="normal" in2="BackgroundImageFix" result="effect1_dropShadow_1189_44083"/>
<feBlend mode="normal" in="SourceGraphic" in2="effect1_dropShadow_1189_44083" result="shape"/>
</filter>
<filter id="filter1_d_1189_44083" x="8.19434" y="77.2852" width="13.7383" height="23.7529" filterUnits="userSpaceOnUse" color-interpolation-filters="sRGB">
<feFlood flood-opacity="0" result="BackgroundImageFix"/>
<feColorMatrix in="SourceAlpha" type="matrix" values="0 0 0 0 0 0 0 0 0 0 0 0 0 0 0 0 0 0 127 0" result="hardAlpha"/>
<feOffset dy="2"/>
<feGaussianBlur stdDeviation="1.5"/>
<feComposite in2="hardAlpha" operator="out"/>
<feColorMatrix type="matrix" values="0 0 0 0 0 0 0 0 0 0 0 0 0 0 0 0 0 0 0.1 0"/>
<feBlend mode="normal" in2="BackgroundImageFix" result="effect1_dropShadow_1189_44083"/>
<feBlend mode="normal" in="SourceGraphic" in2="effect1_dropShadow_1189_44083" result="shape"/>
</filter>
<filter id="filter2_d_1189_44083" x="122.453" y="103.232" width="13.7383" height="23.7529" filterUnits="userSpaceOnUse" color-interpolation-filters="sRGB">
<feFlood flood-opacity="0" result="BackgroundImageFix"/>
<feColorMatrix in="SourceAlpha" type="matrix" values="0 0 0 0 0 0 0 0 0 0 0 0 0 0 0 0 0 0 127 0" result="hardAlpha"/>
<feOffset dy="2"/>
<feGaussianBlur stdDeviation="1.5"/>
<feComposite in2="hardAlpha" operator="out"/>
<feColorMatrix type="matrix" values="0 0 0 0 0 0 0 0 0 0 0 0 0 0 0 0 0 0 0.1 0"/>
<feBlend mode="normal" in2="BackgroundImageFix" result="effect1_dropShadow_1189_44083"/>
<feBlend mode="normal" in="SourceGraphic" in2="effect1_dropShadow_1189_44083" result="shape"/>
</filter>
<filter id="filter3_d_1189_44083" x="0" y="19.0176" width="13.7383" height="23.7529" filterUnits="userSpaceOnUse" color-interpolation-filters="sRGB">
<feFlood flood-opacity="0" result="BackgroundImageFix"/>
<feColorMatrix in="SourceAlpha" type="matrix" values="0 0 0 0 0 0 0 0 0 0 0 0 0 0 0 0 0 0 127 0" result="hardAlpha"/>
<feOffset dy="2"/>
<feGaussianBlur stdDeviation="1.5"/>
<feComposite in2="hardAlpha" operator="out"/>
<feColorMatrix type="matrix" values="0 0 0 0 0 0 0 0 0 0 0 0 0 0 0 0 0 0 0.1 0"/>
<feBlend mode="normal" in2="BackgroundImageFix" result="effect1_dropShadow_1189_44083"/>
<feBlend mode="normal" in="SourceGraphic" in2="effect1_dropShadow_1189_44083" result="shape"/>
</filter>
<filter id="filter4_d_1189_44083" x="25.0371" y="37.6816" width="13.7383" height="23.7529" filterUnits="userSpaceOnUse" color-interpolation-filters="sRGB">
<feFlood flood-opacity="0" result="BackgroundImageFix"/>
<feColorMatrix in="SourceAlpha" type="matrix" values="0 0 0 0 0 0 0 0 0 0 0 0 0 0 0 0 0 0 127 0" result="hardAlpha"/>
<feOffset dy="2"/>
<feGaussianBlur stdDeviation="1.5"/>
<feComposite in2="hardAlpha" operator="out"/>
<feColorMatrix type="matrix" values="0 0 0 0 0 0 0 0 0 0 0 0 0 0 0 0 0 0 0.1 0"/>
<feBlend mode="normal" in2="BackgroundImageFix" result="effect1_dropShadow_1189_44083"/>
<feBlend mode="normal" in="SourceGraphic" in2="effect1_dropShadow_1189_44083" result="shape"/>
</filter>
</defs>
</svg>
