<svg width="165" height="187" viewBox="0 0 165 187" fill="none" xmlns="http://www.w3.org/2000/svg">
<ellipse cx="60.24" cy="91.3026" rx="46.3733" ry="18.9453" transform="rotate(-35.0959 60.24 91.3026)" fill="#E6B38E"/>
<ellipse cx="71.6579" cy="135.295" rx="46.3733" ry="21.9913" transform="rotate(-71.9689 71.6579 135.295)" fill="#E6B38E"/>
<ellipse rx="46.3733" ry="22.6055" transform="matrix(-0.309533 -0.950889 -0.950889 0.309533 106.806 135.105)" fill="#E6B38E"/>
<ellipse rx="46.3733" ry="19.1386" transform="matrix(-0.818191 -0.574947 -0.574947 0.818191 116.054 91.1453)" fill="#E6B38E"/>
<ellipse cx="88.2896" cy="44.6295" rx="38.4859" ry="38.4859" fill="#E6B38E"/>
<circle cx="77.4506" cy="41.4711" r="4.60785" fill="#322658"/>
<circle cx="98.9545" cy="41.4711" r="4.60785" fill="#322658"/>
<circle cx="89.7387" cy="93.6928" r="4.60785" fill="#A4688F"/>
<circle cx="89.7387" cy="112.124" r="4.60785" fill="#A4688F"/>
<path d="M123.017 17.8166C123.017 27.6564 107.43 20.5717 88.2026 20.5717C68.9748 20.5717 53.3877 27.6564 53.3877 17.8166C53.3877 7.97675 68.9748 0 88.2026 0C107.43 0 123.017 7.97675 123.017 17.8166Z" fill="#30475E"/>
<rect x="53.3877" y="16.3838" width="69.6298" height="11.2636" fill="#30475E"/>
<ellipse cx="81.9261" cy="28.2399" rx="41.6854" ry="7.62902" transform="rotate(-9.64283 81.9261 28.2399)" fill="#30475E"/>
<rect x="146.471" y="72.1574" width="1.54793" height="18.9554" transform="rotate(-9.51489 146.471 72.1574)" fill="white" stroke="black" stroke-width="0.5"/>
<rect x="31.0361" y="141.021" width="42.0134" height="31.0253" rx="5" transform="rotate(-133.12 31.0361 141.021)" fill="#DADADA"/>
<path fill-rule="evenodd" clip-rule="evenodd" d="M25.1411 113.532C25.7172 113.661 26.1665 114.154 26.2129 114.773C26.2696 115.531 25.7013 116.191 24.9436 116.248C24.71 116.265 24.4856 116.223 24.2853 116.135C24.6611 117.761 26.1772 118.915 27.8931 118.786C29.7875 118.644 30.5486 116.863 30.7632 115.122C30.2918 113.433 29.5287 112.455 27.7879 112.24C26.8734 112.496 25.8579 112.908 25.1411 113.532Z" fill="#969696"/>
<path d="M24.6216 118.004C25.1997 118.097 25.7858 118.219 25.7845 118.476C25.4816 118.428 25.2954 118.973 24.6169 118.937C23.1274 118.412 23.5677 118.615 23.8346 118.422C24.1647 118.403 22.8031 118.964 24.6216 118.004Z" fill="#969696"/>
<path d="M80.0107 54.7822C87.2222 60.4141 90.9322 54.7822 97.9302 54.7822" stroke="#362955" stroke-width="3" stroke-linecap="round"/>
<path d="M85.2646 8.12109C89.6006 8.91797 91.9795 10.8047 92.4014 13.7812C92.5771 14.8242 92.5303 16.002 92.2607 17.3145C91.5107 20.0332 89.4951 21.5332 86.2139 21.8145L86.1963 22.3594C86.0674 22.6289 85.8154 22.7344 85.4404 22.6758C85.0654 22.6172 84.8545 22.166 84.8076 21.3223L84.8604 8.96484C84.626 8.83594 84.5557 8.60742 84.6494 8.2793C84.8252 8.15039 85.0303 8.09766 85.2646 8.12109ZM86.2842 9.79102L86.2139 20.373C88.5576 20.1387 90.1045 19.0195 90.8545 17.0156C91.042 16.1133 91.1006 15.2285 91.0303 14.3613C90.9014 12.1699 89.3193 10.6465 86.2842 9.79102Z" fill="white"/>
<ellipse cx="77.0902" cy="45.1852" rx="6.52861" ry="6.50736" transform="rotate(2.50759 77.0902 45.1852)" fill="#5D4037" fill-opacity="0.1"/>
<ellipse cx="99.1058" cy="45.1852" rx="6.52861" ry="6.50736" transform="rotate(2.50759 99.1058 45.1852)" fill="#5D4037" fill-opacity="0.1"/>
<path opacity="0.5" d="M145.037 81.4802L158.585 83.1993C160.693 83.4668 162.079 85.5367 161.522 87.588L155.185 110.943C154.728 112.628 153.099 113.718 151.367 113.499L145.423 112.744C143.742 112.531 142.456 111.146 142.368 109.454L141.101 85.1345C140.987 82.956 142.873 81.2056 145.037 81.4802Z" fill="white" stroke="#D9D9D9"/>
<path d="M142.321 87.7438L160.556 88.1706L155.281 108.641C154.652 111.08 152.308 112.67 149.81 112.353L147.408 112.049C144.979 111.74 143.13 109.719 143.04 107.272L142.321 87.7438Z" fill="#9C653D"/>
</svg>
