<svg width="150" height="186" viewBox="0 0 150 186" fill="none" xmlns="http://www.w3.org/2000/svg">
<ellipse cx="47.6917" cy="93.1654" rx="45.2879" ry="18.5019" transform="rotate(-35.0959 47.6917 93.1654)" fill="#E6B38E"/>
<ellipse cx="58.8422" cy="136.129" rx="45.2879" ry="21.4766" transform="rotate(-71.9689 58.8422 136.129)" fill="#E6B38E"/>
<ellipse rx="45.2879" ry="22.0764" transform="matrix(-0.309533 -0.950889 -0.950889 0.309533 93.1674 135.943)" fill="#E6B38E"/>
<ellipse rx="45.2879" ry="18.6907" transform="matrix(-0.818191 -0.574947 -0.574947 0.818191 102.2 93.0112)" fill="#E6B38E"/>
<ellipse cx="75.0714" cy="47.5851" rx="37.5851" ry="37.5851" fill="#E6B38E"/>
<circle cx="64.5" cy="44.5" r="4.5" fill="#322658"/>
<circle cx="85.5" cy="44.5" r="4.5" fill="#322658"/>
<circle cx="76.5" cy="95.5" r="4.5" fill="#A4688F"/>
<circle cx="76.5" cy="113.5" r="4.5" fill="#A4688F"/>
<path d="M44.25 70.9999L61.75 73.9999L61.75 119.25L46.5 116L30.75 124L6.24996 103.75L44.25 70.9999Z" fill="#885028"/>
<path d="M106.682 70.8767L91.4998 72.9998L91.4998 118.75L104.432 115.877L120.182 123.877L144.682 103.626L106.682 70.8767Z" fill="#885028"/>
<rect x="88.3184" y="64.9043" width="7.68133" height="10.533" rx="3.84066" fill="#5E371A"/>
<rect x="83.8721" y="75.5" width="3.38562" height="8.89417" rx="1.69281" transform="rotate(-90 83.8721 75.5)" fill="#5E371A"/>
<path d="M87.5101 63.0867C87.5101 66.9739 86.5846 69.1055 85.5799 69.1055C84.5751 69.1055 83.8716 66.4109 83.8716 63.0867C83.8716 59.7626 76.0847 57.0674 77.0895 57.0674C78.4138 55.1866 87.5101 59.7626 87.5101 63.0867Z" fill="#5E371A"/>
<path d="M93.9784 59.6861C93.9784 61.6678 93.0873 63.8127 91.9881 63.8127C93.3564 60.919 90.7441 61.1645 90.7441 59.1828C90.7441 57.2011 94.1003 55.016 92.7344 55.5946C93.8337 55.5946 91.4905 59.2424 93.9784 59.6861Z" fill="#D9D9D9"/>
<rect x="83.8721" y="63.0859" width="3.63852" height="12.4139" rx="1.81926" fill="#5E371A"/>
<path d="M79.3348 35.6157C85.1801 32.6582 91.2198 35.6504 93.509 37.5162" stroke="#322658" stroke-width="2"/>
<path d="M69.174 35.7983C63.3287 32.8408 57.289 35.833 54.9998 37.6989" stroke="#322658" stroke-width="2"/>
<path d="M68.25 58L85.1555 56.5" stroke="#322658" stroke-width="2"/>
<path d="M43.2422 72L44.4995 70.75L51.4922 72V116.75L46.7495 116L43.2422 117.5V72Z" fill="#907B68"/>
<path d="M22.1968 89.9996L24.5 87.75L29.2364 83.6897L40.25 118.75L36.75 120.75L33.25 122.5L22.1968 89.9996Z" fill="#907B68"/>
<path d="M98 72.25L101.507 71.5L106.25 71V117L102 116.25L98 117.283V72.25Z" fill="#907B68"/>
<path d="M122.25 84.75L125 86.5L129.25 90.2496L116.975 122.418L112.812 120.027L110.25 118.75L122.25 84.75Z" fill="#907B68"/>
<path d="M48 71.25L49.5 71.7498V116.616L48 116.303V71.25Z" fill="#D9D9D9"/>
<path d="M102.5 71.4993L104 71.2324V116.565L102.5 116.302V71.4993Z" fill="#D9D9D9"/>
<path d="M25.4995 86.75L26.7595 85.9472L38.2495 120.25L36.9019 120.78L25.4995 86.75Z" fill="#D9D9D9"/>
<path d="M43.2503 82.4996L43.2499 83.9999L12.9876 109.265L11.7503 108.25L43.2503 82.4996Z" fill="#D9D9D9"/>
<path d="M43.0352 83.9993L43.045 82.5005L61.7944 84.7131L61.7476 86.2904L43.0352 83.9993Z" fill="#D9D9D9"/>
<path d="M91.4999 81.5006L91.5 83.0004L106.506 81.3167L106.506 79.7504L91.4999 81.5006Z" fill="#D9D9D9"/>
<path d="M91.4999 89.2495L91.4997 90.7495L106.317 88.7495L106.317 87.2492L91.4999 89.2495Z" fill="#D9D9D9"/>
<path d="M43.2435 92.4987L43.2501 90.7493L61.7871 93.2706L61.7437 94.8483L43.2435 92.4987Z" fill="#D9D9D9"/>
<path d="M106.393 79.8219L106.45 81.3688L139.006 108.545L140.261 107.545L106.393 79.8219Z" fill="#D9D9D9"/>
<path d="M106.261 87.2948L106.262 88.7951L134.25 112L135.5 111L106.261 87.2948Z" fill="#D9D9D9"/>
<path d="M43.2495 90.75L43.2494 92.4999L17.9768 113.439L16.7497 112.5L43.2495 90.75Z" fill="#D9D9D9"/>
<path d="M126.75 88.0001L127.75 89L115 121.25L113.732 120.546L126.75 88.0001Z" fill="#D9D9D9"/>
<ellipse cx="74.75" cy="10.5" rx="30.75" ry="10.5" fill="#885028"/>
<rect x="44" y="10.5" width="61.5" height="16" fill="#885028"/>
<ellipse cx="74.75" cy="24.5" rx="30.75" ry="8" fill="#9C653D"/>
<path d="M51 3.75L55.25 2.25L59.5 1.25V17.5L51 19.25V3.75Z" fill="#907B68"/>
<path d="M71.5 0H80V16.5H71.5V0Z" fill="#907B68"/>
<path d="M92 1.75L96.5 3L100.5 4.75V20L96.25 18.75L92 17.75V1.75Z" fill="#907B68"/>
<path d="M55.5 2.25L57 1.75V18L55.5 18.25V2.25Z" fill="#D9D9D9"/>
<path d="M44 10.25L44.5 8.75L76 6.5L105 8.75L105.5 10L76 8L44 10.25Z" fill="#D9D9D9"/>
<path d="M44 14.75L44.5 13.25L76 11L105 13.25L105.5 14.5L76 12.5L44 14.75Z" fill="#D9D9D9"/>
<path d="M97.5 3.5L99 4.21642V19.5L97.5 19.106V3.5Z" fill="#D9D9D9"/>
<rect x="76" width="1.5" height="16.5" fill="#D9D9D9"/>
</svg>
