<svg width="150" height="191" viewBox="0 0 150 191" fill="none" xmlns="http://www.w3.org/2000/svg">
<ellipse cx="76.5036" cy="8.5746" rx="9.79955" ry="8.5746" fill="#322658"/>
<ellipse cx="49.7425" cy="100.117" rx="44.3801" ry="18.131" transform="rotate(-35.0959 49.7425 100.117)" fill="#E6B38E"/>
<ellipse cx="60.6704" cy="142.219" rx="44.3801" ry="21.046" transform="rotate(-71.9689 60.6704 142.219)" fill="#E6B38E"/>
<ellipse rx="44.3801" ry="21.6339" transform="matrix(-0.309533 -0.950889 -0.950889 0.309533 94.3067 142.038)" fill="#E6B38E"/>
<ellipse rx="44.3801" ry="18.316" transform="matrix(-0.818191 -0.574947 -0.574947 0.818191 103.158 99.9669)" fill="#E6B38E"/>
<circle cx="76.5729" cy="55.4508" r="36.8317" fill="#E6B38E"/>
<ellipse cx="66.2135" cy="52.4274" rx="4.40979" ry="4.40979" fill="#322658"/>
<ellipse cx="86.7926" cy="52.4274" rx="4.4098" ry="4.40979" fill="#322658"/>
<circle cx="77.9733" cy="102.405" r="4.40979" fill="#A4688F"/>
<circle cx="77.9733" cy="120.045" r="4.40979" fill="#A4688F"/>
<ellipse cx="48.8201" cy="180.067" rx="12.0044" ry="7.59464" transform="rotate(13.2888 48.8201 180.067)" fill="#5D4037"/>
<ellipse rx="12.0044" ry="7.59464" transform="matrix(-0.973224 0.22986 0.22986 0.973224 108.061 180.662)" fill="#5D4037"/>
<path d="M49.5518 119.009C50.109 118.192 51.1879 117.923 52.0717 118.368L79.2442 132.032C79.8623 132.343 80.2775 132.96 80.3349 133.649C82.1217 155.115 78.8918 166.243 65.634 182.618C65.1263 183.245 64.2837 183.504 63.5114 183.27L36.1905 175.013C35.3465 174.758 34.7681 173.975 34.7742 173.094C34.9284 151.002 38.5267 135.184 49.5518 119.009Z" fill="#DD3680"/>
<path d="M107.136 124.201C106.741 124.038 106.299 124.031 105.89 124.155L77.7306 132.666C76.9824 132.892 76.4325 133.537 76.3334 134.313C74.1298 151.555 76.4053 162.421 91.116 182.996C91.6116 183.689 92.5016 183.995 93.3173 183.749L120.425 175.556C121.328 175.283 121.916 174.402 121.837 173.462C119.108 140.934 116.183 127.934 107.136 124.201Z" fill="#DD3680"/>
<path d="M59.8438 44.5684L71.6032 46.5283" stroke="#322658" stroke-width="2"/>
<path d="M93.6523 44.5684L81.8929 46.5283" stroke="#322658" stroke-width="2"/>
<path d="M83.3627 65.783C83.3627 68.6791 80.6206 67.7451 77.238 67.7451C73.8554 67.7451 71.1133 68.6791 71.1133 65.783C71.1133 62.8868 73.8554 60.5391 77.238 60.5391C80.6206 60.5391 83.3627 62.8868 83.3627 65.783Z" fill="#E07272"/>
<path fill-rule="evenodd" clip-rule="evenodd" d="M51.0653 18C51.8275 14.521 63.1444 11.7598 76.9932 11.7598C90.842 11.7598 102.159 14.521 102.921 18H103L111.284 41.5454C112.56 43.8829 113.251 46.3898 113.251 48.998C113.251 50.0786 113.133 51.1419 112.903 52.1829C110.428 40.9716 95.0743 32.3388 76.5032 32.3388C57.932 32.3388 42.5784 40.9716 40.1035 52.1829C39.8737 51.1419 39.7549 50.0786 39.7549 48.998C39.7549 46.1523 40.5785 43.4272 42.0846 40.9111L50.9635 18H51.0653Z" fill="#322658"/>
<path fill-rule="evenodd" clip-rule="evenodd" d="M98.5066 21.2526C98.5236 21.1626 98.5322 21.0669 98.5322 20.9652C98.5322 17.5046 88.5633 14.6992 76.2661 14.6992C63.9689 14.6992 54 17.5046 54 20.9652C54 21.0378 54.0044 21.1073 54.0131 21.1739C54.0044 21.2667 54 21.3607 54 21.4557V28.8487C54 30.5055 55.3431 31.8487 57 31.8487H64.9275C66.0333 31.8487 67.0495 31.2403 67.5718 30.2656L67.7223 29.9848C67.77 29.9513 67.816 29.9133 67.8598 29.8705C73.6942 24.1643 78.4788 24.9833 84.4778 30.479C85.0257 31.3252 85.9702 31.8479 86.9957 31.8479H95.5321C97.1889 31.8479 98.5321 30.5048 98.5321 28.8479V21.6458C98.5321 21.5125 98.5234 21.3812 98.5066 21.2526Z" fill="white"/>
<path d="M97.7939 21.4375L105.853 25.9579L108.597 33.7842L95.5638 26.6302L97.7939 21.4375Z" fill="white"/>
<path d="M54.7627 22.377L47.5944 25.9686L44.6545 33.3183L56.6391 27.7077L54.7627 22.377Z" fill="white"/>
<path fill-rule="evenodd" clip-rule="evenodd" d="M96.5394 22.0273C96.5613 21.9478 96.5723 21.8622 96.5723 21.7701C96.5723 21.2997 96.2827 20.8451 95.743 20.4158C95.4307 20.0974 95.0457 19.8566 94.6159 19.7237C91.3582 18.1132 84.3751 17 76.2862 17C65.0824 17 56 19.1357 56 21.7701C56 21.907 56.0245 22.0297 56.0726 22.1392C56.0251 22.3511 56 22.5716 56 22.7976V27.2296C56 28.8865 57.3431 30.2296 59 30.2296H63.6886C64.5747 30.2296 65.4079 29.8386 65.9734 29.1738C66.1238 29.1286 66.2672 29.0504 66.3936 28.9345C72.5641 23.2742 79.1081 23.3238 85.2791 28.6784C85.3195 28.7135 85.3615 28.7448 85.4047 28.7727L85.4318 28.8161C85.9797 29.6949 86.942 30.229 87.9777 30.229H93.5723C95.2292 30.229 96.5723 28.8859 96.5723 27.229V22.4732C96.5723 22.3216 96.5611 22.1727 96.5394 22.0273Z" fill="#F48135"/>
<ellipse rx="9.30956" ry="10.7681" transform="matrix(-0.770602 -0.637317 -0.637317 0.770602 133.168 121.046)" fill="#5D4037"/>
<ellipse cx="20.0271" cy="120.507" rx="9.30957" ry="10.0681" transform="rotate(-39.592 20.0271 120.507)" fill="#5D4037"/>
<path d="M47.6485 79.3758L66.432 102.325C56.8758 117.447 48.5421 123.986 27.0157 132.048L11.0918 112.204C24.4218 96.7082 31.6624 88.9801 47.6485 79.3758Z" fill="#C5C5E9"/>
<path d="M85.8132 98.0284L104.922 79.1309C122.609 89.0609 130.473 96.3829 142.161 111.469L124.521 132.293C101.917 123.934 97.0187 114.034 85.8132 98.0284Z" fill="#C5C5E9"/>
<path d="M48.0294 81.0137C48.2036 80.0648 49.0338 79.3756 49.9986 79.3753C69.9369 79.3692 82.3894 79.4721 104.024 79.383C104.972 79.3791 105.799 80.0408 105.995 80.968L117.884 136.983C118.148 138.227 117.2 139.398 115.928 139.398H39.7065C38.4572 139.398 37.5137 138.266 37.7394 137.037L48.0294 81.0137Z" fill="#C5C5E9"/>
<rect x="86.3125" y="97.5156" width="19.0891" height="4.87973" rx="1.5" fill="#C5C5E9" stroke="#B3B3E5"/>
<circle cx="95.8578" cy="100.691" r="0.724941" fill="#C5C5E9" stroke="#B3B3E5"/>
<rect x="61.8037" y="72.0264" width="30.8686" height="17.1492" fill="#C5C5E9"/>
<rect x="91.583" y="71.7891" width="16.5308" height="17.1492" rx="2" transform="rotate(15.7424 91.583 71.7891)" fill="#C5C5E9"/>
<rect width="17.7992" height="17.1492" rx="2" transform="matrix(-0.962491 0.271312 0.271312 0.962491 62.5791 71.7578)" fill="#C5C5E9"/>
<line x1="81.9033" y1="75.4561" x2="81.9033" y2="136.703" stroke="#B3B3E5"/>
<line x1="73.084" y1="75.4561" x2="73.084" y2="136.703" stroke="#B3B3E5"/>
<rect y="65.0264" width="36.7483" height="127.37" rx="18.3741" transform="rotate(-9 0 65.0264)" fill="#444444"/>
<rect x="9.86621" y="101.201" width="26.758" height="13.7194" rx="6.85968" transform="rotate(-9 9.86621 101.201)" fill="#DEE3E9"/>
<rect x="16.2363" y="138.439" width="26.758" height="13.7194" rx="6.85968" transform="rotate(-9 16.2363 138.439)" fill="#DEE3E9"/>
<path d="M26.9471 69.9092L27.1136 73.6977L31.1798 75.0075L27.2166 76.0391L27.3831 79.8276L24.7672 76.6767L20.804 77.7083L23.1504 74.7293L20.5345 71.5784L24.6006 72.8882L26.9471 69.9092Z" fill="#F9C267"/>
<path d="M15.6776 84.1192L15.8441 87.9076L19.9102 89.2174L15.947 90.2491L16.1136 94.0375L13.4976 90.8866L9.53444 91.9182L11.8809 88.9393L9.26499 85.7884L13.3311 87.0982L15.6776 84.1192Z" fill="#F9C267"/>
<path d="M38.2167 117.928L38.3832 121.716L42.4493 123.026L38.4861 124.058L38.6526 127.846L36.0367 124.695L32.0735 125.727L34.42 122.748L31.8041 119.597L35.8702 120.907L38.2167 117.928Z" fill="#F9C267"/>
<path d="M27.9276 156.146L28.0941 159.934L32.1602 161.244L28.197 162.275L28.3636 166.064L25.7476 162.913L21.7844 163.945L24.1309 160.966L21.515 157.815L25.5811 159.125L27.9276 156.146Z" fill="#F9C267"/>
<path d="M42.1366 169.375L42.3031 173.164L46.3692 174.473L42.406 175.505L42.5725 179.293L39.9566 176.142L35.9934 177.174L38.3399 174.195L35.724 171.044L39.7901 172.354L42.1366 169.375Z" fill="#F9C267"/>
<path d="M47.595 83.7863L62.0046 80.6561" stroke="#B3B3E5" stroke-linecap="round"/>
<path d="M105.167 83.7861L91.0028 80.6559" stroke="#B3B3E5" stroke-linecap="round"/>
<path d="M62.0488 80.6016H90.9575" stroke="#B3B3E5" stroke-linecap="round"/>
</svg>
