<svg width="70" height="83" viewBox="0 0 70 83" fill="none" xmlns="http://www.w3.org/2000/svg">
<ellipse cx="35.0334" cy="42.0954" rx="17.5397" ry="17.5397" fill="#D9D9D9"/>
<ellipse cx="22.2561" cy="38.8108" rx="21.1343" ry="8.63421" transform="rotate(-35.0959 22.2561 38.8108)" fill="#BAB8B5"/>
<ellipse cx="27.4601" cy="58.8603" rx="21.1343" ry="10.0224" transform="rotate(-71.9689 27.4601 58.8603)" fill="#BAB8B5"/>
<ellipse rx="21.1343" ry="10.3023" transform="matrix(-0.309533 -0.950889 -0.950889 0.309533 43.4783 58.7732)" fill="#BAB8B5"/>
<ellipse rx="21.1343" ry="8.72231" transform="matrix(-0.818191 -0.574947 -0.574947 0.818191 47.6932 38.7393)" fill="#BAB8B5"/>
<ellipse cx="35.0397" cy="17.5397" rx="17.5397" ry="17.5397" fill="#BAB8B5"/>
<path d="M33.5854 30.5029C36.7593 30.2262 38.0939 31.6992 37.5894 34.9219C36.4663 38.5189 35.5955 41.9206 34.9771 45.127C34.798 45.7454 34.4074 45.9896 33.8052 45.8594C33.2192 45.7292 33.0076 45.306 33.1704 44.5898C33.7238 41.5299 34.562 38.2992 35.6851 34.8975C36.0106 33.2536 35.4735 32.4805 34.0737 32.5781C33.4227 32.806 32.9995 33.042 32.8042 33.2861C32.6252 33.5303 32.3159 33.9046 31.8765 34.4092C31.3394 34.7673 30.9162 34.7103 30.6069 34.2383C30.2977 33.7663 30.3953 33.1803 30.8999 32.4805C31.6323 31.4225 32.5275 30.7633 33.5854 30.5029ZM34.0493 50.4004C34.3748 50.4004 34.6515 50.2865 34.8794 50.0586C35.1235 49.8307 35.2456 49.5378 35.2456 49.1797C35.2619 48.8053 35.1479 48.5124 34.9038 48.3008C34.6597 48.0892 34.3748 47.9834 34.0493 47.9834C33.7238 47.9834 33.4471 48.0892 33.2192 48.3008C32.9914 48.5124 32.8693 48.8053 32.853 49.1797C32.8368 49.5378 32.9507 49.8307 33.1948 50.0586C33.439 50.2865 33.7238 50.4004 34.0493 50.4004Z" fill="black"/>
</svg>
