<svg width="180" height="286" viewBox="0 0 180 286" fill="none" xmlns="http://www.w3.org/2000/svg">
<rect x="0.5" y="36.9863" width="179" height="248.498" fill="#AF2010" stroke="black"/>
<path d="M35.6388 58.1565C35.6388 58.747 35.5574 59.1349 35.4395 59.3846C35.3301 59.6164 35.1864 59.7381 35.0044 59.8077C34.8025 59.8849 34.5168 59.9109 34.1174 59.8661C33.7216 59.8217 33.2551 59.7129 32.7137 59.5585C32.2763 59.4338 31.7955 59.28 31.2778 59.1145C29.2751 58.474 26.7189 57.6565 23.9766 57.6565C21.2344 57.6565 18.6782 58.474 16.6755 59.1145C16.1577 59.28 15.677 59.4338 15.2395 59.5585C14.6981 59.7129 14.2317 59.8217 13.8358 59.8661C13.4364 59.9109 13.1507 59.8849 12.9488 59.8077C12.7668 59.7381 12.6231 59.6164 12.5137 59.3846C12.3958 59.1349 12.3145 58.747 12.3145 58.1565C12.3145 55.8393 13.5697 53.7028 15.676 52.1283C17.7824 50.5537 20.7155 49.5649 23.9766 49.5649C27.2378 49.5649 30.1708 50.5537 32.2772 52.1283C34.3835 53.7028 35.6388 55.8393 35.6388 58.1565Z" fill="white" stroke="black"/>
<path d="M33.7119 60.2007C33.7119 61.4366 33.423 61.7636 33.2044 61.8635C33.0676 61.926 32.8599 61.9537 32.5405 61.9109C32.2235 61.8684 31.8436 61.7633 31.3929 61.6097C31.0347 61.4876 30.6382 61.3361 30.2092 61.172C28.5334 60.5312 26.3613 59.7007 24.0366 59.7007C21.712 59.7007 19.5398 60.5312 17.864 61.172C17.435 61.3361 17.0385 61.4876 16.6803 61.6097C16.2296 61.7633 15.8497 61.8684 15.5327 61.9109C15.2133 61.9537 15.0056 61.926 14.8688 61.8635C14.6502 61.7636 14.3613 61.4366 14.3613 60.2007C14.3613 55.5091 18.6385 51.6123 24.0366 51.6123C29.4347 51.6123 33.7119 55.5091 33.7119 60.2007Z" fill="white" stroke="black"/>
<rect x="12.3145" y="58.3555" width="23.3243" height="27.4185" fill="white" stroke="black"/>
<rect x="14.2412" y="60.5229" width="19.471" height="23.0835" fill="white" stroke="black"/>
<line x1="27.1982" y1="71.2329" x2="34.0917" y2="71.2329" stroke="black"/>
<line x1="23.5063" y1="68.4526" x2="23.5063" y2="60.0227" stroke="black"/>
<line x1="23.5972" y1="83.9863" x2="23.5972" y2="74.955" stroke="black"/>
<line x1="13.7412" y1="71.3237" x2="20.7254" y2="71.3237" stroke="black"/>
<rect x="21.3121" y="71.7378" width="3.8167" height="3.8167" transform="rotate(-45 21.3121 71.7378)" fill="white" stroke="black"/>
<path d="M23.3202 54.2247L22.2757 47.7588H25.6961L24.8666 54.2247H23.3202Z" fill="white" stroke="black"/>
<path d="M68.3028 58.1565C68.3028 58.747 68.2215 59.1349 68.1036 59.3846C67.9942 59.6164 67.8505 59.7381 67.6685 59.8077C67.4665 59.8849 67.1808 59.9109 66.7815 59.8661C66.3856 59.8217 65.9192 59.7129 65.3777 59.5585C64.9403 59.4338 64.4596 59.2801 63.9418 59.1145C61.9391 58.474 59.3829 57.6565 56.6407 57.6565C53.8984 57.6565 51.3422 58.474 49.3395 59.1145C48.8218 59.28 48.341 59.4338 47.9036 59.5585C47.3622 59.7129 46.8957 59.8217 46.4999 59.8661C46.1005 59.9109 45.8148 59.8849 45.6129 59.8077C45.4309 59.7381 45.2872 59.6164 45.1778 59.3846C45.0599 59.1349 44.9785 58.747 44.9785 58.1565C44.9785 55.8393 46.2338 53.7028 48.3401 52.1283C50.4465 50.5537 53.3795 49.5649 56.6407 49.5649C59.9018 49.5649 62.8349 50.5537 64.9413 52.1283C67.0475 53.7028 68.3028 55.8393 68.3028 58.1565Z" fill="white" stroke="black"/>
<path d="M66.3759 60.2007C66.3759 61.4366 66.0871 61.7636 65.8685 61.8635C65.7316 61.926 65.5239 61.9537 65.2046 61.9109C64.8876 61.8684 64.5077 61.7633 64.0569 61.6097C63.6988 61.4876 63.3023 61.3361 62.8733 61.172C61.1974 60.5312 59.0253 59.7007 56.7007 59.7007C54.376 59.7007 52.2039 60.5312 50.528 61.172C50.099 61.3361 49.7026 61.4876 49.3444 61.6097C48.8937 61.7633 48.5138 61.8684 48.1967 61.9109C47.8774 61.9537 47.6697 61.926 47.5328 61.8635C47.3143 61.7636 47.0254 61.4366 47.0254 60.2007C47.0254 55.5091 51.3026 51.6123 56.7007 51.6123C62.0988 51.6123 66.3759 55.5091 66.3759 60.2007Z" fill="white" stroke="black"/>
<rect x="44.9785" y="58.3555" width="23.3243" height="27.4185" fill="white" stroke="black"/>
<rect x="46.9053" y="60.5229" width="19.471" height="23.0835" fill="white" stroke="black"/>
<line x1="59.8623" y1="71.2329" x2="66.7557" y2="71.2329" stroke="black"/>
<line x1="56.1704" y1="68.4526" x2="56.1704" y2="60.0227" stroke="black"/>
<line x1="56.2612" y1="83.9863" x2="56.2612" y2="74.955" stroke="black"/>
<line x1="46.4053" y1="71.3237" x2="53.3895" y2="71.3237" stroke="black"/>
<rect x="53.9761" y="71.7378" width="3.8167" height="3.8167" transform="rotate(-45 53.9761 71.7378)" fill="white" stroke="black"/>
<path d="M55.9843 54.2247L54.9398 47.7588H58.3602L57.5307 54.2247H55.9843Z" fill="white" stroke="black"/>
<path d="M100.967 58.1565C100.967 58.747 100.886 59.1349 100.768 59.3846C100.659 59.6164 100.515 59.7381 100.333 59.8077C100.131 59.8849 99.8454 59.9109 99.446 59.8661C99.0502 59.8217 98.5838 59.7129 98.0423 59.5585C97.6049 59.4338 97.1241 59.2801 96.6064 59.1145C94.6037 58.474 92.0475 57.6565 89.3052 57.6565C86.563 57.6565 84.0068 58.474 82.0041 59.1145C81.4863 59.28 81.0056 59.4338 80.5682 59.5585C80.0267 59.7129 79.5603 59.8217 79.1644 59.8661C78.7651 59.9109 78.4794 59.8849 78.2774 59.8077C78.0954 59.7381 77.9517 59.6164 77.8423 59.3846C77.7244 59.1349 77.6431 58.747 77.6431 58.1565C77.6431 55.8393 78.8984 53.7028 81.0046 52.1283C83.111 50.5537 86.0441 49.5649 89.3052 49.5649C92.5664 49.5649 95.4994 50.5537 97.6058 52.1283C99.7121 53.7028 100.967 55.8393 100.967 58.1565Z" fill="white" stroke="black"/>
<path d="M99.0405 60.2007C99.0405 61.4366 98.7516 61.7636 98.5331 61.8635C98.3962 61.926 98.1885 61.9537 97.8691 61.9109C97.5521 61.8684 97.1722 61.7633 96.7215 61.6097C96.3633 61.4876 95.9668 61.3361 95.5379 61.172C93.862 60.5312 91.6899 59.7007 89.3652 59.7007C87.0406 59.7007 84.8684 60.5312 83.1926 61.172C82.7636 61.3361 82.3671 61.4876 82.0089 61.6097C81.5582 61.7633 81.1783 61.8684 80.8613 61.9109C80.5419 61.9537 80.3343 61.926 80.1974 61.8635C79.9788 61.7636 79.6899 61.4366 79.6899 60.2007C79.6899 55.5091 83.9671 51.6123 89.3652 51.6123C94.7633 51.6123 99.0405 55.5091 99.0405 60.2007Z" fill="white" stroke="black"/>
<rect x="77.6431" y="58.3555" width="23.3243" height="27.4185" fill="white" stroke="black"/>
<rect x="79.5698" y="60.5229" width="19.471" height="23.0835" fill="white" stroke="black"/>
<line x1="92.5269" y1="71.2329" x2="99.4203" y2="71.2329" stroke="black"/>
<line x1="88.835" y1="68.4526" x2="88.835" y2="60.0227" stroke="black"/>
<line x1="88.9258" y1="83.9863" x2="88.9258" y2="74.955" stroke="black"/>
<line x1="79.0698" y1="71.3237" x2="86.054" y2="71.3237" stroke="black"/>
<rect x="86.6407" y="71.7378" width="3.8167" height="3.8167" transform="rotate(-45 86.6407 71.7378)" fill="white" stroke="black"/>
<path d="M88.6488 54.2247L87.6043 47.7588H91.0247L90.1953 54.2247H88.6488Z" fill="white" stroke="black"/>
<path d="M133.631 58.1565C133.631 58.747 133.55 59.1349 133.432 59.3846C133.323 59.6164 133.179 59.7381 132.997 59.8077C132.795 59.8849 132.509 59.9109 132.11 59.8661C131.714 59.8217 131.248 59.7129 130.706 59.5585C130.269 59.4338 129.788 59.2801 129.27 59.1145C127.268 58.474 124.712 57.6565 121.969 57.6565C119.227 57.6565 116.671 58.474 114.668 59.1145C114.15 59.28 113.67 59.4338 113.232 59.5585C112.691 59.7129 112.224 59.8217 111.828 59.8661C111.429 59.9109 111.143 59.8849 110.941 59.8077C110.759 59.7381 110.616 59.6164 110.506 59.3846C110.388 59.1349 110.307 58.747 110.307 58.1565C110.307 55.8393 111.562 53.7028 113.669 52.1283C115.775 50.5537 118.708 49.5649 121.969 49.5649C125.23 49.5649 128.163 50.5537 130.27 52.1283C132.376 53.7028 133.631 55.8393 133.631 58.1565Z" fill="white" stroke="black"/>
<path d="M131.705 60.2007C131.705 61.4366 131.416 61.7636 131.197 61.8635C131.06 61.926 130.853 61.9537 130.533 61.9109C130.216 61.8684 129.836 61.7633 129.386 61.6097C129.027 61.4876 128.631 61.3361 128.202 61.172C126.526 60.5312 124.354 59.7007 122.029 59.7007C119.705 59.7007 117.532 60.5312 115.857 61.172C115.428 61.3361 115.031 61.4876 114.673 61.6097C114.222 61.7633 113.842 61.8684 113.525 61.9109C113.206 61.9537 112.998 61.926 112.861 61.8635C112.643 61.7636 112.354 61.4366 112.354 60.2007C112.354 55.5091 116.631 51.6123 122.029 51.6123C127.427 51.6123 131.705 55.5091 131.705 60.2007Z" fill="white" stroke="black"/>
<rect x="110.307" y="58.3555" width="23.3243" height="27.4185" fill="white" stroke="black"/>
<rect x="112.234" y="60.5229" width="19.471" height="23.0835" fill="white" stroke="black"/>
<line x1="125.191" y1="71.2329" x2="132.084" y2="71.2329" stroke="black"/>
<line x1="121.499" y1="68.4526" x2="121.499" y2="60.0227" stroke="black"/>
<line x1="121.59" y1="83.9863" x2="121.59" y2="74.955" stroke="black"/>
<line x1="111.734" y1="71.3237" x2="118.718" y2="71.3237" stroke="black"/>
<rect x="119.305" y="71.7378" width="3.8167" height="3.8167" transform="rotate(-45 119.305 71.7378)" fill="white" stroke="black"/>
<path d="M121.313 54.2247L120.268 47.7588H123.689L122.859 54.2247H121.313Z" fill="white" stroke="black"/>
<path d="M166.296 58.1565C166.296 58.747 166.214 59.1349 166.096 59.3846C165.987 59.6164 165.843 59.7381 165.661 59.8077C165.459 59.8849 165.174 59.9109 164.774 59.8661C164.378 59.8217 163.912 59.7129 163.37 59.5585C162.933 59.4338 162.452 59.2801 161.934 59.1145C159.932 58.474 157.376 57.6565 154.633 57.6565C151.891 57.6565 149.335 58.474 147.332 59.1145C146.814 59.28 146.334 59.4338 145.896 59.5585C145.355 59.7129 144.888 59.8217 144.493 59.8661C144.093 59.9109 143.807 59.8849 143.606 59.8077C143.424 59.7381 143.28 59.6164 143.17 59.3846C143.053 59.1349 142.971 58.747 142.971 58.1565C142.971 55.8393 144.226 53.7028 146.333 52.1283C148.439 50.5537 151.372 49.5649 154.633 49.5649C157.895 49.5649 160.828 50.5537 162.934 52.1283C165.04 53.7028 166.296 55.8393 166.296 58.1565Z" fill="white" stroke="black"/>
<path d="M164.369 60.2007C164.369 61.4366 164.08 61.7636 163.861 61.8635C163.724 61.926 163.517 61.9537 163.197 61.9109C162.88 61.8684 162.5 61.7633 162.05 61.6097C161.691 61.4876 161.295 61.3361 160.866 61.172C159.19 60.5312 157.018 59.7007 154.693 59.7007C152.369 59.7007 150.197 60.5312 148.521 61.172C148.092 61.3361 147.695 61.4876 147.337 61.6097C146.886 61.7633 146.506 61.8684 146.189 61.9109C145.87 61.9537 145.662 61.926 145.525 61.8635C145.307 61.7636 145.018 61.4366 145.018 60.2007C145.018 55.5091 149.295 51.6123 154.693 51.6123C160.091 51.6123 164.369 55.5091 164.369 60.2007Z" fill="white" stroke="black"/>
<rect x="142.971" y="58.3555" width="23.3243" height="27.4185" fill="white" stroke="black"/>
<rect x="144.898" y="60.5229" width="19.471" height="23.0835" fill="white" stroke="black"/>
<line x1="157.855" y1="71.2329" x2="164.748" y2="71.2329" stroke="black"/>
<line x1="154.163" y1="68.4526" x2="154.163" y2="60.0227" stroke="black"/>
<line x1="154.254" y1="83.9863" x2="154.254" y2="74.955" stroke="black"/>
<line x1="144.398" y1="71.3237" x2="151.382" y2="71.3237" stroke="black"/>
<rect x="151.969" y="71.7378" width="3.8167" height="3.8167" transform="rotate(-45 151.969 71.7378)" fill="white" stroke="black"/>
<path d="M153.977 54.2247L152.932 47.7588H156.353L155.523 54.2247H153.977Z" fill="white" stroke="black"/>
<path d="M35.6388 105.415C35.6388 106.006 35.5574 106.394 35.4395 106.643C35.3301 106.875 35.1864 106.997 35.0044 107.067C34.8025 107.144 34.5168 107.17 34.1174 107.125C33.7216 107.081 33.2551 106.972 32.7137 106.817C32.2763 106.693 31.7955 106.539 31.2777 106.373C29.275 105.733 26.7188 104.915 23.9766 104.915C21.2344 104.915 18.6782 105.733 16.6755 106.373C16.1577 106.539 15.677 106.693 15.2395 106.817C14.6981 106.972 14.2317 107.081 13.8358 107.125C13.4364 107.17 13.1507 107.144 12.9488 107.067C12.7668 106.997 12.6231 106.875 12.5137 106.643C12.3958 106.394 12.3145 106.006 12.3145 105.415C12.3145 103.098 13.5697 100.962 15.676 99.387C17.7824 97.8125 20.7155 96.8237 23.9766 96.8237C27.2378 96.8237 30.1708 97.8125 32.2772 99.387C34.3835 100.962 35.6388 103.098 35.6388 105.415Z" fill="white" stroke="black"/>
<path d="M33.7119 107.459C33.7119 108.695 33.423 109.022 33.2044 109.122C33.0676 109.185 32.8599 109.213 32.5405 109.17C32.2235 109.127 31.8436 109.022 31.3929 108.868C31.0347 108.746 30.6382 108.595 30.2092 108.431C28.5334 107.79 26.3613 106.959 24.0366 106.959C21.712 106.959 19.5398 107.79 17.864 108.431C17.435 108.595 17.0385 108.746 16.6803 108.868C16.2296 109.022 15.8497 109.127 15.5327 109.17C15.2133 109.213 15.0056 109.185 14.8688 109.122C14.6502 109.022 14.3613 108.695 14.3613 107.459C14.3613 102.768 18.6385 98.8711 24.0366 98.8711C29.4347 98.8711 33.7119 102.768 33.7119 107.459Z" fill="white" stroke="black"/>
<rect x="12.3145" y="105.614" width="23.3243" height="27.4185" fill="white" stroke="black"/>
<rect x="14.2412" y="107.782" width="19.471" height="23.0835" fill="white" stroke="black"/>
<line x1="27.1982" y1="118.492" x2="34.0917" y2="118.492" stroke="black"/>
<line x1="23.5063" y1="115.711" x2="23.5063" y2="107.282" stroke="black"/>
<line x1="23.5972" y1="131.245" x2="23.5972" y2="122.214" stroke="black"/>
<line x1="13.7412" y1="118.583" x2="20.7254" y2="118.583" stroke="black"/>
<rect x="21.3121" y="118.997" width="3.8167" height="3.8167" transform="rotate(-45 21.3121 118.997)" fill="white" stroke="black"/>
<path d="M23.3202 101.483L22.2757 95.0176H25.6961L24.8666 101.483H23.3202Z" fill="white" stroke="black"/>
<path d="M68.3028 105.415C68.3028 106.006 68.2215 106.394 68.1036 106.643C67.9942 106.875 67.8505 106.997 67.6685 107.067C67.4665 107.144 67.1808 107.17 66.7815 107.125C66.3856 107.081 65.9192 106.972 65.3777 106.817C64.9403 106.693 64.4596 106.539 63.9418 106.373C61.9391 105.733 59.3829 104.915 56.6407 104.915C53.8984 104.915 51.3422 105.733 49.3395 106.373C48.8218 106.539 48.341 106.693 47.9036 106.817C47.3622 106.972 46.8957 107.081 46.4999 107.125C46.1005 107.17 45.8148 107.144 45.6129 107.067C45.4309 106.997 45.2872 106.875 45.1778 106.643C45.0599 106.394 44.9785 106.006 44.9785 105.415C44.9785 103.098 46.2338 100.962 48.3401 99.387C50.4465 97.8125 53.3795 96.8237 56.6407 96.8237C59.9018 96.8237 62.8349 97.8125 64.9413 99.387C67.0475 100.962 68.3028 103.098 68.3028 105.415Z" fill="white" stroke="black"/>
<path d="M66.3759 107.459C66.3759 108.695 66.0871 109.022 65.8685 109.122C65.7316 109.185 65.5239 109.213 65.2046 109.17C64.8876 109.127 64.5077 109.022 64.0569 108.868C63.6988 108.746 63.3023 108.595 62.8733 108.431C61.1974 107.79 59.0253 106.959 56.7007 106.959C54.376 106.959 52.2039 107.79 50.528 108.431C50.099 108.595 49.7026 108.746 49.3444 108.868C48.8937 109.022 48.5138 109.127 48.1967 109.17C47.8774 109.213 47.6697 109.185 47.5328 109.122C47.3143 109.022 47.0254 108.695 47.0254 107.459C47.0254 102.768 51.3026 98.8711 56.7007 98.8711C62.0988 98.8711 66.3759 102.768 66.3759 107.459Z" fill="white" stroke="black"/>
<rect x="44.9785" y="105.614" width="23.3243" height="27.4185" fill="white" stroke="black"/>
<rect x="46.9053" y="107.782" width="19.471" height="23.0835" fill="white" stroke="black"/>
<line x1="59.8623" y1="118.492" x2="66.7557" y2="118.492" stroke="black"/>
<line x1="56.1704" y1="115.711" x2="56.1704" y2="107.282" stroke="black"/>
<line x1="56.2612" y1="131.245" x2="56.2612" y2="122.214" stroke="black"/>
<line x1="46.4053" y1="118.583" x2="53.3895" y2="118.583" stroke="black"/>
<rect x="53.9761" y="118.997" width="3.8167" height="3.8167" transform="rotate(-45 53.9761 118.997)" fill="white" stroke="black"/>
<path d="M55.9843 101.483L54.9398 95.0176H58.3602L57.5307 101.483H55.9843Z" fill="white" stroke="black"/>
<path d="M100.967 105.415C100.967 106.006 100.886 106.394 100.768 106.643C100.659 106.875 100.515 106.997 100.333 107.067C100.131 107.144 99.8454 107.17 99.446 107.125C99.0502 107.081 98.5838 106.972 98.0423 106.817C97.6049 106.693 97.1241 106.539 96.6064 106.373C94.6037 105.733 92.0475 104.915 89.3052 104.915C86.563 104.915 84.0068 105.733 82.0041 106.373C81.4863 106.539 81.0056 106.693 80.5682 106.817C80.0267 106.972 79.5603 107.081 79.1644 107.125C78.7651 107.17 78.4794 107.144 78.2774 107.067C78.0954 106.997 77.9517 106.875 77.8423 106.643C77.7244 106.394 77.6431 106.006 77.6431 105.415C77.6431 103.098 78.8984 100.962 81.0046 99.387C83.111 97.8125 86.0441 96.8237 89.3052 96.8237C92.5664 96.8237 95.4994 97.8125 97.6058 99.387C99.7121 100.962 100.967 103.098 100.967 105.415Z" fill="white" stroke="black"/>
<path d="M99.0405 107.459C99.0405 108.695 98.7516 109.022 98.5331 109.122C98.3962 109.185 98.1885 109.213 97.8691 109.17C97.5521 109.127 97.1722 109.022 96.7215 108.868C96.3633 108.746 95.9668 108.595 95.5379 108.431C93.862 107.79 91.6899 106.959 89.3652 106.959C87.0406 106.959 84.8684 107.79 83.1926 108.431C82.7636 108.595 82.3671 108.746 82.0089 108.868C81.5582 109.022 81.1783 109.127 80.8613 109.17C80.5419 109.213 80.3343 109.185 80.1974 109.122C79.9788 109.022 79.6899 108.695 79.6899 107.459C79.6899 102.768 83.9671 98.8711 89.3652 98.8711C94.7633 98.8711 99.0405 102.768 99.0405 107.459Z" fill="white" stroke="black"/>
<rect x="77.6431" y="105.614" width="23.3243" height="27.4185" fill="white" stroke="black"/>
<rect x="79.5698" y="107.782" width="19.471" height="23.0835" fill="white" stroke="black"/>
<line x1="92.5269" y1="118.492" x2="99.4203" y2="118.492" stroke="black"/>
<line x1="88.835" y1="115.711" x2="88.835" y2="107.282" stroke="black"/>
<line x1="88.9258" y1="131.245" x2="88.9258" y2="122.214" stroke="black"/>
<line x1="79.0698" y1="118.583" x2="86.054" y2="118.583" stroke="black"/>
<rect x="86.6407" y="118.997" width="3.8167" height="3.8167" transform="rotate(-45 86.6407 118.997)" fill="white" stroke="black"/>
<path d="M88.6488 101.483L87.6043 95.0176H91.0247L90.1953 101.483H88.6488Z" fill="white" stroke="black"/>
<path d="M133.631 105.415C133.631 106.006 133.55 106.394 133.432 106.643C133.323 106.875 133.179 106.997 132.997 107.067C132.795 107.144 132.509 107.17 132.11 107.125C131.714 107.081 131.248 106.972 130.706 106.817C130.269 106.693 129.788 106.539 129.27 106.373C127.268 105.733 124.712 104.915 121.969 104.915C119.227 104.915 116.671 105.733 114.668 106.373C114.15 106.539 113.67 106.693 113.232 106.817C112.691 106.972 112.224 107.081 111.828 107.125C111.429 107.17 111.143 107.144 110.941 107.067C110.759 106.997 110.616 106.875 110.506 106.643C110.388 106.394 110.307 106.006 110.307 105.415C110.307 103.098 111.562 100.962 113.669 99.387C115.775 97.8125 118.708 96.8237 121.969 96.8237C125.23 96.8237 128.163 97.8125 130.27 99.387C132.376 100.962 133.631 103.098 133.631 105.415Z" fill="white" stroke="black"/>
<path d="M131.705 107.459C131.705 108.695 131.416 109.022 131.197 109.122C131.06 109.185 130.853 109.213 130.533 109.17C130.216 109.127 129.836 109.022 129.386 108.868C129.027 108.746 128.631 108.595 128.202 108.431C126.526 107.79 124.354 106.959 122.029 106.959C119.705 106.959 117.532 107.79 115.857 108.431C115.428 108.595 115.031 108.746 114.673 108.868C114.222 109.022 113.842 109.127 113.525 109.17C113.206 109.213 112.998 109.185 112.861 109.122C112.643 109.022 112.354 108.695 112.354 107.459C112.354 102.768 116.631 98.8711 122.029 98.8711C127.427 98.8711 131.705 102.768 131.705 107.459Z" fill="white" stroke="black"/>
<rect x="110.307" y="105.614" width="23.3243" height="27.4185" fill="white" stroke="black"/>
<rect x="112.234" y="107.782" width="19.471" height="23.0835" fill="white" stroke="black"/>
<line x1="125.191" y1="118.492" x2="132.084" y2="118.492" stroke="black"/>
<line x1="121.499" y1="115.711" x2="121.499" y2="107.282" stroke="black"/>
<line x1="121.59" y1="131.245" x2="121.59" y2="122.214" stroke="black"/>
<line x1="111.734" y1="118.583" x2="118.718" y2="118.583" stroke="black"/>
<rect x="119.305" y="118.997" width="3.8167" height="3.8167" transform="rotate(-45 119.305 118.997)" fill="white" stroke="black"/>
<path d="M121.313 101.483L120.268 95.0176H123.689L122.859 101.483H121.313Z" fill="white" stroke="black"/>
<path d="M166.296 105.415C166.296 106.006 166.214 106.394 166.096 106.643C165.987 106.875 165.843 106.997 165.661 107.067C165.459 107.144 165.174 107.17 164.774 107.125C164.378 107.081 163.912 106.972 163.37 106.817C162.933 106.693 162.452 106.539 161.934 106.373C159.932 105.733 157.376 104.915 154.633 104.915C151.891 104.915 149.335 105.733 147.332 106.373C146.814 106.539 146.334 106.693 145.896 106.817C145.355 106.972 144.888 107.081 144.493 107.125C144.093 107.17 143.807 107.144 143.606 107.067C143.424 106.997 143.28 106.875 143.17 106.643C143.053 106.394 142.971 106.006 142.971 105.415C142.971 103.098 144.226 100.962 146.333 99.387C148.439 97.8125 151.372 96.8237 154.633 96.8237C157.895 96.8237 160.828 97.8125 162.934 99.387C165.04 100.962 166.296 103.098 166.296 105.415Z" fill="white" stroke="black"/>
<path d="M164.369 107.459C164.369 108.695 164.08 109.022 163.861 109.122C163.724 109.185 163.517 109.213 163.197 109.17C162.88 109.127 162.5 109.022 162.05 108.868C161.691 108.746 161.295 108.595 160.866 108.431C159.19 107.79 157.018 106.959 154.693 106.959C152.369 106.959 150.197 107.79 148.521 108.431C148.092 108.595 147.695 108.746 147.337 108.868C146.886 109.022 146.506 109.127 146.189 109.17C145.87 109.213 145.662 109.185 145.525 109.122C145.307 109.022 145.018 108.695 145.018 107.459C145.018 102.768 149.295 98.8711 154.693 98.8711C160.091 98.8711 164.369 102.768 164.369 107.459Z" fill="white" stroke="black"/>
<rect x="142.971" y="105.614" width="23.3243" height="27.4185" fill="white" stroke="black"/>
<rect x="144.898" y="107.782" width="19.471" height="23.0835" fill="white" stroke="black"/>
<line x1="157.855" y1="118.492" x2="164.748" y2="118.492" stroke="black"/>
<line x1="154.163" y1="115.711" x2="154.163" y2="107.282" stroke="black"/>
<line x1="154.254" y1="131.245" x2="154.254" y2="122.214" stroke="black"/>
<line x1="144.398" y1="118.583" x2="151.382" y2="118.583" stroke="black"/>
<rect x="151.969" y="118.997" width="3.8167" height="3.8167" transform="rotate(-45 151.969 118.997)" fill="white" stroke="black"/>
<path d="M153.977 101.483L152.932 95.0176H156.353L155.523 101.483H153.977Z" fill="white" stroke="black"/>
<path d="M35.6388 152.674C35.6388 153.264 35.5574 153.652 35.4395 153.902C35.3301 154.133 35.1864 154.255 35.0044 154.325C34.8025 154.402 34.5168 154.428 34.1174 154.383C33.7216 154.339 33.2551 154.23 32.7137 154.076C32.2763 153.951 31.7955 153.797 31.2777 153.632C29.275 152.991 26.7188 152.174 23.9766 152.174C21.2344 152.174 18.6782 152.991 16.6755 153.632C16.1577 153.797 15.677 153.951 15.2395 154.076C14.6981 154.23 14.2317 154.339 13.8358 154.383C13.4364 154.428 13.1507 154.402 12.9488 154.325C12.7668 154.255 12.6231 154.133 12.5137 153.902C12.3958 153.652 12.3145 153.264 12.3145 152.674C12.3145 150.356 13.5697 148.22 15.676 146.645C17.7824 145.071 20.7155 144.082 23.9766 144.082C27.2378 144.082 30.1708 145.071 32.2772 146.645C34.3835 148.22 35.6388 150.356 35.6388 152.674Z" fill="white" stroke="black"/>
<path d="M33.7119 154.718C33.7119 155.954 33.423 156.281 33.2044 156.381C33.0676 156.443 32.8599 156.471 32.5405 156.428C32.2235 156.386 31.8436 156.28 31.3929 156.127C31.0347 156.005 30.6382 155.853 30.2092 155.689C28.5334 155.048 26.3613 154.218 24.0366 154.218C21.712 154.218 19.5398 155.048 17.864 155.689C17.435 155.853 17.0385 156.005 16.6803 156.127C16.2296 156.28 15.8497 156.386 15.5327 156.428C15.2133 156.471 15.0056 156.443 14.8688 156.381C14.6502 156.281 14.3613 155.954 14.3613 154.718C14.3613 150.026 18.6385 146.129 24.0366 146.129C29.4347 146.129 33.7119 150.026 33.7119 154.718Z" fill="white" stroke="black"/>
<rect x="12.3145" y="152.873" width="23.3243" height="27.4185" fill="white" stroke="black"/>
<rect x="14.2412" y="155.04" width="19.471" height="23.0835" fill="white" stroke="black"/>
<line x1="27.1982" y1="165.75" x2="34.0917" y2="165.75" stroke="black"/>
<line x1="23.5063" y1="162.97" x2="23.5063" y2="154.54" stroke="black"/>
<line x1="23.5972" y1="178.503" x2="23.5972" y2="169.472" stroke="black"/>
<line x1="13.7412" y1="165.841" x2="20.7254" y2="165.841" stroke="black"/>
<rect x="21.3121" y="166.255" width="3.8167" height="3.8167" transform="rotate(-45 21.3121 166.255)" fill="white" stroke="black"/>
<path d="M23.3202 148.742L22.2757 142.276H25.6961L24.8666 148.742H23.3202Z" fill="white" stroke="black"/>
<path d="M68.3028 152.674C68.3028 153.264 68.2215 153.652 68.1036 153.902C67.9942 154.133 67.8505 154.255 67.6685 154.325C67.4665 154.402 67.1808 154.428 66.7815 154.383C66.3856 154.339 65.9192 154.23 65.3777 154.076C64.9403 153.951 64.4596 153.797 63.9418 153.632C61.9391 152.991 59.3829 152.174 56.6407 152.174C53.8984 152.174 51.3422 152.991 49.3395 153.632C48.8218 153.797 48.341 153.951 47.9036 154.076C47.3622 154.23 46.8957 154.339 46.4999 154.383C46.1005 154.428 45.8148 154.402 45.6129 154.325C45.4309 154.255 45.2872 154.133 45.1778 153.902C45.0599 153.652 44.9785 153.264 44.9785 152.674C44.9785 150.356 46.2338 148.22 48.3401 146.645C50.4465 145.071 53.3795 144.082 56.6407 144.082C59.9018 144.082 62.8349 145.071 64.9413 146.645C67.0475 148.22 68.3028 150.356 68.3028 152.674Z" fill="white" stroke="black"/>
<path d="M66.3759 154.718C66.3759 155.954 66.0871 156.281 65.8685 156.381C65.7316 156.443 65.5239 156.471 65.2046 156.428C64.8876 156.386 64.5077 156.28 64.0569 156.127C63.6988 156.005 63.3023 155.853 62.8733 155.689C61.1974 155.048 59.0253 154.218 56.7007 154.218C54.376 154.218 52.2039 155.048 50.528 155.689C50.099 155.853 49.7026 156.005 49.3444 156.127C48.8937 156.28 48.5138 156.386 48.1967 156.428C47.8774 156.471 47.6697 156.443 47.5328 156.381C47.3143 156.281 47.0254 155.954 47.0254 154.718C47.0254 150.026 51.3026 146.129 56.7007 146.129C62.0988 146.129 66.3759 150.026 66.3759 154.718Z" fill="white" stroke="black"/>
<rect x="44.9785" y="152.873" width="23.3243" height="27.4185" fill="white" stroke="black"/>
<rect x="46.9053" y="155.04" width="19.471" height="23.0835" fill="white" stroke="black"/>
<line x1="59.8623" y1="165.75" x2="66.7557" y2="165.75" stroke="black"/>
<line x1="56.1704" y1="162.97" x2="56.1704" y2="154.54" stroke="black"/>
<line x1="56.2612" y1="178.503" x2="56.2612" y2="169.472" stroke="black"/>
<line x1="46.4053" y1="165.841" x2="53.3895" y2="165.841" stroke="black"/>
<rect x="53.9761" y="166.255" width="3.8167" height="3.8167" transform="rotate(-45 53.9761 166.255)" fill="white" stroke="black"/>
<path d="M55.9843 148.742L54.9398 142.276H58.3602L57.5307 148.742H55.9843Z" fill="white" stroke="black"/>
<path d="M100.967 152.674C100.967 153.264 100.886 153.652 100.768 153.902C100.659 154.133 100.515 154.255 100.333 154.325C100.131 154.402 99.8454 154.428 99.446 154.383C99.0502 154.339 98.5838 154.23 98.0423 154.076C97.6049 153.951 97.1241 153.797 96.6064 153.632C94.6037 152.991 92.0475 152.174 89.3052 152.174C86.563 152.174 84.0068 152.991 82.0041 153.632C81.4863 153.797 81.0056 153.951 80.5682 154.076C80.0267 154.23 79.5603 154.339 79.1644 154.383C78.7651 154.428 78.4794 154.402 78.2774 154.325C78.0954 154.255 77.9517 154.133 77.8423 153.902C77.7244 153.652 77.6431 153.264 77.6431 152.674C77.6431 150.356 78.8984 148.22 81.0046 146.645C83.111 145.071 86.0441 144.082 89.3052 144.082C92.5664 144.082 95.4994 145.071 97.6058 146.645C99.7121 148.22 100.967 150.356 100.967 152.674Z" fill="white" stroke="black"/>
<path d="M99.0405 154.718C99.0405 155.954 98.7516 156.281 98.5331 156.381C98.3962 156.443 98.1885 156.471 97.8691 156.428C97.5521 156.386 97.1722 156.28 96.7215 156.127C96.3633 156.005 95.9668 155.853 95.5379 155.689C93.862 155.048 91.6899 154.218 89.3652 154.218C87.0406 154.218 84.8684 155.048 83.1926 155.689C82.7636 155.853 82.3671 156.005 82.0089 156.127C81.5582 156.28 81.1783 156.386 80.8613 156.428C80.5419 156.471 80.3343 156.443 80.1974 156.381C79.9788 156.281 79.6899 155.954 79.6899 154.718C79.6899 150.026 83.9671 146.129 89.3652 146.129C94.7633 146.129 99.0405 150.026 99.0405 154.718Z" fill="white" stroke="black"/>
<rect x="77.6431" y="152.873" width="23.3243" height="27.4185" fill="white" stroke="black"/>
<rect x="79.5698" y="155.04" width="19.471" height="23.0835" fill="white" stroke="black"/>
<line x1="92.5269" y1="165.75" x2="99.4203" y2="165.75" stroke="black"/>
<line x1="88.835" y1="162.97" x2="88.835" y2="154.54" stroke="black"/>
<line x1="88.9258" y1="178.503" x2="88.9258" y2="169.472" stroke="black"/>
<line x1="79.0698" y1="165.841" x2="86.054" y2="165.841" stroke="black"/>
<rect x="86.6407" y="166.255" width="3.8167" height="3.8167" transform="rotate(-45 86.6407 166.255)" fill="white" stroke="black"/>
<path d="M88.6488 148.742L87.6043 142.276H91.0247L90.1953 148.742H88.6488Z" fill="white" stroke="black"/>
<path d="M133.631 152.674C133.631 153.264 133.55 153.652 133.432 153.902C133.323 154.133 133.179 154.255 132.997 154.325C132.795 154.402 132.509 154.428 132.11 154.383C131.714 154.339 131.248 154.23 130.706 154.076C130.269 153.951 129.788 153.797 129.27 153.632C127.268 152.991 124.712 152.174 121.969 152.174C119.227 152.174 116.671 152.991 114.668 153.632C114.15 153.797 113.67 153.951 113.232 154.076C112.691 154.23 112.224 154.339 111.828 154.383C111.429 154.428 111.143 154.402 110.941 154.325C110.759 154.255 110.616 154.133 110.506 153.902C110.388 153.652 110.307 153.264 110.307 152.674C110.307 150.356 111.562 148.22 113.669 146.645C115.775 145.071 118.708 144.082 121.969 144.082C125.23 144.082 128.163 145.071 130.27 146.645C132.376 148.22 133.631 150.356 133.631 152.674Z" fill="white" stroke="black"/>
<path d="M131.705 154.718C131.705 155.954 131.416 156.281 131.197 156.381C131.06 156.443 130.853 156.471 130.533 156.428C130.216 156.386 129.836 156.28 129.386 156.127C129.027 156.005 128.631 155.853 128.202 155.689C126.526 155.048 124.354 154.218 122.029 154.218C119.705 154.218 117.532 155.048 115.857 155.689C115.428 155.853 115.031 156.005 114.673 156.127C114.222 156.28 113.842 156.386 113.525 156.428C113.206 156.471 112.998 156.443 112.861 156.381C112.643 156.281 112.354 155.954 112.354 154.718C112.354 150.026 116.631 146.129 122.029 146.129C127.427 146.129 131.705 150.026 131.705 154.718Z" fill="white" stroke="black"/>
<rect x="110.307" y="152.873" width="23.3243" height="27.4185" fill="white" stroke="black"/>
<rect x="112.234" y="155.04" width="19.471" height="23.0835" fill="white" stroke="black"/>
<line x1="125.191" y1="165.75" x2="132.084" y2="165.75" stroke="black"/>
<line x1="121.499" y1="162.97" x2="121.499" y2="154.54" stroke="black"/>
<line x1="121.59" y1="178.503" x2="121.59" y2="169.472" stroke="black"/>
<line x1="111.734" y1="165.841" x2="118.718" y2="165.841" stroke="black"/>
<rect x="119.305" y="166.255" width="3.8167" height="3.8167" transform="rotate(-45 119.305 166.255)" fill="white" stroke="black"/>
<path d="M121.313 148.742L120.268 142.276H123.689L122.859 148.742H121.313Z" fill="white" stroke="black"/>
<path d="M166.296 152.674C166.296 153.264 166.214 153.652 166.096 153.902C165.987 154.133 165.843 154.255 165.661 154.325C165.459 154.402 165.174 154.428 164.774 154.383C164.378 154.339 163.912 154.23 163.37 154.076C162.933 153.951 162.452 153.797 161.934 153.632C159.932 152.991 157.376 152.174 154.633 152.174C151.891 152.174 149.335 152.991 147.332 153.632C146.814 153.797 146.334 153.951 145.896 154.076C145.355 154.23 144.888 154.339 144.493 154.383C144.093 154.428 143.807 154.402 143.606 154.325C143.424 154.255 143.28 154.133 143.17 153.902C143.053 153.652 142.971 153.264 142.971 152.674C142.971 150.356 144.226 148.22 146.333 146.645C148.439 145.071 151.372 144.082 154.633 144.082C157.895 144.082 160.828 145.071 162.934 146.645C165.04 148.22 166.296 150.356 166.296 152.674Z" fill="white" stroke="black"/>
<path d="M164.369 154.718C164.369 155.954 164.08 156.281 163.861 156.381C163.724 156.443 163.517 156.471 163.197 156.428C162.88 156.386 162.5 156.28 162.05 156.127C161.691 156.005 161.295 155.853 160.866 155.689C159.19 155.048 157.018 154.218 154.693 154.218C152.369 154.218 150.197 155.048 148.521 155.689C148.092 155.853 147.695 156.005 147.337 156.127C146.886 156.28 146.506 156.386 146.189 156.428C145.87 156.471 145.662 156.443 145.525 156.381C145.307 156.281 145.018 155.954 145.018 154.718C145.018 150.026 149.295 146.129 154.693 146.129C160.091 146.129 164.369 150.026 164.369 154.718Z" fill="white" stroke="black"/>
<rect x="142.971" y="152.873" width="23.3243" height="27.4185" fill="white" stroke="black"/>
<rect x="144.898" y="155.04" width="19.471" height="23.0835" fill="white" stroke="black"/>
<line x1="157.855" y1="165.75" x2="164.748" y2="165.75" stroke="black"/>
<line x1="154.163" y1="162.97" x2="154.163" y2="154.54" stroke="black"/>
<line x1="154.254" y1="178.503" x2="154.254" y2="169.472" stroke="black"/>
<line x1="144.398" y1="165.841" x2="151.382" y2="165.841" stroke="black"/>
<rect x="151.969" y="166.255" width="3.8167" height="3.8167" transform="rotate(-45 151.969 166.255)" fill="white" stroke="black"/>
<path d="M153.977 148.742L152.932 142.276H156.353L155.523 148.742H153.977Z" fill="white" stroke="black"/>
<path d="M35.6388 199.932C35.6388 200.523 35.5574 200.911 35.4395 201.161C35.3301 201.392 35.1864 201.514 35.0044 201.584C34.8025 201.661 34.5168 201.687 34.1174 201.642C33.7216 201.598 33.2551 201.489 32.7137 201.334C32.2763 201.21 31.7955 201.056 31.2777 200.89C29.275 200.25 26.7188 199.432 23.9766 199.432C21.2344 199.432 18.6782 200.25 16.6755 200.89C16.1577 201.056 15.677 201.21 15.2395 201.334C14.6981 201.489 14.2317 201.598 13.8358 201.642C13.4364 201.687 13.1507 201.661 12.9488 201.584C12.7668 201.514 12.6231 201.392 12.5137 201.161C12.3958 200.911 12.3145 200.523 12.3145 199.932C12.3145 197.615 13.5697 195.479 15.676 193.904C17.7824 192.33 20.7155 191.341 23.9766 191.341C27.2378 191.341 30.1708 192.33 32.2772 193.904C34.3835 195.479 35.6388 197.615 35.6388 199.932Z" fill="white" stroke="black"/>
<path d="M33.7119 201.977C33.7119 203.213 33.423 203.539 33.2044 203.639C33.0676 203.702 32.8599 203.73 32.5405 203.687C32.2235 203.644 31.8436 203.539 31.3929 203.386C31.0347 203.264 30.6382 203.112 30.2092 202.948C28.5334 202.307 26.3613 201.477 24.0366 201.477C21.712 201.477 19.5398 202.307 17.864 202.948C17.435 203.112 17.0385 203.264 16.6803 203.386C16.2296 203.539 15.8497 203.644 15.5327 203.687C15.2133 203.73 15.0056 203.702 14.8688 203.639C14.6502 203.539 14.3613 203.213 14.3613 201.977C14.3613 197.285 18.6385 193.388 24.0366 193.388C29.4347 193.388 33.7119 197.285 33.7119 201.977Z" fill="white" stroke="black"/>
<rect x="12.3145" y="200.131" width="23.3243" height="27.4185" fill="white" stroke="black"/>
<rect x="14.2412" y="202.299" width="19.471" height="23.0835" fill="white" stroke="black"/>
<line x1="27.1982" y1="213.009" x2="34.0917" y2="213.009" stroke="black"/>
<line x1="23.5063" y1="210.229" x2="23.5063" y2="201.799" stroke="black"/>
<line x1="23.5972" y1="225.762" x2="23.5972" y2="216.731" stroke="black"/>
<line x1="13.7412" y1="213.1" x2="20.7254" y2="213.1" stroke="black"/>
<rect x="21.3121" y="213.514" width="3.8167" height="3.8167" transform="rotate(-45 21.3121 213.514)" fill="white" stroke="black"/>
<path d="M23.3202 196.001L22.2757 189.535H25.6961L24.8666 196.001H23.3202Z" fill="white" stroke="black"/>
<path d="M68.3028 199.932C68.3028 200.523 68.2215 200.911 68.1036 201.161C67.9942 201.392 67.8505 201.514 67.6685 201.584C67.4665 201.661 67.1808 201.687 66.7815 201.642C66.3856 201.598 65.9192 201.489 65.3777 201.334C64.9403 201.21 64.4596 201.056 63.9418 200.89C61.9391 200.25 59.3829 199.432 56.6407 199.432C53.8984 199.432 51.3422 200.25 49.3395 200.89C48.8218 201.056 48.341 201.21 47.9036 201.334C47.3622 201.489 46.8957 201.598 46.4999 201.642C46.1005 201.687 45.8148 201.661 45.6129 201.584C45.4309 201.514 45.2872 201.392 45.1778 201.161C45.0599 200.911 44.9785 200.523 44.9785 199.932C44.9785 197.615 46.2338 195.479 48.3401 193.904C50.4465 192.33 53.3795 191.341 56.6407 191.341C59.9018 191.341 62.8349 192.33 64.9413 193.904C67.0475 195.479 68.3028 197.615 68.3028 199.932Z" fill="white" stroke="black"/>
<path d="M66.3759 201.977C66.3759 203.213 66.0871 203.539 65.8685 203.639C65.7316 203.702 65.5239 203.73 65.2046 203.687C64.8876 203.644 64.5077 203.539 64.0569 203.386C63.6988 203.264 63.3023 203.112 62.8733 202.948C61.1974 202.307 59.0253 201.477 56.7007 201.477C54.376 201.477 52.2039 202.307 50.528 202.948C50.099 203.112 49.7026 203.264 49.3444 203.386C48.8937 203.539 48.5138 203.644 48.1967 203.687C47.8774 203.73 47.6697 203.702 47.5328 203.639C47.3143 203.539 47.0254 203.213 47.0254 201.977C47.0254 197.285 51.3026 193.388 56.7007 193.388C62.0988 193.388 66.3759 197.285 66.3759 201.977Z" fill="white" stroke="black"/>
<rect x="44.9785" y="200.131" width="23.3243" height="27.4185" fill="white" stroke="black"/>
<rect x="46.9053" y="202.299" width="19.471" height="23.0835" fill="white" stroke="black"/>
<line x1="59.8623" y1="213.009" x2="66.7557" y2="213.009" stroke="black"/>
<line x1="56.1704" y1="210.229" x2="56.1704" y2="201.799" stroke="black"/>
<line x1="56.2612" y1="225.762" x2="56.2612" y2="216.731" stroke="black"/>
<line x1="46.4053" y1="213.1" x2="53.3895" y2="213.1" stroke="black"/>
<rect x="53.9761" y="213.514" width="3.8167" height="3.8167" transform="rotate(-45 53.9761 213.514)" fill="white" stroke="black"/>
<path d="M55.9843 196.001L54.9398 189.535H58.3602L57.5307 196.001H55.9843Z" fill="white" stroke="black"/>
<path d="M133.631 199.932C133.631 200.523 133.55 200.911 133.432 201.161C133.323 201.392 133.179 201.514 132.997 201.584C132.795 201.661 132.509 201.687 132.11 201.642C131.714 201.598 131.248 201.489 130.706 201.334C130.269 201.21 129.788 201.056 129.27 200.89C127.268 200.25 124.712 199.432 121.969 199.432C119.227 199.432 116.671 200.25 114.668 200.89C114.15 201.056 113.67 201.21 113.232 201.334C112.691 201.489 112.224 201.598 111.828 201.642C111.429 201.687 111.143 201.661 110.941 201.584C110.759 201.514 110.616 201.392 110.506 201.161C110.388 200.911 110.307 200.523 110.307 199.932C110.307 197.615 111.562 195.479 113.669 193.904C115.775 192.33 118.708 191.341 121.969 191.341C125.23 191.341 128.163 192.33 130.27 193.904C132.376 195.479 133.631 197.615 133.631 199.932Z" fill="white" stroke="black"/>
<path d="M131.705 201.977C131.705 203.213 131.416 203.539 131.197 203.639C131.06 203.702 130.853 203.73 130.533 203.687C130.216 203.644 129.836 203.539 129.386 203.386C129.027 203.264 128.631 203.112 128.202 202.948C126.526 202.307 124.354 201.477 122.029 201.477C119.705 201.477 117.532 202.307 115.857 202.948C115.428 203.112 115.031 203.264 114.673 203.386C114.222 203.539 113.842 203.644 113.525 203.687C113.206 203.73 112.998 203.702 112.861 203.639C112.643 203.539 112.354 203.213 112.354 201.977C112.354 197.285 116.631 193.388 122.029 193.388C127.427 193.388 131.705 197.285 131.705 201.977Z" fill="white" stroke="black"/>
<rect x="110.307" y="200.131" width="23.3243" height="27.4185" fill="white" stroke="black"/>
<rect x="112.234" y="202.299" width="19.471" height="23.0835" fill="white" stroke="black"/>
<line x1="125.191" y1="213.009" x2="132.084" y2="213.009" stroke="black"/>
<line x1="121.499" y1="210.229" x2="121.499" y2="201.799" stroke="black"/>
<line x1="121.59" y1="225.762" x2="121.59" y2="216.731" stroke="black"/>
<line x1="111.734" y1="213.1" x2="118.718" y2="213.1" stroke="black"/>
<rect x="119.305" y="213.514" width="3.8167" height="3.8167" transform="rotate(-45 119.305 213.514)" fill="white" stroke="black"/>
<path d="M121.313 196.001L120.268 189.535H123.689L122.859 196.001H121.313Z" fill="white" stroke="black"/>
<path d="M166.296 199.932C166.296 200.523 166.214 200.911 166.096 201.161C165.987 201.392 165.843 201.514 165.661 201.584C165.459 201.661 165.174 201.687 164.774 201.642C164.378 201.598 163.912 201.489 163.37 201.334C162.933 201.21 162.452 201.056 161.934 200.89C159.932 200.25 157.376 199.432 154.633 199.432C151.891 199.432 149.335 200.25 147.332 200.89C146.814 201.056 146.334 201.21 145.896 201.334C145.355 201.489 144.888 201.598 144.493 201.642C144.093 201.687 143.807 201.661 143.606 201.584C143.424 201.514 143.28 201.392 143.17 201.161C143.053 200.911 142.971 200.523 142.971 199.932C142.971 197.615 144.226 195.479 146.333 193.904C148.439 192.33 151.372 191.341 154.633 191.341C157.895 191.341 160.828 192.33 162.934 193.904C165.04 195.479 166.296 197.615 166.296 199.932Z" fill="white" stroke="black"/>
<path d="M164.369 201.977C164.369 203.213 164.08 203.539 163.861 203.639C163.724 203.702 163.517 203.73 163.197 203.687C162.88 203.644 162.5 203.539 162.05 203.386C161.691 203.264 161.295 203.112 160.866 202.948C159.19 202.307 157.018 201.477 154.693 201.477C152.369 201.477 150.197 202.307 148.521 202.948C148.092 203.112 147.695 203.264 147.337 203.386C146.886 203.539 146.506 203.644 146.189 203.687C145.87 203.73 145.662 203.702 145.525 203.639C145.307 203.539 145.018 203.213 145.018 201.977C145.018 197.285 149.295 193.388 154.693 193.388C160.091 193.388 164.369 197.285 164.369 201.977Z" fill="white" stroke="black"/>
<rect x="142.971" y="200.131" width="23.3243" height="27.4185" fill="white" stroke="black"/>
<rect x="144.898" y="202.299" width="19.471" height="23.0835" fill="white" stroke="black"/>
<line x1="157.855" y1="213.009" x2="164.748" y2="213.009" stroke="black"/>
<line x1="154.163" y1="210.229" x2="154.163" y2="201.799" stroke="black"/>
<line x1="154.254" y1="225.762" x2="154.254" y2="216.731" stroke="black"/>
<line x1="144.398" y1="213.1" x2="151.382" y2="213.1" stroke="black"/>
<rect x="151.969" y="213.514" width="3.8167" height="3.8167" transform="rotate(-45 151.969 213.514)" fill="white" stroke="black"/>
<path d="M153.977 196.001L152.932 189.535H156.353L155.523 196.001H153.977Z" fill="white" stroke="black"/>
<path d="M35.6388 247.191C35.6388 247.782 35.5574 248.17 35.4395 248.419C35.3301 248.651 35.1864 248.773 35.0044 248.842C34.8025 248.92 34.5168 248.946 34.1174 248.901C33.7216 248.856 33.2551 248.748 32.7137 248.593C32.2763 248.468 31.7955 248.315 31.2778 248.149C29.275 247.509 26.7189 246.691 23.9766 246.691C21.2344 246.691 18.6782 247.509 16.6755 248.149C16.1577 248.315 15.677 248.468 15.2395 248.593C14.6981 248.748 14.2317 248.856 13.8358 248.901C13.4364 248.946 13.1507 248.92 12.9488 248.842C12.7668 248.773 12.6231 248.651 12.5137 248.419C12.3958 248.17 12.3145 247.782 12.3145 247.191C12.3145 244.874 13.5697 242.737 15.676 241.163C17.7824 239.588 20.7155 238.6 23.9766 238.6C27.2378 238.6 30.1708 239.588 32.2772 241.163C34.3835 242.737 35.6388 244.874 35.6388 247.191Z" fill="white" stroke="black"/>
<path d="M33.7119 249.235C33.7119 250.471 33.423 250.798 33.2044 250.898C33.0676 250.961 32.8599 250.988 32.5405 250.946C32.2235 250.903 31.8436 250.798 31.3929 250.644C31.0347 250.522 30.6382 250.371 30.2092 250.207C28.5334 249.566 26.3613 248.735 24.0366 248.735C21.712 248.735 19.5398 249.566 17.864 250.207C17.435 250.371 17.0385 250.522 16.6803 250.644C16.2296 250.798 15.8497 250.903 15.5327 250.946C15.2133 250.988 15.0056 250.961 14.8688 250.898C14.6502 250.798 14.3613 250.471 14.3613 249.235C14.3613 244.544 18.6385 240.647 24.0366 240.647C29.4347 240.647 33.7119 244.544 33.7119 249.235Z" fill="white" stroke="black"/>
<rect x="12.3145" y="247.39" width="23.3243" height="27.4185" fill="white" stroke="black"/>
<rect x="14.2412" y="249.558" width="19.471" height="23.0835" fill="white" stroke="black"/>
<line x1="27.1982" y1="260.268" x2="34.0917" y2="260.268" stroke="black"/>
<line x1="23.5063" y1="257.487" x2="23.5063" y2="249.057" stroke="black"/>
<line x1="23.5972" y1="273.021" x2="23.5972" y2="263.99" stroke="black"/>
<line x1="13.7412" y1="260.358" x2="20.7254" y2="260.358" stroke="black"/>
<rect x="21.3121" y="260.772" width="3.8167" height="3.8167" transform="rotate(-45 21.3121 260.772)" fill="white" stroke="black"/>
<path d="M23.3202 243.259L22.2757 236.793H25.6961L24.8666 243.259H23.3202Z" fill="white" stroke="black"/>
<path d="M68.3028 247.191C68.3028 247.782 68.2215 248.17 68.1036 248.419C67.9942 248.651 67.8505 248.773 67.6685 248.842C67.4665 248.92 67.1808 248.946 66.7815 248.901C66.3856 248.856 65.9192 248.748 65.3777 248.593C64.9403 248.468 64.4596 248.315 63.9418 248.149C61.9391 247.509 59.3829 246.691 56.6407 246.691C53.8984 246.691 51.3422 247.509 49.3395 248.149C48.8218 248.315 48.341 248.468 47.9036 248.593C47.3622 248.748 46.8957 248.856 46.4999 248.901C46.1005 248.946 45.8148 248.92 45.6129 248.842C45.4309 248.773 45.2872 248.651 45.1778 248.419C45.0599 248.17 44.9785 247.782 44.9785 247.191C44.9785 244.874 46.2338 242.737 48.3401 241.163C50.4465 239.588 53.3795 238.6 56.6407 238.6C59.9018 238.6 62.8349 239.588 64.9413 241.163C67.0475 242.737 68.3028 244.874 68.3028 247.191Z" fill="white" stroke="black"/>
<path d="M66.3759 249.235C66.3759 250.471 66.0871 250.798 65.8685 250.898C65.7316 250.961 65.5239 250.988 65.2046 250.946C64.8876 250.903 64.5077 250.798 64.0569 250.644C63.6988 250.522 63.3023 250.371 62.8733 250.207C61.1974 249.566 59.0253 248.735 56.7007 248.735C54.376 248.735 52.2039 249.566 50.528 250.207C50.099 250.371 49.7026 250.522 49.3444 250.644C48.8937 250.798 48.5138 250.903 48.1967 250.946C47.8774 250.988 47.6697 250.961 47.5328 250.898C47.3143 250.798 47.0254 250.471 47.0254 249.235C47.0254 244.544 51.3026 240.647 56.7007 240.647C62.0988 240.647 66.3759 244.544 66.3759 249.235Z" fill="white" stroke="black"/>
<rect x="44.9785" y="247.39" width="23.3243" height="27.4185" fill="white" stroke="black"/>
<rect x="46.9053" y="249.558" width="19.471" height="23.0835" fill="white" stroke="black"/>
<line x1="59.8623" y1="260.268" x2="66.7557" y2="260.268" stroke="black"/>
<line x1="56.1704" y1="257.487" x2="56.1704" y2="249.057" stroke="black"/>
<line x1="56.2612" y1="273.021" x2="56.2612" y2="263.99" stroke="black"/>
<line x1="46.4053" y1="260.358" x2="53.3895" y2="260.358" stroke="black"/>
<rect x="53.9761" y="260.772" width="3.8167" height="3.8167" transform="rotate(-45 53.9761 260.772)" fill="white" stroke="black"/>
<path d="M55.9843 243.259L54.9398 236.793H58.3602L57.5307 243.259H55.9843Z" fill="white" stroke="black"/>
<path d="M100.967 231.137C100.967 232.099 100.883 232.782 100.742 233.253C100.601 233.721 100.418 233.931 100.255 234.029C100.089 234.128 99.8496 234.169 99.4769 234.104C99.1017 234.038 98.6492 233.874 98.1092 233.632C97.6592 233.431 97.1731 233.188 96.643 232.922C96.5399 232.871 96.435 232.818 96.3284 232.765C95.6799 232.441 94.9768 232.097 94.2339 231.783C92.7504 231.156 91.0798 230.637 89.3052 230.637C87.5307 230.637 85.8601 231.156 84.3765 231.783C83.6337 232.097 82.9305 232.441 82.282 232.765C82.1754 232.818 82.0706 232.871 81.9674 232.922C81.4374 233.188 80.9513 233.431 80.5012 233.632C79.9613 233.874 79.5087 234.038 79.1336 234.104C78.7608 234.169 78.5215 234.128 78.3559 234.029C78.192 233.931 78.0099 233.721 77.8689 233.253C77.7271 232.782 77.6431 232.099 77.6431 231.137C77.6431 223.465 82.9358 217.386 89.3052 217.386C95.6747 217.386 100.967 223.465 100.967 231.137Z" fill="white" stroke="black"/>
<rect x="77.6431" y="231.165" width="23.3243" height="43.5474" fill="white"/>
<rect x="77.6431" y="231.165" width="23.3243" height="43.5474" stroke="black"/>
<rect x="77.6431" y="231.165" width="23.3243" height="43.5474" stroke="white" stroke-opacity="0.2"/>
<path d="M133.631 247.191C133.631 247.782 133.55 248.17 133.432 248.419C133.323 248.651 133.179 248.773 132.997 248.842C132.795 248.92 132.509 248.946 132.11 248.901C131.714 248.856 131.248 248.748 130.706 248.593C130.269 248.468 129.788 248.315 129.27 248.149C127.268 247.509 124.712 246.691 121.969 246.691C119.227 246.691 116.671 247.509 114.668 248.149C114.15 248.315 113.67 248.468 113.232 248.593C112.691 248.748 112.224 248.856 111.828 248.901C111.429 248.946 111.143 248.92 110.941 248.842C110.759 248.773 110.616 248.651 110.506 248.419C110.388 248.17 110.307 247.782 110.307 247.191C110.307 244.874 111.562 242.737 113.669 241.163C115.775 239.588 118.708 238.6 121.969 238.6C125.23 238.6 128.163 239.588 130.27 241.163C132.376 242.737 133.631 244.874 133.631 247.191Z" fill="white" stroke="black"/>
<path d="M131.705 249.235C131.705 250.471 131.416 250.798 131.197 250.898C131.06 250.961 130.853 250.988 130.533 250.946C130.216 250.903 129.836 250.798 129.386 250.644C129.027 250.522 128.631 250.371 128.202 250.207C126.526 249.566 124.354 248.735 122.029 248.735C119.705 248.735 117.532 249.566 115.857 250.207C115.428 250.371 115.031 250.522 114.673 250.644C114.222 250.798 113.842 250.903 113.525 250.946C113.206 250.988 112.998 250.961 112.861 250.898C112.643 250.798 112.354 250.471 112.354 249.235C112.354 244.544 116.631 240.647 122.029 240.647C127.427 240.647 131.705 244.544 131.705 249.235Z" fill="white" stroke="black"/>
<rect x="110.307" y="247.39" width="23.3243" height="27.4185" fill="white" stroke="black"/>
<rect x="112.234" y="249.558" width="19.471" height="23.0835" fill="white" stroke="black"/>
<line x1="125.191" y1="260.268" x2="132.084" y2="260.268" stroke="black"/>
<line x1="121.499" y1="257.487" x2="121.499" y2="249.057" stroke="black"/>
<line x1="121.59" y1="273.021" x2="121.59" y2="263.99" stroke="black"/>
<line x1="111.734" y1="260.358" x2="118.718" y2="260.358" stroke="black"/>
<rect x="119.305" y="260.772" width="3.8167" height="3.8167" transform="rotate(-45 119.305 260.772)" fill="white" stroke="black"/>
<path d="M121.313 243.259L120.268 236.793H123.689L122.859 243.259H121.313Z" fill="white" stroke="black"/>
<path d="M89.4726 273.476L78.2859 257.847L89.4727 243.206L100.33 257.847L89.4726 273.476Z" fill="white" stroke="#BAB8B5"/>
<path d="M166.296 247.191C166.296 247.782 166.214 248.17 166.096 248.419C165.987 248.651 165.843 248.773 165.661 248.842C165.459 248.92 165.174 248.946 164.774 248.901C164.378 248.856 163.912 248.748 163.37 248.593C162.933 248.468 162.452 248.315 161.934 248.149C159.932 247.509 157.376 246.691 154.633 246.691C151.891 246.691 149.335 247.509 147.332 248.149C146.814 248.315 146.334 248.468 145.896 248.593C145.355 248.748 144.888 248.856 144.493 248.901C144.093 248.946 143.807 248.92 143.606 248.842C143.424 248.773 143.28 248.651 143.17 248.419C143.053 248.17 142.971 247.782 142.971 247.191C142.971 244.874 144.226 242.737 146.333 241.163C148.439 239.588 151.372 238.6 154.633 238.6C157.895 238.6 160.828 239.588 162.934 241.163C165.04 242.737 166.296 244.874 166.296 247.191Z" fill="white" stroke="black"/>
<path d="M164.369 249.235C164.369 250.471 164.08 250.798 163.861 250.898C163.724 250.961 163.517 250.988 163.197 250.946C162.88 250.903 162.5 250.798 162.05 250.644C161.691 250.522 161.295 250.371 160.866 250.207C159.19 249.566 157.018 248.735 154.693 248.735C152.369 248.735 150.197 249.566 148.521 250.207C148.092 250.371 147.695 250.522 147.337 250.644C146.886 250.798 146.506 250.903 146.189 250.946C145.87 250.988 145.662 250.961 145.525 250.898C145.307 250.798 145.018 250.471 145.018 249.235C145.018 244.544 149.295 240.647 154.693 240.647C160.091 240.647 164.369 244.544 164.369 249.235Z" fill="white" stroke="black"/>
<rect x="142.971" y="247.39" width="23.3243" height="27.4185" fill="white" stroke="black"/>
<rect x="144.898" y="249.558" width="19.471" height="23.0835" fill="white" stroke="black"/>
<line x1="157.855" y1="260.268" x2="164.748" y2="260.268" stroke="black"/>
<line x1="154.163" y1="257.487" x2="154.163" y2="249.057" stroke="black"/>
<line x1="154.254" y1="273.021" x2="154.254" y2="263.99" stroke="black"/>
<line x1="144.398" y1="260.358" x2="151.382" y2="260.358" stroke="black"/>
<rect x="151.969" y="260.772" width="3.8167" height="3.8167" transform="rotate(-45 151.969 260.772)" fill="white" stroke="black"/>
<path d="M153.977 243.259L152.932 236.793H156.353L155.523 243.259H153.977Z" fill="white" stroke="black"/>
<path d="M89.9299 14.0522H161.395L178.959 35.9866H1.03595L18.4656 14.0522H89.9299Z" fill="#005452" stroke="black"/>
<path d="M60.3521 35.9865L89.8264 0.778921L119.301 35.9865H60.3521Z" fill="#005452" stroke="black"/>
<path d="M75.3543 31.4691L89.8264 12.9735L104.299 31.4691H75.3543Z" fill="white" stroke="black"/>
<rect x="74.8398" y="27.8032" width="29.9734" height="3.92973" fill="white" stroke="black"/>
<path d="M82.5566 27.1554L88.6348 18.9577L88.6347 27.1554H82.5566Z" fill="white" stroke="black"/>
<path d="M90.6738 27.1554V18.9577L96.752 27.1554L90.6738 27.1554Z" fill="white" stroke="black"/>
<ellipse cx="89.3049" cy="200.038" rx="8.68726" ry="8.68726" fill="#005452"/>
<circle cx="89.3051" cy="200.038" r="4.6332" fill="white"/>
<ellipse cx="91.775" cy="192.78" rx="3.26994" ry="2.26249" transform="rotate(-35.6892 91.775 192.78)" fill="#AF2010"/>
<ellipse cx="91.7648" cy="192.762" rx="1.73745" ry="1.20215" transform="rotate(-35.6892 91.7648 192.762)" fill="white"/>
<ellipse rx="3.26994" ry="2.26249" transform="matrix(0.812194 0.583388 0.583388 -0.812194 86.6784 192.896)" fill="#AF2010"/>
<ellipse rx="1.73745" ry="1.20215" transform="matrix(0.812194 0.583388 0.583388 -0.812194 86.6681 192.878)" fill="white"/>
<path d="M86.3691 200.173L86.3189 199.266L85.4916 199.707L88.5721 193.9L89.4497 194.365L87.9094 197.269L86.3691 200.173Z" fill="#AF2010"/>
<path d="M91.459 200.057L91.5092 199.149L92.3365 199.591L89.256 193.784L88.3784 194.249L89.9187 197.153L91.459 200.057Z" fill="#AF2010"/>
<path d="M88.5043 221.02L87.4598 214.554H90.8802L90.0507 221.02H88.5043Z" fill="white" stroke="black"/>
<path d="M88.9904 243.048L89.9721 243.025C90.4818 239.996 91.2998 237.717 92.2223 236.129C93.1513 234.53 94.1543 233.685 95.0084 233.416C95.4277 233.284 95.8126 233.29 96.1568 233.408C96.503 233.527 96.8402 233.77 97.1414 234.166C97.7512 234.968 98.1875 236.367 98.1875 238.389C98.1875 242.446 96.778 246.988 94.924 250.875C93.189 254.512 91.1033 257.497 89.5035 258.943C87.9553 257.355 85.8584 254.351 84.1026 250.752C82.2243 246.902 80.7705 242.442 80.7705 238.389C80.7705 236.359 81.1746 234.97 81.7442 234.184C82.0245 233.797 82.3359 233.567 82.6525 233.459C82.967 233.351 83.3257 233.35 83.7281 233.485C84.5526 233.764 85.542 234.618 86.5015 236.217C87.453 237.802 88.3409 240.063 88.9904 243.048Z" stroke="#BAB8B5"/>
<line x1="89.7052" y1="258.928" x2="94.9175" y2="265.878" stroke="#BAB8B5"/>
<line y1="-0.5" x2="8.87931" y2="-0.5" transform="matrix(-0.624452 0.781063 -0.781061 -0.624455 89.29 259.242)" stroke="#BAB8B5"/>
<path d="M110.189 47.195H134.489V85.7267H110.189V47.195Z" fill="black" fill-opacity="0.3"/>
<path d="M142.699 46.4683H167V85H142.699V46.4683Z" fill="black" fill-opacity="0.3"/>
<path d="M110.189 94.112H134.489V132.644H110.189V94.112Z" fill="black" fill-opacity="0.3"/>
<path d="M77.678 47.195H101.979V85.7267H77.678V47.195Z" fill="black" fill-opacity="0.3"/>
<path d="M44.1822 47.195H68.4831V85.7267H44.1822V47.195Z" fill="black" fill-opacity="0.3"/>
<path d="M12 46.2317H36.3008V84.7634H12V46.2317Z" fill="black" fill-opacity="0.3"/>
<path d="M12 94.112H36.3008V132.644H12V94.112Z" fill="black" fill-opacity="0.3"/>
<path d="M44.1822 94.112H68.4831V132.644H44.1822V94.112Z" fill="black" fill-opacity="0.3"/>
<path d="M77.678 94.112H101.979V132.644H77.678V94.112Z" fill="black" fill-opacity="0.3"/>
<path d="M142.699 96.112H167V134.644H142.699V96.112Z" fill="black" fill-opacity="0.3"/>
<path d="M12 141.35H36.3008V179.882H12V141.35Z" fill="black" fill-opacity="0.3"/>
<path d="M44.1822 141.35H68.4831V179.882H44.1822V141.35Z" fill="black" fill-opacity="0.3"/>
<path d="M77.678 141.35H101.979V179.882H77.678V141.35Z" fill="black" fill-opacity="0.3"/>
<path d="M110.189 141.35H134.489V179.882H110.189V141.35Z" fill="black" fill-opacity="0.3"/>
<path d="M142.699 141.35H167V179.882H142.699V141.35Z" fill="black" fill-opacity="0.3"/>
<path d="M12 188.909H36.3008V227.441H12V188.909Z" fill="black" fill-opacity="0.3"/>
<path d="M44.1822 188.909H68.4831V227.441H44.1822V188.909Z" fill="black" fill-opacity="0.3"/>
<path d="M110.189 188.909H134.489V227.441H110.189V188.909Z" fill="black" fill-opacity="0.3"/>
<path d="M142.699 188.909H167V227.441H142.699V188.909Z" fill="black" fill-opacity="0.3"/>
<path d="M12 235.468H36.3008V274H12V235.468Z" fill="black" fill-opacity="0.3"/>
<path d="M44.1822 235.468H68.4831V274H44.1822V235.468Z" fill="black" fill-opacity="0.3"/>
<path d="M77.678 213.011H101.979V274H77.678V213.011Z" fill="black" fill-opacity="0.3"/>
<path d="M110.189 235.468H134.489V274H110.189V235.468Z" fill="black" fill-opacity="0.3"/>
<path d="M142.699 235.468H167V274H142.699V235.468Z" fill="black" fill-opacity="0.3"/>
<path d="M81.6805 20.731L89.8475 10L97.8408 20.731L107.746 32.9565H72.1233L81.6805 20.731Z" fill="black" fill-opacity="0.3"/>
</svg>
