<svg width="170" height="90" viewBox="0 0 143 75" fill="none" xmlns="http://www.w3.org/2000/svg">
<path d="M28.4775 2.00586C28.9346 2.0293 29.1924 2.3457 29.251 2.95508L30.0244 12.2363L31.3779 5.62695C31.4248 5.3457 31.6123 5.21094 31.9404 5.22266C32.2803 5.23437 32.4854 5.36914 32.5557 5.62695L33.7334 12.2188L34.5947 2.83203C34.6416 2.24609 34.8877 1.96484 35.333 1.98828C35.7783 2.01172 36.001 2.3457 36.001 2.99023C35.3799 9.74023 34.9111 13.7891 34.5947 15.1367C34.4189 15.6055 34.167 15.8281 33.8389 15.8047C33.5107 15.7812 33.2822 15.6055 33.1533 15.2773C32.7432 14.4453 32.3623 12.541 32.0107 9.56445C31.9639 9.2832 31.9287 9.2832 31.9053 9.56445C31.4717 12.541 31.0557 14.4453 30.6572 15.2773C30.5166 15.6172 30.2764 15.7871 29.9365 15.7871C29.6084 15.7754 29.3682 15.5469 29.2158 15.1016C28.8174 13.8008 28.3428 9.78125 27.792 3.04297C27.792 2.32813 28.0205 1.98242 28.4775 2.00586ZM40.7822 7.17383C43.29 7.36133 44.4912 8.1875 44.3857 9.65234C44.1982 11.1055 43.5947 11.9375 42.5752 12.1484C40.958 12.4297 39.417 12.3711 37.9521 11.9727C37.9639 12.9102 38.2686 13.625 38.8662 14.1172C39.8975 14.5039 40.9697 14.5039 42.083 14.1172C42.8447 13.918 43.6709 13.6367 44.5615 13.2734C44.9717 13.2031 45.1768 13.3086 45.1768 13.5898C45.1768 13.8594 45.0537 14.1289 44.8076 14.3984C43.8936 15.2305 42.3994 15.7461 40.3252 15.9453C38.7314 15.9453 37.624 15.3711 37.0029 14.2227C36.7686 13.9297 36.5986 13.4668 36.4932 12.834C36.4111 11.873 36.4287 10.9766 36.5459 10.1445C36.8506 8.35156 38.2627 7.36133 40.7822 7.17383ZM37.9873 10.5664C39.3818 10.9531 40.6768 11.0293 41.8721 10.7949C42.5166 10.6895 42.833 10.3145 42.8213 9.66992C42.8916 9.16602 42.417 8.83203 41.3975 8.66797C40.9873 8.57422 40.5654 8.58594 40.1318 8.70312C39.335 8.89062 38.7666 9.14258 38.4268 9.45898C38.1104 9.78711 37.9639 10.1562 37.9873 10.5664ZM48.4639 2.04102C48.8857 2.0293 49.0557 2.55078 48.9736 3.60547C48.9033 4.66016 48.8682 6.22461 48.8682 8.29883V9.82812V10.4785V15.5059C48.8682 15.7988 48.7217 15.9453 48.4287 15.9453C47.8896 15.9336 47.5967 15.6582 47.5498 15.1191C47.5498 14.498 47.5498 13.8711 47.5498 13.2383C47.5498 12.5938 47.5498 11.9668 47.5498 11.3574C47.5498 10.3613 47.5498 9.47656 47.5498 8.70312C47.5498 7.91797 47.5498 6.58203 47.5498 4.69531C47.6201 2.92578 47.9248 2.04102 48.4639 2.04102ZM55.2666 7.20898C57.915 7.00977 59.3271 7.98242 59.5029 10.127C59.5029 10.4434 59.3857 10.6484 59.1514 10.7422C58.9287 10.8359 58.7178 10.7246 58.5186 10.4082C58.249 9.16602 57.3291 8.55664 55.7588 8.58008C53.8604 8.79102 52.8643 9.73438 52.7705 11.4102C52.7002 11.8672 52.7119 12.2949 52.8057 12.6934C53.4033 13.8652 54.2939 14.4805 55.4775 14.5391C56.4971 14.5859 57.8506 14.2988 59.5381 13.6777C59.7607 13.6074 59.9189 13.6953 60.0127 13.9414C60.1182 14.1875 60.0713 14.3867 59.8721 14.5391C59.0518 15.5117 57.3877 15.9805 54.8799 15.9453C52.9346 15.7344 51.7217 14.498 51.2412 12.2363V11.498C51.2295 9.1543 52.5713 7.72461 55.2666 7.20898ZM62.5264 7.71875C63.7217 7.30859 64.9404 7.25 66.1826 7.54297C67.3779 7.90625 68.0459 9.0957 68.1865 11.1113C67.9404 13.7012 66.9854 15.2188 65.3213 15.6641C64.501 16.0156 63.6221 16.0039 62.6846 15.6289C61.4072 14.8203 60.7686 13.5488 60.7686 11.8145C60.8506 9.07227 61.1787 7.69531 61.7529 7.68359H62.0518C62.1455 7.68359 62.3037 7.69531 62.5264 7.71875ZM62.3506 13.0449C62.6904 14.2637 63.417 14.7148 64.5303 14.3984C65.6436 14.082 66.3818 13.1152 66.7451 11.498C66.6748 9.63477 65.9424 8.71484 64.5479 8.73828C63.4346 8.73828 62.6963 9.21289 62.333 10.1621C62.1455 11.0996 62.1514 12.0605 62.3506 13.0449ZM74.0928 8.75586C74.4443 7.70117 75.0713 7.20898 75.9736 7.2793C76.8408 7.37305 77.3506 7.94727 77.5029 9.00195L77.6611 15.4531C77.6611 15.6523 77.4795 15.8164 77.1162 15.9453C76.7529 16.0742 76.501 15.9102 76.3604 15.4531L76.2373 11.832C76.2725 10.0977 76.1611 9.19531 75.9033 9.125C75.6455 9.04297 75.3877 9.52344 75.1299 10.5664C74.8838 11.5977 74.5146 13.1387 74.0225 15.1895C73.9404 15.6465 73.6885 15.875 73.2666 15.875C72.8564 15.8633 72.6104 15.6172 72.5283 15.1367C72.2588 13.2148 72.0303 11.6973 71.8428 10.584C71.6553 9.45898 71.374 8.94922 70.999 9.05469C70.6357 9.16016 70.4131 9.68164 70.3311 10.6191L70.2256 14.082L70.2432 15.3477C70.1729 15.8164 69.9502 16.0332 69.5752 15.998C69.2002 15.9512 68.9717 15.6523 68.8896 15.1016L68.9775 9.14258C69.0361 8.60352 69.2588 8.17578 69.6455 7.85938C70.0439 7.54297 70.5244 7.33789 71.0869 7.24414C72.083 7.2207 72.7041 7.71875 72.9502 8.73828L73.3896 11.7617L74.0928 8.75586ZM82.7412 7.17383C85.249 7.36133 86.4502 8.1875 86.3447 9.65234C86.1572 11.1055 85.5537 11.9375 84.5342 12.1484C82.917 12.4297 81.376 12.3711 79.9111 11.9727C79.9229 12.9102 80.2275 13.625 80.8252 14.1172C81.8564 14.5039 82.9287 14.5039 84.042 14.1172C84.8037 13.918 85.6299 13.6367 86.5205 13.2734C86.9307 13.2031 87.1357 13.3086 87.1357 13.5898C87.1357 13.8594 87.0127 14.1289 86.7666 14.3984C85.8525 15.2305 84.3584 15.7461 82.2842 15.9453C80.6904 15.9453 79.583 15.3711 78.9619 14.2227C78.7275 13.9297 78.5576 13.4668 78.4521 12.834C78.3701 11.873 78.3877 10.9766 78.5049 10.1445C78.8096 8.35156 80.2217 7.36133 82.7412 7.17383ZM79.9463 10.5664C81.3408 10.9531 82.6357 11.0293 83.8311 10.7949C84.4756 10.6895 84.792 10.3145 84.7803 9.66992C84.8506 9.16602 84.376 8.83203 83.3564 8.66797C82.9463 8.57422 82.5244 8.58594 82.0908 8.70312C81.2939 8.89062 80.7256 9.14258 80.3857 9.45898C80.0693 9.78711 79.9229 10.1562 79.9463 10.5664ZM100.126 7.47266C100.536 7.48437 100.765 7.67773 100.812 8.05273C100.87 8.42773 100.741 8.66211 100.425 8.75586L97.9639 8.79102V14.6621L99.915 14.5391C100.688 14.5625 101.093 14.8262 101.128 15.3301C101.116 15.6348 100.618 15.8457 99.6338 15.9629C98.6611 16.0684 98.0518 16.1211 97.8057 16.1211H97.6299C97.0439 16.1328 96.6982 15.8164 96.5928 15.1719L96.6104 8.79102L94.29 8.80859C93.9971 8.79688 93.8447 8.56836 93.833 8.12305C93.833 7.67773 94.0674 7.45508 94.5361 7.45508H96.6104V2.67383C96.6689 2.27539 96.8799 2.07617 97.2432 2.07617C97.6182 2.07617 97.8467 2.26953 97.9287 2.65625V7.47266H100.126ZM103.237 7.71875C104.433 7.30859 105.651 7.25 106.894 7.54297C108.089 7.90625 108.757 9.0957 108.897 11.1113C108.651 13.7012 107.696 15.2188 106.032 15.6641C105.212 16.0156 104.333 16.0039 103.396 15.6289C102.118 14.8203 101.479 13.5488 101.479 11.8145C101.562 9.07227 101.89 7.69531 102.464 7.68359H102.763C102.856 7.68359 103.015 7.69531 103.237 7.71875ZM103.062 13.0449C103.401 14.2637 104.128 14.7148 105.241 14.3984C106.354 14.082 107.093 13.1152 107.456 11.498C107.386 9.63477 106.653 8.71484 105.259 8.73828C104.146 8.73828 103.407 9.21289 103.044 10.1621C102.856 11.0996 102.862 12.0605 103.062 13.0449ZM8.63672 25.7578C10.9701 26.1406 12.1641 27.3711 12.2188 29.4492C12.2552 30.0326 12.082 30.4062 11.6992 30.5703C11.3164 30.7161 11.043 30.6797 10.8789 30.4609C10.5872 29.3125 9.99479 28.556 9.10156 28.1914C8.00781 27.8268 6.91406 28.0547 5.82031 28.875C3.54167 30.9349 2.57552 34.5169 2.92188 39.6211C3.86979 42.8112 5.30078 44.5065 7.21484 44.707L7.26953 42.0273L7.29688 38.6914L7.26953 37.4062L4.58984 37.5703C4.24349 37.4427 4.00651 37.1237 3.87891 36.6133C3.7513 36.1029 3.82422 35.7109 4.09766 35.4375C7.96224 35.237 10.7969 35.1276 12.6016 35.1094C12.875 35.0911 13.0117 35.4284 13.0117 36.1211C13.0117 36.7956 12.8932 37.151 12.6562 37.1875L9.51172 37.3242L9.42969 40.8516V44.625C10.4141 44.3516 11.1706 43.9779 11.6992 43.5039C12.1549 43.1393 12.5104 43.0573 12.7656 43.2578C13.0208 43.4401 13.0664 43.8047 12.9023 44.3516C12.2279 46.0286 10.7422 46.9401 8.44531 47.0859H6.94141C4.1888 46.9583 2.14714 44.9258 0.816406 40.9883C0.470052 39.1836 0.442708 37.1419 0.734375 34.8633C1.28125 30.5794 2.92188 27.6445 5.65625 26.0586C6.58594 25.6758 7.57943 25.5755 8.63672 25.7578ZM15.2266 31.0898C15.4271 30.6706 16.0104 30.5794 16.9766 30.8164C18.3802 31.3997 19.0547 31.9193 19 32.375C18.9635 32.8125 18.6901 33.0495 18.1797 33.0859C16.2474 32.849 15.2266 32.4388 15.1172 31.8555L15.2266 31.0898ZM15.9648 36.2852C16.1107 35.4466 16.4753 35.0182 17.0586 35C17.6419 34.9635 18.0156 35.319 18.1797 36.0664L18.207 46.5938C18.1159 47.1953 17.7695 47.4961 17.168 47.4961C16.5664 47.4961 16.1745 47.168 15.9922 46.5117L15.9648 36.2852ZM26.5195 33.5781C27.668 33.1771 28.6432 33.1953 29.4453 33.6328C31.3958 34.0339 32.5807 36.5768 33 41.2617L33.6562 46.5117C33.474 47.1315 33.1094 47.4049 32.5625 47.332C31.888 47.332 31.487 46.7943 31.3594 45.7188L30.6484 40.2773C30.3021 38.0169 29.7461 36.6224 28.9805 36.0938C28.3607 35.4193 27.4948 35.4466 26.3828 36.1758C25.7083 36.6133 25.1432 37.4154 24.6875 38.582C24.25 39.6029 24.0039 42.1367 23.9492 46.1836C23.7487 46.9857 23.293 47.3594 22.582 47.3047C21.8711 47.2318 21.5977 46.2565 21.7617 44.3789C21.9258 40.6055 22.2539 38.2083 22.7461 37.1875C23.4935 35.2917 24.7513 34.0885 26.5195 33.5781ZM41.1758 33.168C43.3086 33.4779 44.6576 34.2526 45.2227 35.4922C45.4596 36.0755 45.5326 36.8047 45.4414 37.6797L45.0312 50.6406C44.9401 51.4974 44.5938 52.0443 43.9922 52.2812C43.2812 52.5547 42.2513 52.6458 40.9023 52.5547C38.6237 52.5182 36.7461 51.3971 35.2695 49.1914C34.9596 48.4258 34.7865 47.6602 34.75 46.8945C34.6406 45.6732 34.7773 45.0443 35.1602 45.0078C35.5612 44.9531 35.8529 45.2266 36.0352 45.8281C36.1628 47.013 37.0924 48.3438 38.8242 49.8203C40.319 50.5495 41.7318 50.7135 43.0625 50.3125L43.418 40.6055C42.9622 41.2253 42.1328 41.7357 40.9297 42.1367C39.4349 42.3919 38.2044 42.2461 37.2383 41.6992C36.3086 41.4076 35.625 40.724 35.1875 39.6484C34.7682 38.1901 34.7773 36.7409 35.2148 35.3008C35.6706 33.9336 37.6576 33.2227 41.1758 33.168ZM37.0195 37.5156C36.8737 39.0833 37.8307 39.9583 39.8906 40.1406C40.6562 40.013 41.3216 39.7487 41.8867 39.3477C42.543 39.0924 43.0078 38.4544 43.2812 37.4336C43.2266 36.0664 42.2695 35.3099 40.4102 35.1641C38.1497 35.237 37.0195 36.0208 37.0195 37.5156ZM53.3164 33.7148C57.2174 34.0065 59.0859 35.2917 58.9219 37.5703C58.6302 39.8307 57.6914 41.125 56.1055 41.4531C53.5898 41.8906 51.1927 41.7995 48.9141 41.1797C48.9323 42.638 49.4062 43.75 50.3359 44.5156C51.9401 45.1172 53.6081 45.1172 55.3398 44.5156C56.5247 44.2057 57.8099 43.7682 59.1953 43.2031C59.8333 43.0938 60.1523 43.2578 60.1523 43.6953C60.1523 44.1146 59.9609 44.5339 59.5781 44.9531C58.1562 46.2474 55.832 47.0495 52.6055 47.3594C50.1263 47.3594 48.4036 46.4661 47.4375 44.6797C47.0729 44.224 46.8086 43.5039 46.6445 42.5195C46.5169 41.0247 46.5443 39.6302 46.7266 38.3359C47.2005 35.5469 49.3971 34.0065 53.3164 33.7148ZM48.9688 38.9922C51.138 39.5938 53.1523 39.7122 55.0117 39.3477C56.0143 39.1836 56.5065 38.6003 56.4883 37.5977C56.5977 36.8138 55.8594 36.2943 54.2734 36.0391C53.6354 35.8932 52.9792 35.9115 52.3047 36.0938C51.0651 36.3854 50.181 36.7773 49.6523 37.2695C49.1602 37.7799 48.9323 38.3542 48.9688 38.9922ZM62.5312 33.2773C63.1875 33.1862 63.5794 33.4505 63.707 34.0703L63.6797 39.1289C65.1562 35.9206 67.1523 34.2253 69.668 34.043C72.0195 33.7513 73.1953 34.0794 73.1953 35.0273C73.1406 35.7018 72.4206 36.0664 71.0352 36.1211C70.6523 36.1758 70.0234 36.3125 69.1484 36.5312C66.7422 37.4062 64.9193 40.5781 63.6797 46.0469C63.5521 47.0859 63.151 47.6055 62.4766 47.6055C61.8021 47.6055 61.4284 47.0221 61.3555 45.8555L61.3828 36.2852V34.5078C61.5104 33.7604 61.8932 33.3503 62.5312 33.2773ZM84.1055 25.7305C84.8164 25.6576 85.2904 25.9401 85.5273 26.5781V35.3281L92.5273 35.3008L92.5547 26.6328C92.6458 26.013 93.0378 25.7214 93.7305 25.7578C94.4232 25.776 94.8151 26.0677 94.9062 26.6328V37.6523L94.9336 46.2383C94.8242 46.9674 94.4232 47.3138 93.7305 47.2773C93.0378 47.2409 92.6367 46.8763 92.5273 46.1836V37.5977H85.5C85.5182 42.793 85.5091 45.819 85.4727 46.6758C85.3997 47.2409 85.0078 47.4961 84.2969 47.4414C83.6042 47.3867 83.2031 47.1406 83.0938 46.7031C83.0755 44.1146 83.0664 40.5964 83.0664 36.1484L83.0938 26.8516C83.0755 26.1589 83.4128 25.7852 84.1055 25.7305ZM98.6797 34.5625C100.539 33.9245 102.435 33.8333 104.367 34.2891C106.227 34.8542 107.266 36.7044 107.484 39.8398C107.102 43.8685 105.616 46.2292 103.027 46.9219C101.751 47.4688 100.384 47.4505 98.9258 46.8672C96.9388 45.6094 95.9453 43.6315 95.9453 40.9336C96.0729 36.668 96.5833 34.526 97.4766 34.5078H97.9414C98.0872 34.5078 98.3333 34.526 98.6797 34.5625ZM98.4062 42.8477C98.9349 44.7435 100.065 45.4453 101.797 44.9531C103.529 44.4609 104.677 42.957 105.242 40.4414C105.133 37.543 103.993 36.112 101.824 36.1484C100.092 36.1484 98.944 36.8867 98.3789 38.3633C98.0872 39.8216 98.0964 41.3164 98.4062 42.8477ZM118.312 34.1797C118.951 34.1979 119.306 34.4987 119.379 35.082C119.47 35.6654 119.27 36.0299 118.777 36.1758L114.949 36.2305V45.3633L117.984 45.1719C119.188 45.2083 119.816 45.6185 119.871 46.4023C119.853 46.8763 119.078 47.2044 117.547 47.3867C116.034 47.5508 115.086 47.6328 114.703 47.6328H114.43C113.518 47.651 112.98 47.1589 112.816 46.1562L112.844 36.2305L109.234 36.2578C108.779 36.2396 108.542 35.8841 108.523 35.1914C108.523 34.4987 108.888 34.1523 109.617 34.1523H112.844V26.7148C112.935 26.0951 113.263 25.7852 113.828 25.7852C114.411 25.7852 114.767 26.0859 114.895 26.6875V34.1797H118.312ZM127.254 33.7148C131.155 34.0065 133.023 35.2917 132.859 37.5703C132.568 39.8307 131.629 41.125 130.043 41.4531C127.527 41.8906 125.13 41.7995 122.852 41.1797C122.87 42.638 123.344 43.75 124.273 44.5156C125.878 45.1172 127.546 45.1172 129.277 44.5156C130.462 44.2057 131.747 43.7682 133.133 43.2031C133.771 43.0938 134.09 43.2578 134.09 43.6953C134.09 44.1146 133.898 44.5339 133.516 44.9531C132.094 46.2474 129.77 47.0495 126.543 47.3594C124.064 47.3594 122.341 46.4661 121.375 44.6797C121.01 44.224 120.746 43.5039 120.582 42.5195C120.454 41.0247 120.482 39.6302 120.664 38.3359C121.138 35.5469 123.335 34.0065 127.254 33.7148ZM122.906 38.9922C125.076 39.5938 127.09 39.7122 128.949 39.3477C129.952 39.1836 130.444 38.6003 130.426 37.5977C130.535 36.8138 129.797 36.2943 128.211 36.0391C127.573 35.8932 126.917 35.9115 126.242 36.0938C125.003 36.3854 124.118 36.7773 123.59 37.2695C123.098 37.7799 122.87 38.3542 122.906 38.9922ZM139.203 25.7305C139.859 25.7122 140.124 26.5234 139.996 28.1641C139.887 29.8047 139.832 32.2383 139.832 35.4648V37.8438V38.8555V46.6758C139.832 47.1315 139.604 47.3594 139.148 47.3594C138.31 47.3411 137.854 46.9128 137.781 46.0742C137.781 45.1081 137.781 44.1328 137.781 43.1484C137.781 42.1458 137.781 41.1706 137.781 40.2227C137.781 38.6732 137.781 37.2969 137.781 36.0938C137.781 34.8724 137.781 32.7943 137.781 29.8594C137.891 27.1068 138.365 25.7305 139.203 25.7305Z" fill="black"/>
<path d="M4.36719 68.3203C4.60156 68.3203 4.75 68.4609 4.8125 68.7422L4.82422 70.9336C4.82422 71.2305 5 71.3594 5.35156 71.3203H9.21875C9.51562 71.3203 9.66016 71.4531 9.65234 71.7188C9.65234 71.9766 9.46094 72.1055 9.07812 72.1055L5.76172 72.1289H4.51953C4.26172 72.1289 4.08203 71.9727 3.98047 71.6602V70.3945V68.7656C4.00391 68.4609 4.13281 68.3125 4.36719 68.3203ZM9.125 68.0156C8.89062 67.9844 8.77344 67.7773 8.77344 67.3945L8.78516 62.4258C8.82422 62.1836 8.95312 62.0625 9.17188 62.0625C9.39062 62.0547 9.52344 62.1953 9.57031 62.4844L9.55859 67.5703C9.50391 67.8906 9.35938 68.0391 9.125 68.0156ZM6.83984 63.6914L5.53906 65.1328L7.17969 67.0547C7.26562 67.2891 7.1875 67.4648 6.94531 67.582C6.71094 67.6914 6.53906 67.6484 6.42969 67.4531L4.96484 65.7656L3.38281 67.4648C3.24219 67.6211 3.07812 67.625 2.89062 67.4766C2.70312 67.3281 2.67578 67.1172 2.80859 66.8438L5.94922 63.4453C6.05078 63.3516 6.01953 63.3203 5.85547 63.3516L2.90234 63.5391C2.74609 63.4688 2.67188 63.3281 2.67969 63.1172C2.6875 62.8984 2.78516 62.7578 2.97266 62.6953L6.44141 62.5078C6.83203 62.5078 7.03906 62.6758 7.0625 63.0117C7.08594 63.2695 7.01172 63.4961 6.83984 63.6914ZM17.1641 65.8711L17.1875 62.3789C17.1719 62.1367 17.2852 62.0234 17.5273 62.0391C17.7773 62.0547 17.9141 62.1445 17.9375 62.3086L17.9258 71.8594C17.8555 72.1406 17.7148 72.2734 17.5039 72.2578C17.3008 72.2422 17.1836 72.1055 17.1523 71.8477V66.6797L15.2656 66.6914C15.0469 66.668 14.9336 66.5352 14.9258 66.293C14.918 66.043 15.0078 65.9062 15.1953 65.8828L17.1641 65.8711ZM15.0664 64.1367L13.6602 65.9297L15.2773 68.1094C15.3477 68.3438 15.2773 68.5195 15.0664 68.6367C14.8555 68.7539 14.6836 68.7109 14.5508 68.5078L13.0859 66.5977L11.5273 68.5312C11.3711 68.6797 11.1992 68.6797 11.0117 68.5312C10.8242 68.3828 10.7969 68.1719 10.9297 67.8984L14.0703 64.0312C14.1719 63.9375 14.1406 63.9062 13.9766 63.9375L11.0234 64.125C10.8672 64.0547 10.793 63.9141 10.8008 63.7031C10.8086 63.4844 10.9062 63.3438 11.0938 63.2812L14.5625 63.0938C14.9531 63.0938 15.1602 63.2617 15.1836 63.5977C15.1992 63.793 15.1602 63.9727 15.0664 64.1367ZM22.9531 70.1133H26.2344C26.4922 70.1289 26.625 70.2578 26.6328 70.5C26.6484 70.7422 26.4922 70.875 26.1641 70.8984L18.9336 70.957C18.6055 70.9102 18.4453 70.7773 18.4531 70.5586C18.4688 70.332 18.6133 70.1992 18.8867 70.1602L22.1328 70.1367V68.0625C22.1406 67.8906 22.2812 67.8047 22.5547 67.8047C22.8359 67.8047 22.9727 67.9102 22.9648 68.1211L22.9531 70.1133ZM20.4219 63.4805H24.6289C24.9414 63.5039 25.0898 63.6484 25.0742 63.9141C25.0586 64.1719 24.8945 64.3086 24.582 64.3242L20.4219 64.3359C20.0781 64.2734 19.9219 64.125 19.9531 63.8906C19.9844 63.6562 20.1406 63.5195 20.4219 63.4805ZM22.0859 64.6055C22.375 64.543 22.6641 64.543 22.9531 64.6055C23.9609 64.8164 24.5352 65.3359 24.6758 66.1641C24.7305 66.3984 24.7266 66.6406 24.6641 66.8906C24.5859 67.7656 24.0195 68.3281 22.9648 68.5781C22.6289 68.6328 22.3125 68.6289 22.0156 68.5664C21.0625 68.3086 20.5156 67.7578 20.375 66.9141C20.3203 66.6484 20.3359 66.3867 20.4219 66.1289C20.5859 65.3008 21.1406 64.793 22.0859 64.6055ZM21.2656 66.8203C21.375 67.2812 21.668 67.5938 22.1445 67.7578C22.3789 67.8203 22.6055 67.8281 22.8242 67.7812C23.4023 67.6016 23.7344 67.2852 23.8203 66.832C23.875 66.6289 23.8789 66.4375 23.832 66.2578C23.7461 65.8516 23.4297 65.5703 22.8828 65.4141C22.6328 65.3438 22.3789 65.3477 22.1211 65.4258C21.6914 65.543 21.4219 65.8047 21.3125 66.2109C21.2422 66.4062 21.2266 66.6094 21.2656 66.8203ZM21.7227 62.2031L23.7383 62.5078C23.9414 62.625 24.0078 62.7812 23.9375 62.9766C23.875 63.1641 23.7148 63.2578 23.457 63.2578L21.3477 63.0938C21.0664 62.9688 20.9648 62.7773 21.043 62.5195C21.1289 62.2539 21.3555 62.1484 21.7227 62.2031ZM32.7969 68.0625L33.793 68.0859C34.0742 68.125 34.207 68.293 34.1914 68.5898V69.7266C34.1367 70.1328 33.8008 70.3594 33.1836 70.4062L31.3086 70.4297L30.3945 70.4531C30.0977 70.4375 29.9648 70.5508 29.9961 70.793V71.1328C30.0586 71.2734 30.2031 71.3438 30.4297 71.3438L34.3438 71.332C34.7656 71.4023 34.9297 71.5352 34.8359 71.7305C34.7422 71.9258 34.4922 72.0547 34.0859 72.1172C32.5312 72.1562 31.1914 72.1641 30.0664 72.1406C29.5195 72.1797 29.2031 72.0273 29.1172 71.6836V70.4414C29.1562 70.0508 29.3555 69.7812 29.7148 69.6328H32.9844C33.2578 69.6484 33.418 69.5117 33.4648 69.2227C33.4883 69.0352 33.3711 68.9141 33.1133 68.8594L29.9141 68.8828H29.3633C28.9492 68.7188 28.9531 68.4609 29.375 68.1094L30.0195 68.0625H32.7969ZM31.5547 64.5352H32.2578L32.2695 62.4375C32.3086 62.1328 32.4453 61.9883 32.6797 62.0039C32.9219 62.0117 33.043 62.1992 33.043 62.5664L33.0312 66.0469V67.5469C32.9844 67.7734 32.8516 67.8945 32.6328 67.9102C32.4219 67.918 32.293 67.8086 32.2461 67.582V65.3086H31.5312C31.3516 65.2695 31.2656 65.125 31.2734 64.875C31.2812 64.625 31.375 64.5117 31.5547 64.5352ZM34.4375 62.4961L34.3906 67.4648C34.3906 67.7852 34.2695 67.9453 34.0273 67.9453C33.793 67.9453 33.668 67.793 33.6523 67.4883V62.6133C33.6914 62.2148 33.8281 62.0078 34.0625 61.9922C34.2969 61.9688 34.4219 62.1367 34.4375 62.4961ZM30.6992 62.1328C31.2383 62.1562 31.5039 62.2852 31.4961 62.5195C31.4883 62.7461 31.375 62.8828 31.1562 62.9297L28.5312 62.9883C28.1953 62.9648 28.0195 63.0898 28.0039 63.3633L27.9922 64.4297C29.4844 64.3984 30.3633 64.3828 30.6289 64.3828C31.082 64.3906 31.3086 64.5195 31.3086 64.7695C31.3086 65.0195 31.1055 65.1602 30.6992 65.1914L28.0156 65.2734L28.0273 66.457L30.9102 66.4102C31.3633 66.4336 31.5859 66.5781 31.5781 66.8438C31.5703 67.1016 31.3477 67.2383 30.9102 67.2539H30.3242L27.6289 67.2773C27.3086 67.1758 27.1523 66.9414 27.1602 66.5742V62.7188C27.2617 62.4141 27.5078 62.2422 27.8984 62.2031L30.6992 62.1328ZM37.0156 63.4336C37.3047 63.3555 37.5977 63.3555 37.8945 63.4336C38.9102 63.6992 39.4883 64.3516 39.6289 65.3906C39.6836 65.6875 39.6797 65.9922 39.6172 66.3047C39.4922 67.375 38.8906 68.0742 37.8125 68.4023C37.5078 68.4805 37.207 68.4766 36.9102 68.3906C35.9258 67.9844 35.3867 67.3008 35.293 66.3398C35.2383 66.0117 35.2539 65.6836 35.3398 65.3555C35.582 64.3398 36.1406 63.6992 37.0156 63.4336ZM36.1484 66.2461C36.2578 66.8945 36.543 67.332 37.0039 67.5586C37.2461 67.6367 37.4805 67.6484 37.707 67.5938C38.1133 67.4375 38.418 67.1445 38.6211 66.7148C38.6836 66.5742 38.7383 66.4219 38.7852 66.2578C38.8477 65.9766 38.8555 65.7148 38.8086 65.4727C38.7148 64.918 38.3789 64.5195 37.8008 64.2773C37.5586 64.1836 37.3047 64.1875 37.0391 64.2891C36.5938 64.4766 36.3125 64.8516 36.1953 65.4141C36.125 65.6719 36.1094 65.9492 36.1484 66.2461ZM40.4727 65.4961V64.3828L40.4844 62.8008C40.5 62.543 40.6289 62.418 40.8711 62.4258C41.1211 62.4258 41.2578 62.5234 41.2812 62.7188L41.2344 70.3008C41.2109 70.582 41.082 70.7227 40.8477 70.7227C40.6211 70.7227 40.4883 70.582 40.4492 70.3008L40.4727 66.293H39.6875C39.4531 66.2773 39.3359 66.1445 39.3359 65.8945C39.3359 65.6367 39.4336 65.5039 39.6289 65.4961H40.4727ZM42.7344 62.3789L42.7109 71.8477C42.6406 72.1445 42.5039 72.2617 42.3008 72.1992C42.0977 72.1367 41.9805 71.9766 41.9492 71.7188L41.9609 62.3789C42 62.1367 42.1328 62.0078 42.3594 61.9922C42.5938 61.9688 42.7188 62.0977 42.7344 62.3789ZM46.5664 63.0352C46.6836 62.8008 46.8711 62.7305 47.1289 62.8242C47.3867 62.9102 47.4609 63.0898 47.3516 63.3633C47.0469 64.1289 46.6992 64.9453 46.3086 65.8125L48.2891 68.2266C48.4531 68.4531 48.4258 68.6484 48.207 68.8125C47.9883 68.9688 47.7773 68.918 47.5742 68.6602L45.8398 66.5508C45.3867 67.332 44.8984 68.0273 44.375 68.6367C44.2109 68.8711 44.0195 68.9453 43.8008 68.8594C43.582 68.7734 43.5195 68.5859 43.6133 68.2969C44.9648 66.625 45.9492 64.8711 46.5664 63.0352ZM50.0234 65.8711L50.0469 62.3789C50.0312 62.1367 50.1445 62.0234 50.3867 62.0391C50.6367 62.0547 50.7734 62.1445 50.7969 62.3086L50.7852 71.8594C50.7148 72.1406 50.5742 72.2734 50.3633 72.2578C50.1602 72.2422 50.043 72.1055 50.0117 71.8477V66.6797L48.125 66.6914C47.9062 66.668 47.793 66.5352 47.7852 66.293C47.7773 66.043 47.8672 65.9062 48.0547 65.8828L50.0234 65.8711ZM57.3828 62.6836C57.6641 62.6602 57.8164 62.7422 57.8398 62.9297V64.7109L60.9336 64.6875V62.9414C60.9883 62.7461 61.1328 62.6602 61.3672 62.6836C61.6094 62.707 61.75 62.8086 61.7891 62.9883V67.3828C61.7734 67.6797 61.6484 67.8633 61.4141 67.9336L59.8203 67.957L59.8086 70.1016H63.0898C63.3477 70.1172 63.4805 70.2461 63.4883 70.4883C63.5039 70.7305 63.3477 70.8633 63.0195 70.8867L55.7891 70.9453C55.4609 70.8984 55.3008 70.7656 55.3086 70.5469C55.3242 70.3203 55.4688 70.1875 55.7422 70.1484L58.9883 70.125V67.957L57.4062 67.9688C57.1484 67.9375 57.0039 67.7695 56.9727 67.4648V63.0352C56.9727 62.8242 57.1094 62.707 57.3828 62.6836ZM57.8398 65.5664V66.6797C57.8242 66.9609 57.9297 67.1133 58.1562 67.1367L60.6289 67.125C60.832 67.1016 60.9336 66.9531 60.9336 66.6797V65.543L57.8398 65.5664ZM71.082 61.9688C71.3164 61.9453 71.4453 62.1406 71.4688 62.5547L71.4805 71.1328C71.5273 71.7969 71.4375 72.1328 71.2109 72.1406C70.9922 72.1484 70.8242 71.9609 70.707 71.5781L70.6836 66.5508H69.8633V70.2539C69.7852 70.5977 69.6523 70.7578 69.4648 70.7344C69.2852 70.7109 69.1562 70.5547 69.0781 70.2656V62.8242C69.1484 62.4258 69.2852 62.2344 69.4883 62.25C69.6914 62.2578 69.8164 62.4297 69.8633 62.7656V65.7422H70.6953V62.4844C70.7266 62.1641 70.8555 61.9922 71.082 61.9688ZM64.1914 62.9883C64.457 62.9883 64.6133 63.1602 64.6602 63.5039L64.6484 67.5586C66.0625 67.6055 67.2539 67.5859 68.2227 67.5C68.4648 67.5703 68.5781 67.7188 68.5625 67.9453C68.5547 68.1719 68.4336 68.3203 68.1992 68.3906L64.168 68.4141C63.8477 68.4297 63.707 68.2305 63.7461 67.8164L63.7695 63.5039C63.793 63.1523 63.9336 62.9805 64.1914 62.9883ZM73.625 62.0508C73.8906 62.0508 74.0469 62.2227 74.0938 62.5664L74.082 65.1094C75.6211 65.2344 76.9922 65.2148 78.1953 65.0508C78.4375 65.1211 78.5508 65.2695 78.5352 65.4961C78.5273 65.7227 78.4062 65.8711 78.1719 65.9414L73.6016 65.9648C73.2812 65.9805 73.1406 65.7812 73.1797 65.3672L73.2031 62.5664C73.2266 62.2148 73.3672 62.043 73.625 62.0508ZM73.4961 68.4141C73.7305 68.4297 73.8867 68.5898 73.9648 68.8945L73.9531 70.9336C73.9531 71.2305 74.1367 71.3594 74.5039 71.3203L76.4023 71.2969L78.3594 71.2852C78.6562 71.2852 78.7852 71.4102 78.7461 71.6602C78.7148 71.9102 78.4883 72.0508 78.0664 72.082H76.918C76.3008 72.082 75.6289 72.0977 74.9023 72.1289H73.6602C73.4023 72.1289 73.2227 71.9727 73.1211 71.6602V70.3945V68.8477C73.1367 68.543 73.2617 68.3984 73.4961 68.4141ZM79.4375 66.7266C79.75 66.7578 79.9141 66.8711 79.9297 67.0664C79.9531 67.2539 79.8398 67.3984 79.5898 67.5L72.1836 67.5469C71.8711 67.4922 71.7188 67.3594 71.7266 67.1484C71.7422 66.9375 71.8867 66.8047 72.1602 66.75L79.4375 66.7266ZM87.0664 63.5508H87.5234C88.4219 63.6992 88.8477 64.2734 88.8008 65.2734C88.543 66.5391 87.7461 68.1602 86.4102 70.1367L87.4883 70.3242C88.3633 70.4648 89.1914 70.6328 89.9727 70.8281C90.3008 71.0938 90.3672 71.2695 90.1719 71.3555C89.9766 71.4414 89.7617 71.4766 89.5273 71.4609C89.3008 71.4375 88.8828 71.3711 88.2734 71.2617L87.2305 71.0859C86.7852 71.0156 86.4219 70.957 86.1406 70.9102C85.8672 70.8633 85.5938 70.9297 85.3203 71.1094C85.0469 71.2891 84.7305 71.4492 84.3711 71.5898C84.2148 71.6211 84.082 71.5312 83.9727 71.3203C83.8633 71.1094 83.9102 70.9414 84.1133 70.8164C84.3164 70.6836 84.625 70.5273 85.0391 70.3477C85.4531 70.168 86.1328 69.2305 87.0781 67.5352C87.2734 67.2227 87.4766 66.8555 87.6875 66.4336C87.8984 66.0039 88.0156 65.6406 88.0391 65.3438C88.0625 65.0469 88.0391 64.8281 87.9688 64.6875C87.9062 64.5391 87.7734 64.4375 87.5703 64.3828C87.3672 64.3281 87.1289 64.3281 86.8555 64.3828C86.5508 64.4062 86.3281 64.5273 86.1875 64.7461C85.875 64.9336 85.5469 65.5352 85.2031 66.5508C84.8516 66.3398 84.6992 66.0586 84.7461 65.707C85.1836 64.2695 85.957 63.5508 87.0664 63.5508ZM92.2695 63.5742C92.6914 63.5742 93.0078 63.5742 93.2188 63.5742H96.4062V63.9492L95.7031 64.2422L95.2461 64.2539L92.9961 64.2656C92.9648 64.8906 92.7656 65.6602 92.3984 66.5742C93.3594 66.4336 94.1758 66.4297 94.8477 66.5625C95.5273 66.6875 95.9258 67.2227 96.043 68.168L96.0547 69.0234C96.0312 69.4297 95.9297 69.7578 95.75 70.0078C94.9922 71.1094 93.9492 71.6445 92.6211 71.6133C91.168 71.3555 90.4062 70.6875 90.3359 69.6094L90.6641 69.5859C91.1875 70.3047 91.8125 70.6992 92.5391 70.7695C93.9453 70.7695 94.8594 70.2461 95.2812 69.1992L95.3281 68.6484C95.3047 68.0078 95.1758 67.5938 94.9414 67.4062C94.707 67.2188 94.3867 67.1328 93.9805 67.1484C93.5742 67.1641 93 67.2578 92.2578 67.4297L91.8008 67.4531C91.6211 67.3516 91.5156 67.1914 91.4844 66.9727L92 65.1562C92.2578 64.5 92.1914 64 91.8008 63.6562L92.2695 63.5742ZM102.828 68.0625C103.266 68.0781 103.598 68.0742 103.824 68.0508C104.105 68.1914 104.238 68.3711 104.223 68.5898V69.7266C104.168 70.1328 103.832 70.3594 103.215 70.4062L101.34 70.4297L100.426 70.4531C100.129 70.4375 99.9961 70.5508 100.027 70.793V71.25C100.09 71.3906 100.234 71.4609 100.461 71.4609L104.375 71.4492C104.797 71.5195 104.961 71.6523 104.867 71.8477C104.773 72.043 104.523 72.1719 104.117 72.2344C102.562 72.2734 101.223 72.2812 100.098 72.2578C99.5508 72.2969 99.2344 72.1445 99.1484 71.8008V70.4414C99.1875 70.0508 99.3867 69.7812 99.7461 69.6328H103.016C103.289 69.6484 103.449 69.5508 103.496 69.3398C103.52 69.0742 103.402 68.9141 103.145 68.8594L99.9453 68.8828H99.3945C98.9805 68.7188 98.9844 68.4609 99.4062 68.1094L100.051 68.0625H102.828ZM103.801 68.0156C103.566 67.9844 103.449 67.7773 103.449 67.3945L103.461 62.4258C103.5 62.1836 103.629 62.0625 103.848 62.0625C104.066 62.0547 104.199 62.1953 104.246 62.4844L104.234 67.5703C104.18 67.8906 104.035 68.0391 103.801 68.0156ZM99.207 62.7539C99.4961 62.6836 99.7891 62.6836 100.086 62.7539C101.109 62.9883 101.691 63.5586 101.832 64.4648C101.887 64.7227 101.883 64.9883 101.82 65.2617C101.734 66.1914 101.16 66.8047 100.098 67.1016C99.7539 67.1562 99.4336 67.1484 99.1367 67.0781C98.1211 66.7188 97.5664 66.1211 97.4727 65.2852C97.4102 64.9961 97.4258 64.7109 97.5195 64.4297C97.7617 63.5469 98.3242 62.9883 99.207 62.7539ZM98.3164 65.1797C98.4258 65.7188 98.7344 66.082 99.2422 66.2695C99.4922 66.3398 99.7344 66.3477 99.9688 66.293C100.586 66.0977 100.934 65.7305 101.012 65.1914C101.074 64.9648 101.082 64.75 101.035 64.5469C100.949 64.0625 100.613 63.7305 100.027 63.5508C99.7617 63.4727 99.4922 63.4766 99.2188 63.5625C98.7344 63.7266 98.4492 64.0352 98.3633 64.4883C98.2852 64.707 98.2695 64.9375 98.3164 65.1797ZM106.438 68.2969C106.672 68.2969 106.82 68.4375 106.883 68.7188L106.895 70.9102C106.895 71.207 107.07 71.3359 107.422 71.2969H111.289C111.586 71.2969 111.73 71.4297 111.723 71.6953C111.723 71.9531 111.531 72.082 111.148 72.082L107.832 72.1055H106.59C106.332 72.1055 106.152 71.9492 106.051 71.6367V70.3711V68.7422C106.074 68.4375 106.203 68.2891 106.438 68.2969ZM108.418 62.4609C109.074 62.4609 109.398 62.7617 109.391 63.3633C109.344 63.9961 108.941 64.7695 108.184 65.6836C107.426 66.5977 106.82 67.2617 106.367 67.6758C106.227 67.8242 106.074 67.8477 105.91 67.7461C105.754 67.6367 105.723 67.4727 105.816 67.2539C106.066 66.9336 106.477 66.4336 107.047 65.7539C107.625 65.0742 108.078 64.4375 108.406 63.8438C108.523 63.5234 108.391 63.3477 108.008 63.3164C107.484 63.3086 106.66 63.3789 105.535 63.5273C105.238 63.5352 105.074 63.4258 105.043 63.1992C105.012 62.9648 105.094 62.8086 105.289 62.7305C106.062 62.5508 107.105 62.4609 108.418 62.4609ZM111.125 61.9922C111.359 61.9922 111.492 62.125 111.523 62.3906L111.5 64.3711L111.512 64.9102H112.73C112.887 64.9023 112.973 65.0039 112.988 65.2148C113.012 65.418 112.961 65.5664 112.836 65.6602L111.512 65.6719L111.5 66.293V67.4414C111.508 67.8398 111.383 68.0391 111.125 68.0391C110.875 68.0312 110.742 67.7969 110.727 67.3359L110.715 65.7773V64.6523L110.727 62.707V62.2852C110.766 62.0898 110.898 61.9922 111.125 61.9922ZM120.535 62.0156C120.785 62 120.91 62.1328 120.91 62.4141L120.898 71.8008C120.859 72.1289 120.727 72.3008 120.5 72.3164C120.281 72.3398 120.152 72.2266 120.113 71.9766V68.5664L113.891 68.707C113.641 68.6992 113.543 68.5547 113.598 68.2734C113.793 68.0469 114.035 67.9258 114.324 67.9102L120.125 67.793L120.148 62.4141C120.164 62.1641 120.293 62.0312 120.535 62.0156ZM116.152 62.6484C116.441 62.5859 116.73 62.5859 117.02 62.6484C118.027 62.875 118.602 63.418 118.742 64.2773C118.797 64.5273 118.793 64.7852 118.73 65.0508C118.652 65.9414 118.086 66.5273 117.031 66.8086C116.695 66.8633 116.379 66.8555 116.082 66.7852C115.082 66.4414 114.535 65.8711 114.441 65.0742C114.387 64.8008 114.402 64.5273 114.488 64.2539C114.73 63.4023 115.285 62.8672 116.152 62.6484ZM115.309 64.957C115.418 65.4648 115.715 65.8086 116.199 65.9883C116.441 66.0508 116.676 66.0586 116.902 66.0117C117.496 65.8164 117.836 65.4688 117.922 64.9688C117.977 64.75 117.98 64.5469 117.934 64.3594C117.848 63.9062 117.523 63.5977 116.961 63.4336C116.703 63.3555 116.445 63.3555 116.188 63.4336C115.711 63.5898 115.434 63.8828 115.355 64.3125C115.277 64.5156 115.262 64.7305 115.309 64.957ZM129.008 63.8555C129.266 63.8008 129.527 63.8008 129.793 63.8555C130.691 64.0352 131.207 64.4766 131.34 65.1797C131.387 65.375 131.383 65.5781 131.328 65.7891C131.25 66.5312 130.742 67.0078 129.805 67.2188C129.5 67.2656 129.215 67.2617 128.949 67.207C128.09 66.9883 127.598 66.5234 127.473 65.8125C127.418 65.5938 127.43 65.3711 127.508 65.1445C127.656 64.4414 128.156 64.0117 129.008 63.8555ZM128.328 65.7188C128.422 66.0703 128.668 66.3086 129.066 66.4336C129.262 66.4727 129.453 66.4766 129.641 66.4453C130.125 66.3125 130.398 66.0703 130.461 65.7188C130.516 65.5703 130.523 65.4297 130.484 65.2969C130.414 64.9844 130.148 64.7695 129.688 64.6523C129.477 64.6055 129.262 64.6094 129.043 64.6641C128.684 64.7578 128.457 64.957 128.363 65.2617C128.301 65.4023 128.289 65.5547 128.328 65.7188ZM127.344 62.8711H131.398C131.711 62.8945 131.859 63.0352 131.844 63.293C131.828 63.543 131.664 63.6758 131.352 63.6914L127.344 63.7031C127 63.6406 126.844 63.4961 126.875 63.2695C126.906 63.043 127.062 62.9102 127.344 62.8711ZM128.762 61.7578L130.543 62.0625C130.746 62.1797 130.812 62.3281 130.742 62.5078C130.68 62.6875 130.52 62.7773 130.262 62.7773L128.387 62.6133C128.105 62.4883 128.004 62.3008 128.082 62.0508C128.168 61.8008 128.395 61.7031 128.762 61.7578ZM133.109 67.2891C133.344 67.3125 133.48 67.418 133.52 67.6055C133.559 67.7852 133.48 67.9336 133.285 68.0508L130.941 68.0742L130.93 72.2695C130.922 72.6133 130.789 72.7578 130.531 72.7031C130.281 72.6484 130.141 72.4766 130.109 72.1875V68.0742H128.738L128.727 71.7773C128.625 72.043 128.457 72.1367 128.223 72.0586C127.988 71.9883 127.871 71.8164 127.871 71.543L127.883 68.0742L125.938 68.0977C125.57 68.1055 125.375 67.9844 125.352 67.7344C125.336 67.4844 125.484 67.3516 125.797 67.3359C128.656 67.2969 131.094 67.2812 133.109 67.2891ZM139.684 68.0625C140.121 68.0781 140.453 68.0742 140.68 68.0508C140.961 68.1914 141.094 68.3711 141.078 68.5898V69.7266C141.023 70.1328 140.688 70.3594 140.07 70.4062L138.195 70.4297L137.281 70.4531C136.984 70.4375 136.852 70.5508 136.883 70.793V71.25C136.945 71.3906 137.09 71.4609 137.316 71.4609L141.23 71.4492C141.652 71.5195 141.816 71.6523 141.723 71.8477C141.629 72.043 141.379 72.1719 140.973 72.2344C139.418 72.2734 138.078 72.2812 136.953 72.2578C136.406 72.2969 136.09 72.1445 136.004 71.8008V70.4414C136.043 70.0508 136.242 69.7812 136.602 69.6328H139.871C140.145 69.6484 140.305 69.5508 140.352 69.3398C140.375 69.0742 140.258 68.9141 140 68.8594L136.801 68.8828H136.25C135.836 68.7188 135.84 68.4609 136.262 68.1094L136.906 68.0625H139.684ZM140.656 68.0156C140.422 67.9844 140.305 67.7773 140.305 67.3945L140.316 62.4258C140.355 62.1836 140.484 62.0625 140.703 62.0625C140.922 62.0547 141.055 62.1953 141.102 62.4844L141.09 67.5703C141.035 67.8906 140.891 68.0391 140.656 68.0156ZM136.062 62.7539C136.352 62.6836 136.645 62.6836 136.941 62.7539C137.965 62.9883 138.547 63.5586 138.688 64.4648C138.742 64.7227 138.738 64.9883 138.676 65.2617C138.59 66.1914 138.016 66.8047 136.953 67.1016C136.609 67.1562 136.289 67.1484 135.992 67.0781C134.977 66.7188 134.422 66.1211 134.328 65.2852C134.266 64.9961 134.281 64.7109 134.375 64.4297C134.617 63.5469 135.18 62.9883 136.062 62.7539ZM135.172 65.1797C135.281 65.7188 135.59 66.082 136.098 66.2695C136.348 66.3398 136.59 66.3477 136.824 66.293C137.441 66.0977 137.789 65.7305 137.867 65.1914C137.93 64.9648 137.938 64.75 137.891 64.5469C137.805 64.0625 137.469 63.7305 136.883 63.5508C136.617 63.4727 136.348 63.4766 136.074 63.5625C135.59 63.7266 135.305 64.0352 135.219 64.4883C135.141 64.707 135.125 64.9375 135.172 65.1797Z" fill="black"/>
</svg>
