<svg width="171" height="63" viewBox="0 0 171 63" fill="none" xmlns="http://www.w3.org/2000/svg">
<path d="M34.3462 15H37.6042L39.0622 8.412C39.2602 7.386 39.4582 6.342 39.6382 5.334H39.7102C39.8722 6.342 40.0522 7.386 40.2862 8.412L41.7622 15H45.0922L47.5582 1.68H45.0382L43.9582 8.178C43.7782 9.582 43.5622 11.004 43.3822 12.444H43.2922C42.9862 11.004 42.7342 9.564 42.4462 8.178L40.8982 1.68H38.6122L37.0822 8.178C36.7942 9.582 36.5062 11.004 36.2362 12.444H36.1642C35.9482 11.004 35.7502 9.582 35.5342 8.178L34.4902 1.68H31.7722L34.3462 15ZM53.7329 15.252C54.9749 15.252 56.2349 14.838 57.2249 14.154L56.3429 12.516C55.6049 12.966 54.8849 13.218 54.0749 13.218C52.5809 13.218 51.5009 12.372 51.2669 10.716H57.4949C57.5489 10.464 57.6029 9.996 57.6029 9.492C57.6029 6.702 56.1809 4.686 53.3909 4.686C51.0149 4.686 48.7109 6.702 48.7109 9.978C48.7109 13.308 50.9069 15.252 53.7329 15.252ZM51.2309 8.952C51.4469 7.476 52.3829 6.72 53.4449 6.72C54.7409 6.72 55.3529 7.584 55.3529 8.952H51.2309ZM62.2839 15.252C62.9139 15.252 63.3279 15.144 63.6339 15.036L63.3099 13.074C63.1299 13.11 63.0579 13.11 62.9679 13.11C62.7159 13.11 62.4459 12.912 62.4459 12.282V0.653999H59.7999V12.174C59.7999 14.046 60.4299 15.252 62.2839 15.252ZM69.7437 15.252C70.8597 15.252 72.1017 14.874 73.0557 14.046L72.0117 12.3C71.4537 12.75 70.7697 13.11 70.0317 13.11C68.5917 13.11 67.5477 11.868 67.5477 9.978C67.5477 8.07 68.5737 6.846 70.1397 6.846C70.6797 6.846 71.1657 7.062 71.6697 7.494L72.9117 5.802C72.1737 5.154 71.2377 4.686 69.9777 4.686C67.2417 4.686 64.8477 6.63 64.8477 9.978C64.8477 13.308 66.9717 15.252 69.7437 15.252ZM78.549 15.252C81.069 15.252 83.373 13.308 83.373 9.978C83.373 6.63 81.069 4.686 78.549 4.686C76.011 4.686 73.707 6.63 73.707 9.978C73.707 13.308 76.011 15.252 78.549 15.252ZM78.549 13.11C77.163 13.11 76.407 11.868 76.407 9.978C76.407 8.07 77.163 6.846 78.549 6.846C79.917 6.846 80.673 8.07 80.673 9.978C80.673 11.868 79.917 13.11 78.549 13.11ZM85.6046 15H88.2506V8.07C88.9346 7.314 89.6006 6.954 90.1586 6.954C91.1306 6.954 91.5806 7.476 91.5806 9.06V15H94.2266V8.07C94.9466 7.314 95.5766 6.954 96.1526 6.954C97.1246 6.954 97.5566 7.476 97.5566 9.06V15H100.203V8.718C100.203 6.198 99.2306 4.686 97.0886 4.686C95.7746 4.686 94.8026 5.478 93.8666 6.432C93.3986 5.316 92.5526 4.686 91.0946 4.686C89.7986 4.686 88.8626 5.406 88.0166 6.27H87.9626L87.7466 4.938H85.6046V15ZM107.346 15.252C108.588 15.252 109.848 14.838 110.838 14.154L109.956 12.516C109.218 12.966 108.498 13.218 107.688 13.218C106.194 13.218 105.114 12.372 104.88 10.716H111.108C111.162 10.464 111.216 9.996 111.216 9.492C111.216 6.702 109.794 4.686 107.004 4.686C104.628 4.686 102.324 6.702 102.324 9.978C102.324 13.308 104.52 15.252 107.346 15.252ZM104.844 8.952C105.06 7.476 105.996 6.72 107.058 6.72C108.354 6.72 108.966 7.584 108.966 8.952H104.844ZM121.163 15.252C122.063 15.252 122.765 15.054 123.305 14.874L122.873 12.948C122.585 13.056 122.207 13.182 121.865 13.182C120.983 13.182 120.497 12.642 120.497 11.49V7.008H122.999V4.938H120.497V2.202H118.301L118.013 4.938L116.447 5.046V7.008H117.851V11.49C117.851 13.74 118.769 15.252 121.163 15.252ZM128.84 15.252C131.36 15.252 133.664 13.308 133.664 9.978C133.664 6.63 131.36 4.686 128.84 4.686C126.302 4.686 123.998 6.63 123.998 9.978C123.998 13.308 126.302 15.252 128.84 15.252ZM128.84 13.11C127.454 13.11 126.698 11.868 126.698 9.978C126.698 8.07 127.454 6.846 128.84 6.846C130.208 6.846 130.964 8.07 130.964 9.978C130.964 11.868 130.208 13.11 128.84 13.11ZM10.7567 56.392C13.6127 56.392 16.0767 55.3 17.4767 53.9V44.576H10.0847V47.964H13.7807V52.052C13.1927 52.528 12.1847 52.808 11.1767 52.808C7.11669 52.808 5.04469 50.12 5.04469 45.584C5.04469 41.16 7.42469 38.472 10.8967 38.472C12.7447 38.472 13.9207 39.228 14.9567 40.208L17.1407 37.548C15.7967 36.204 13.7247 34.916 10.7567 34.916C5.24069 34.916 0.816688 38.892 0.816688 45.724C0.816688 52.64 5.12869 56.392 10.7567 56.392ZM21.587 56H25.703V40.348H21.587V56ZM23.631 37.8C25.059 37.8 26.039 36.904 26.039 35.532C26.039 34.188 25.059 33.32 23.631 33.32C22.203 33.32 21.251 34.188 21.251 35.532C21.251 36.904 22.203 37.8 23.631 37.8ZM30.0909 56H34.2069V45.22C35.3549 44.1 36.1669 43.484 37.4549 43.484C38.9669 43.484 39.6669 44.296 39.6669 46.76V56H43.7829V46.228C43.7829 42.308 42.2989 39.956 38.9389 39.956C36.8109 39.956 35.1869 41.076 33.8429 42.42H33.7589L33.4229 40.348H30.0909V56ZM53.5164 62.804C58.7524 62.804 62.0844 60.424 62.0844 57.26C62.0844 54.488 60.0124 53.34 56.2324 53.34H53.5444C51.7244 53.34 51.0804 52.864 51.0804 52.052C51.0804 51.408 51.3324 51.072 51.7524 50.68C52.4524 50.932 53.1524 51.044 53.7684 51.044C57.1564 51.044 59.8444 49.28 59.8444 45.724C59.8444 44.772 59.5364 43.904 59.1164 43.372H61.8044V40.348H56.1484C55.5044 40.096 54.6644 39.956 53.7684 39.956C50.4644 39.956 47.4404 41.916 47.4404 45.612C47.4404 47.46 48.4764 48.944 49.5684 49.728V49.84C48.5884 50.512 47.8044 51.576 47.8044 52.752C47.8044 54.04 48.4204 54.88 49.2324 55.412V55.552C47.7764 56.336 46.9924 57.484 46.9924 58.8C46.9924 61.544 49.8484 62.804 53.5164 62.804ZM53.7684 48.524C52.3964 48.524 51.3044 47.46 51.3044 45.612C51.3044 43.764 52.3964 42.756 53.7684 42.756C55.1684 42.756 56.2324 43.764 56.2324 45.612C56.2324 47.46 55.1404 48.524 53.7684 48.524ZM54.1604 60.2C51.8644 60.2 50.4084 59.472 50.4084 58.156C50.4084 57.512 50.7164 56.896 51.4444 56.308C52.0044 56.476 52.6484 56.532 53.6004 56.532H55.5044C57.1844 56.532 58.1084 56.84 58.1084 57.96C58.1084 59.164 56.5124 60.2 54.1604 60.2ZM70.8838 56.392C72.8158 56.392 74.7758 55.748 76.3158 54.684L74.9438 52.136C73.7958 52.836 72.6758 53.228 71.4158 53.228C69.0918 53.228 67.4118 51.912 67.0478 49.336H76.7358C76.8198 48.944 76.9038 48.216 76.9038 47.432C76.9038 43.092 74.6918 39.956 70.3518 39.956C66.6558 39.956 63.0718 43.092 63.0718 48.188C63.0718 53.368 66.4878 56.392 70.8838 56.392ZM66.9918 46.592C67.3278 44.296 68.7838 43.12 70.4358 43.12C72.4518 43.12 73.4038 44.464 73.4038 46.592H66.9918ZM80.3214 56H84.4374V46.676C85.3054 44.408 86.7894 43.568 87.9934 43.568C88.6654 43.568 89.0854 43.68 89.6454 43.82L90.3454 40.292C89.8694 40.068 89.3654 39.956 88.5254 39.956C86.9014 39.956 85.1934 41.048 84.0734 43.12H83.9894L83.6534 40.348H80.3214V56ZM99.2238 56H103.368V47.04H111.208V56H115.324V35.28H111.208V43.456H103.368V35.28H99.2238V56ZM126.631 56.392C130.551 56.392 134.135 53.368 134.135 48.188C134.135 42.98 130.551 39.956 126.631 39.956C122.683 39.956 119.099 42.98 119.099 48.188C119.099 53.368 122.683 56.392 126.631 56.392ZM126.631 53.06C124.475 53.06 123.299 51.128 123.299 48.188C123.299 45.22 124.475 43.316 126.631 43.316C128.759 43.316 129.935 45.22 129.935 48.188C129.935 51.128 128.759 53.06 126.631 53.06ZM142.416 56.392C143.816 56.392 144.908 56.084 145.748 55.804L145.076 52.808C144.628 52.976 144.04 53.172 143.508 53.172C142.136 53.172 141.38 52.332 141.38 50.54V43.568H145.272V40.348H141.38V36.092H137.964L137.516 40.348L135.08 40.516V43.568H137.264V50.54C137.264 54.04 138.692 56.392 142.416 56.392ZM154.638 56.392C156.57 56.392 158.53 55.748 160.07 54.684L158.698 52.136C157.55 52.836 156.43 53.228 155.17 53.228C152.846 53.228 151.166 51.912 150.802 49.336H160.49C160.574 48.944 160.658 48.216 160.658 47.432C160.658 43.092 158.446 39.956 154.106 39.956C150.41 39.956 146.826 43.092 146.826 48.188C146.826 53.368 150.242 56.392 154.638 56.392ZM150.746 46.592C151.082 44.296 152.538 43.12 154.19 43.12C156.206 43.12 157.158 44.464 157.158 46.592H150.746ZM167.939 56.392C168.919 56.392 169.563 56.224 170.039 56.056L169.535 53.004C169.255 53.06 169.143 53.06 169.003 53.06C168.611 53.06 168.191 52.752 168.191 51.772V33.684H164.075V51.604C164.075 54.516 165.055 56.392 167.939 56.392Z" fill="black"/>
</svg>
