<svg width="167" height="223" viewBox="0 0 167 223" fill="none" xmlns="http://www.w3.org/2000/svg">
<ellipse cx="61.2814" cy="126.238" rx="46.7975" ry="19.1186" transform="rotate(-35.0959 61.2814 126.238)" fill="#E6B38E"/>
<ellipse cx="72.8037" cy="170.633" rx="46.7975" ry="22.1924" transform="rotate(-71.9689 72.8037 170.633)" fill="#E6B38E"/>
<ellipse rx="46.7975" ry="22.8123" transform="matrix(-0.309533 -0.950889 -0.950889 0.309533 108.274 170.442)" fill="#E6B38E"/>
<ellipse rx="46.7975" ry="19.3137" transform="matrix(-0.818191 -0.574947 -0.574947 0.818191 117.606 126.079)" fill="#E6B38E"/>
<ellipse cx="89.5879" cy="79.1378" rx="38.8379" ry="38.8379" fill="#E6B38E"/>
<ellipse cx="78.65" cy="75.9498" rx="4.65" ry="4.65" fill="#322658"/>
<ellipse cx="100.35" cy="75.9498" rx="4.65" ry="4.65" fill="#322658"/>
<line x1="69.721" y1="66.7551" x2="85.221" y2="72.9551" stroke="#322658" stroke-width="2"/>
<path d="M109.975 66.6865L94.4746 72.8865" stroke="#322658" stroke-width="2"/>
<path d="M80.2264 89.1919C89.5804 93.7445 98.7074 90.2019 102.102 87.8615" stroke="#322658" stroke-width="3"/>
<circle cx="91.0504" cy="128.65" r="4.65" fill="#A4688F"/>
<ellipse cx="91.0504" cy="147.25" rx="4.65" ry="4.65" fill="#A4688F"/>
<path d="M31.6414 125.628C31.1661 124.948 31.3343 124.01 32.0166 123.537L58.1724 105.401C58.8538 104.929 59.7892 105.099 60.2608 105.781L79.445 133.517C79.9148 134.196 79.7471 135.127 79.0699 135.6L53.0899 153.735C52.4106 154.209 51.4756 154.043 51.0014 153.364L31.6414 125.628Z" fill="white" stroke="#D9D9D9"/>
<rect x="-0.696184" y="0.123805" width="37.2323" height="35.5874" rx="1.5" transform="matrix(-0.819989 -0.572379 -0.572379 0.819989 149.807 125.357)" fill="white" stroke="#D9D9D9"/>
<path d="M59.6553 106.659C59.7934 105.646 60.882 105.065 61.8003 105.514L89.1543 118.886C89.8635 119.233 90.6947 119.224 91.3965 118.863L117.306 105.525C118.199 105.065 119.283 105.596 119.467 106.584L130.161 164.092C130.332 165.015 129.624 165.866 128.686 165.866H53.3C52.391 165.866 51.691 165.064 51.8138 164.164L59.6553 106.659Z" fill="white" stroke="#D9D9D9"/>
<path d="M59.6873 106.347C59.8195 105.407 60.7811 104.824 61.6757 105.143L101.953 119.477C102.551 119.689 102.95 120.255 102.95 120.89V164.366C102.95 165.195 102.278 165.866 101.45 165.866H53.0506C52.1392 165.866 51.4384 165.06 51.5652 164.158L59.6873 106.347Z" fill="white" stroke="#DADADA"/>
<path d="M99.8501 128.65C99.8501 129.515 99.1487 130.216 98.2835 130.216C97.4182 130.216 96.7168 129.515 96.7168 128.65C96.7168 127.784 97.4182 127.083 98.2835 127.083C99.1487 127.083 99.8501 127.784 99.8501 128.65Z" fill="white" stroke="#D9D9D9"/>
<path d="M99.8501 137.433C99.8501 138.298 99.1487 139 98.2835 139C97.4182 139 96.7168 138.298 96.7168 137.433C96.7168 136.568 97.4182 135.866 98.2835 135.866C99.1487 135.866 99.8501 136.568 99.8501 137.433Z" fill="white" stroke="#D9D9D9"/>
<circle cx="98.2835" cy="146.216" r="1.56667" fill="white" stroke="#D9D9D9"/>
<path d="M59.2747 103.85C78.6045 110.866 92.962 114.559 119.208 103.85L123.5 106.5C99.8095 121.451 78.3105 122.528 54.5 107.5L59.2747 103.85Z" fill="#AF2010"/>
<path d="M145.679 122.531L127.475 148.8" stroke="#D9D9D9"/>
<path d="M35.0383 121.048L53.5919 147.767" stroke="#D9D9D9"/>
<path d="M87.8894 113.802C88.2656 113.639 88.7074 113.671 89.0048 113.953C89.7401 114.65 91.0054 116.01 90.8763 117.006C90.4772 118.692 90.217 119.631 89.2101 121.227C88.143 122.979 87.3765 123.87 85.824 125.377C84.5158 126.564 83.767 127.161 82.286 127.953L79.0719 129.739C78.4129 130.105 77.6007 129.637 77.6106 128.883C77.6707 124.329 78.5456 121.258 82.6657 116.007C85.9824 111.485 84.8576 115.11 87.8894 113.802Z" fill="#AF2010"/>
<path d="M90.7518 113.563C90.5952 113.525 90.4511 113.559 90.4026 113.713C90.1482 114.52 89.767 117.401 90.4693 118.634C90.4962 118.681 90.522 118.729 90.5435 118.779C91.3055 120.546 91.8895 121.419 93.0734 122.744C94.4732 124.353 95.3453 125.092 97.0337 126.16L100.609 127.793C100.654 127.813 100.7 127.83 100.747 127.844L103.597 128.667C104.335 128.88 105.027 128.215 104.828 127.473C103.489 122.483 101.918 119.42 96.9992 115.008C92.8386 111.02 94.1674 114.395 90.7518 113.563Z" fill="#AF2010"/>
<path d="M104.907 1.62026C104.735 0.96031 104.138 0.5 103.456 0.5H74.7761C74.0915 0.5 73.4937 0.963548 73.3233 1.62662L60.143 52.91C59.8991 53.8591 60.6159 54.7833 61.5958 54.7833H116.876C117.859 54.7833 118.576 53.8542 118.327 52.9036L104.907 1.62026Z" fill="white" stroke="#DADADA"/>
<line x1="85.3439" y1="14.5419" x2="79.1439" y2="55.3586" stroke="#DADADA"/>
<line x1="96.1982" y1="31.9889" x2="98.2649" y2="55.2389" stroke="#DADADA"/>
<line x1="102.913" y1="39.7171" x2="104.979" y2="55.2171" stroke="#DADADA"/>
<rect x="0.633789" y="100.921" width="25.8333" height="27.0783" rx="7" transform="rotate(-19.0621 0.633789 100.921)" fill="#DADADA"/>
<rect x="18.2705" y="120.513" width="5.60241" height="43.263" rx="2.8012" transform="rotate(-19.0621 18.2705 120.513)" fill="#DADADA"/>
<rect x="27.5635" y="151.219" width="8.09237" height="11.2048" rx="4" transform="rotate(-19.0621 27.5635 151.219)" fill="#B47645"/>
<rect x="9.53418" y="104.761" width="2.17871" height="13.6948" rx="1.08936" transform="rotate(-19.0621 9.53418 104.761)" fill="white"/>
<rect x="18.3604" y="101.711" width="2.17871" height="13.6948" rx="1.08936" transform="rotate(-19.0621 18.3604 101.711)" fill="white"/>
<rect x="13.9473" y="103.236" width="2.17871" height="13.6948" rx="1.08936" transform="rotate(-19.0621 13.9473 103.236)" fill="white"/>
</svg>
