<svg width="167" height="195" viewBox="0 0 167 195" fill="none" xmlns="http://www.w3.org/2000/svg">
<ellipse cx="47.2487" cy="102.702" rx="44.8672" ry="18.33" transform="rotate(-35.0959 47.2487 102.702)" fill="#E6B38E"/>
<ellipse cx="58.2958" cy="145.267" rx="44.8672" ry="21.2771" transform="rotate(-71.9689 58.2958 145.267)" fill="#E6B38E"/>
<ellipse rx="44.8672" ry="21.8714" transform="matrix(-0.309533 -0.950889 -0.950889 0.309533 92.3032 145.084)" fill="#E6B38E"/>
<ellipse rx="44.8672" ry="18.517" transform="matrix(-0.818191 -0.574947 -0.574947 0.818191 101.25 102.55)" fill="#E6B38E"/>
<ellipse cx="74.3737" cy="57.5456" rx="37.236" ry="37.236" fill="#E6B38E"/>
<ellipse cx="63.9006" cy="54.4895" rx="4.4582" ry="4.4582" fill="#322658"/>
<ellipse cx="84.7063" cy="54.4895" rx="4.4582" ry="4.4582" fill="#322658"/>
<path d="M65.4114 67.1852C74.3796 71.55 83.1301 68.1535 86.3844 65.9097" stroke="#322658" stroke-width="3"/>
<circle cx="75.7893" cy="105.016" r="4.4582" fill="#A4688F"/>
<circle cx="75.7893" cy="122.848" r="4.4582" fill="#A4688F"/>
<path d="M46.5585 41.1144C46.5585 43.3489 45.9183 45.3507 44.9089 46.7806C43.8986 48.2119 42.5496 49.0355 41.1142 49.0355C39.6788 49.0355 38.3298 48.2119 37.3194 46.7806C36.31 45.3507 35.6699 43.3489 35.6699 41.1144C35.6699 38.8799 36.31 36.8782 37.3194 35.4482C38.3298 34.0169 39.6788 33.1934 41.1142 33.1934C42.5496 33.1934 43.8986 34.0169 44.9089 35.4482C45.9183 36.8782 46.5585 38.8799 46.5585 41.1144Z" fill="white" stroke="#DADADA"/>
<path d="M40.619 49.2879L38.8851 44.8297L39.8759 38.1425L42.8481 38.6378L42.8481 43.096" stroke="#DADADA"/>
<path d="M38.6327 37.6466C38.6327 39.8811 37.9926 41.8829 36.9832 43.3129C35.9728 44.7442 34.6238 45.5677 33.1884 45.5677C31.753 45.5677 30.404 44.7442 29.3937 43.3129C28.3843 41.8829 27.7441 39.8811 27.7441 37.6466C27.7441 35.4121 28.3843 33.4104 29.3937 31.9804C30.404 30.5491 31.753 29.7256 33.1884 29.7256C34.6238 29.7256 35.9728 30.5491 36.9832 31.9804C37.9926 33.4104 38.6327 35.4121 38.6327 37.6466Z" fill="white" stroke="#DADADA"/>
<path d="M32.6932 45.8201L30.9593 41.3619L31.9502 34.6747L34.9223 35.1701L34.9223 39.6283" stroke="#DADADA"/>
<path d="M40.119 50.0314C40.119 52.2659 39.4789 54.2676 38.4695 55.6976C37.4592 57.1289 36.1102 57.9524 34.6747 57.9524C33.2393 57.9524 31.8903 57.1289 30.88 55.6976C29.8706 54.2676 29.2305 52.2659 29.2305 50.0314C29.2305 47.7969 29.8706 45.7952 30.88 44.3652C31.8903 42.9339 33.2393 42.1104 34.6747 42.1104C36.1102 42.1104 37.4592 42.9339 38.4695 44.3652C39.4789 45.7952 40.119 47.7969 40.119 50.0314Z" fill="white" stroke="#DADADA"/>
<path d="M34.1795 58.2049L32.4456 53.7467L33.4365 47.0595L36.4086 47.5548L36.4086 52.013" stroke="#DADADA"/>
<path d="M43.5868 32.6935C43.5868 34.928 42.9467 36.9298 41.9373 38.3597C40.9269 39.7911 39.5779 40.6146 38.1425 40.6146C36.7071 40.6146 35.3581 39.7911 34.3478 38.3597C33.3384 36.9298 32.6982 34.928 32.6982 32.6935C32.6982 30.459 33.3384 28.4573 34.3478 27.0273C35.3581 25.596 36.7071 24.7725 38.1425 24.7725C39.5779 24.7725 40.9269 25.596 41.9373 27.0273C42.9467 28.4573 43.5868 30.459 43.5868 32.6935Z" fill="white" stroke="#DADADA"/>
<path d="M37.6473 40.867L35.9134 36.4088L36.9043 29.7216L39.8764 30.2169L39.8764 34.6751" stroke="#DADADA"/>
<path d="M50.5214 24.7677C50.5214 27.0022 49.8812 29.004 48.8718 30.434C47.8615 31.8653 46.5125 32.6888 45.0771 32.6888C43.6417 32.6888 42.2927 31.8653 41.2823 30.434C40.2729 29.004 39.6328 27.0022 39.6328 24.7677C39.6328 22.5332 40.2729 20.5315 41.2823 19.1015C42.2927 17.6702 43.6417 16.8467 45.0771 16.8467C46.5125 16.8467 47.8615 17.6702 48.8718 19.1015C49.8812 20.5315 50.5214 22.5332 50.5214 24.7677Z" fill="white" stroke="#DADADA"/>
<path d="M44.5819 32.9412L42.848 28.483L43.8388 21.7958L46.811 22.2912L46.811 26.7494" stroke="#DADADA"/>
<path d="M52.5028 36.6564C52.5028 38.8909 51.8627 40.8926 50.8533 42.3226C49.8429 43.7539 48.4939 44.5774 47.0585 44.5774C45.6231 44.5774 44.2741 43.7539 43.2638 42.3226C42.2544 40.8926 41.6143 38.8909 41.6143 36.6564C41.6143 34.4219 42.2544 32.4202 43.2638 30.9902C44.2741 29.5589 45.6231 28.7354 47.0585 28.7354C48.4939 28.7354 49.8429 29.5589 50.8533 30.9902C51.8627 32.4202 52.5028 34.4219 52.5028 36.6564Z" fill="white" stroke="#DADADA"/>
<path d="M46.5633 44.8299L44.8294 40.3717L45.8203 33.6845L48.7924 34.1798L48.7924 38.638" stroke="#DADADA"/>
<path d="M60.4286 29.2257C60.4286 31.4602 59.7885 33.462 58.7791 34.892C57.7687 36.3233 56.4197 37.1468 54.9843 37.1468C53.5489 37.1468 52.1999 36.3233 51.1896 34.892C50.1802 33.462 49.54 31.4602 49.54 29.2257C49.54 26.9912 50.1802 24.9895 51.1896 23.5595C52.1999 22.1282 53.5489 21.3047 54.9843 21.3047C56.4197 21.3047 57.7687 22.1282 58.7791 23.5595C59.7885 24.9895 60.4286 26.9912 60.4286 29.2257Z" fill="white" stroke="#DADADA"/>
<path d="M54.4891 37.3992L52.7552 32.941L53.7461 26.2538L56.7182 26.7492L56.7182 31.2074" stroke="#DADADA"/>
<path d="M70.8309 25.2628C70.8309 27.4973 70.1908 29.4991 69.1814 30.9291C68.1711 32.3604 66.8221 33.1839 65.3867 33.1839C63.9512 33.1839 62.6022 32.3604 61.5919 30.9291C60.5825 29.4991 59.9424 27.4973 59.9424 25.2628C59.9424 23.0283 60.5825 21.0266 61.5919 19.5966C62.6022 18.1653 63.9512 17.3418 65.3867 17.3418C66.8221 17.3418 68.1711 18.1653 69.1814 19.5966C70.1908 21.0266 70.8309 23.0283 70.8309 25.2628Z" fill="white" stroke="#DADADA"/>
<path d="M64.8914 33.4364L63.1576 28.9781L64.1484 22.2909L67.1205 22.7863L67.1205 27.2445" stroke="#DADADA"/>
<path d="M91.6366 26.7492C91.6366 28.9837 90.9965 30.9854 89.9871 32.4154C88.9767 33.8467 87.6277 34.6702 86.1923 34.6702C84.7569 34.6702 83.4079 33.8467 82.3976 32.4154C81.3882 30.9854 80.748 28.9837 80.748 26.7492C80.748 24.5147 81.3882 22.5129 82.3976 21.0829C83.4079 19.6516 84.7569 18.8281 86.1923 18.8281C87.6277 18.8281 88.9767 19.6516 89.9871 21.0829C90.9965 22.5129 91.6366 24.5147 91.6366 26.7492Z" fill="white" stroke="#DADADA"/>
<path d="M85.6971 34.9227L83.9632 30.4644L84.9541 23.7773L87.9262 24.2726L87.9262 28.7308" stroke="#DADADA"/>
<path d="M101.543 31.7023C101.543 33.9368 100.903 35.9385 99.8933 37.3685C98.883 38.7998 97.534 39.6233 96.0986 39.6233C94.6631 39.6233 93.3141 38.7998 92.3038 37.3685C91.2944 35.9385 90.6543 33.9368 90.6543 31.7023C90.6543 29.4678 91.2944 27.4661 92.3038 26.0361C93.3141 24.6048 94.6631 23.7812 96.0986 23.7812C97.534 23.7812 98.883 24.6048 99.8933 26.0361C100.903 27.4661 101.543 29.4678 101.543 31.7023Z" fill="white" stroke="#DADADA"/>
<path d="M95.6033 39.8758L93.8695 35.4176L94.8603 28.7304L97.8325 29.2257L97.8325 33.6839" stroke="#DADADA"/>
<path d="M109.965 35.6652C109.965 37.8997 109.325 39.9014 108.315 41.3314C107.305 42.7627 105.956 43.5862 104.52 43.5862C103.085 43.5862 101.736 42.7627 100.726 41.3314C99.7163 39.9014 99.0762 37.8997 99.0762 35.6652C99.0762 33.4307 99.7163 31.4289 100.726 29.9989C101.736 28.5676 103.085 27.7441 104.52 27.7441C105.956 27.7441 107.305 28.5676 108.315 29.9989C109.325 31.4289 109.965 33.4307 109.965 35.6652Z" fill="white" stroke="#DADADA"/>
<path d="M104.025 43.8387L102.291 39.3804L103.282 32.6933L106.254 33.1886L106.254 37.6468" stroke="#DADADA"/>
<path d="M115.909 46.0685C115.909 48.303 115.269 50.3048 114.26 51.7347C113.249 53.1661 111.9 53.9896 110.465 53.9896C109.029 53.9896 107.68 53.1661 106.67 51.7347C105.661 50.3048 105.021 48.303 105.021 46.0685C105.021 43.834 105.661 41.8323 106.67 40.4023C107.68 38.971 109.029 38.1475 110.465 38.1475C111.9 38.1475 113.249 38.971 114.26 40.4023C115.269 41.8323 115.909 43.834 115.909 46.0685Z" fill="white" stroke="#DADADA"/>
<path d="M109.97 54.242L108.236 49.7838L109.227 43.0966L112.199 43.5919L112.199 48.0501" stroke="#DADADA"/>
<path d="M105.011 25.2628C105.011 27.4973 104.37 29.4991 103.361 30.9291C102.351 32.3604 101.002 33.1839 99.5663 33.1839C98.1309 33.1839 96.7819 32.3604 95.7716 30.9291C94.7622 29.4991 94.1221 27.4973 94.1221 25.2628C94.1221 23.0283 94.7622 21.0266 95.7716 19.5966C96.7819 18.1653 98.1309 17.3418 99.5663 17.3418C101.002 17.3418 102.351 18.1653 103.361 19.5966C104.37 21.0266 105.011 23.0283 105.011 25.2628Z" fill="white" stroke="#DADADA"/>
<path d="M99.0711 33.4364L97.3372 28.9781L98.3281 22.2909L101.3 22.7863L101.3 27.2445" stroke="#DADADA"/>
<path d="M112.441 26.7492C112.441 28.9837 111.801 30.9854 110.792 32.4154C109.781 33.8467 108.432 34.6702 106.997 34.6702C105.562 34.6702 104.213 33.8467 103.202 32.4154C102.193 30.9854 101.553 28.9837 101.553 26.7492C101.553 24.5147 102.193 22.5129 103.202 21.0829C104.213 19.6516 105.562 18.8281 106.997 18.8281C108.432 18.8281 109.781 19.6516 110.792 21.0829C111.801 22.5129 112.441 24.5147 112.441 26.7492Z" fill="white" stroke="#DADADA"/>
<path d="M106.502 34.9227L104.768 30.4644L105.759 23.7773L108.731 24.2726L108.731 28.7308" stroke="#DADADA"/>
<path d="M118.386 35.6652C118.386 37.8997 117.745 39.9014 116.736 41.3314C115.726 42.7627 114.377 43.5862 112.941 43.5862C111.506 43.5862 110.157 42.7627 109.147 41.3314C108.137 39.9014 107.497 37.8997 107.497 35.6652C107.497 33.4307 108.137 31.4289 109.147 29.9989C110.157 28.5676 111.506 27.7441 112.941 27.7441C114.377 27.7441 115.726 28.5676 116.736 29.9989C117.745 31.4289 118.386 33.4307 118.386 35.6652Z" fill="white" stroke="#DADADA"/>
<path d="M112.446 43.8387L110.712 39.3804L111.703 32.6933L114.675 33.1886L114.675 37.6468" stroke="#DADADA"/>
<path d="M145.958 141.414L131.89 158.503L109.234 131.837L127.738 119.968L145.958 141.414Z" fill="white" stroke="#BAB8B5"/>
<path d="M146.344 141.087L165.481 129.964L142.825 103.298L128.123 119.641L146.344 141.087Z" fill="white" stroke="#BAB8B5"/>
<line y1="-0.05" x2="17.7699" y2="-0.05" transform="matrix(0.798913 -0.601446 0.671224 0.741255 132.755 121.647)" stroke="black" stroke-width="0.1"/>
<line y1="-0.05" x2="17.7699" y2="-0.05" transform="matrix(0.798913 -0.601446 0.671224 0.741255 133.283 122.199)" stroke="black" stroke-width="0.1"/>
<line y1="-0.05" x2="17.7699" y2="-0.05" transform="matrix(0.798913 -0.601446 0.671224 0.741255 133.659 122.884)" stroke="black" stroke-width="0.1"/>
<line y1="-0.05" x2="17.7699" y2="-0.05" transform="matrix(0.798913 -0.601446 0.671224 0.741255 134.034 123.568)" stroke="black" stroke-width="0.1"/>
<line y1="-0.05" x2="17.7699" y2="-0.05" transform="matrix(0.798913 -0.601446 0.671224 0.741255 134.41 124.253)" stroke="black" stroke-width="0.1"/>
<line y1="-0.05" x2="17.7699" y2="-0.05" transform="matrix(0.798913 -0.601446 0.671223 0.741255 114.427 135.021)" stroke="black" stroke-width="0.1"/>
<line y1="-0.05" x2="17.7699" y2="-0.05" transform="matrix(0.798913 -0.601446 0.671223 0.741255 114.955 135.573)" stroke="black" stroke-width="0.1"/>
<line y1="-0.05" x2="17.7699" y2="-0.05" transform="matrix(0.798913 -0.601446 0.671223 0.741255 115.331 136.258)" stroke="black" stroke-width="0.1"/>
<line y1="-0.05" x2="17.7699" y2="-0.05" transform="matrix(0.798913 -0.601446 0.671224 0.741255 115.706 136.942)" stroke="black" stroke-width="0.1"/>
<line y1="-0.05" x2="17.7699" y2="-0.05" transform="matrix(0.798913 -0.601446 0.671223 0.741255 116.082 137.627)" stroke="black" stroke-width="0.1"/>
<line y1="-0.05" x2="17.7699" y2="-0.05" transform="matrix(0.798913 -0.601446 0.671223 0.741255 118.39 139.479)" stroke="black" stroke-width="0.1"/>
<line y1="-0.05" x2="17.7699" y2="-0.05" transform="matrix(0.798913 -0.601446 0.671223 0.741255 118.918 140.031)" stroke="black" stroke-width="0.1"/>
<line y1="-0.05" x2="17.7699" y2="-0.05" transform="matrix(0.798913 -0.601446 0.671223 0.741255 119.294 140.716)" stroke="black" stroke-width="0.1"/>
<line y1="-0.05" x2="17.7699" y2="-0.05" transform="matrix(0.798913 -0.601446 0.671223 0.741255 119.669 141.4)" stroke="black" stroke-width="0.1"/>
<line y1="-0.05" x2="17.7699" y2="-0.05" transform="matrix(0.798913 -0.601446 0.671223 0.741255 120.045 142.085)" stroke="black" stroke-width="0.1"/>
<line y1="-0.05" x2="17.7699" y2="-0.05" transform="matrix(0.798913 -0.601446 0.671224 0.741255 122.849 144.434)" stroke="black" stroke-width="0.1"/>
<line y1="-0.05" x2="17.7699" y2="-0.05" transform="matrix(0.798913 -0.601446 0.671224 0.741255 123.377 144.985)" stroke="black" stroke-width="0.1"/>
<line y1="-0.05" x2="17.7699" y2="-0.05" transform="matrix(0.798913 -0.601446 0.671224 0.741255 123.753 145.67)" stroke="black" stroke-width="0.1"/>
<line y1="-0.05" x2="17.7699" y2="-0.05" transform="matrix(0.798913 -0.601446 0.671224 0.741255 124.128 146.354)" stroke="black" stroke-width="0.1"/>
<line y1="-0.05" x2="17.7699" y2="-0.05" transform="matrix(0.798913 -0.601446 0.671224 0.741255 124.504 147.039)" stroke="black" stroke-width="0.1"/>
<line y1="-0.05" x2="17.7699" y2="-0.05" transform="matrix(0.798914 -0.601446 0.671224 0.741255 126.812 149.387)" stroke="black" stroke-width="0.1"/>
<line y1="-0.05" x2="17.7699" y2="-0.05" transform="matrix(0.798914 -0.601446 0.671224 0.741255 127.34 149.938)" stroke="black" stroke-width="0.1"/>
<line y1="-0.05" x2="17.7699" y2="-0.05" transform="matrix(0.798914 -0.601446 0.671224 0.741255 127.716 150.623)" stroke="black" stroke-width="0.1"/>
<line y1="-0.05" x2="17.7699" y2="-0.05" transform="matrix(0.798914 -0.601446 0.671224 0.741255 128.091 151.308)" stroke="black" stroke-width="0.1"/>
<line y1="-0.05" x2="17.7699" y2="-0.05" transform="matrix(0.798914 -0.601446 0.671224 0.741255 128.467 151.992)" stroke="black" stroke-width="0.1"/>
<ellipse cx="126.893" cy="69.4181" rx="3.71517" ry="2.47678" transform="rotate(8.62665 126.893 69.4181)" fill="#AF2010"/>
<line x1="129.578" y1="69.8256" x2="131.683" y2="55.9493" stroke="#AF2010" stroke-width="2"/>
<line x1="132.597" y1="56.2905" x2="135.243" y2="60.8671" stroke="#AF2010" stroke-width="2"/>
<path d="M18.5976 27.7299C18.534 28.1902 18.1881 28.629 17.5575 28.9342C16.9307 29.2376 16.0743 29.3769 15.1422 29.2481C14.21 29.1194 13.4235 28.7531 12.9023 28.2912C12.3781 27.8265 12.1641 27.3104 12.2277 26.85C12.2913 26.3896 12.6372 25.9509 13.2678 25.6457C13.8946 25.3423 14.751 25.203 15.6831 25.3318C16.6152 25.4605 17.4018 25.8267 17.9229 26.2887C18.4472 26.7534 18.6611 27.2695 18.5976 27.7299Z" fill="#005452" stroke="#005452"/>
<line x1="18.1022" y1="27.662" x2="20.0225" y2="13.7589" stroke="#005452" stroke-width="2"/>
<line x1="20.941" y1="14.0886" x2="23.6475" y2="18.6296" stroke="#005452" stroke-width="2"/>
<rect x="10.6475" y="85.402" width="3.4582" height="68.8452" rx="1.7291" transform="rotate(-11.6851 10.6475 85.402)" fill="#DADADA" stroke="#969696"/>
<ellipse cx="17.4926" cy="109.632" rx="1.23839" ry="1.23839" transform="rotate(1.19183 17.4926 109.632)" fill="#969696"/>
<ellipse cx="14.6478" cy="95.8204" rx="1.23839" ry="2.47678" transform="rotate(-11.3483 14.6478 95.8204)" fill="#969696"/>
<ellipse cx="18.8442" cy="116.102" rx="1.23839" ry="1.23839" transform="rotate(1.19183 18.8442 116.102)" fill="#969696"/>
<ellipse cx="20.1967" cy="122.571" rx="1.23839" ry="1.23839" transform="rotate(1.19183 20.1967 122.571)" fill="#969696"/>
<ellipse cx="21.5483" cy="129.04" rx="1.23839" ry="1.23839" transform="rotate(1.19183 21.5483 129.04)" fill="#969696"/>
<ellipse cx="22.8999" cy="135.509" rx="1.23839" ry="1.23839" transform="rotate(1.19183 22.8999 135.509)" fill="#969696"/>
<ellipse cx="24.2514" cy="141.979" rx="1.23839" ry="1.23839" transform="rotate(1.19183 24.2514 141.979)" fill="#969696"/>
<ellipse cx="25.603" cy="148.447" rx="1.23839" ry="1.23839" transform="rotate(1.19183 25.603 148.447)" fill="#969696"/>
<path d="M79.2815 42.8715C86.5153 39.1874 94.0615 43.0565 96.9303 45.4516" stroke="#322658" stroke-width="2"/>
<path d="M70.6521 43.0531C63.4183 39.369 55.8721 43.2382 53.0033 45.6333" stroke="#322658" stroke-width="2"/>
<path d="M126.013 14.1502C126.183 14.5827 126.097 15.1346 125.697 15.7096C125.299 16.2812 124.62 16.8221 123.745 17.1666C122.869 17.511 122.004 17.577 121.323 17.4296C120.639 17.2813 120.199 16.9362 120.029 16.5037C119.859 16.0712 119.946 15.5193 120.346 14.9443C120.744 14.3727 121.422 13.8317 122.298 13.4873C123.173 13.1429 124.038 13.0769 124.719 13.2243C125.404 13.3726 125.843 13.7177 126.013 14.1502Z" fill="#005452" stroke="#005452"/>
<line x1="125.548" y1="14.3338" x2="120.411" y2="1.27261" stroke="#005452" stroke-width="2"/>
<line x1="121.373" y1="1.10941" x2="125.957" y2="3.74222" stroke="#005452" stroke-width="2"/>
<path d="M60.4286 17.8332C60.4286 20.0677 59.7885 22.0694 58.7791 23.4994C57.7687 24.9307 56.4197 25.7542 54.9843 25.7542C53.5489 25.7542 52.1999 24.9307 51.1896 23.4994C50.1802 22.0694 49.54 20.0677 49.54 17.8332C49.54 15.5987 50.1802 13.5969 51.1896 12.1669C52.1999 10.7356 53.5489 9.91211 54.9843 9.91211C56.4197 9.91211 57.7687 10.7356 58.7791 12.1669C59.7885 13.5969 60.4286 15.5987 60.4286 17.8332Z" fill="white" stroke="#DADADA"/>
<path d="M54.4891 26.0067L52.7552 21.5484L53.7461 14.8612L56.7182 15.3566L56.7182 19.8148" stroke="#DADADA"/>
<path d="M69.3456 13.8703C69.3456 16.1048 68.7055 18.1065 67.696 19.5365C66.6857 20.9678 65.3367 21.7913 63.9013 21.7913C62.4659 21.7913 61.1169 20.9678 60.1066 19.5365C59.0971 18.1065 58.457 16.1048 58.457 13.8703C58.457 11.6358 59.0971 9.63402 60.1066 8.20403C61.1169 6.77272 62.4659 5.94922 63.9013 5.94922C65.3367 5.94922 66.6857 6.77272 67.696 8.20403C68.7055 9.63402 69.3456 11.6358 69.3456 13.8703Z" fill="white" stroke="#DADADA"/>
<path d="M63.4061 22.0438L61.6722 17.5855L62.6631 10.8983L65.6352 11.3937L65.6352 15.8519" stroke="#DADADA"/>
<path d="M79.7479 12.3839C79.7479 14.6184 79.1078 16.6202 78.0984 18.0502C77.0881 19.4815 75.7391 20.305 74.3036 20.305C72.8682 20.305 71.5192 19.4815 70.5089 18.0502C69.4995 16.6202 68.8594 14.6184 68.8594 12.3839C68.8594 10.1494 69.4995 8.14769 70.5089 6.7177C71.5192 5.2864 72.8682 4.46289 74.3036 4.46289C75.7391 4.46289 77.0881 5.2864 78.0984 6.7177C79.1078 8.14769 79.7479 10.1494 79.7479 12.3839Z" fill="white" stroke="#DADADA"/>
<path d="M73.8084 20.5574L72.0745 16.0992L73.0654 9.41202L76.0375 9.90738L76.0375 14.3656" stroke="#DADADA"/>
<path d="M75.2899 13.8703C75.2899 16.1048 74.6498 18.1065 73.6404 19.5365C72.63 20.9678 71.2811 21.7913 69.8456 21.7913C68.4102 21.7913 67.0612 20.9678 66.0509 19.5365C65.0415 18.1065 64.4014 16.1048 64.4014 13.8703C64.4014 11.6358 65.0415 9.63402 66.0509 8.20403C67.0612 6.77272 68.4102 5.94922 69.8456 5.94922C71.2811 5.94922 72.63 6.77272 73.6404 8.20403C74.6498 9.63402 75.2899 11.6358 75.2899 13.8703Z" fill="white" stroke="#DADADA"/>
<path d="M69.3504 22.0438L67.6165 17.5855L68.6074 10.8983L71.5795 11.3937L71.5795 15.8519" stroke="#DADADA"/>
<path d="M88.6639 14.3654C88.6639 16.5999 88.0238 18.6016 87.0144 20.0316C86.0041 21.4629 84.6551 22.2864 83.2197 22.2864C81.7842 22.2864 80.4352 21.4629 79.4249 20.0316C78.4155 18.6016 77.7754 16.5999 77.7754 14.3654C77.7754 12.1309 78.4155 10.1291 79.4249 8.69915C80.4352 7.26784 81.7842 6.44434 83.2197 6.44434C84.6551 6.44434 86.0041 7.26784 87.0144 8.69915C88.0238 10.1291 88.6639 12.1309 88.6639 14.3654Z" fill="white" stroke="#DADADA"/>
<path d="M82.7244 22.5389L80.9906 18.0806L81.9814 11.3935L84.9535 11.8888L84.9535 16.347" stroke="#DADADA"/>
<path d="M98.076 19.3185C98.076 21.553 97.4359 23.5548 96.4265 24.9847C95.4162 26.4161 94.0672 27.2396 92.6318 27.2396C91.1963 27.2396 89.8474 26.4161 88.837 24.9847C87.8276 23.5548 87.1875 21.553 87.1875 19.3185C87.1875 17.084 87.8276 15.0823 88.837 13.6523C89.8474 12.221 91.1963 11.3975 92.6318 11.3975C94.0672 11.3975 95.4162 12.221 96.4265 13.6523C97.4359 15.0823 98.076 17.084 98.076 19.3185Z" fill="white" stroke="#DADADA"/>
<path d="M92.1366 27.492L90.4027 23.0338L91.3935 16.3466L94.3657 16.8419L94.3657 21.3001" stroke="#DADADA"/>
<path d="M81.2333 25.2628C81.2333 27.4973 80.5931 29.4991 79.5837 30.9291C78.5734 32.3604 77.2244 33.1839 75.789 33.1839C74.3536 33.1839 73.0046 32.3604 71.9942 30.9291C70.9848 29.4991 70.3447 27.4973 70.3447 25.2628C70.3447 23.0283 70.9848 21.0266 71.9942 19.5966C73.0046 18.1653 74.3536 17.3418 75.789 17.3418C77.2244 17.3418 78.5734 18.1653 79.5837 19.5966C80.5931 21.0266 81.2333 23.0283 81.2333 25.2628Z" fill="white" stroke="#DADADA"/>
<path d="M75.2938 33.4364L73.5599 28.9781L74.5507 22.2909L77.5229 22.7863L77.5229 27.2445" stroke="#DADADA"/>
<line y1="-0.05" x2="17.7699" y2="-0.05" transform="matrix(0.798913 -0.601446 0.671223 0.741255 144.148 135.518)" stroke="black" stroke-width="0.1"/>
<line y1="-0.05" x2="17.7699" y2="-0.05" transform="matrix(0.798913 -0.601446 0.671223 0.741255 144.677 136.069)" stroke="black" stroke-width="0.1"/>
<line y1="-0.05" x2="17.7699" y2="-0.05" transform="matrix(0.798913 -0.601446 0.671223 0.741255 145.053 136.754)" stroke="black" stroke-width="0.1"/>
<line y1="-0.05" x2="17.7699" y2="-0.05" transform="matrix(0.798913 -0.601446 0.671223 0.741255 145.428 137.438)" stroke="black" stroke-width="0.1"/>
<line y1="-0.05" x2="17.7699" y2="-0.05" transform="matrix(0.798913 -0.601446 0.671223 0.741255 145.804 138.123)" stroke="black" stroke-width="0.1"/>
<line y1="-0.05" x2="17.7699" y2="-0.05" transform="matrix(0.798913 -0.601446 0.671224 0.741255 140.186 130.563)" stroke="black" stroke-width="0.1"/>
<line y1="-0.05" x2="17.7699" y2="-0.05" transform="matrix(0.798913 -0.601446 0.671224 0.741255 140.714 131.115)" stroke="black" stroke-width="0.1"/>
<line y1="-0.05" x2="17.7699" y2="-0.05" transform="matrix(0.798913 -0.601446 0.671224 0.741255 141.09 131.8)" stroke="black" stroke-width="0.1"/>
<line y1="-0.05" x2="17.7699" y2="-0.05" transform="matrix(0.798913 -0.601446 0.671224 0.741255 141.465 132.484)" stroke="black" stroke-width="0.1"/>
<line y1="-0.05" x2="17.7699" y2="-0.05" transform="matrix(0.798913 -0.601446 0.671224 0.741255 141.841 133.169)" stroke="black" stroke-width="0.1"/>
<line y1="-0.05" x2="17.7699" y2="-0.05" transform="matrix(0.798913 -0.601446 0.671223 0.741255 136.718 126.105)" stroke="black" stroke-width="0.1"/>
<line y1="-0.05" x2="17.7699" y2="-0.05" transform="matrix(0.798913 -0.601446 0.671223 0.741255 137.246 126.657)" stroke="black" stroke-width="0.1"/>
<line y1="-0.05" x2="17.7699" y2="-0.05" transform="matrix(0.798913 -0.601446 0.671223 0.741255 137.622 127.342)" stroke="black" stroke-width="0.1"/>
<line y1="-0.05" x2="17.7699" y2="-0.05" transform="matrix(0.798913 -0.601446 0.671223 0.741255 137.997 128.026)" stroke="black" stroke-width="0.1"/>
<line y1="-0.05" x2="17.7699" y2="-0.05" transform="matrix(0.798913 -0.601446 0.671223 0.741255 138.373 128.711)" stroke="black" stroke-width="0.1"/>
</svg>
