<svg width="155" height="180" viewBox="0 0 155 180" fill="none" xmlns="http://www.w3.org/2000/svg">
<ellipse cx="64.1358" cy="130.209" rx="45.1423" ry="21.4075" transform="rotate(-71.9689 64.1358 130.209)" fill="#E6B38E"/>
<ellipse rx="45.1423" ry="22.0054" transform="matrix(-0.309533 -0.950889 -0.950889 0.309533 98.3513 130.024)" fill="#E6B38E"/>
<circle cx="80.3119" cy="41.9496" r="37.4643" fill="#E6B38E"/>
<circle cx="69.7746" cy="38.8742" r="4.48553" fill="#322658"/>
<circle cx="90.7072" cy="38.8742" r="4.48553" fill="#322658"/>
<line x1="60.2285" y1="34.3857" x2="76.3321" y2="34.3857" stroke="#322658" stroke-width="2"/>
<path d="M84.4639 34.8877L100.567 34.8877" stroke="#322658" stroke-width="2"/>
<path d="M73.2637 52.3311L89.3672 52.3311" stroke="#322658" stroke-width="2"/>
<path d="M112.637 17.5006C112.637 25.6558 94.944 10.9379 80.2414 27.0713C50.5871 29.8058 46.1016 30.5828 46.1016 22.4277C46.1016 14.2725 66.0658 0 80.2414 0C94.417 0 112.637 9.34551 112.637 17.5006Z" fill="#322658"/>
<ellipse cx="53.0208" cy="87.383" rx="45.1423" ry="18.4424" transform="rotate(-35.0959 53.0208 87.383)" fill="#E6B38E"/>
<ellipse rx="45.1423" ry="18.6306" transform="matrix(-0.818191 -0.574947 -0.574947 0.818191 107.353 87.2303)" fill="#E6B38E"/>
<circle cx="81.7365" cy="89.7101" r="4.48553" fill="#A4688F"/>
<circle cx="81.7365" cy="107.653" r="4.48553" fill="#A4688F"/>
<mask id="path-14-inside-1_1401_57285" fill="white">
<path fill-rule="evenodd" clip-rule="evenodd" d="M33.3068 119.316C35.4311 117.665 36.7862 115.259 36.8302 112.561C36.9134 107.47 32.2955 103.266 26.516 103.171C20.7364 103.077 15.9837 107.128 15.9005 112.219C15.857 114.883 17.0998 117.303 19.1223 119.02C18.8585 118.051 18.7233 117.011 18.741 115.929C18.8242 110.838 22.2647 106.765 26.4256 106.833C30.5865 106.901 33.8922 111.084 33.8091 116.175C33.791 117.281 33.6146 118.339 33.3068 119.316Z"/>
</mask>
<path fill-rule="evenodd" clip-rule="evenodd" d="M33.3068 119.316C35.4311 117.665 36.7862 115.259 36.8302 112.561C36.9134 107.47 32.2955 103.266 26.516 103.171C20.7364 103.077 15.9837 107.128 15.9005 112.219C15.857 114.883 17.0998 117.303 19.1223 119.02C18.8585 118.051 18.7233 117.011 18.741 115.929C18.8242 110.838 22.2647 106.765 26.4256 106.833C30.5865 106.901 33.8922 111.084 33.8091 116.175C33.791 117.281 33.6146 118.339 33.3068 119.316Z" fill="#7A451F"/>
<path d="M36.8302 112.561L35.8304 112.545L35.8304 112.545L36.8302 112.561ZM33.3068 119.316L32.353 119.016L31.3908 122.073L33.9207 120.106L33.3068 119.316ZM26.516 103.171L26.5323 102.171L26.516 103.171ZM15.9005 112.219L14.9007 112.203L14.9007 112.203L15.9005 112.219ZM19.1223 119.02L18.4752 119.782L20.9348 121.869L20.0872 118.757L19.1223 119.02ZM18.741 115.929L17.7411 115.913L17.7411 115.913L18.741 115.929ZM26.4256 106.833L26.4093 107.833L26.4256 106.833ZM33.8091 116.175L32.8092 116.159L32.8092 116.159L33.8091 116.175ZM35.8304 112.545C35.7919 114.902 34.6095 117.037 32.693 118.527L33.9207 120.106C36.2526 118.293 37.7805 115.616 37.8301 112.578L35.8304 112.545ZM26.4996 104.171C31.8498 104.259 35.9026 108.121 35.8304 112.545L37.8301 112.578C37.9242 106.819 32.7412 102.273 26.5323 102.171L26.4996 104.171ZM16.9004 112.236C16.9727 107.812 21.1494 104.084 26.4996 104.171L26.5323 102.171C20.3233 102.07 14.9947 106.444 14.9007 112.203L16.9004 112.236ZM19.7694 118.257C17.9456 116.709 16.8624 114.563 16.9004 112.236L14.9007 112.203C14.8517 115.202 16.254 117.897 18.4752 119.782L19.7694 118.257ZM20.0872 118.757C19.8483 117.88 19.7247 116.933 19.7409 115.946L17.7411 115.913C17.7219 117.088 17.8688 118.222 18.1574 119.282L20.0872 118.757ZM19.7409 115.946C19.8182 111.208 22.9798 107.777 26.4093 107.833L26.4419 105.833C21.5496 105.754 17.8301 110.467 17.7411 115.913L19.7409 115.946ZM26.4093 107.833C29.8388 107.889 32.8866 111.422 32.8092 116.159L34.8089 116.192C34.8979 110.746 31.3343 105.913 26.4419 105.833L26.4093 107.833ZM32.8092 116.159C32.7927 117.169 32.6316 118.131 32.353 119.016L34.2607 119.617C34.5975 118.547 34.7893 117.393 34.8089 116.192L32.8092 116.159Z" fill="#5E371A" mask="url(#path-14-inside-1_1401_57285)"/>
<rect x="8.51939" y="112.401" width="34.8842" height="26.91" rx="3.5" transform="rotate(0.683949 8.51939 112.401)" fill="#7A451F" stroke="#5E371A"/>
</svg>
