<svg width="300" height="46" viewBox="0 0 300 46" fill="none" xmlns="http://www.w3.org/2000/svg">
<rect width="300" height="46" rx="7" fill="#AF2010" fill-opacity="0.5"/>
<path d="M130.7 27.572V28.538H142.166V27.572H130.7ZM135.824 24.856V27.978H136.986V24.856H135.824ZM132.086 18.374V19.312H139.604V21.272H132.128V24.744H133.276V22.21H140.752V18.374H132.086ZM132.128 24.254V25.206H141.046V24.254H132.128ZM144.811 18.78V19.718H152.959V18.78H144.811ZM143.579 27.278V28.244H155.017V27.278H143.579ZM152.343 18.78V20.04C152.343 21.608 152.343 23.498 151.839 26.088L153.001 26.2C153.477 23.47 153.477 21.664 153.477 20.04V18.78H152.343ZM165.656 17.45V26.69H166.832V17.45H165.656ZM158.698 28.86V29.812H167.21V28.86H158.698ZM158.698 25.738V29.182H159.846V25.738H158.698ZM160.042 18.318C158.152 18.318 156.738 19.606 156.738 21.44C156.738 23.26 158.152 24.562 160.042 24.562C161.932 24.562 163.332 23.26 163.332 21.44C163.332 19.606 161.932 18.318 160.042 18.318ZM160.042 19.326C161.274 19.326 162.212 20.194 162.212 21.44C162.212 22.672 161.274 23.54 160.042 23.54C158.81 23.54 157.872 22.672 157.872 21.44C157.872 20.194 158.81 19.326 160.042 19.326Z" fill="white"/>
<rect x="8.5" y="8.5" width="282" height="30" rx="7.5" stroke="white" stroke-dasharray="5 5"/>
</svg>
