<svg width="300" height="50" viewBox="0 0 300 50" fill="none" xmlns="http://www.w3.org/2000/svg">
<rect width="300" height="50" rx="7" fill="#AF2010" fill-opacity="0.5"/>
<path d="M118.536 19.436V32.092H119.656V19.436H118.536ZM116.408 24.588V25.54H118.844V24.588H116.408ZM115.666 19.716V31.448H116.758V19.716H115.666ZM109.534 20.962V28.27H110.696V20.962H109.534ZM109.534 27.808V28.816H110.346C111.704 28.816 113.16 28.746 114.882 28.41L114.756 27.402C113.104 27.724 111.648 27.808 110.346 27.808H109.534ZM125.502 21.284V22.236H135.778V21.284H125.502ZM124.942 29.656V30.622H136.408V29.656H124.942ZM130.08 27.654V30.034H131.228V27.654H130.08ZM130.64 23.09C128.092 23.09 126.51 23.972 126.51 25.498C126.51 27.024 128.092 27.906 130.64 27.906C133.202 27.906 134.784 27.024 134.784 25.498C134.784 23.972 133.202 23.09 130.64 23.09ZM130.64 24C132.488 24 133.608 24.56 133.608 25.498C133.608 26.436 132.488 26.982 130.64 26.982C128.806 26.982 127.672 26.436 127.672 25.498C127.672 24.56 128.806 24 130.64 24ZM130.08 19.646V21.872H131.228V19.646H130.08ZM143.253 22.278V23.216H145.409V22.278H143.253ZM138.395 24.84V25.75H139.179C141.041 25.75 142.301 25.694 143.855 25.4L143.743 24.504C142.231 24.784 140.999 24.84 139.179 24.84H138.395ZM138.395 20.192V25.428H139.501V21.116H143.169V20.192H138.395ZM139.165 22.46V23.356H142.665V22.46H139.165ZM147.369 19.45V26.282H148.475V19.45H147.369ZM144.933 19.66V26.156H146.025V19.66H144.933ZM140.131 26.856V27.766H147.355V28.914H140.159V31.644H141.307V29.782H148.475V26.856H140.131ZM140.159 31.042V31.952H148.965V31.042H140.159ZM154.349 20.57V26.436H160.159V20.57H154.349ZM159.025 21.508V25.498H155.483V21.508H159.025ZM162.483 19.422V28.704H163.645V19.422H162.483ZM163.281 23.286V24.252H165.521V23.286H163.281ZM155.763 30.86V31.812H164.219V30.86H155.763ZM155.763 27.822V31.266H156.925V27.822H155.763ZM166.71 24.714V25.666H178.148V24.714H166.71ZM168.222 22.754V23.692H176.79V22.754H168.222ZM168.222 19.842V23.51H169.37V20.794H176.65V19.842H168.222ZM168.082 26.758V27.668H175.53V28.872H168.11V31.336H169.258V29.74H176.678V26.758H168.082ZM168.11 31.028V31.952H177.056V31.028H168.11ZM188.801 19.436V32.092H189.963V19.436H188.801ZM185.091 20.794V20.99C185.091 24.35 183.397 27.038 179.743 28.802L180.359 29.74C184.587 27.668 186.239 24.462 186.239 20.794H185.091ZM180.317 20.794V21.746H185.595V20.794H180.317Z" fill="white"/>
<rect x="8.5" y="10.5" width="282" height="30" rx="7.5" stroke="white" stroke-dasharray="5 5"/>
</svg>
