<svg width="125" height="195" viewBox="0 0 125 195" fill="none" xmlns="http://www.w3.org/2000/svg">
<ellipse cx="45.2038" cy="143.233" rx="46.9614" ry="22.2702" transform="rotate(-71.9689 45.2038 143.233)" fill="#E6B38E"/>
<ellipse rx="46.9614" ry="22.8922" transform="matrix(-0.309533 -0.950889 -0.950889 0.309533 80.7975 143.041)" fill="#E6B38E"/>
<ellipse rx="27.8553" ry="19.3813" transform="matrix(-0.818191 -0.574947 -0.574947 0.818191 63.2279 94.6089)" fill="#E6B38E"/>
<ellipse cx="63.513" cy="101.103" rx="4.66629" ry="4.66629" fill="#A4688F"/>
<ellipse cx="63.513" cy="119.768" rx="4.66629" ry="4.66629" fill="#A4688F"/>
<path d="M4.00039 62.4992L28.0003 70.603L53.9215 89.5404L22.1933 80.9128L4.00039 62.4992Z" fill="black"/>
<path d="M121.5 58L99.5011 67.2318L70.7731 89.6508L102.226 81.3005L121.5 58Z" fill="black"/>
<ellipse cx="62.0463" cy="51.4174" rx="38.974" ry="38.974" fill="#E6B38E"/>
<path d="M22.2945 80.3643L53.9216 88.9191L36.8118 192.614L0 179.134L22.2945 80.3643Z" fill="black"/>
<path d="M102.399 79.8457L70.7718 88.4006L87.8815 192.096L124.693 178.615L102.399 79.8457Z" fill="black"/>
<path d="M53.9216 88.9185L37.8486 193.391L22.8126 187.429L53.9216 88.9185Z" fill="#AF2010"/>
<path d="M70.7724 88.4006L86.7707 193.085L101.807 187.123L70.7724 88.4006Z" fill="#AF2010"/>
<circle cx="51.0696" cy="48.218" r="4.66629" fill="#322658"/>
<ellipse cx="72.846" cy="48.218" rx="4.66629" ry="4.66629" fill="#322658"/>
<path d="M51.0695 2.07422L62.9944 23.3318H39.1445L51.0695 2.07422Z" fill="#FAC213"/>
<path d="M73.883 2.07422L85.8079 23.3318H61.958L73.883 2.07422Z" fill="#FAC213"/>
<path d="M30.8497 1.55566L57.8104 27.4795H30.8496L30.8497 1.55566Z" fill="#FFDF35"/>
<path d="M61.9579 0L74.0812 27.6089H49.8345L61.9579 0Z" fill="#FFDF35"/>
<path d="M93.0663 1.55566L93.0662 27.4795H66.1055L93.0663 1.55566Z" fill="#FFDF35"/>
<path d="M57.3644 66.9106L56.3899 61.1805L60.691 62.141L57.3644 66.9106Z" fill="white"/>
<path d="M67.337 66.7192L68.047 61.1803L64.0313 62.2186L67.337 66.7192Z" fill="white"/>
<path d="M105.771 151.91L115.372 165.119L113.98 181.974L103.844 168.513L105.771 151.91Z" fill="#A279FD"/>
<path d="M19.9697 151.463L10.5671 164.814L12.2114 181.646L22.1447 168.035L19.9697 151.463Z" fill="#A279FD"/>
<path d="M97.0137 119.703L106.615 132.912L105.223 149.767L95.0873 136.306L97.0137 119.703Z" fill="#A279FD"/>
<path d="M28.2441 119.129L18.8415 132.48L20.4858 149.312L30.4191 135.701L28.2441 119.129Z" fill="#A279FD"/>
<path d="M87.71 86.3633L97.3116 99.572L95.9198 116.427L85.7836 102.966L87.71 86.3633Z" fill="#A279FD"/>
<path d="M37.0469 85.6533L27.6443 99.0045L29.2886 115.837L39.2218 102.226L37.0469 85.6533Z" fill="#A279FD"/>
<path d="M34.7881 112.51L30.4148 118.72L31.1796 126.549L35.7997 120.218L34.7881 112.51Z" fill="#DF6F6F"/>
<path d="M102.708 123.438L98.3347 117.228L99.0995 109.399L103.72 115.729L102.708 123.438Z" fill="#DF6F6F"/>
<path d="M93.8945 126.548L89.5212 120.338L90.286 112.509L94.9061 118.84L93.8945 126.548Z" fill="#DF6F6F"/>
<path d="M25.9736 109.398L21.6003 115.608L22.3651 123.437L26.9852 117.106L25.9736 109.398Z" fill="#DF6F6F"/>
<path d="M53.6621 59.625C60.5464 62.8458 64.4052 62.6096 71.2903 59.625" stroke="#322658" stroke-width="2"/>
<path d="M101 51.7524C101 69.2519 89.0001 79.2522 71.0002 88.7522C90.4058 85.5613 102.169 72.9328 121.5 58.2526L101 51.7524Z" fill="#AF2010"/>
<path d="M23 53.5006C27.082 72.5199 35.5 80.5 54.0003 89.0004C34.5947 85.8095 23.2733 77.1791 3.94183 62.4989L23 53.5006Z" fill="#AF2010"/>
<path d="M56.7014 39.8821C50.5209 34.7652 43.8955 37.428 40.9997 40.9997" stroke="#322658" stroke-width="2"/>
<path d="M65.3465 39.2669C71.7671 42.5345 78.4577 39.1168 81.0004 36.9996" stroke="#322658" stroke-width="2"/>
</svg>
