<svg width="150" height="180" viewBox="0 0 150 180" fill="none" xmlns="http://www.w3.org/2000/svg">
<ellipse cx="60.6001" cy="78.4895" rx="30.0393" ry="18.3794" transform="rotate(-35.0959 60.6001 78.4895)" fill="#E6B38E"/>
<ellipse cx="36.0506" cy="78.5936" rx="34.5108" ry="18.3794" transform="rotate(50.8141 36.0506 78.5936)" fill="#E6B38E"/>
<ellipse cx="57.956" cy="129.764" rx="44.988" ry="21.3343" transform="rotate(-71.9689 57.956 129.764)" fill="#E6B38E"/>
<ellipse rx="44.988" ry="21.9302" transform="matrix(-0.309533 -0.950889 -0.950889 0.309533 93.5448 129.58)" fill="#E6B38E"/>
<ellipse rx="44.988" ry="18.5669" transform="matrix(-0.818191 -0.574947 -0.574947 0.818191 102.516 86.932)" fill="#E6B38E"/>
<ellipse cx="75.5676" cy="41.8059" rx="37.3362" ry="37.3362" fill="#E6B38E"/>
<ellipse cx="65.0659" cy="40.728" rx="4.4702" ry="4.4702" fill="#322658"/>
<ellipse cx="85.9272" cy="40.728" rx="4.4702" ry="4.4702" fill="#322658"/>
<path d="M73.0234 55.0206C80.2109 56.697 86.1345 52.8191 88.1459 50.0579" stroke="#322658" stroke-width="3"/>
<ellipse cx="76.9868" cy="89.4038" rx="4.4702" ry="4.4702" fill="#A4688F"/>
<ellipse cx="76.9868" cy="107.285" rx="4.4702" ry="4.4702" fill="#A4688F"/>
<path d="M21.1092 57.1191L9.71039 40.7284H32.5081L21.1092 57.1191Z" fill="#DF6F6F"/>
<rect x="19.3711" y="46.1924" width="3.97351" height="19.8675" fill="#DF6F6F"/>
<rect x="13.9072" y="66.0596" width="14.9007" height="1.49007" fill="#DF6F6F"/>
<path d="M79.9916 32.1009C87.2448 35.7949 94.8113 31.9153 97.6878 29.5138" stroke="#322658" stroke-width="2"/>
<path d="M71.3385 32.738C64.0852 29.044 56.5188 32.9235 53.6422 35.3251" stroke="#322658" stroke-width="2"/>
<path d="M94.026 75.4971L94.8121 81.4573H86.4238L94.026 75.4971Z" fill="white"/>
<path d="M97.9722 76.9873L99.8346 81.4575H91.4463L97.9722 76.9873Z" fill="white"/>
<path d="M104.801 14.1556C104.801 23.8447 92.4768 27.3179 73.5976 27.3179C54.7183 27.3179 73.5976 14.5366 43.2119 21.554C43.2119 11.8649 54.7183 0 73.5976 0C92.4768 0 104.801 4.4666 104.801 14.1556Z" fill="#5D4037"/>
<path d="M76.1261 69.4605C75.3226 69.1126 75.3226 67.9731 76.1261 67.6252L87.5101 62.6957C88.1704 62.4098 88.9075 62.8939 88.9075 63.6134V73.4723C88.9075 74.1918 88.1704 74.6758 87.5101 74.3899L76.1261 69.4605Z" fill="#322658"/>
<path d="M77.3505 67.6254C78.154 67.9734 78.154 69.1128 77.3505 69.4608L65.9664 74.3902C65.3061 74.6761 64.5691 74.1921 64.5691 73.4725V63.6137C64.5691 62.8941 65.3061 62.4101 65.9664 62.696L77.3505 67.6254Z" fill="#322658"/>
</svg>
