<svg width="150" height="184" viewBox="0 0 150 184" fill="none" xmlns="http://www.w3.org/2000/svg">
<rect x="16.5" y="75.1631" width="38.8049" height="57.5" rx="19.4024" transform="rotate(-20.6154 16.5 75.1631)" fill="#30475E"/>
<ellipse cx="47.6917" cy="90.6654" rx="45.2879" ry="18.5019" transform="rotate(-35.0959 47.6917 90.6654)" fill="#E6B38E"/>
<ellipse cx="58.8422" cy="133.629" rx="45.2879" ry="21.4766" transform="rotate(-71.9689 58.8422 133.629)" fill="#E6B38E"/>
<ellipse rx="45.2879" ry="22.0764" transform="matrix(-0.309533 -0.950889 -0.950889 0.309533 93.1684 133.443)" fill="#E6B38E"/>
<ellipse rx="45.2879" ry="18.6907" transform="matrix(-0.818191 -0.574947 -0.574947 0.818191 102.2 90.5112)" fill="#E6B38E"/>
<ellipse cx="75.0714" cy="45.0851" rx="37.5851" ry="37.5851" fill="#E6B38E"/>
<circle cx="64.5" cy="42" r="4.5" fill="#322658"/>
<circle cx="85.5" cy="42" r="4.5" fill="#322658"/>
<path d="M71.6988 58.1017C80.9055 58.2287 87.0693 53.4203 89.0003 51.0003" stroke="#322658" stroke-width="3"/>
<circle cx="76.5" cy="93" r="4.5" fill="#A4688F"/>
<circle cx="76.5" cy="111" r="4.5" fill="#A4688F"/>
<path d="M70.089 36.1499C64.2437 39.1075 58.204 36.1152 55.9149 34.2494" stroke="#322658" stroke-width="2"/>
<path d="M80.2498 35.9673C86.0951 38.9249 92.1348 35.9326 94.424 34.0668" stroke="#322658" stroke-width="2"/>
<circle cx="95.75" cy="49.25" r="1.25" fill="#DF6F6F"/>
<circle cx="100.75" cy="52.25" r="1.25" fill="#DF6F6F"/>
<circle cx="95.75" cy="54.25" r="1.25" fill="#DF6F6F"/>
<circle cx="56.3528" cy="50.2162" r="1.25" transform="rotate(46.6688 56.3528 50.2162)" fill="#DF6F6F"/>
<circle cx="57.6018" cy="55.9115" r="1.25" transform="rotate(46.6688 57.6018 55.9115)" fill="#DF6F6F"/>
<circle cx="52.7161" cy="53.6469" r="1.25" transform="rotate(46.6688 52.7161 53.6469)" fill="#DF6F6F"/>
<line x1="73.5" y1="10" x2="73.5" stroke="black" stroke-width="3"/>
<line x1="81.1632" y1="10.2317" x2="85.6996" y2="1.31978" stroke="black" stroke-width="3"/>
<line x1="65.3097" y1="10.8444" x2="61.6072" y2="1.55514" stroke="black" stroke-width="3"/>
<path fill-rule="evenodd" clip-rule="evenodd" d="M42.9999 115.5C48.2014 115.635 54.7953 104.828 54.9929 92.5217C55.1905 80.2155 51.1419 69.6401 45.9404 69.5049C45.3648 69.7736 44.7786 70.1424 44.1937 70.6072C48.3827 72.9692 51.4999 81.9462 51.4999 92.6599C51.4999 104.181 47.3941 113.423 42.6484 114.818C42.7713 115.051 42.8888 115.278 42.9999 115.5Z" fill="#30475E"/>
</svg>
