<svg width="300" height="47" viewBox="0 0 300 47" fill="none" xmlns="http://www.w3.org/2000/svg">
<rect width="300" height="46.4286" rx="7" fill="#AF2010"/>
<path d="M130.882 27.572V28.538H142.348V27.572H130.882ZM136.006 24.856V27.978H137.168V24.856H136.006ZM132.268 18.374V19.312H139.786V21.272H132.31V24.744H133.458V22.21H140.934V18.374H132.268ZM132.31 24.254V25.206H141.228V24.254H132.31ZM144.993 18.78V19.718H153.141V18.78H144.993ZM143.761 27.278V28.244H155.199V27.278H143.761ZM152.525 18.78V20.04C152.525 21.608 152.525 23.498 152.021 26.088L153.183 26.2C153.659 23.47 153.659 21.664 153.659 20.04V18.78H152.525ZM165.837 17.45V26.69H167.013V17.45H165.837ZM158.879 28.86V29.812H167.391V28.86H158.879ZM158.879 25.738V29.182H160.027V25.738H158.879ZM160.223 18.318C158.333 18.318 156.919 19.606 156.919 21.44C156.919 23.26 158.333 24.562 160.223 24.562C162.113 24.562 163.513 23.26 163.513 21.44C163.513 19.606 162.113 18.318 160.223 18.318ZM160.223 19.326C161.455 19.326 162.393 20.194 162.393 21.44C162.393 22.672 161.455 23.54 160.223 23.54C158.991 23.54 158.053 22.672 158.053 21.44C158.053 20.194 158.991 19.326 160.223 19.326Z" fill="white"/>
<rect x="8.5" y="8.5" width="282" height="30" rx="7.5" stroke="white" stroke-dasharray="5 5"/>
</svg>
