<svg width="146" height="182" viewBox="0 0 146 182" fill="none" xmlns="http://www.w3.org/2000/svg">
<path d="M138.55 67.1846C141.692 69.1539 143.289 71.2344 143.531 73.3605C142.207 74.1005 140.639 75.0809 138.818 76.2198C127.652 83.2034 106.96 96.1454 74.3328 96.1454C54.9046 96.1454 37.403 93.1373 24.7905 88.7385C18.479 86.5372 13.4399 84.0043 9.99958 81.3618C6.52445 78.6926 4.87109 76.0649 4.87109 73.6965C4.87109 71.3761 6.4683 69.1123 9.91533 66.9866C13.3388 64.8754 18.3672 63.0475 24.6909 61.5549C37.322 58.5734 54.8525 56.9902 74.3328 56.9902C93.8109 56.9902 111.282 58.633 123.854 61.6732C130.148 63.1953 135.148 65.0522 138.55 67.1846Z" fill="#FCF4E9" stroke="#DADADA" stroke-width="2"/>
<ellipse cx="48.0811" cy="82.9465" rx="43.3448" ry="17.7081" transform="rotate(-35.0959 48.0811 82.9465)" fill="#E6B38E"/>
<ellipse cx="58.7533" cy="124.066" rx="43.3448" ry="20.5551" transform="rotate(-71.9689 58.7533 124.066)" fill="#E6B38E"/>
<ellipse rx="43.3448" ry="21.1292" transform="matrix(-0.309533 -0.950889 -0.950889 0.309533 91.606 123.89)" fill="#E6B38E"/>
<ellipse rx="41.3307" ry="17.8887" transform="matrix(-0.818191 -0.574947 -0.574947 0.818191 98.6026 81.642)" fill="#E6B38E"/>
<ellipse cx="74.286" cy="39.3222" rx="35.9725" ry="35.9725" fill="#E6B38E"/>
<ellipse cx="75.6536" cy="102.409" rx="4.30693" ry="4.30693" fill="#A4688F"/>
<path d="M1.95703 72.9786L7.22106 74.6536L11.7673 76.0892H16.792L21.8168 75.3714L28.5164 72.9786L32.1055 71.7823L35.2161 71.0645L39.523 71.7823L46.2227 75.3714L53.4009 77.2856L60.8184 76.0892L67.7574 71.7823L73.0214 71.0645L77.8069 71.7823L80.6782 72.5001L85.2244 75.1321L92.4026 76.807L98.863 75.6107L104.127 72.5001H105.323L108.912 71.3037H111.784L113.219 71.7823L116.569 72.9786L120.637 74.8928L125.901 77.2856H128.054L131.643 78.0034H134.754L137.625 76.0892L143.846 73.6965L139.061 87.8136L7.22106 88.5315L1.95703 72.9786Z" fill="#FCF4E9"/>
<path d="M78.8471 37.5086C83.6808 41.0753 89.0228 40.4229 91.0896 39.6509" stroke="#322658" stroke-width="3"/>
<path d="M69.1385 37.2819C64.6199 41.2401 59.242 41.0367 57.1179 40.4401" stroke="#322658" stroke-width="3"/>
<path d="M66.5605 48.8115L70.6691 50.2472L74.4041 48.8115L77.9523 50.2472L81.8741 48.8115" stroke="#322658"/>
<path d="M71.8245 55.9902H76.61L81.3955 49.2906L78.0457 50.4869L74.4566 49.0009L70.6282 50.4869L67.0391 49.2906L71.8245 55.9902Z" fill="#DF6F6F"/>
<ellipse cx="58.186" cy="43.0695" rx="5.98185" ry="2.87129" fill="#E07272" fill-opacity="0.3"/>
<ellipse cx="90.7279" cy="43.0695" rx="5.98185" ry="2.87129" fill="#E07272" fill-opacity="0.3"/>
<path d="M44.5908 14.0196C44.5908 10.9156 46.5454 8.14799 49.4707 7.10999L57.2852 4.3371C58.2181 4.00606 59.1754 3.74816 60.1484 3.56573L64.3193 2.78368C70.5353 1.61818 76.9182 1.66702 83.1156 2.92752L87.6042 3.84045L98.8627 7.4301C101.545 8.2854 103.366 10.7776 103.366 13.5932C103.366 17.544 99.8558 20.572 95.9478 19.9919L77.8355 17.3033C75.1037 16.8978 72.3208 16.9971 69.6249 17.5962L53.5129 21.1766C48.9342 22.1941 44.5908 18.71 44.5908 14.0196Z" fill="white" stroke="#DADADA" stroke-width="2"/>
<path d="M1 72.8684L10.9168 75.549C15.6015 76.8153 20.5965 76.1874 24.8221 73.8009V73.8009C30.6851 70.4896 37.9169 70.6501 43.6458 74.1884V74.1884C49.3576 77.7162 56.5586 77.9114 62.4365 74.6678L64.4191 73.5738C70.193 70.3876 77.2204 70.4877 82.9012 73.8372L83.2844 74.0632C88.9082 77.379 95.8914 77.3695 101.506 74.0383V74.0383C107.303 70.5994 114.539 70.7084 120.229 74.3204L120.553 74.5259C125.431 77.6223 131.475 78.265 136.895 76.2637L143.847 73.6968" stroke="#FCF4E9" stroke-width="2"/>
<path d="M3.39258 73.2178L35.8115 85.9857H74.4382H112.605L144.564 73.2178L117.345 172.277L99.583 178.977L74.4382 181.37L49.5271 178.977L29.9199 172.277L3.39258 73.2178Z" fill="#006563"/>
<path d="M48.3333 17.7059C48.3333 20.9403 47.3238 23.832 45.7374 25.8942C44.1519 27.9554 42.0308 29.1482 39.7624 29.1482C37.4939 29.1482 35.3728 27.9554 33.7873 25.8942C32.201 23.832 31.1914 20.9403 31.1914 17.7059C31.1914 14.4715 32.201 11.5799 33.7873 9.51763C35.3728 7.45647 37.4939 6.26367 39.7624 6.26367C42.0308 6.26367 44.1519 7.45647 45.7374 9.51763C47.3238 11.5799 48.3333 14.4715 48.3333 17.7059Z" fill="white" stroke="#DADADA" stroke-width="2"/>
<path d="M116.766 17.2274C116.766 20.4618 115.756 23.3534 114.17 25.4157C112.585 27.4769 110.463 28.6696 108.195 28.6696C105.927 28.6696 103.805 27.4769 102.22 25.4157C100.634 23.3534 99.624 20.4618 99.624 17.2274C99.624 13.993 100.634 11.1014 102.22 9.03912C103.805 6.97795 105.927 5.78516 108.195 5.78516C110.463 5.78516 112.585 6.97795 114.17 9.03912C115.756 11.1014 116.766 13.993 116.766 17.2274Z" fill="white" stroke="#DADADA" stroke-width="2"/>
</svg>
