<svg width="150" height="180" viewBox="0 0 150 180" fill="none" xmlns="http://www.w3.org/2000/svg">
<rect x="37" y="66" width="76.5" height="39.5" fill="#322658"/>
<rect x="30.5" y="50" width="89" height="16" rx="5" fill="#322658"/>
<ellipse cx="47.6917" cy="86.6654" rx="45.2879" ry="18.5019" transform="rotate(-35.0959 47.6917 86.6654)" fill="#E6B38E"/>
<ellipse cx="58.8422" cy="129.629" rx="45.2879" ry="21.4766" transform="rotate(-71.9689 58.8422 129.629)" fill="#E6B38E"/>
<ellipse rx="45.2879" ry="22.0764" transform="matrix(-0.309533 -0.950889 -0.950889 0.309533 93.1674 129.443)" fill="#E6B38E"/>
<ellipse rx="45.2879" ry="18.6907" transform="matrix(-0.818191 -0.574947 -0.574947 0.818191 102.2 86.5112)" fill="#E6B38E"/>
<ellipse cx="75.0714" cy="41.0851" rx="37.5851" ry="37.5851" fill="#E6B38E"/>
<circle cx="64.5" cy="38" r="4.5" fill="#322658"/>
<circle cx="85.5" cy="38" r="4.5" fill="#322658"/>
<path d="M66.0256 50.8151C75.0779 55.2209 83.9105 51.7925 87.1953 49.5277" stroke="#322658" stroke-width="3"/>
<circle cx="76.5" cy="89" r="4.5" fill="#A4688F"/>
<circle cx="76.5" cy="107" r="4.5" fill="#A4688F"/>
<path fill-rule="evenodd" clip-rule="evenodd" d="M46.5005 65.75C68.3852 75.9785 80.8732 76.0976 103.751 65.5L103.802 65.8856C104.228 65.8048 104.682 65.8632 105.092 66.0806C113.958 70.7888 119.096 74.8935 125.916 80.343L125.92 80.3457C126.601 80.89 127.299 81.4477 128.019 82.0208C128.8 82.6424 129.009 83.7459 128.503 84.6067L112.663 111.566C112.086 112.548 110.819 112.841 109.877 112.248L43.2505 111.25L43.2742 110.919L40.4919 112.858C39.5991 113.48 38.3727 113.274 37.7318 112.395L19.5644 87.4604C18.9601 86.631 19.0836 85.4765 19.8483 84.7921C28.3818 77.1537 34.4923 71.9063 45.1713 66.0958C45.5884 65.8688 46.054 65.808 46.4903 65.8932L46.5005 65.75Z" fill="#AF2010"/>
<path fill-rule="evenodd" clip-rule="evenodd" d="M75.3577 116.414C75.3669 116.364 75.4106 116.327 75.4614 116.327L110.792 116.327C111.599 116.327 112.328 116.813 112.634 117.56C116.764 127.647 118.515 134.552 120.148 146.836C120.28 147.83 119.65 148.769 118.68 149.025L83.1934 158.412C82.2788 158.654 81.318 158.222 80.9023 157.372C80.0236 155.576 79.2329 153.862 78.5266 152.21C77.7652 150.429 74.9353 150.441 74.1792 152.224C73.4545 153.933 72.6373 155.701 71.724 157.553C71.307 158.399 70.3487 158.828 69.4368 158.586L33.9437 149.198C32.9743 148.942 32.3443 148.003 32.4764 147.009C34.1092 134.725 35.8605 127.82 39.9903 117.733C40.296 116.986 41.0256 116.5 41.8324 116.5L75.2539 116.5C75.3048 116.5 75.3485 116.464 75.3577 116.414V116.414Z" fill="#969696"/>
<path d="M99 67.5L103.75 65.5C103.504 84.0445 103.59 94.3581 109 111.5H103.75C99.5323 98.8537 99.0754 88.1041 99 67.5Z" fill="black"/>
<path d="M47 66L52 68.2258C52.6935 90.2858 52.1259 100.233 48.75 112H43.5C48.0195 95.0558 48.2835 84.8218 47 66Z" fill="black"/>
<path d="M43.25 111H109.5C110.699 113.124 111.469 114.324 112 116.5H40.75L43.25 111Z" fill="black"/>
<rect x="67.5" y="110.5" width="15.5" height="6" fill="#A4688F"/>
<rect x="70.5" y="112.5" width="10" height="2.5" fill="black"/>
<rect x="49.5" y="80.5" width="52" height="4" fill="black"/>
<rect x="16.5" y="85.5537" width="6.57603" height="36.6365" rx="2" transform="rotate(-38.0578 16.5 85.5537)" fill="#DA4636"/>
<rect width="6.57603" height="36.6365" rx="2" transform="matrix(-0.840762 -0.541406 -0.541406 0.840762 133.984 84.209)" fill="#DA4636"/>
<path d="M135.847 78.236C137.864 76.6658 138.859 76.7052 140.287 78.9681L126.353 164.616L121.606 164.595L135.847 78.236Z" fill="black"/>
<path d="M16.2004 76.4124C14.2145 74.7853 13.2192 74.8029 11.7461 77.0515L23.9852 163.664L28.732 163.749L16.2004 76.4124Z" fill="black"/>
<path d="M127.77 127.5L132.296 128.232L127.026 160.808L122.25 159.75L127.77 127.5Z" fill="#D9D9D9"/>
<path d="M23.4042 126.507L18.8642 127.144L23.4521 159.824L28 159L23.4042 126.507Z" fill="#D9D9D9"/>
<ellipse cx="123.551" cy="166.043" rx="5.25" ry="2" transform="rotate(11.8285 123.551 166.043)" fill="black"/>
<ellipse rx="5.25" ry="2" transform="matrix(-0.982839 0.184463 0.184463 0.982839 26.7578 165.156)" fill="black"/>
<path d="M121.646 166.096L125.112 166.582L123.571 173.237L121.062 172.788L121.646 166.096Z" fill="black"/>
<path d="M28.6621 165.248L25.1867 165.662L26.5874 172.348L29.1059 171.951L28.6621 165.248Z" fill="black"/>
<path d="M110 17.3996C110 27.0091 94.7777 20.0902 76 20.0902C57.2223 20.0902 42 27.0091 42 17.3996C42 7.79005 57.2223 0 76 0C94.7777 0 110 7.79005 110 17.3996Z" fill="#005452"/>
<rect x="41.999" y="16" width="68" height="11" fill="#005452"/>
<ellipse cx="58.7699" cy="22.0007" rx="30.5667" ry="7.39141" transform="rotate(-13.4787 58.7699 22.0007)" fill="#005452"/>
<path d="M80.5653 28.225C85.0396 33.0098 91.7395 32.2734 94.5302 31.3071" stroke="#322658" stroke-width="2"/>
<path d="M68.965 28.7025C64.4907 33.4874 57.7907 32.7509 55.0001 31.7846" stroke="#322658" stroke-width="2"/>
<path d="M64.4668 7.18945C65.0501 7.28516 65.3486 7.59277 65.3623 8.1123C65.3714 8.25814 65.3281 8.35156 65.2324 8.39258C65.1367 8.42904 65.0684 8.41992 65.0273 8.36523C64.9544 8.07812 64.8063 7.889 64.583 7.79785C64.3096 7.70671 64.0361 7.76367 63.7627 7.96875C63.193 8.48372 62.9515 9.37923 63.0381 10.6553C63.2751 11.4528 63.6328 11.8766 64.1113 11.9268L64.125 11.2568L64.1318 10.4229L64.125 10.1016L63.4551 10.1426C63.3685 10.1107 63.3092 10.0309 63.2773 9.90332C63.2454 9.77572 63.2637 9.67773 63.332 9.60938C64.2982 9.55924 65.0068 9.5319 65.458 9.52734C65.5264 9.52279 65.5605 9.6071 65.5605 9.78027C65.5605 9.94889 65.5309 10.0378 65.4717 10.0469L64.6855 10.0811L64.665 10.9629V11.9062C64.9111 11.8379 65.1003 11.7445 65.2324 11.626C65.3464 11.5348 65.4352 11.5143 65.499 11.5645C65.5628 11.61 65.5742 11.7012 65.5332 11.8379C65.3646 12.2572 64.9932 12.485 64.4189 12.5215H64.043C63.3548 12.4896 62.8444 11.9814 62.5117 10.9971C62.4251 10.5459 62.4183 10.0355 62.4912 9.46582C62.6279 8.39486 63.0381 7.66113 63.7217 7.26465C63.9541 7.16895 64.2025 7.14388 64.4668 7.18945ZM67.4678 7.71582L67.4609 8.99414L67.4541 11.8994L68.5547 11.8789C68.6549 11.8743 68.7096 11.9564 68.7188 12.125C68.7324 12.2936 68.6823 12.3939 68.5684 12.4258L65.8135 12.4941C65.6585 12.4486 65.5902 12.3415 65.6084 12.1729C65.6312 12.0042 65.7155 11.9268 65.8613 11.9404L66.9209 11.9199V8.92578L66.9141 7.74316L65.8613 7.77734C65.7337 7.7181 65.6676 7.6224 65.6631 7.49023C65.6631 7.35352 65.7588 7.26921 65.9502 7.2373C67.3174 7.19629 68.1901 7.17122 68.5684 7.16211C68.6504 7.17578 68.6937 7.25553 68.6982 7.40137C68.7028 7.54264 68.6572 7.63379 68.5615 7.6748L67.4678 7.71582ZM71.9111 7.36719C71.8519 8.77995 71.8428 10.3477 71.8838 12.0703C71.8792 12.2845 71.738 12.3984 71.46 12.4121C71.1865 12.4212 70.986 12.2777 70.8584 11.9814L69.4912 8.61816L69.498 12.1318C69.5026 12.3415 69.4092 12.4463 69.2178 12.4463C69.0309 12.4417 68.9307 12.3324 68.917 12.1182L68.9102 7.55176C68.9102 7.38314 69.0127 7.29883 69.2178 7.29883C69.4274 7.29427 69.5801 7.36947 69.6758 7.52441L71.3164 11.5098C71.2526 10.1471 71.2708 8.77767 71.3711 7.40137C71.4212 7.24642 71.5146 7.16895 71.6514 7.16895C71.7926 7.16895 71.8792 7.23503 71.9111 7.36719ZM74.126 7.18945C74.7093 7.28516 75.0078 7.59277 75.0215 8.1123C75.0306 8.25814 74.9873 8.35156 74.8916 8.39258C74.7959 8.42904 74.7275 8.41992 74.6865 8.36523C74.6136 8.07812 74.4655 7.889 74.2422 7.79785C73.9688 7.70671 73.6953 7.76367 73.4219 7.96875C72.8522 8.48372 72.6107 9.37923 72.6973 10.6553C72.9342 11.4528 73.292 11.8766 73.7705 11.9268L73.7842 11.2568L73.791 10.4229L73.7842 10.1016L73.1143 10.1426C73.0277 10.1107 72.9684 10.0309 72.9365 9.90332C72.9046 9.77572 72.9229 9.67773 72.9912 9.60938C73.9574 9.55924 74.666 9.5319 75.1172 9.52734C75.1855 9.52279 75.2197 9.6071 75.2197 9.78027C75.2197 9.94889 75.1901 10.0378 75.1309 10.0469L74.3447 10.0811L74.3242 10.9629V11.9062C74.5703 11.8379 74.7594 11.7445 74.8916 11.626C75.0055 11.5348 75.0944 11.5143 75.1582 11.5645C75.222 11.61 75.2334 11.7012 75.1924 11.8379C75.0238 12.2572 74.6523 12.485 74.0781 12.5215H73.7021C73.014 12.4896 72.5036 11.9814 72.1709 10.9971C72.0843 10.5459 72.0775 10.0355 72.1504 9.46582C72.2871 8.39486 72.6973 7.66113 73.3809 7.26465C73.6133 7.16895 73.8617 7.14388 74.126 7.18945ZM75.4043 7.15527L78.0977 7.1416C78.2298 7.18262 78.2913 7.27148 78.2822 7.4082C78.2731 7.54492 78.2184 7.63151 78.1182 7.66797L75.9922 7.69531L75.9717 9.58887H78.1797C78.2891 9.61621 78.3415 9.70508 78.3369 9.85547C78.3324 10.0013 78.2845 10.097 78.1934 10.1426C77.5736 10.1471 77.0745 10.1494 76.6963 10.1494L75.9785 10.1631L75.9717 11.8857C76.7282 11.8402 77.4596 11.8402 78.166 11.8857C78.2754 11.9222 78.3232 12.0202 78.3096 12.1797C78.3005 12.3392 78.2389 12.4326 78.125 12.46C77.7695 12.3962 76.9128 12.4007 75.5547 12.4736C75.4362 12.4508 75.3815 12.3232 75.3906 12.0908L75.418 7.70215C75.2995 7.70215 75.2402 7.59733 75.2402 7.3877C75.2402 7.26921 75.2949 7.19173 75.4043 7.15527ZM79.458 7.16895C79.9046 7.14616 80.2783 7.18945 80.5791 7.29883C81.2354 7.51302 81.5658 7.85254 81.5703 8.31738C81.5931 8.65918 81.5316 8.92806 81.3857 9.12402C81.0667 9.5752 80.4538 9.85319 79.5469 9.95801L81.5293 11.9746C81.6068 12.0977 81.5794 12.2116 81.4473 12.3164C81.3197 12.4167 81.1943 12.4212 81.0713 12.3301L79.1094 10.334L79.1025 12.1387C79.1025 12.3438 79.0068 12.4463 78.8154 12.4463C78.624 12.4463 78.5283 12.3438 78.5283 12.1387V7.79102C78.5329 7.37174 78.8428 7.16439 79.458 7.16895ZM79.458 7.72949C79.2347 7.72493 79.1162 7.84115 79.1025 8.07812V9.37695H79.458C80.1553 9.31315 80.6178 9.13314 80.8457 8.83691C80.9323 8.71842 80.9801 8.62044 80.9893 8.54297C81.0166 8.23307 80.8503 8.00521 80.4902 7.85938C80.235 7.74544 79.891 7.70215 79.458 7.72949ZM71.1387 15.1758C71.8223 15.1621 72.2598 15.4287 72.4512 15.9756C72.4922 16.1533 72.4512 16.2832 72.3281 16.3652C72.2051 16.4473 72.0957 16.4176 72 16.2764C71.877 16.0713 71.7243 15.9255 71.542 15.8389C71.3962 15.7751 71.2503 15.75 71.1045 15.7637C70.7946 15.8184 70.5895 15.9232 70.4893 16.0781C70.4391 16.1738 70.4437 16.2673 70.5029 16.3584C71.4144 17.4613 72.057 18.4935 72.4307 19.4551C72.4808 19.6374 72.4694 19.7855 72.3965 19.8994C72.278 20.1045 72.0706 20.2594 71.7744 20.3643C71.5648 20.4372 71.3187 20.4463 71.0361 20.3916C70.2113 20.2321 69.6895 19.8675 69.4707 19.2979C69.4069 18.8877 69.4365 18.653 69.5596 18.5938C69.6826 18.5299 69.7852 18.5801 69.8672 18.7441C70.1224 19.3913 70.5827 19.749 71.248 19.8174C71.4349 19.8174 71.599 19.79 71.7402 19.7354C71.8451 19.6989 71.877 19.6191 71.8359 19.4961C71.403 18.5391 70.7855 17.5798 69.9834 16.6182C69.7829 16.2673 69.7669 15.9642 69.9355 15.709C70.1178 15.3991 70.5189 15.2214 71.1387 15.1758ZM73.3057 15.1963C74.1715 15.137 74.7754 15.2008 75.1172 15.3877C75.3678 15.5016 75.5273 15.6497 75.5957 15.832C75.696 16.11 75.7005 16.4336 75.6094 16.8027C75.418 17.6595 74.625 18.0583 73.2305 17.999V19.6875V20.1797C73.2031 20.4486 73.1029 20.5534 72.9297 20.4941C72.7565 20.4303 72.6699 20.2526 72.6699 19.9609V15.6543C72.6699 15.39 72.8818 15.2373 73.3057 15.1963ZM73.2441 15.9824V17.4316C73.6908 17.4316 74.0075 17.4111 74.1943 17.3701C74.4085 17.3245 74.5999 17.2334 74.7686 17.0967C75.0146 16.9189 75.1263 16.6364 75.1035 16.249C75.0853 15.8617 74.543 15.7067 73.4766 15.7842C73.3216 15.8024 73.2441 15.8685 73.2441 15.9824ZM77.7764 15.1826C78.1455 15.2282 78.4508 15.5745 78.6924 16.2217C78.9704 17.279 78.9863 18.3021 78.7402 19.291C78.5124 20.0885 78.0179 20.4714 77.2568 20.4395C76.5459 20.4258 76.0947 19.8766 75.9033 18.792C75.8304 18.1357 75.8532 17.4932 75.9717 16.8643C76.0492 16.3538 76.2975 15.8936 76.7168 15.4834C77.0586 15.2327 77.4118 15.1325 77.7764 15.1826ZM77.5166 15.8047C77.2113 15.8138 76.9788 15.9756 76.8193 16.29C76.5869 16.7913 76.4707 17.2904 76.4707 17.7871C76.4434 19.1042 76.7464 19.7878 77.3799 19.8379C77.585 19.8561 77.7946 19.7126 78.0088 19.4072C78.3324 18.8011 78.3962 17.9375 78.2002 16.8164C78.0544 16.1283 77.8265 15.791 77.5166 15.8047ZM80.0117 15.1689C80.4583 15.1462 80.832 15.1895 81.1328 15.2988C81.7891 15.513 82.1195 15.8525 82.124 16.3174C82.1468 16.6592 82.0853 16.9281 81.9395 17.124C81.6204 17.5752 81.0075 17.8532 80.1006 17.958L82.083 19.9746C82.1605 20.0977 82.1331 20.2116 82.001 20.3164C81.8734 20.4167 81.748 20.4212 81.625 20.3301L79.6631 18.334L79.6562 20.1387C79.6562 20.3438 79.5605 20.4463 79.3691 20.4463C79.1777 20.4463 79.082 20.3438 79.082 20.1387V15.791C79.0866 15.3717 79.3965 15.1644 80.0117 15.1689ZM80.0117 15.7295C79.7884 15.7249 79.6699 15.8411 79.6562 16.0781V17.377H80.0117C80.709 17.3132 81.1715 17.1331 81.3994 16.8369C81.486 16.7184 81.5339 16.6204 81.543 16.543C81.5703 16.2331 81.404 16.0052 81.0439 15.8594C80.7887 15.7454 80.4447 15.7021 80.0117 15.7295ZM85.3574 15.415C85.3757 15.5609 85.3369 15.6611 85.2412 15.7158C84.9176 15.7796 84.5371 15.8161 84.0996 15.8252C84.0358 16.5908 84.0381 18.0583 84.1064 20.2275C84.1064 20.4235 84.013 20.5101 83.8262 20.4873C83.6393 20.46 83.5459 20.3369 83.5459 20.1182C83.5049 18.8695 83.5072 17.4453 83.5527 15.8457C83.2246 15.8594 82.8965 15.8662 82.5684 15.8662C82.4089 15.8434 82.3223 15.7477 82.3086 15.5791C82.2995 15.4105 82.3792 15.3034 82.5479 15.2578H82.7734C83.3249 15.2852 84.1064 15.2533 85.1182 15.1621C85.2594 15.1803 85.3392 15.2646 85.3574 15.415ZM87.2373 15.1758C87.9209 15.1621 88.3584 15.4287 88.5498 15.9756C88.5908 16.1533 88.5498 16.2832 88.4268 16.3652C88.3037 16.4473 88.1943 16.4176 88.0986 16.2764C87.9756 16.0713 87.8229 15.9255 87.6406 15.8389C87.4948 15.7751 87.349 15.75 87.2031 15.7637C86.8932 15.8184 86.6882 15.9232 86.5879 16.0781C86.5378 16.1738 86.5423 16.2673 86.6016 16.3584C87.513 17.4613 88.1556 18.4935 88.5293 19.4551C88.5794 19.6374 88.568 19.7855 88.4951 19.8994C88.3766 20.1045 88.1693 20.2594 87.873 20.3643C87.6634 20.4372 87.4173 20.4463 87.1348 20.3916C86.3099 20.2321 85.7881 19.8675 85.5693 19.2979C85.5055 18.8877 85.5352 18.653 85.6582 18.5938C85.7812 18.5299 85.8838 18.5801 85.9658 18.7441C86.221 19.3913 86.6813 19.749 87.3467 19.8174C87.5335 19.8174 87.6976 19.79 87.8389 19.7354C87.9437 19.6989 87.9756 19.6191 87.9346 19.4961C87.5016 18.5391 86.8841 17.5798 86.082 16.6182C85.8815 16.2673 85.8656 15.9642 86.0342 15.709C86.2165 15.3991 86.6175 15.2214 87.2373 15.1758Z" fill="white"/>
</svg>
