<svg width="78" height="33" viewBox="0 0 78 33" fill="none" xmlns="http://www.w3.org/2000/svg">
<rect width="78" height="33" rx="16.5" fill="#4C243C"/>
<path d="M22.2451 10.4062C22.473 10.4154 22.6553 10.5931 22.792 10.9395L22.7783 15.2598H24.2412C24.4144 15.278 24.4919 15.4329 24.4736 15.7246C24.4645 16.0072 24.3734 16.1667 24.2002 16.2031L22.7783 16.2305L22.7646 21.6719C22.7646 22.2188 22.637 22.4603 22.3818 22.3965C22.1357 22.3418 21.958 22.0729 21.8486 21.5898V10.9258C21.8942 10.5612 22.0264 10.388 22.2451 10.4062ZM15.9424 12.0059H19.7021C20.0667 12.0059 20.249 12.1745 20.249 12.5117L20.0986 18.459C20.0439 18.7689 19.9072 18.9557 19.6885 19.0195L15.71 19.0332C15.473 18.9147 15.3545 18.7279 15.3545 18.4727L15.1904 12.7715C15.2816 12.3978 15.5322 12.1426 15.9424 12.0059ZM16.4346 12.9629C16.2432 13.0814 16.1748 13.2409 16.2295 13.4414L16.3252 17.7207C16.3252 17.9668 16.4255 18.0898 16.626 18.0898L18.8135 18.0762C19.0505 18.0762 19.1735 17.9668 19.1826 17.748L19.251 13.373C19.251 13.1543 19.1507 13.0176 18.9502 12.9629H16.4346ZM27.5908 11.9512C27.9463 11.8509 28.3063 11.8509 28.6709 11.9512C29.9105 12.2793 30.6214 13.0814 30.8037 14.3574C30.8675 14.7311 30.863 15.1094 30.79 15.4922C30.6351 16.7956 29.8968 17.6523 28.5752 18.0625C28.2015 18.1536 27.8324 18.1491 27.4678 18.0488C26.2464 17.5475 25.5811 16.709 25.4717 15.5332C25.3988 15.123 25.417 14.7174 25.5264 14.3164C25.8271 13.0677 26.5153 12.2793 27.5908 11.9512ZM26.5381 15.4102C26.6748 16.2122 27.0257 16.7546 27.5908 17.0371C27.9007 17.1374 28.1969 17.151 28.4795 17.0781C29.1357 16.832 29.5778 16.2806 29.8057 15.4238C29.8877 15.0775 29.8968 14.7539 29.833 14.4531C29.7236 13.7604 29.3089 13.2637 28.5889 12.9629C28.2881 12.8444 27.9691 12.849 27.6318 12.9766C27.0941 13.2135 26.7477 13.6784 26.5928 14.3711C26.5016 14.6992 26.4834 15.0456 26.5381 15.4102ZM32.9502 10.3379C33.2145 10.3105 33.4105 10.4336 33.5381 10.707L33.5244 21.8359C33.5244 22.2188 33.3695 22.3828 33.0596 22.3281C32.7497 22.2826 32.5856 22.0957 32.5674 21.7676L32.5811 10.7754C32.5628 10.502 32.6859 10.3561 32.9502 10.3379ZM40.8936 14.7129V13.1133L40.9072 11.2676C40.9255 10.9668 41.0758 10.821 41.3584 10.8301C41.6501 10.8301 41.8096 10.944 41.8369 11.1719L41.7822 20.0176C41.7549 20.3457 41.6045 20.5098 41.3311 20.5098C41.0667 20.5098 40.9118 20.3457 40.8662 20.0176L40.8799 15.6973H40.1143C39.8408 15.679 39.7041 15.515 39.7041 15.2051C39.7041 14.8861 39.818 14.722 40.0459 14.7129H40.8936ZM43.3955 10.7754L43.3682 21.8223C43.2861 22.1686 43.1266 22.3053 42.8896 22.2324C42.6527 22.1595 42.516 21.9727 42.4795 21.6719L42.4932 10.7754C42.5387 10.4928 42.6937 10.3424 42.958 10.3242C43.2314 10.2969 43.3773 10.4473 43.3955 10.7754ZM40.2236 11.6094C40.5062 11.6732 40.6475 11.8418 40.6475 12.1152C40.6475 12.3887 40.5062 12.5527 40.2236 12.6074L39.2803 12.6211L39.2666 17.3926L40.1143 17.4062C40.4515 17.4336 40.6247 17.5749 40.6338 17.8301C40.652 18.0853 40.5107 18.2721 40.21 18.3906L35.0146 18.4043C34.7503 18.4043 34.6045 18.2539 34.5771 17.9531C34.5589 17.6523 34.6865 17.4655 34.96 17.3926H35.9443L35.9307 12.6211H34.9873C34.7139 12.5938 34.5771 12.4479 34.5771 12.1836C34.5771 11.9193 34.7093 11.737 34.9736 11.6367L40.2236 11.6094ZM36.9561 17.3926H38.2959V12.6074L36.9561 12.6211V17.3926ZM46.7588 11.9512C47.1143 11.8509 47.4743 11.8509 47.8389 11.9512C49.0785 12.2793 49.7894 13.0814 49.9717 14.3574C50.0355 14.7311 50.0309 15.1094 49.958 15.4922C49.8031 16.7956 49.0648 17.6523 47.7432 18.0625C47.3695 18.1536 47.0003 18.1491 46.6357 18.0488C45.4144 17.5475 44.749 16.709 44.6396 15.5332C44.5667 15.123 44.585 14.7174 44.6943 14.3164C44.9951 13.0677 45.6833 12.2793 46.7588 11.9512ZM45.7061 15.4102C45.8428 16.2122 46.1937 16.7546 46.7588 17.0371C47.0687 17.1374 47.3649 17.151 47.6475 17.0781C48.3037 16.832 48.7458 16.2806 48.9736 15.4238C49.0557 15.0775 49.0648 14.7539 49.001 14.4531C48.8916 13.7604 48.4769 13.2637 47.7568 12.9629C47.4561 12.8444 47.137 12.849 46.7998 12.9766C46.262 13.2135 45.9157 13.6784 45.7607 14.3711C45.6696 14.6992 45.6514 15.0456 45.7061 15.4102ZM52.1182 10.3379C52.3825 10.3105 52.5785 10.4336 52.7061 10.707L52.6924 21.8359C52.6924 22.2188 52.5374 22.3828 52.2275 22.3281C51.9176 22.2826 51.7536 22.0957 51.7354 21.7676L51.749 10.7754C51.7308 10.502 51.8538 10.3561 52.1182 10.3379ZM61.7021 10.3379C61.9665 10.3105 62.1624 10.4336 62.29 10.707L62.2764 21.8359C62.2764 22.2188 62.1214 22.3828 61.8115 22.3281C61.5016 22.2826 61.3376 22.0957 61.3193 21.7676L61.333 10.7754C61.3148 10.502 61.4378 10.3561 61.7021 10.3379ZM59.0635 12.9629L57.4229 15.0547L59.3096 17.5977C59.3916 17.8711 59.3096 18.0762 59.0635 18.2129C58.8174 18.3496 58.6169 18.2995 58.4619 18.0625L56.7529 15.834L54.9346 18.0898C54.7523 18.263 54.5518 18.263 54.333 18.0898C54.1143 17.9167 54.0824 17.6706 54.2373 17.3516L57.9014 12.8398C58.0199 12.7305 57.9834 12.694 57.792 12.7305L54.3467 12.9492C54.1644 12.8672 54.0778 12.7031 54.0869 12.457C54.096 12.2018 54.21 12.0378 54.4287 11.9648L58.4756 11.7461C58.9313 11.7461 59.1729 11.9421 59.2002 12.334C59.2184 12.5618 59.1729 12.7715 59.0635 12.9629Z" fill="white"/>
<rect x="4.5" y="3.5" width="68" height="26.2632" rx="13.1316" stroke="white" stroke-dasharray="5 5"/>
</svg>
