<svg width="150" height="176" viewBox="0 0 150 176" fill="none" xmlns="http://www.w3.org/2000/svg">
<ellipse cx="47.6917" cy="83.1654" rx="45.2879" ry="18.5019" transform="rotate(-35.0959 47.6917 83.1654)" fill="#E6B38E"/>
<ellipse cx="58.8422" cy="126.129" rx="45.2879" ry="21.4766" transform="rotate(-71.9689 58.8422 126.129)" fill="#E6B38E"/>
<path d="M79.1494 82.88C67.5557 86.654 64.4333 108.994 72.1753 132.777C79.9173 156.561 110.563 116.493 109.749 167.25C90.5631 119.493 121.902 142.894 114.16 119.11C106.418 95.3269 90.7431 79.1061 79.1494 82.88Z" fill="#E6B38E"/>
<ellipse rx="45.2879" ry="18.6907" transform="matrix(-0.818191 -0.574947 -0.574947 0.818191 102.2 83.0122)" fill="#E6B38E"/>
<ellipse cx="75.0714" cy="37.5851" rx="37.5851" ry="37.5851" fill="#E6B38E"/>
<ellipse cx="64.5" cy="34.5" rx="4.5" ry="4.5" fill="#322658"/>
<ellipse cx="85.5" cy="34.5" rx="4.5" ry="4.5" fill="#322658"/>
<line x1="55.8714" y1="25.5715" x2="70.8714" y2="31.5715" stroke="#322658" stroke-width="2"/>
<line x1="108.869" y1="20.3234" x2="95.5671" y2="29.4915" stroke="#322658" stroke-width="2"/>
<path d="M94.8145 25.5352L79.8145 31.5352" stroke="#322658" stroke-width="2"/>
<ellipse cx="76.5" cy="85.5" rx="4.5" ry="4.5" fill="#A4688F"/>
<ellipse cx="76.5" cy="103.5" rx="4.5" ry="4.5" fill="#A4688F"/>
<ellipse cx="50" cy="43.75" rx="1.5" ry="1.75" fill="#BCAEAE"/>
<ellipse cx="50" cy="36.25" rx="1.5" ry="1.75" fill="#BCAEAE"/>
<ellipse cx="50" cy="33.25" rx="1.5" ry="1.75" fill="#BCAEAE"/>
<ellipse cx="50" cy="25.25" rx="1.5" ry="1.75" fill="#BCAEAE"/>
<ellipse cx="50" cy="22.25" rx="1.5" ry="1.75" fill="#BCAEAE"/>
<ellipse cx="50" cy="19.25" rx="1.5" ry="1.75" fill="#BCAEAE"/>
<ellipse cx="50" cy="49.75" rx="2.5" ry="4.75" fill="#561B1F"/>
<rect x="48" y="26.5" width="4" height="6" rx="2" fill="#0E5E6F"/>
<circle cx="50" cy="40" r="2.5" fill="#AF2010"/>
<path d="M54.5 5.75H95.25L103 11.5L108 19.5H42.25L47.5 11.5L54.5 5.75Z" fill="#922518"/>
<path d="M66.1269 46.8465C66.3835 46.5154 66.7377 46.2732 67.1394 46.1541L74.2351 44.0511C74.8588 43.8663 75.5336 44.0437 75.9857 44.5115C76.8364 45.3917 76.54 46.8515 75.4134 47.3302L68.0739 50.4491C66.1771 51.2552 64.4484 49.0123 65.7109 47.3833L66.1269 46.8465Z" fill="#5D4037"/>
<path d="M74.3727 45.794C74.3727 46.5239 74.8118 47.1823 75.4857 47.4628L82.8752 50.5385C84.7718 51.3279 86.4834 49.0875 85.2232 47.4652L84.5942 46.6554C84.3299 46.3151 83.9628 46.0693 83.5475 45.9546L76.6618 44.0517C75.5105 43.7336 74.3727 44.5996 74.3727 45.794Z" fill="#5D4037"/>
<ellipse cx="63.6059" cy="37.838" rx="6.25" ry="3" transform="rotate(2.50759 63.6059 37.838)" fill="#5D4037" fill-opacity="0.1"/>
<path d="M79.5 29.1937C79.5 27.8872 80.3455 26.731 81.5904 26.3349L89.5904 23.7894C90.1822 23.6011 90.8178 23.6011 91.4096 23.7894L94.2199 24.6836C95.3096 25.0303 96.1075 25.9664 96.2771 27.0974L96.7168 30.0287C96.7389 30.176 96.75 30.3248 96.75 30.4737V35.9955C96.75 37.0793 96.1654 38.0788 95.2208 38.6102L89.9338 41.5841C89.1814 42.0074 88.2831 42.0859 87.4686 41.7998L81.5055 39.7047C80.304 39.2825 79.5 38.1478 79.5 36.8743V29.1937Z" fill="#322658"/>
<path d="M78.25 140.25L115.75 125.5L116.336 131.208L83.5 144L78.25 140.25Z" fill="#885028"/>
<path d="M93.3855 139.249L106.885 133.5L113.385 168.75L108.886 170.251L93.3855 139.249Z" fill="#885028"/>
<path d="M38.7497 116.5L109.25 104.5L111.5 110.25L36.4999 123L38.7497 116.5Z" fill="#5D4037"/>
<path d="M39.1879 107.501L45.6296 111.263L39.1881 132.299L31.2499 132.299L39.1879 107.501Z" fill="#5D4037"/>
<path d="M103.736 38.5677C103.55 46.7597 97.5008 51.8462 93.9995 53.2501" stroke="#322658" stroke-width="2"/>
<line x1="100.555" y1="42.6679" x2="105.055" y2="45.6679" stroke="#322658" stroke-width="2"/>
<line x1="97.0547" y1="47.6679" x2="101.555" y2="50.6679" stroke="#322658" stroke-width="2"/>
</svg>
