<svg width="150" height="186" viewBox="0 0 150 186" fill="none" xmlns="http://www.w3.org/2000/svg">
<ellipse cx="47.6917" cy="93.1312" rx="45.2879" ry="18.5019" transform="rotate(-35.0959 47.6917 93.1312)" fill="#E6B38E"/>
<ellipse cx="58.8422" cy="136.094" rx="45.2879" ry="21.4766" transform="rotate(-71.9689 58.8422 136.094)" fill="#E6B38E"/>
<ellipse rx="45.2879" ry="22.0764" transform="matrix(-0.309533 -0.950889 -0.950889 0.309533 93.1684 135.909)" fill="#E6B38E"/>
<ellipse rx="45.2879" ry="18.6907" transform="matrix(-0.818191 -0.574947 -0.574947 0.818191 102.2 92.977)" fill="#E6B38E"/>
<ellipse cx="75.0714" cy="47.5509" rx="37.5851" ry="37.5851" fill="#E6B38E"/>
<circle cx="64.5" cy="44.4658" r="4.5" fill="#322658"/>
<circle cx="85.5" cy="44.4658" r="4.5" fill="#322658"/>
<path d="M66.0256 57.281C75.0779 61.6867 83.9105 58.2584 87.1953 55.9935" stroke="#322658" stroke-width="2"/>
<circle cx="76.5" cy="95.4658" r="4.5" fill="#A4688F"/>
<circle cx="76.5" cy="113.466" r="4.5" fill="#A4688F"/>
<path d="M80.9999 11.6738C88.5015 17.5601 64.9157 26.9101 53.9997 32.8479C50.5 33.4268 42.8429 34.6975 40.4678 30.3311C38.0927 25.9647 42.2497 16.9649 55.9325 11.6738C72 4.42676 78.6248 7.30737 80.9999 11.6738Z" fill="#DB6E05"/>
<path d="M65.9992 10.4266C61.8684 18.0206 84.2282 26.9529 95.1442 32.8906C101.5 33.9268 106.301 34.7402 108.676 30.3738C111.051 26.0074 106.5 18.9446 93.2114 11.7165C82.2954 5.77876 68.3743 6.06024 65.9992 10.4266Z" fill="#DB6E05"/>
<circle cx="84" cy="51.9658" r="0.5" fill="#DB9F74"/>
<circle cx="80" cy="49.9658" r="0.5" fill="#DB9F74"/>
<circle cx="74.5" cy="49.9658" r="0.5" fill="#DB9F74"/>
<circle cx="73.5" cy="52.9658" r="0.5" fill="#DB9F74"/>
<circle cx="77.5" cy="51.9658" r="0.5" fill="#DB9F74"/>
<circle cx="81" cy="52.9658" r="0.5" fill="#DB9F74"/>
<circle cx="70.5" cy="50.9658" r="0.5" fill="#DB9F74"/>
<circle cx="69" cy="52.9658" r="0.5" fill="#DB9F74"/>
<path d="M41.1025 68.4658L80.9512 86.0613L76.7516 94.9658L42.0016 79.9658L41.1025 68.4658Z" fill="#C5CEF7"/>
<path d="M109.849 67.4658L70 85.0613L74.1996 93.9658L108.95 78.9658L109.849 67.4658Z" fill="#C5CEF7"/>
<rect x="40.6953" y="73.998" width="33.9879" height="41.834" rx="3" transform="rotate(48.4496 40.6953 73.998)" fill="#4E262C"/>
<path d="M111.766 75.9577C110.517 74.8592 108.612 74.9873 107.521 76.2431L89.748 96.6971C88.6688 97.9391 88.7914 99.8186 90.0227 100.91L116.364 124.256C117.604 125.355 119.5 125.241 120.599 124.001L138.665 103.617C139.767 102.373 139.649 100.471 138.401 99.3737L111.766 75.9577Z" fill="#4E262C"/>
<rect width="42.0028" height="55.5281" rx="3" transform="matrix(0.980223 0.197898 -0.217746 0.976005 42.5479 109.341)" fill="#C5CEF7"/>
<rect width="42.6364" height="55.5281" rx="3" transform="matrix(-0.980223 0.197898 0.217746 0.976005 110.293 109.792)" fill="#C5CEF7"/>
<rect width="2.74296" height="55.2027" transform="matrix(0.98022 0.19791 -0.217758 0.976003 47.4932 110.393)" fill="white"/>
<rect width="2.74296" height="55.2027" transform="matrix(-0.98022 0.19791 0.217758 0.976003 104 111.122)" fill="white"/>
<rect width="2.74296" height="55.2027" transform="matrix(0.98022 0.19791 -0.217758 0.976003 56.5 112.303)" fill="white"/>
<rect width="2.74296" height="55.2027" transform="matrix(-0.98022 0.19791 0.217758 0.976003 95 113.032)" fill="white"/>
<path d="M41.25 70.7158L41.5 73.2148L66.5 82.9658C66.5 82.9658 70.2421 83.5273 72.75 83.4658L41.25 70.7158Z" fill="white"/>
<path d="M109.669 70.4658L109.419 72.9648L84.4189 82.7158C84.4189 82.7158 80.6769 83.2773 78.169 83.2158L109.669 70.4658Z" fill="white"/>
<rect width="2.74296" height="55.2027" transform="matrix(-0.98022 0.19791 0.217758 0.976003 86 114.771)" fill="white"/>
<rect width="2.74296" height="55.2027" transform="matrix(0.98022 0.19791 -0.217758 0.976003 74.5 116.255)" fill="white"/>
<rect width="2.74296" height="55.2027" transform="matrix(0.98022 0.19791 -0.217758 0.976003 65.5 113.966)" fill="white"/>
<rect width="2.74296" height="55.2027" transform="matrix(-0.98022 0.19791 0.217758 0.976003 76.918 116.985)" fill="white"/>
<path d="M38.7937 78.687C38.8923 76.5604 41.1219 75.2132 43.081 76.0463C67.0363 86.2332 84.0342 85.4602 107.607 75.6417C109.515 74.847 111.674 76.1218 111.841 78.1821L116.488 135.724C116.629 137.471 115.25 138.966 113.498 138.966H39.1423C37.4309 138.966 36.0662 137.536 36.1455 135.827L38.7937 78.687Z" fill="#4E262C"/>
<path d="M74.0742 99.1416C75.8607 99.0505 77.3555 99.2236 78.5586 99.6611C81.1836 100.518 82.5052 101.876 82.5234 103.735C82.6146 105.103 82.3685 106.178 81.7852 106.962C80.5091 108.767 78.0573 109.879 74.4297 110.298L82.3594 118.364C82.6693 118.856 82.5599 119.312 82.0312 119.731C81.5208 120.132 81.0195 120.151 80.5273 119.786L72.6797 111.802L72.6523 119.021C72.6523 119.841 72.2695 120.251 71.5039 120.251C70.7383 120.251 70.3555 119.841 70.3555 119.021V101.63C70.3737 99.9528 71.6133 99.1234 74.0742 99.1416ZM74.0742 101.384C73.181 101.366 72.707 101.83 72.6523 102.778V107.974H74.0742C76.8633 107.718 78.7135 106.998 79.625 105.813C79.9714 105.34 80.1628 104.948 80.1992 104.638C80.3086 103.398 79.6432 102.487 78.2031 101.903C77.1823 101.448 75.806 101.274 74.0742 101.384Z" fill="#C9A783"/>
<path d="M79.5246 38.0648C86.8263 34.3461 94.4432 38.2515 97.3389 40.6691" stroke="#322658"/>
<path d="M70.8142 38.2474C63.5126 34.5287 55.8957 38.4342 53 40.8517" stroke="#322658"/>
<path d="M70.5827 36.9767C64.7463 32.9122 57.3736 36.218 54.4168 38.3789" stroke="#322658"/>
<path d="M79.9589 36.8599C85.8539 32.8809 93.1777 36.2936 96.1027 38.4974" stroke="#322658"/>
<path d="M14.8653 126.768L9.43639 102.884L20.831 98.8741L26.2599 122.758L14.8653 126.768Z" fill="white" stroke="black"/>
<path d="M10.0346 101.685L12.3846 91.8615L20.2206 98.2288L10.0346 101.685Z" fill="white" stroke="black"/>
<path d="M9.38342 125.209L4.17704 102.304L8.9278 102.902L14.3155 126.605L9.38342 125.209Z" fill="white" stroke="black"/>
<path d="M10.79 116.89L13 125.927" stroke="#AF2010" stroke-width="0.6"/>
<path d="M8.78906 116.885L11 125.427" stroke="#AF2010" stroke-width="0.6"/>
<ellipse cx="20.5627" cy="113.486" rx="1" ry="1.25" transform="rotate(-12.8059 20.5627 113.486)" fill="#A4688F"/>
<ellipse cx="9.72582" cy="115.437" rx="1" ry="1.25" transform="rotate(-12.8059 9.72582 115.437)" fill="#AF2010"/>
<ellipse cx="16.8739" cy="114.471" rx="1" ry="1.25" transform="rotate(-3.719 16.8739 114.471)" fill="#A4D6CB"/>
<ellipse cx="18.6125" cy="113.929" rx="1" ry="1.25" transform="rotate(-12.8059 18.6125 113.929)" fill="#F9C267"/>
<ellipse cx="19.7873" cy="110.073" rx="1" ry="1.25" transform="rotate(-12.8059 19.7873 110.073)" fill="#E07272"/>
<ellipse cx="17.866" cy="110.614" rx="1" ry="1.25" transform="rotate(58.2351 17.866 110.614)" fill="#F4AFCE"/>
<ellipse cx="8.46215" cy="112.134" rx="1" ry="1.25" transform="rotate(-12.8059 8.46215 112.134)" fill="#005452"/>
<ellipse cx="9.22415" cy="112.824" rx="1" ry="1.25" transform="rotate(-57.5676 9.22415 112.824)" fill="#4C243C"/>
<ellipse cx="19.1448" cy="111.757" rx="1" ry="1.25" transform="rotate(-12.8059 19.1448 111.757)" fill="#322658"/>
<ellipse cx="16.3743" cy="110.849" rx="1" ry="1.25" transform="rotate(-12.8059 16.3743 110.849)" fill="#885028"/>
<ellipse rx="1" ry="1.25" transform="matrix(0.817614 0.575766 -0.575765 0.817615 16.8753 112.611)" fill="#F48135"/>
<ellipse cx="8.96314" cy="113.897" rx="1" ry="1.25" transform="rotate(35.1533 8.96314 113.897)" fill="#F0B3B0"/>
<path d="M12.5 93L13 100.5" stroke="#AF2010" stroke-width="0.6"/>
<path d="M12.5002 92.4993L17.2571 99.3112" stroke="#AF2010" stroke-width="0.6"/>
<path d="M11.5 102.427L16.5 125.927" stroke="#AF2010" stroke-width="0.6"/>
<path d="M19.5 99.5L25.0003 122.927" stroke="#AF2010" stroke-width="0.6"/>
<path d="M17.5 100.5L18.791 105.893" stroke="#AF2010" stroke-width="0.6"/>
<path d="M20.7422 114.405L23 123.927" stroke="#AF2010" stroke-width="0.6"/>
<path d="M13.5 101.927L14.791 107.393" stroke="#AF2010" stroke-width="0.6"/>
<path d="M16.744 115.913L18.9999 125.427" stroke="#AF2010" stroke-width="0.6"/>
<path d="M16.4417 115.659L14.5709 107.428L19.8299 105.751L21.7008 113.982L16.4417 115.659Z" stroke="black"/>
<path d="M8.42791 116.493L6.57244 108.33L9.13116 108.307L11.0471 116.736L8.42791 116.493Z" stroke="black"/>
<rect x="17" y="118.092" width="6.72062" height="1.5" rx="0.749999" transform="rotate(-18.443 17 118.092)" fill="#FFDF35"/>
<rect x="16.5" y="120.507" width="8.03318" height="1.5" rx="0.75" transform="rotate(-18.443 16.5 120.507)" fill="#FFDF35"/>
<rect x="17.5" y="122.477" width="6.35662" height="1.5" rx="0.750001" transform="rotate(-18.443 17.5 122.477)" fill="#FFDF35"/>
<path d="M7.50062 94.216L5.5005 101.427" stroke="#AF2010" stroke-width="0.6"/>
<path d="M7.45312 94.2158L7 101.427" stroke="#AF2010" stroke-width="0.6"/>
<path d="M7.5 102.927L8.74993 107.966" stroke="#AF2010" stroke-width="0.6"/>
<path d="M6 103L7 108" stroke="#AF2010" stroke-width="0.6"/>
<path d="M4.24768 101.331L7.45131 94.0272L8.78593 102.086L4.24768 101.331Z" stroke="black"/>
</svg>
