<svg width="150" height="205" viewBox="0 0 150 205" fill="none" xmlns="http://www.w3.org/2000/svg">
<ellipse cx="47.6917" cy="111.165" rx="45.2879" ry="18.5019" transform="rotate(-35.0959 47.6917 111.165)" fill="#E6B38E"/>
<ellipse cx="58.8422" cy="154.129" rx="45.2879" ry="21.4766" transform="rotate(-71.9689 58.8422 154.129)" fill="#E6B38E"/>
<ellipse rx="45.2879" ry="22.0764" transform="matrix(-0.309533 -0.950889 -0.950889 0.309533 93.1684 153.943)" fill="#E6B38E"/>
<ellipse rx="45.2879" ry="18.6907" transform="matrix(-0.818191 -0.574947 -0.574947 0.818191 102.2 111.011)" fill="#E6B38E"/>
<ellipse cx="75.0851" cy="65.5851" rx="37.5851" ry="37.5851" fill="#E6B38E"/>
<path fill-rule="evenodd" clip-rule="evenodd" d="M38.7197 55.4898C38.4037 56.6258 40.1436 57.1221 40.7616 56.1178C47.3431 45.4223 60.1047 38.1702 74.7687 38.1702C89.8445 38.1702 102.909 45.8352 109.315 57.0268C109.904 58.055 111.69 57.611 111.404 56.4614C107.327 40.1125 92.5448 27.9999 74.9336 27.9999C57.6731 27.9999 43.1301 39.6349 38.7197 55.4898Z" fill="#7A451F"/>
<ellipse cx="60.75" cy="68" rx="6.25" ry="3" fill="#E07272" fill-opacity="0.3"/>
<ellipse cx="90.75" cy="68" rx="6.25" ry="3" fill="#E07272" fill-opacity="0.3"/>
<ellipse cx="76" cy="74.75" rx="10" ry="6.25" fill="#FCF4E9"/>
<line x1="76" y1="74.5" x2="76" y2="71" stroke="#322658" stroke-width="2"/>
<ellipse cx="76" cy="69.8571" rx="5" ry="2.85714" fill="#AF2010"/>
<path d="M70.5002 74.051C73.0926 77.291 73.9592 76.3443 76.0002 74.051" stroke="#322658" stroke-width="2"/>
<path d="M75.8 74.051C78.3924 77.291 79.259 76.3443 81.3 74.051" stroke="#322658" stroke-width="2"/>
<circle cx="64.5" cy="62.5" r="4.5" fill="#322658"/>
<circle cx="85.5" cy="62.5" r="4.5" fill="#322658"/>
<line x1="59.7873" y1="54.0422" x2="69.7873" y2="57.0422" stroke="#322658" stroke-width="2"/>
<line y1="-1" x2="10.4403" y2="-1" transform="matrix(-0.957826 0.287348 0.287348 0.957826 91 55)" stroke="#322658" stroke-width="2"/>
<path d="M54.6542 40.0068C54.0607 43.6105 48.9717 45.7731 43.2876 44.837C37.6034 43.9009 32.5864 33.372 33.1798 29.7682C33.7733 26.1645 49.8072 33.8423 54.9994 37.9107C60.6835 38.8468 55.2477 36.403 54.6542 40.0068Z" fill="#7A451F"/>
<path d="M94.8097 40.0068C95.4031 43.6105 100.492 45.7731 106.176 44.837C111.86 43.9009 116.878 33.372 116.284 29.7682C115.691 26.1645 99.6567 33.8423 94.4645 37.9107C88.7804 38.8468 94.2162 36.403 94.8097 40.0068Z" fill="#7A451F"/>
<path d="M34.4996 180.508L66.2496 186.008C63.2597 190.135 57.2618 195.918 53.9996 196.508C42.8657 200.305 39.2498 197.577 35.7496 188.008C34.4364 183.524 35.1154 185.005 34.4996 180.508Z" fill="#7A451F"/>
<path d="M118 180.286L85.5 185.795C88.49 189.921 94.4878 195.704 97.75 196.295C108.884 200.091 112.5 197.363 116 187.795C117.385 183.236 117.188 184.649 118 180.286Z" fill="#7A451F"/>
<path d="M9.25033 130.457C9.86515 126.394 10.4713 124.135 12.7501 120.957L28.2502 140.5C23.881 141.916 21.2725 142.313 16.2502 141.207C10.27 139.761 8.54406 137.31 9.25033 130.457Z" fill="#7A451F"/>
<path d="M140.75 130.457C140.135 126.394 139.529 124.135 137.25 120.957L122 140.5C126.369 141.916 128.728 142.313 133.75 141.207C139.73 139.761 141.456 137.31 140.75 130.457Z" fill="#7A451F"/>
<path d="M76 47.5C76 53.5751 73.4076 41.75 62.5 41.75C51.5924 41.75 45.75 51.3251 45.75 45.25C45.75 39.1749 58.3424 36.5 69.25 36.5C80.1576 36.5 76 41.4249 76 47.5Z" fill="#7A451F"/>
<path d="M75.2781 47.5C75.2781 53.5751 77.8705 41.75 88.7781 41.75C99.6857 41.75 105 53.5751 105 47.5C105 41.4249 92.9357 36.5 82.0281 36.5C71.1205 36.5 75.2781 41.4249 75.2781 47.5Z" fill="#7A451F"/>
<path d="M96.1042 128.878C96.1042 145.861 87.1499 159.628 76.1042 159.628C65.0585 159.628 56.1042 145.861 56.1042 128.878C56.1042 111.896 53.3542 90.8783 76.1042 98.1283C100.354 90.3783 96.1042 111.896 96.1042 128.878Z" fill="#FCF4E9"/>
<circle cx="76.5" cy="113.5" r="4.5" fill="#A4688F"/>
<circle cx="76.5" cy="131.5" r="4.5" fill="#A4688F"/>
<path d="M90.3104 97.8914C89.6807 96.6838 90.3775 95.1939 91.7157 94.941L99.184 93.5301C100.074 93.362 100.969 93.8155 101.351 94.6369C105.903 104.425 107.159 110.783 106.445 121.57C106.385 122.47 105.718 123.213 104.832 123.38L97.5398 124.758C96.1502 125.02 94.9359 123.795 95.1459 122.396C96.4852 113.475 95.2373 107.34 90.3104 97.8914Z" fill="#AF2010"/>
<path d="M91.2434 99.6781C91.0369 99.1444 91.3195 98.5466 91.863 98.3674L100.888 95.3926C101.394 95.2258 101.942 95.4849 102.134 95.9818L104.357 101.735C104.568 102.281 104.267 102.891 103.705 103.055L94.5659 105.727C94.0673 105.873 93.5401 105.612 93.3527 105.128L91.2434 99.6781Z" fill="#005452"/>
<path d="M95.4054 112.73C95.3371 112.186 95.707 111.681 96.2482 111.596L105.406 110.154C105.947 110.069 106.459 110.436 106.527 110.98C106.756 112.813 106.69 114.168 106.726 116.092C106.736 116.607 106.361 117.052 105.851 117.12L96.722 118.337C96.0924 118.421 95.5472 117.904 95.579 117.27C95.6619 115.619 95.6142 114.39 95.4054 112.73Z" fill="#005452"/>
<path d="M43.5 89.3024C43.5 87.0848 45.8301 85.6346 47.8496 86.5508C69.7168 96.4709 83.2386 96.2835 103.601 86.6665C105.628 85.7092 108 87.1609 108 89.4028V94.4336C108 95.672 107.234 96.7874 106.075 97.2232C82.6052 106.048 68.6821 106.008 45.4206 97.2247C44.2635 96.7878 43.5 95.6735 43.5 94.4367V89.3024Z" fill="#AF2010"/>
<path d="M51.5 89.6512C51.5 88.9647 52.1759 88.4823 52.8251 88.7055L58.8251 90.768C59.2289 90.9068 59.5 91.2867 59.5 91.7137V100.452C59.5 101.108 58.879 101.586 58.2447 101.419L52.2447 99.8345C51.8058 99.7187 51.5 99.3217 51.5 98.8677V89.6512Z" fill="#005452"/>
<path d="M67.5 94.1245C67.5 93.5259 68.0223 93.0615 68.6168 93.1314L75.1168 93.8961C75.6205 93.9553 76 94.3822 76 94.8892V102.798C76 103.331 75.5813 103.772 75.0484 103.788C72.5096 103.867 70.827 103.709 68.3601 103.37C67.8667 103.303 67.5 102.88 67.5 102.382V94.1245Z" fill="#005452"/>
<path d="M84 94.0549C84 93.585 84.3272 93.1784 84.7863 93.078L90.7863 91.7655C91.4099 91.6291 92 92.104 92 92.7424V100.92C92 101.401 91.6573 101.814 91.1843 101.903L85.1843 103.028C84.5689 103.143 84 102.671 84 102.045V94.0549Z" fill="#005452"/>
<path d="M100 88.8857C100 88.4978 100.224 88.1448 100.576 87.9802L106.576 85.1677C107.239 84.8569 108 85.3408 108 86.0732V95.807C108 96.2238 107.741 96.597 107.351 96.7433L101.351 98.9933C100.697 99.2385 100 98.7552 100 98.057V88.8857Z" fill="#005452"/>
<path d="M96.3569 3.46106C96.3742 1.7089 98.0078 0.402167 99.7106 0.81563C100.92 1.1092 101.771 2.20003 101.748 3.44395C101.484 17.317 99.3229 25.4596 93.353 37.9124C92.8164 39.0317 91.5644 39.6187 90.3583 39.3259C88.6646 38.9146 87.8269 37.0054 88.6251 35.456C94.2977 24.445 96.2284 16.4957 96.3569 3.46106Z" fill="#7A451F"/>
<path d="M53.1177 3.46106C53.1004 1.7089 51.4668 0.402167 49.764 0.81563C48.555 1.1092 47.7032 2.20003 47.7269 3.44395C47.9904 17.317 50.1517 25.4596 56.1216 37.9124C56.6582 39.0317 57.9102 39.6187 59.1164 39.3259C60.81 38.9146 61.6477 37.0054 60.8495 35.456C55.1769 24.445 53.2462 16.4957 53.1177 3.46106Z" fill="#7A451F"/>
<path d="M105.161 13.8147C106.289 12.4709 108.498 12.5342 109.281 14.1042C109.626 14.797 109.59 15.6245 109.15 16.2615C106.041 20.7638 103.201 22.0105 97.8051 21.8902C97.0325 21.8729 96.3421 21.414 95.9974 20.7224C95.2268 19.1765 96.5161 17.4071 98.2413 17.3228C101.159 17.1801 103.206 16.1436 105.161 13.8147Z" fill="#7A451F"/>
<path d="M44.3127 13.8147C43.185 12.4709 40.9753 12.5342 40.1927 14.1042C39.8474 14.797 39.884 15.6245 40.3239 16.2615C43.4323 20.7638 46.2728 22.0105 51.6686 21.8902C52.4412 21.8729 53.1315 21.414 53.4763 20.7224C54.2468 19.1765 52.9575 17.4071 51.2324 17.3228C48.3147 17.1801 46.2672 16.1436 44.3127 13.8147Z" fill="#7A451F"/>
<path d="M89.3409 20.483C89.0192 18.7765 87.0922 17.6762 85.6616 18.6607C85.0999 19.0472 84.7542 19.6829 84.7737 20.3645C84.9138 25.2647 86.5434 27.3644 90.9543 29.3088C91.5776 29.5836 92.2974 29.499 92.8585 29.1128C94.2633 28.1461 93.8999 25.9821 92.4491 25.0859C90.6911 24.0001 89.7382 22.5902 89.3409 20.483Z" fill="#7A451F"/>
<path d="M60.1337 20.483C60.4554 18.7765 62.3825 17.6762 63.813 18.6607C64.3747 19.0472 64.7204 19.6829 64.7009 20.3645C64.5608 25.2647 62.9312 27.3644 58.5203 29.3088C57.897 29.5836 57.1772 29.499 56.6161 29.1128C55.2113 28.1461 55.5747 25.9821 57.0255 25.0859C58.7835 24.0001 59.7364 22.5902 60.1337 20.483Z" fill="#7A451F"/>
</svg>
