<svg width="170" height="183" viewBox="0 0 170 183" fill="none" xmlns="http://www.w3.org/2000/svg">
<ellipse cx="116.251" cy="102.488" rx="39.3621" ry="44.1332" transform="rotate(-23.6238 116.251 102.488)" fill="#AF2010"/>
<ellipse cx="45.509" cy="93.673" rx="43.2152" ry="17.6551" transform="rotate(-35.0959 45.509 93.673)" fill="#E6B38E"/>
<ellipse cx="56.1498" cy="134.67" rx="43.2152" ry="20.4936" transform="rotate(-71.9689 56.1498 134.67)" fill="#E6B38E"/>
<ellipse rx="43.2152" ry="21.066" transform="matrix(-0.309533 -0.950889 -0.950889 0.309533 88.9036 134.492)" fill="#E6B38E"/>
<ellipse cx="71.6354" cy="50.1784" rx="35.8649" ry="35.8649" fill="#E6B38E"/>
<ellipse cx="72.9991" cy="95.9005" rx="4.29405" ry="4.29404" fill="#A4688F"/>
<ellipse cx="72.9991" cy="113.076" rx="4.29405" ry="4.29404" fill="#A4688F"/>
<path d="M44.0948 75.1494C44.2544 74.1838 45.0893 73.4756 46.068 73.4756H97.6042C98.5557 73.4756 99.3755 74.146 99.5644 75.0787L110.494 129.056C110.727 130.21 109.912 131.316 108.74 131.439C80.7823 134.364 64.3194 134.495 36.9237 131.444C35.7873 131.317 34.9853 130.261 35.1718 129.133L44.0948 75.1494Z" fill="#AF2010"/>
<path d="M44.3715 73.714L59.1623 93.2758C46.2667 109.209 42.9023 118.039 25.5256 123.811L8.22928 105.26C26.7471 84.6506 33.9542 78.1006 44.3715 73.714Z" fill="#AF2010"/>
<ellipse cx="45.0317" cy="170.999" rx="9.41026" ry="5.15056" transform="rotate(10.6988 45.0317 170.999)" fill="black"/>
<ellipse rx="9.75306" ry="5.15056" transform="matrix(-0.982617 0.185646 0.185646 0.982617 100.518 171)" fill="black"/>
<path d="M35.547 129.52L76.8159 129.52C75.9849 149.197 69.2453 159.183 57.2537 174.608L31.9666 168.167C31.8534 152.733 32.5916 144.262 35.547 129.52Z" fill="#AF2010"/>
<path d="M109.879 129.52L68.6096 129.52C69.4406 149.196 76.1802 159.182 88.1718 174.607L113.459 168.166C114.199 152.644 113.753 144.13 109.879 129.52Z" fill="#AF2010"/>
<ellipse cx="57.0157" cy="51.0512" rx="5.96395" ry="2.8627" fill="#E07272" fill-opacity="0.3"/>
<ellipse cx="85.6427" cy="51.0512" rx="5.96395" ry="2.8627" fill="#E07272" fill-opacity="0.3"/>
<path d="M75.4074 40.3389C82.3749 36.7904 89.6431 40.5171 92.4063 42.824" stroke="white" stroke-width="2"/>
<path d="M67.0965 40.5137C60.129 36.9652 52.8608 40.6919 50.0976 42.9988" stroke="white" stroke-width="2"/>
<rect x="44.4541" y="0.856445" width="54.3912" height="25.2872" rx="12.6436" fill="#AF2010"/>
<rect x="23.3789" y="19.459" width="37.0793" height="14.7119" rx="7.35597" transform="rotate(-31.6544 23.3789 19.459)" fill="#AF2010"/>
<rect x="25.8467" y="15.6475" width="10.0194" height="24.81" rx="5.00972" fill="#AF2010"/>
<path d="M38.2287 41.2707C38.2287 44.7702 35.0822 47.6889 31.0948 47.6889C27.1074 47.6889 23.9609 44.7702 23.9609 41.2707C23.9609 37.7712 27.1074 34.8525 31.0948 34.8525C35.0822 34.8525 38.2287 37.7712 38.2287 41.2707Z" fill="white" stroke="#DADADA"/>
<rect x="38.751" y="18.1533" width="64.842" height="15.6991" rx="7.84953" fill="white" stroke="#DADADA"/>
<path d="M104.931 63.1722C106.406 61.7443 108.829 62.0723 109.862 63.8458V63.8458C110.648 65.1942 110.33 66.9144 109.115 67.8932L82.5111 89.3195C79.8586 91.4557 75.9203 89.5114 76.0033 86.1067L76.0317 84.9396C76.0722 83.2766 77.1428 81.821 78.6946 81.2213C90.4331 76.6854 96.7013 71.1413 104.931 63.1722Z" fill="#AF2010"/>
<path d="M31.9667 160.072L62.2636 168.173C60.5536 170.904 59.5277 172.348 57.4559 174.635L31.9668 168.173C31.5258 165.01 31.5428 163.236 31.9667 160.072Z" fill="white"/>
<path d="M113.792 160.072L83.2566 168.412C84.9665 171.142 85.8541 172.587 87.9259 174.874L113.415 168.412C113.856 165.248 114.216 163.236 113.792 160.072Z" fill="white"/>
<path d="M7.99386 105.429C9.63805 102.569 10.9153 101.207 13.8357 99.0015L33.6361 120.472C30.5598 122.204 28.7932 123.078 25.2865 123.811L7.99386 105.429Z" fill="white"/>
<circle cx="61.548" cy="46.2804" r="4.29405" fill="#322658"/>
<ellipse cx="81.587" cy="46.2804" rx="4.29404" ry="4.29405" fill="#322658"/>
<mask id="path-29-inside-1_1548_56356" fill="white">
<path fill-rule="evenodd" clip-rule="evenodd" d="M64.6571 83.6624C63.495 83.5721 62.5022 84.4907 62.5022 85.6564V127.71C50.0772 128.628 43.2481 128.52 36.9177 127.296C35.8907 127.097 34.8548 127.683 34.5907 128.695C34.0687 130.697 33.8895 132.201 33.876 134.006C33.8686 135.001 34.6413 135.82 35.6305 135.924C49.1303 137.333 57.2923 137.371 70.2382 136.153C71.2616 136.056 72.0445 135.195 72.0445 134.167V129.207V129.102V86.0871C72.0445 85.0427 71.2408 84.1741 70.1995 84.0931L64.6571 83.6624Z"/>
</mask>
<path fill-rule="evenodd" clip-rule="evenodd" d="M64.6571 83.6624C63.495 83.5721 62.5022 84.4907 62.5022 85.6564V127.71C50.0772 128.628 43.2481 128.52 36.9177 127.296C35.8907 127.097 34.8548 127.683 34.5907 128.695C34.0687 130.697 33.8895 132.201 33.876 134.006C33.8686 135.001 34.6413 135.82 35.6305 135.924C49.1303 137.333 57.2923 137.371 70.2382 136.153C71.2616 136.056 72.0445 135.195 72.0445 134.167V129.207V129.102V86.0871C72.0445 85.0427 71.2408 84.1741 70.1995 84.0931L64.6571 83.6624Z" fill="white"/>
<path d="M64.6571 83.6624L64.7346 82.6654L64.7346 82.6654L64.6571 83.6624ZM62.5022 127.71L62.5759 128.707L63.5022 128.638V127.71H62.5022ZM36.9177 127.296L36.7278 128.278L36.7278 128.278L36.9177 127.296ZM34.5907 128.695L33.6231 128.443L33.6231 128.443L34.5907 128.695ZM33.876 134.006L32.8761 133.999L33.876 134.006ZM35.6305 135.924L35.5267 136.918L35.5267 136.918L35.6305 135.924ZM70.2382 136.153L70.332 137.148L70.332 137.148L70.2382 136.153ZM70.1995 84.0931L70.277 83.0961L70.277 83.0961L70.1995 84.0931ZM63.5022 85.6564C63.5022 85.0735 63.9986 84.6142 64.5797 84.6594L64.7346 82.6654C62.9914 82.5299 61.5022 83.9079 61.5022 85.6564H63.5022ZM63.5022 127.71V85.6564H61.5022V127.71H63.5022ZM36.7278 128.278C43.1922 129.528 50.1289 129.627 62.5759 128.707L62.4285 126.712C50.0254 127.629 43.304 127.513 37.1076 126.314L36.7278 128.278ZM35.5583 128.948C35.6761 128.496 36.1658 128.169 36.7278 128.278L37.1076 126.314C35.6156 126.026 34.0335 126.87 33.6231 128.443L35.5583 128.948ZM34.876 134.014C34.8889 132.29 35.0575 130.868 35.5583 128.948L33.6231 128.443C33.0799 130.525 32.8901 132.112 32.8761 133.999L34.876 134.014ZM35.7344 134.929C35.2285 134.876 34.8726 134.465 34.876 134.014L32.8761 133.999C32.8646 135.537 34.0542 136.764 35.5267 136.918L35.7344 134.929ZM70.1445 135.157C57.2658 136.369 49.17 136.332 35.7344 134.929L35.5267 136.918C49.0905 138.334 57.3187 138.373 70.332 137.148L70.1445 135.157ZM71.0445 134.167C71.0445 134.68 70.6532 135.109 70.1445 135.157L70.332 137.148C71.8701 137.003 73.0445 135.71 73.0445 134.167H71.0445ZM71.0445 129.207V134.167H73.0445V129.207H71.0445ZM71.0445 129.102V129.207H73.0445V129.102H71.0445ZM71.0445 86.0871V129.102H73.0445V86.0871H71.0445ZM70.122 85.0901C70.6426 85.1306 71.0445 85.5649 71.0445 86.0871H73.0445C73.0445 84.5204 71.8389 83.2175 70.277 83.0961L70.122 85.0901ZM64.5797 84.6594L70.122 85.0901L70.277 83.0961L64.7346 82.6654L64.5797 84.6594Z" fill="#DADADA" mask="url(#path-29-inside-1_1548_56356)"/>
<mask id="path-31-inside-2_1548_56356" fill="white">
<path fill-rule="evenodd" clip-rule="evenodd" d="M73.5674 83.4951C72.4628 83.4951 71.5674 84.3905 71.5674 85.4951V129.066V129.207V134.171C71.5674 135.197 72.3473 136.058 73.3687 136.157C87.1947 137.493 95.7282 137.423 109.456 136.181C110.629 136.075 111.456 134.979 111.237 133.823L110.325 129.012C110.109 127.876 108.98 127.164 107.845 127.384C102.608 128.402 95.6881 128.502 80.6326 127.543V85.4951C80.6326 84.3905 79.7372 83.4951 78.6326 83.4951H73.5674Z"/>
</mask>
<path fill-rule="evenodd" clip-rule="evenodd" d="M73.5674 83.4951C72.4628 83.4951 71.5674 84.3905 71.5674 85.4951V129.066V129.207V134.171C71.5674 135.197 72.3473 136.058 73.3687 136.157C87.1947 137.493 95.7282 137.423 109.456 136.181C110.629 136.075 111.456 134.979 111.237 133.823L110.325 129.012C110.109 127.876 108.98 127.164 107.845 127.384C102.608 128.402 95.6881 128.502 80.6326 127.543V85.4951C80.6326 84.3905 79.7372 83.4951 78.6326 83.4951H73.5674Z" fill="white"/>
<path d="M73.3687 136.157L73.4648 135.161L73.4648 135.161L73.3687 136.157ZM109.456 136.181L109.366 135.186L109.366 135.186L109.456 136.181ZM111.237 133.823L112.219 133.636L112.219 133.636L111.237 133.823ZM110.325 129.012L111.307 128.825L111.307 128.825L110.325 129.012ZM107.845 127.384L108.036 128.366L108.036 128.366L107.845 127.384ZM80.6326 127.543H79.6326V128.481L80.569 128.541L80.6326 127.543ZM72.5674 85.4951C72.5674 84.9428 73.0151 84.4951 73.5674 84.4951V82.4951C71.9105 82.4951 70.5674 83.8383 70.5674 85.4951H72.5674ZM72.5674 129.066V85.4951H70.5674V129.066H72.5674ZM72.5674 129.207V129.066H70.5674V129.207H72.5674ZM72.5674 134.171V129.207H70.5674V134.171H72.5674ZM73.4648 135.161C72.9573 135.112 72.5674 134.683 72.5674 134.171H70.5674C70.5674 135.711 71.7374 137.004 73.2725 137.152L73.4648 135.161ZM109.366 135.186C95.6946 136.422 87.2236 136.491 73.4648 135.161L73.2725 137.152C87.1657 138.494 95.7619 138.424 109.546 137.177L109.366 135.186ZM110.254 134.009C110.363 134.586 109.95 135.133 109.366 135.186L109.546 137.177C111.307 137.018 112.548 135.373 112.219 133.636L110.254 134.009ZM109.342 129.198L110.254 134.009L112.219 133.636L111.307 128.825L109.342 129.198ZM108.036 128.366C108.666 128.243 109.237 128.644 109.342 129.198L111.307 128.825C110.982 127.107 109.295 126.084 107.654 126.402L108.036 128.366ZM80.569 128.541C95.6171 129.5 102.656 129.411 108.036 128.366L107.654 126.402C102.559 127.393 95.7591 127.505 80.6962 126.545L80.569 128.541ZM79.6326 85.4951V127.543H81.6326V85.4951H79.6326ZM78.6326 84.4951C79.1849 84.4951 79.6326 84.9428 79.6326 85.4951H81.6326C81.6326 83.8383 80.2894 82.4951 78.6326 82.4951V84.4951ZM73.5674 84.4951H78.6326V82.4951H73.5674V84.4951Z" fill="#DADADA" mask="url(#path-31-inside-2_1548_56356)"/>
<mask id="path-33-inside-3_1548_56356" fill="white">
<path fill-rule="evenodd" clip-rule="evenodd" d="M107.829 50.6275C107.825 49.5647 106.34 49.3465 105.859 50.2946C100.051 61.7574 87.0593 69.7401 71.9645 69.7401C56.6051 69.7401 43.4234 61.4751 37.7707 49.6886C37.31 48.728 35.8141 48.9157 35.792 49.9809C35.7868 50.2323 35.7842 50.4843 35.7842 50.7369C35.7842 70.5445 51.9119 86.6018 71.8064 86.6018C91.701 86.6018 107.829 70.5445 107.829 50.7369C107.829 50.7004 107.829 50.664 107.829 50.6275Z"/>
</mask>
<path fill-rule="evenodd" clip-rule="evenodd" d="M107.829 50.6275C107.825 49.5647 106.34 49.3465 105.859 50.2946C100.051 61.7574 87.0593 69.7401 71.9645 69.7401C56.6051 69.7401 43.4234 61.4751 37.7707 49.6886C37.31 48.728 35.8141 48.9157 35.792 49.9809C35.7868 50.2323 35.7842 50.4843 35.7842 50.7369C35.7842 70.5445 51.9119 86.6018 71.8064 86.6018C91.701 86.6018 107.829 70.5445 107.829 50.7369C107.829 50.7004 107.829 50.664 107.829 50.6275Z" fill="white"/>
<path d="M105.859 50.2946L106.751 50.7466L105.859 50.2946ZM107.829 50.6275L108.829 50.6245L107.829 50.6275ZM104.967 49.8426C99.3441 60.9397 86.7168 68.7401 71.9645 68.7401V70.7401C87.4018 70.7401 100.758 62.5751 106.751 50.7466L104.967 49.8426ZM71.9645 68.7401C56.9528 68.7401 44.1433 60.6636 38.6724 49.2562L36.869 50.1211C42.7035 62.2866 56.2574 70.7401 71.9645 70.7401V68.7401ZM36.7842 50.7369C36.7842 50.4912 36.7867 50.2461 36.7918 50.0017L34.7922 49.9602C34.7869 50.2184 34.7842 50.4774 34.7842 50.7369H36.7842ZM71.8064 85.6018C52.4601 85.6018 36.7842 69.9881 36.7842 50.7369H34.7842C34.7842 71.1009 51.3637 87.6018 71.8064 87.6018V85.6018ZM106.829 50.7369C106.829 69.9881 91.1528 85.6018 71.8064 85.6018V87.6018C92.2492 87.6018 108.829 71.1009 108.829 50.7369H106.829ZM106.829 50.6305C106.829 50.666 106.829 50.7014 106.829 50.7369H108.829C108.829 50.6994 108.829 50.662 108.829 50.6245L106.829 50.6305ZM38.6724 49.2562C38.2285 48.3306 37.2836 47.9735 36.48 48.0845C35.6521 48.1988 34.8153 48.8475 34.7922 49.9602L36.7918 50.0017C36.7921 49.9868 36.7943 49.9917 36.7873 50.0084C36.7804 50.0249 36.7695 50.041 36.7571 50.0535C36.734 50.0769 36.7261 50.0695 36.7537 50.0657C36.7809 50.0619 36.8097 50.0671 36.8295 50.0768C36.8379 50.0809 36.8438 50.0854 36.8485 50.0901C36.8528 50.0943 36.8604 50.1031 36.869 50.1211L38.6724 49.2562ZM106.751 50.7466C106.76 50.7289 106.768 50.7204 106.772 50.7163C106.777 50.7118 106.783 50.7076 106.791 50.7038C106.811 50.6948 106.839 50.6902 106.865 50.6945C106.892 50.6988 106.884 50.7059 106.862 50.6822C106.85 50.6695 106.839 50.6534 106.833 50.637C106.826 50.6205 106.829 50.6157 106.829 50.6305L108.829 50.6245C108.825 49.5154 108.005 48.8509 107.181 48.7194C106.38 48.5918 105.43 48.9289 104.967 49.8426L106.751 50.7466Z" fill="#DADADA" mask="url(#path-33-inside-3_1548_56356)"/>
<path d="M37.0465 114.678C37.1449 113.743 37.8881 113.002 38.8225 112.901C64.2964 110.146 79.8334 110.243 106.368 112.928C107.233 113.015 107.95 113.654 108.129 114.505L109.185 119.522C109.46 120.83 108.4 122.035 107.067 121.931C80.8113 119.891 64.998 119.837 38.6714 121.946C37.4212 122.046 36.3823 120.987 36.5136 119.74L37.0465 114.678Z" fill="black"/>
<path fill-rule="evenodd" clip-rule="evenodd" d="M80.909 110.214H62.502V120.71H80.909V110.214ZM78.0187 112.648H65.3924V118.276H78.0187V112.648Z" fill="#F9C267"/>
<ellipse rx="26.1674" ry="15.1888" transform="matrix(-0.420663 -0.907217 -0.907217 0.420663 106.666 89.1059)" fill="#E6B38E"/>
<mask id="path-38-inside-4_1548_56356" fill="white">
<path fill-rule="evenodd" clip-rule="evenodd" d="M126.247 93.0928C122.022 81.8654 119.288 75.7651 111.448 66.4459L86.5016 80.1319C88.8118 91.0992 91.1471 97.3113 98.3016 106.428C98.3214 106.462 98.3413 106.495 98.3614 106.529C103.078 114.5 112.842 117.426 120.169 113.064C126.765 109.138 129.137 100.644 126.103 93.1724L126.247 93.0928Z"/>
</mask>
<path fill-rule="evenodd" clip-rule="evenodd" d="M126.247 93.0928C122.022 81.8654 119.288 75.7651 111.448 66.4459L86.5016 80.1319C88.8118 91.0992 91.1471 97.3113 98.3016 106.428C98.3214 106.462 98.3413 106.495 98.3614 106.529C103.078 114.5 112.842 117.426 120.169 113.064C126.765 109.138 129.137 100.644 126.103 93.1724L126.247 93.0928Z" fill="#AF2010"/>
<path d="M111.448 66.4459L112.213 65.8021L111.685 65.1749L110.967 65.5691L111.448 66.4459ZM126.247 93.0928L126.732 93.9676L127.487 93.549L127.183 92.7407L126.247 93.0928ZM86.5016 80.1319L86.0206 79.2551L85.3701 79.612L85.523 80.338L86.5016 80.1319ZM98.3016 106.428L99.1654 105.924L99.1308 105.864L99.0883 105.81L98.3016 106.428ZM98.3614 106.529L99.222 106.02L99.222 106.02L98.3614 106.529ZM120.169 113.064L120.68 113.924L120.68 113.924L120.169 113.064ZM126.103 93.1724L125.619 92.2977L124.843 92.7273L125.177 93.5487L126.103 93.1724ZM110.683 67.0896C118.42 76.287 121.106 82.2702 125.311 93.445L127.183 92.7407C122.938 81.4606 120.156 75.2432 112.213 65.8021L110.683 67.0896ZM86.9826 81.0086L111.929 67.3226L110.967 65.5691L86.0206 79.2551L86.9826 81.0086ZM99.0883 105.81C92.0494 96.8412 89.7666 90.7804 87.4801 79.9257L85.523 80.338C87.857 91.4181 90.2449 97.7813 97.5149 107.045L99.0883 105.81ZM99.222 106.02C99.203 105.988 99.1842 105.956 99.1654 105.924L97.4378 106.931C97.4587 106.967 97.4797 107.003 97.5008 107.039L99.222 106.02ZM119.657 112.205C112.871 116.245 103.698 113.583 99.222 106.02L97.5008 107.039C102.459 115.417 112.812 118.607 120.68 113.924L119.657 112.205ZM125.177 93.5487C128.051 100.627 125.771 108.566 119.657 112.205L120.68 113.924C127.759 109.71 130.223 100.66 127.03 92.7962L125.177 93.5487ZM125.762 92.2181L125.619 92.2977L126.588 94.0471L126.732 93.9676L125.762 92.2181Z" fill="#DADADA" mask="url(#path-38-inside-4_1548_56356)"/>
<path d="M86.4338 80.003L111.476 66.3463C113.913 68.9445 115.019 70.6628 116.514 73.3709L88.7435 88.522C87.5661 85.4347 86.8804 83.3735 86.4338 80.003Z" fill="white"/>
<path d="M72.5221 55.5528C72.5221 58.3024 68.575 58.7682 63.7059 58.7682C58.8368 58.7682 53.4375 63.281 53.4375 60.5314C53.4375 57.7818 58.8368 50.5742 63.7059 50.5742C68.575 50.5742 72.5221 52.8032 72.5221 55.5528Z" fill="white"/>
<path d="M70.1361 55.5528C70.1361 58.3024 74.0832 58.7682 78.9523 58.7682C83.8214 58.7682 89.2207 63.281 89.2207 60.5314C89.2207 57.7818 83.8214 50.5742 78.9523 50.5742C74.0832 50.5742 70.1361 52.8032 70.1361 55.5528Z" fill="white"/>
</svg>
