<svg width="150" height="193" viewBox="0 0 150 193" fill="none" xmlns="http://www.w3.org/2000/svg">
<ellipse cx="47.6917" cy="99.6654" rx="45.2879" ry="18.5019" transform="rotate(-35.0959 47.6917 99.6654)" fill="#E6B38E"/>
<ellipse cx="58.8422" cy="142.629" rx="45.2879" ry="21.4766" transform="rotate(-71.9689 58.8422 142.629)" fill="#E6B38E"/>
<ellipse rx="45.2879" ry="22.0764" transform="matrix(-0.309533 -0.950889 -0.950889 0.309533 93.1684 142.443)" fill="#E6B38E"/>
<ellipse rx="45.2879" ry="18.6907" transform="matrix(-0.818191 -0.574947 -0.574947 0.818191 102.2 99.5112)" fill="#E6B38E"/>
<ellipse cx="75.0714" cy="54.0851" rx="37.5851" ry="37.5851" fill="#E6B38E"/>
<circle cx="76.5" cy="102" r="4.5" fill="#A4688F"/>
<circle cx="76.5" cy="120" r="4.5" fill="#A4688F"/>
<ellipse cx="64.5" cy="51" rx="4.5" ry="4.5" fill="#322658"/>
<ellipse cx="85.5" cy="51" rx="4.5" ry="4.5" fill="#322658"/>
<path d="M82.5 67.6087C82.5 71.8109 79.1421 67 75 67C70.8579 67 67.5 71.8109 67.5 67.6087C67.5 63.4065 70.8579 60 75 60C79.1421 60 82.5 63.4065 82.5 67.6087Z" fill="#E07272"/>
<path d="M85.5722 57.6439C90.1937 57.457 92.2327 55.5856 92.7859 53" stroke="#322658" stroke-width="2"/>
<path d="M64.2862 57.6439C59.6647 57.457 57.6257 55.5856 57.0725 53" stroke="#322658" stroke-width="2"/>
<ellipse cx="129.313" cy="43.0312" rx="0.710227" ry="1.06534" fill="#322658" fill-opacity="0.7"/>
<ellipse cx="132.438" cy="43.0312" rx="0.710227" ry="1.06534" fill="#322658" fill-opacity="0.7"/>
<path d="M139.769 47.7955C138.134 58.4904 150.348 61.4885 145.244 61.4885C130.74 63.5972 124.271 56.2168 123.204 47.6502C123.204 41.1357 126.702 36 131.807 36C136.911 36 139.769 41.281 139.769 47.7955Z" fill="#D9D9D9" fill-opacity="0.4"/>
<path d="M126.603 47.1987C128.6 48.8282 129.126 49.5664 128.138 50.7776C126.899 52.2944 126.767 48.4057 124.361 49.46C119.304 50.5208 123.101 47.4915 123.101 47.4915C123.101 47.4915 123.942 46.9327 126.603 47.1987Z" fill="#D9D9D9" fill-opacity="0.5"/>
<path d="M135.268 47.2123C137.265 48.8419 137.791 49.5801 136.803 50.7913C135.564 52.3081 135.432 48.4193 133.026 49.4737C127.969 50.5345 131.766 47.5052 131.766 47.5052C131.766 47.5052 132.607 46.9463 135.268 47.2123Z" fill="#D9D9D9" fill-opacity="0.5"/>
<ellipse rx="0.994318" ry="1.49148" transform="matrix(-1 0 0 1 33.0623 9.84402)" fill="#322658" fill-opacity="0.7"/>
<ellipse rx="0.994318" ry="1.49148" transform="matrix(-1 0 0 1 28.6873 9.84402)" fill="#322658" fill-opacity="0.7"/>
<path d="M18.4218 16.5137C20.7111 31.4866 3.61143 35.6839 10.7577 35.6839C31.0627 38.6361 40.1203 28.3035 41.6133 16.3103C41.6133 7.19001 36.7159 0 29.5696 0C22.4234 0 18.4218 7.39344 18.4218 16.5137Z" fill="#D9D9D9" fill-opacity="0.4"/>
<path d="M36.8557 15.6783C34.0607 17.9597 33.3235 18.9932 34.7074 20.6888C36.4408 22.8124 36.626 17.3681 39.9949 18.8442C47.0744 20.3294 41.7581 16.0883 41.7581 16.0883C41.7581 16.0883 40.5815 15.3059 36.8557 15.6783Z" fill="#D9D9D9" fill-opacity="0.5"/>
<path d="M24.7249 15.6979C21.9298 17.9793 21.1926 19.0128 22.5766 20.7083C24.3099 22.8319 24.4952 17.3876 27.8641 18.8637C34.9435 20.3489 29.6272 16.1079 29.6272 16.1079C29.6272 16.1079 28.4507 15.3255 24.7249 15.6979Z" fill="#D9D9D9" fill-opacity="0.5"/>
</svg>
