<svg width="150" height="212" viewBox="0 0 150 212" fill="none" xmlns="http://www.w3.org/2000/svg">
<ellipse cx="47.6917" cy="118.665" rx="45.2879" ry="18.5019" transform="rotate(-35.0959 47.6917 118.665)" fill="#E6B38E"/>
<ellipse cx="58.8422" cy="161.629" rx="45.2879" ry="21.4766" transform="rotate(-71.9689 58.8422 161.629)" fill="#E6B38E"/>
<ellipse rx="45.2879" ry="22.0764" transform="matrix(-0.309533 -0.950889 -0.950889 0.309533 93.1684 161.443)" fill="#E6B38E"/>
<ellipse rx="45.2879" ry="18.6907" transform="matrix(-0.818191 -0.574947 -0.574947 0.818191 102.2 118.511)" fill="#E6B38E"/>
<ellipse cx="75.0714" cy="73.0851" rx="37.5851" ry="37.5851" fill="#E6B38E"/>
<ellipse cx="64.5" cy="70" rx="4.5" ry="4.5" fill="#322658"/>
<ellipse cx="85.5" cy="70" rx="4.5" ry="4.5" fill="#322658"/>
<path d="M66.0256 82.8151C75.0779 87.2209 83.9105 83.7925 87.1953 81.5277" stroke="#322658" stroke-width="3"/>
<circle cx="76.5" cy="121" r="4.5" fill="#A4688F"/>
<circle cx="76.5" cy="139" r="4.5" fill="#A4688F"/>
<path d="M79.5246 63.2737C86.8263 59.5551 94.4432 63.4605 97.3389 65.8781" stroke="#322658" stroke-width="3"/>
<path d="M70.8142 63.4564C63.5126 59.7377 55.8957 63.6432 53 66.0607" stroke="#322658" stroke-width="3"/>
<path d="M46.5 98L76 113.5L103.75 97.5L104.5 135.5H48.25L46.5 98Z" fill="#404879"/>
<path d="M44.3833 97.8298C45.1808 97.3438 46.2097 97.4776 46.858 98.1498L64.2254 116.161C64.8438 116.802 64.9622 117.78 64.5113 118.548C54.833 135.046 46.8662 142.555 29.5559 149.486C28.776 149.798 27.8809 149.581 27.3266 148.949L11.2789 130.673C10.6739 129.984 10.6166 128.967 11.1436 128.217C21.9904 112.772 29.7321 106.761 44.3833 97.8298Z" fill="#404879"/>
<path d="M105.205 98.108C104.397 97.6051 103.345 97.7392 102.691 98.4303L85.5516 116.546C84.9252 117.208 84.8268 118.215 85.3176 118.983C95.7128 135.247 104.387 142.43 120.71 149.221C121.482 149.542 122.374 149.341 122.938 148.725L139.596 130.514C140.26 129.787 140.294 128.679 139.673 127.915C125.94 111.011 116.823 105.343 105.205 98.108Z" fill="#404879"/>
<path d="M46.75 130.5H106.75C115.34 155.638 118.161 168.701 120.5 191H32.5C34.3749 169.414 37.1414 156.417 46.75 130.5Z" fill="#404879"/>
<path d="M40.2492 100.25L45.9994 96.5L77.6175 112.227L76.2495 118.25L40.2492 100.25Z" fill="white"/>
<path d="M109.251 100.5L103.799 96.935L74.4793 112.511L76.2523 118.25L109.251 100.5Z" fill="white"/>
<circle cx="76" cy="146.5" r="19.5" fill="white"/>
<mask id="path-20-inside-1_1523_56503" fill="white">
<path fill-rule="evenodd" clip-rule="evenodd" d="M136.159 123.729C133.436 125.798 130.054 127.051 126.373 127.114C117.174 127.271 109.59 119.941 109.433 110.742C109.379 107.631 110.182 104.705 111.624 102.189C119.361 107.033 126.473 112.372 136.159 123.729Z"/>
</mask>
<path fill-rule="evenodd" clip-rule="evenodd" d="M136.159 123.729C133.436 125.798 130.054 127.051 126.373 127.114C117.174 127.271 109.59 119.941 109.433 110.742C109.379 107.631 110.182 104.705 111.624 102.189C119.361 107.033 126.473 112.372 136.159 123.729Z" fill="white"/>
<path d="M136.159 123.729L136.764 124.525L137.606 123.885L136.919 123.08L136.159 123.729ZM109.433 110.742L110.432 110.725L109.433 110.742ZM111.624 102.189L112.155 101.341L111.274 100.789L110.757 101.691L111.624 102.189ZM135.553 122.933C132.995 124.878 129.818 126.055 126.356 126.114L126.39 128.113C130.291 128.047 133.878 126.719 136.764 124.525L135.553 122.933ZM126.356 126.114C117.71 126.261 110.58 119.372 110.432 110.725L108.433 110.759C108.599 120.51 116.639 128.28 126.39 128.113L126.356 126.114ZM110.432 110.725C110.382 107.799 111.137 105.05 112.492 102.686L110.757 101.691C109.228 104.36 108.376 107.463 108.433 110.759L110.432 110.725ZM136.919 123.08C127.161 111.638 119.969 106.234 112.155 101.341L111.094 103.036C118.753 107.833 125.786 113.107 135.398 124.378L136.919 123.08Z" fill="#404879" mask="url(#path-20-inside-1_1523_56503)"/>
<mask id="path-22-inside-2_1523_56503" fill="white">
<path fill-rule="evenodd" clip-rule="evenodd" d="M23.4387 127.615C32.8075 127.934 40.6612 120.598 40.9804 111.229C41.099 107.749 40.1609 104.477 38.4545 101.723C28.7946 107.757 22.2138 113.712 14.0174 124.369C16.6691 126.306 19.9097 127.495 23.4387 127.615Z"/>
</mask>
<path fill-rule="evenodd" clip-rule="evenodd" d="M23.4387 127.615C32.8075 127.934 40.6612 120.598 40.9804 111.229C41.099 107.749 40.1609 104.477 38.4545 101.723C28.7946 107.757 22.2138 113.712 14.0174 124.369C16.6691 126.306 19.9097 127.495 23.4387 127.615Z" fill="white"/>
<path d="M38.4545 101.723L39.3045 101.197L38.7759 100.344L37.9248 100.875L38.4545 101.723ZM14.0174 124.369L13.2247 123.76L12.5998 124.572L13.4276 125.177L14.0174 124.369ZM39.981 111.195C39.6806 120.012 32.2896 126.916 23.4727 126.616L23.4046 128.615C33.3254 128.953 41.6418 121.184 41.9798 111.264L39.981 111.195ZM37.6045 102.25C39.21 104.841 40.0926 107.918 39.981 111.195L41.9798 111.264C42.1053 107.579 41.1118 104.113 39.3045 101.197L37.6045 102.25ZM14.8101 124.979C22.9407 114.407 29.4346 108.536 38.9842 102.572L37.9248 100.875C28.1545 106.977 21.487 113.017 13.2247 123.76L14.8101 124.979ZM23.4727 126.616C20.1503 126.503 17.1022 125.384 14.6072 123.562L13.4276 125.177C16.236 127.228 19.6691 128.487 23.4046 128.615L23.4727 126.616Z" fill="#404879" mask="url(#path-22-inside-2_1523_56503)"/>
<rect x="69" y="151" width="14.5" height="6" fill="#404879" stroke="#EEEBEB" stroke-width="3"/>
<rect x="85.206" y="150.857" width="14.5" height="6" transform="rotate(-8.5341 85.206 150.857)" fill="#404879" stroke="#EEEBEB" stroke-width="3"/>
<rect x="100.916" y="148.27" width="9.77147" height="6" transform="rotate(-19.5571 100.916 148.27)" fill="#404879" stroke="#EEEBEB" stroke-width="3"/>
<rect x="-1.91558" y="0.911342" width="9.77147" height="6" transform="matrix(-0.942308 -0.334747 -0.334747 0.942308 50.6313 146.687)" fill="#404879" stroke="#EEEBEB" stroke-width="3"/>
<rect x="-1.70599" y="1.26079" width="14.116" height="5.99999" transform="matrix(-0.988928 -0.148398 -0.148398 0.988928 65.9356 149.357)" fill="#404879" stroke="#EEEBEB" stroke-width="3"/>
<path d="M104.25 163.5L107.498 191.25H101.002L104.25 163.5Z" fill="#96D1EE"/>
<path d="M51.25 163.5L54.4976 191.25H48.0024L51.25 163.5Z" fill="#96D1EE"/>
<path d="M106.5 44.5C106.5 52.5081 92.397 44.5 75 44.5C57.603 44.5 43.5 52.5081 43.5 44.5C43.5 36.4919 57.603 30 75 30C92.397 30 106.5 36.4919 106.5 44.5Z" fill="#322658"/>
<rect x="43.5" y="43.5" width="63" height="10" fill="#322658"/>
<path d="M62.5 16.5H87.5L90 40H60.5L62.5 16.5Z" fill="#322658"/>
<ellipse cx="75" cy="17.5" rx="12.5" ry="6" fill="#322658"/>
<path fill-rule="evenodd" clip-rule="evenodd" d="M78.4609 0.613904C76.7775 1.22129 75.5 4.18519 75.5 7.75C75.5 9.89721 75.9635 11.8264 76.7 13.1539V17.5H84.5V3.75V3H84.422C84.0606 1.28832 82.4868 0 80.6 0C79.8101 0 79.0751 0.225789 78.4609 0.613904Z" fill="#322658"/>
<path fill-rule="evenodd" clip-rule="evenodd" d="M73.3 13.1539V17.5H65.5V3.75V3H65.578C65.9394 1.28832 67.5132 0 69.4 0C70.1899 0 70.9249 0.225789 71.5391 0.613904C73.2225 1.22129 74.5 4.18519 74.5 7.75C74.5 9.89721 74.0365 11.8264 73.3 13.1539Z" fill="#322658"/>
</svg>
