<svg width="300" height="47" viewBox="0 0 300 47" fill="none" xmlns="http://www.w3.org/2000/svg">
<rect x="0.5" y="0.5" width="299" height="45.4286" rx="6.5" stroke="#AF2010"/>
<path d="M118.536 17.436V30.092H119.656V17.436H118.536ZM116.408 22.588V23.54H118.844V22.588H116.408ZM115.666 17.716V29.448H116.758V17.716H115.666ZM109.534 18.962V26.27H110.696V18.962H109.534ZM109.534 25.808V26.816H110.346C111.704 26.816 113.16 26.746 114.882 26.41L114.756 25.402C113.104 25.724 111.648 25.808 110.346 25.808H109.534ZM125.502 19.284V20.236H135.778V19.284H125.502ZM124.942 27.656V28.622H136.408V27.656H124.942ZM130.08 25.654V28.034H131.228V25.654H130.08ZM130.64 21.09C128.092 21.09 126.51 21.972 126.51 23.498C126.51 25.024 128.092 25.906 130.64 25.906C133.202 25.906 134.784 25.024 134.784 23.498C134.784 21.972 133.202 21.09 130.64 21.09ZM130.64 22C132.488 22 133.608 22.56 133.608 23.498C133.608 24.436 132.488 24.982 130.64 24.982C128.806 24.982 127.672 24.436 127.672 23.498C127.672 22.56 128.806 22 130.64 22ZM130.08 17.646V19.872H131.228V17.646H130.08ZM143.253 20.278V21.216H145.409V20.278H143.253ZM138.395 22.84V23.75H139.179C141.041 23.75 142.301 23.694 143.855 23.4L143.743 22.504C142.231 22.784 140.999 22.84 139.179 22.84H138.395ZM138.395 18.192V23.428H139.501V19.116H143.169V18.192H138.395ZM139.165 20.46V21.356H142.665V20.46H139.165ZM147.369 17.45V24.282H148.475V17.45H147.369ZM144.933 17.66V24.156H146.025V17.66H144.933ZM140.131 24.856V25.766H147.355V26.914H140.159V29.644H141.307V27.782H148.475V24.856H140.131ZM140.159 29.042V29.952H148.965V29.042H140.159ZM154.349 18.57V24.436H160.159V18.57H154.349ZM159.025 19.508V23.498H155.483V19.508H159.025ZM162.483 17.422V26.704H163.645V17.422H162.483ZM163.281 21.286V22.252H165.521V21.286H163.281ZM155.763 28.86V29.812H164.219V28.86H155.763ZM155.763 25.822V29.266H156.925V25.822H155.763ZM166.71 22.714V23.666H178.148V22.714H166.71ZM168.222 20.754V21.692H176.79V20.754H168.222ZM168.222 17.842V21.51H169.37V18.794H176.65V17.842H168.222ZM168.082 24.758V25.668H175.53V26.872H168.11V29.336H169.258V27.74H176.678V24.758H168.082ZM168.11 29.028V29.952H177.056V29.028H168.11ZM188.801 17.436V30.092H189.963V17.436H188.801ZM185.091 18.794V18.99C185.091 22.35 183.397 25.038 179.743 26.802L180.359 27.74C184.587 25.668 186.239 22.462 186.239 18.794H185.091ZM180.317 18.794V19.746H185.595V18.794H180.317Z" fill="#AF2010"/>
<rect x="8.5" y="8.5" width="282" height="30" rx="7.5" stroke="#AF2010" stroke-dasharray="5 5"/>
</svg>
