<svg width="157" height="191" viewBox="0 0 157 191" fill="none" xmlns="http://www.w3.org/2000/svg">
<ellipse cx="47.6917" cy="98.1654" rx="45.2879" ry="18.5019" transform="rotate(-35.0959 47.6917 98.1654)" fill="#E6B38E"/>
<ellipse cx="58.8422" cy="141.129" rx="45.2879" ry="21.4766" transform="rotate(-71.9689 58.8422 141.129)" fill="#E6B38E"/>
<ellipse rx="45.2879" ry="22.0764" transform="matrix(-0.309533 -0.950889 -0.950889 0.309533 93.1684 140.943)" fill="#E6B38E"/>
<ellipse rx="45.2879" ry="18.6907" transform="matrix(-0.818191 -0.574947 -0.574947 0.818191 102.2 98.0112)" fill="#E6B38E"/>
<ellipse cx="75.0714" cy="52.5851" rx="37.5851" ry="37.5851" fill="#E6B38E"/>
<path d="M55.4999 50.3833C62.5435 49.9202 67.5435 48.1702 70.5948 46.92" stroke="#322658" stroke-width="2"/>
<path d="M94.5949 50.3833C87.3365 52.1688 81.5072 48.8184 79.4999 46.92" stroke="#322658" stroke-width="2"/>
<circle cx="76.5" cy="100.5" r="4.5" fill="#A4688F"/>
<circle cx="76.5" cy="118.5" r="4.5" fill="#A4688F"/>
<path d="M72.1178 60.3535C77.1877 60.3535 84.5 53.6156 84.5 62.9411C84.5 72.2667 81.2439 64.3966 76.174 64.3966C71.1041 64.3966 65.5 72.2667 65.5 62.9411C65.5 53.6156 67.0479 60.3535 72.1178 60.3535Z" fill="#E07272"/>
<circle cx="117.25" cy="37.75" r="0.75" fill="#99D2E5" fill-opacity="0.8" stroke="#99D2E5"/>
<circle cx="123.5" cy="31.5" r="2" fill="#99D2E5" fill-opacity="0.8" stroke="#99D2E5"/>
<circle cx="116" cy="22" r="2" fill="#99D2E5" fill-opacity="0.8" stroke="#99D2E5"/>
<path d="M151.636 103.783L153.564 107.089C158.411 115.4 153.967 126.04 144.649 128.436L143.531 128.724C141.202 129.322 139.044 130.455 137.229 132.031L126.409 141.426C119.546 147.385 108.955 145.633 104.376 137.781L102.348 134.302C97.5272 126.035 101.896 115.447 111.145 112.986L113.003 112.491C115.291 111.882 117.409 110.757 119.195 109.202L129.588 100.151C136.449 94.1767 147.054 95.9231 151.636 103.783Z" fill="white" stroke="#DADADA"/>
<path d="M118.892 128.868L130.042 126.011L142.884 115.144" stroke="#DADADA"/>
<path d="M124.238 112.21L130.602 107.591L142.084 105.903" stroke="#DADADA"/>
<ellipse cx="62.1058" cy="53.3382" rx="6.25" ry="3" transform="rotate(-7.97493 62.1058 53.3382)" fill="#E08B8B" fill-opacity="0.3"/>
<ellipse cx="88.0065" cy="53.0795" rx="6.25" ry="3" transform="rotate(5.44433 88.0065 53.0795)" fill="#E08B8B" fill-opacity="0.3"/>
<rect x="47" y="0.897461" width="57" height="26.5" rx="13.25" fill="#4C243C"/>
<rect x="24.9141" y="20.3926" width="38.8577" height="15.4176" rx="7.70878" transform="rotate(-31.6544 24.9141 20.3926)" fill="#4C243C"/>
<rect x="27.5" y="16.3975" width="10.5" height="26" rx="5.25" fill="#4C243C"/>
<path d="M40.5 43.25C40.5 46.9327 37.1896 50 33 50C28.8104 50 25.5 46.9327 25.5 43.25C25.5 39.5673 28.8104 36.5 33 36.5C37.1896 36.5 40.5 39.5673 40.5 43.25Z" fill="white" stroke="#DADADA"/>
<rect x="41" y="19" width="68" height="16.5" rx="8.25" fill="white" stroke="#DADADA"/>
</svg>
