<svg width="150" height="199" viewBox="0 0 150 199" fill="none" xmlns="http://www.w3.org/2000/svg">
<rect x="133.645" y="86.2686" width="4.19739" height="40.5833" rx="2" transform="rotate(32.143 133.645 86.2686)" fill="#C87948"/>
<rect width="4.19739" height="34.2535" rx="2" transform="matrix(-0.846723 0.532035 0.532035 0.846722 18.6738 94.252)" fill="#C87948"/>
<mask id="path-3-inside-1_1339_50401" fill="white">
<path fill-rule="evenodd" clip-rule="evenodd" d="M101.087 94.4832C109.818 87.249 115.379 76.3239 115.379 64.1C115.379 42.318 97.7209 24.6602 75.9388 24.6602C54.1568 24.6602 36.499 42.318 36.499 64.1C36.499 76.2913 42.0304 87.1906 50.7205 94.4252C32.9305 103.903 20.7588 123.13 20.7588 145.308C20.7588 176.877 45.4238 198.327 75.8495 198.327C106.275 198.327 130.94 176.877 130.94 145.308C130.94 123.176 118.818 103.981 101.087 94.4832Z"/>
</mask>
<path fill-rule="evenodd" clip-rule="evenodd" d="M101.087 94.4832C109.818 87.249 115.379 76.3239 115.379 64.1C115.379 42.318 97.7209 24.6602 75.9388 24.6602C54.1568 24.6602 36.499 42.318 36.499 64.1C36.499 76.2913 42.0304 87.1906 50.7205 94.4252C32.9305 103.903 20.7588 123.13 20.7588 145.308C20.7588 176.877 45.4238 198.327 75.8495 198.327C106.275 198.327 130.94 176.877 130.94 145.308C130.94 123.176 118.818 103.981 101.087 94.4832Z" fill="white"/>
<path d="M101.087 94.4832L99.8112 92.9432L97.5204 94.8414L100.143 96.2462L101.087 94.4832ZM50.7205 94.4252L51.6609 96.1903L54.2864 94.7915L52.0001 92.8881L50.7205 94.4252ZM113.379 64.1C113.379 75.7034 108.103 86.0727 99.8112 92.9432L102.363 96.0232C111.533 88.4253 117.379 76.9445 117.379 64.1H113.379ZM75.9388 26.6602C96.6163 26.6602 113.379 43.4225 113.379 64.1H117.379C117.379 41.2134 98.8254 22.6602 75.9388 22.6602V26.6602ZM38.499 64.1C38.499 43.4225 55.2614 26.6602 75.9388 26.6602V22.6602C53.0522 22.6602 34.499 41.2134 34.499 64.1H38.499ZM52.0001 92.8881C43.7469 86.0172 38.499 75.6724 38.499 64.1H34.499C34.499 76.9101 40.3139 88.364 49.4409 95.9622L52.0001 92.8881ZM22.7588 145.308C22.7588 123.871 34.5217 105.321 51.6609 96.1903L49.7801 92.66C31.3393 102.485 18.7588 122.39 18.7588 145.308H22.7588ZM75.8495 196.327C46.3969 196.327 22.7588 175.646 22.7588 145.308H18.7588C18.7588 178.109 44.4506 200.327 75.8495 200.327V196.327ZM128.94 145.308C128.94 175.646 105.302 196.327 75.8495 196.327V200.327C107.248 200.327 132.94 178.109 132.94 145.308H128.94ZM100.143 96.2462C117.225 105.397 128.94 123.915 128.94 145.308H132.94C132.94 122.437 120.411 102.566 102.032 92.7203L100.143 96.2462Z" fill="#DADADA" mask="url(#path-3-inside-1_1339_50401)"/>
<rect x="46.0332" y="8.28711" width="59.8128" height="27.8077" rx="13.9039" fill="#AF2010"/>
<rect x="23.9072" y="25.4795" width="40.7752" height="14.3829" rx="7.19147" transform="rotate(-28.0651 23.9072 25.4795)" fill="#AF2010"/>
<rect x="26.5303" y="24.1348" width="11.0181" height="20.4623" rx="5.50907" fill="#AF2010"/>
<path d="M39.6724 44.3353C39.6724 48.2156 36.1852 51.4431 31.7776 51.4431C27.37 51.4431 23.8828 48.2156 23.8828 44.3353C23.8828 40.455 27.37 37.2275 31.7776 37.2275C36.1852 37.2275 39.6724 40.455 39.6724 44.3353Z" fill="white" stroke="#DADADA"/>
<rect x="39.7129" y="27.2588" width="71.405" height="17.3636" rx="8.68179" fill="white" stroke="#DADADA"/>
<ellipse cx="64.8314" cy="59.9418" rx="4.72206" ry="4.72206" fill="#322658"/>
<circle cx="86.8676" cy="59.9418" r="4.72206" fill="#322658"/>
<ellipse cx="60.3719" cy="68.2076" rx="6.55842" ry="3.14804" fill="#E07272" fill-opacity="0.2"/>
<ellipse cx="91.8524" cy="68.2076" rx="6.55842" ry="3.14804" fill="#E07272" fill-opacity="0.2"/>
<rect x="41.8457" y="87.6201" width="66.9031" height="17.6384" rx="6" transform="rotate(15.8665 41.8457 87.6201)" fill="#30475E"/>
<rect width="56.8489" height="17.6384" rx="6" transform="matrix(0.917165 -0.398507 -0.398507 -0.917165 64.5156 125.403)" fill="#30475E"/>
<path d="M67.4551 75.0283C74.6136 77.5885 78.6602 77.6198 85.8187 75.0283" stroke="black" stroke-width="2"/>
<rect x="147.625" y="77.127" width="4.19739" height="17.6898" rx="2" transform="rotate(55.541 147.625 77.127)" fill="#C87948"/>
<rect width="4.19739" height="21.3903" rx="2" transform="matrix(-0.565817 0.824531 0.824531 0.565817 2.375 83.4229)" fill="#C87948"/>
<rect width="4.19739" height="12.6333" rx="2" transform="matrix(-0.917588 0.397533 0.397532 0.917588 130.638 78.3398)" fill="#C87948"/>
<rect x="23.2568" y="76.9766" width="4.19739" height="20.8022" rx="2" transform="rotate(23.424 23.2568 76.9766)" fill="#C87948"/>
<circle cx="75.85" cy="128.021" r="4.72206" fill="#A4688F"/>
<circle cx="75.85" cy="146.909" r="4.72206" fill="#A4688F"/>
<path d="M85.6647 65.2572C87.5547 65.7039 87.6026 68.244 85.7243 68.7372C82.9013 69.4784 80.2758 69.9115 76.9065 70.1709C75.7638 70.2589 74.8006 69.3437 74.8006 68.1976V65.7244C74.8006 64.5308 75.8418 63.6012 77.026 63.7509C80.4412 64.1826 83.0395 64.6368 85.6647 65.2572Z" fill="#FF7710"/>
<ellipse cx="129.891" cy="29.3822" rx="2.62337" ry="2.62337" fill="#B4CDE6"/>
<ellipse cx="15.512" cy="42.4984" rx="2.62337" ry="2.62337" fill="#B4CDE6"/>
<ellipse cx="5.01888" cy="18.3636" rx="2.62337" ry="2.62337" fill="#B4CDE6"/>
<ellipse cx="29.1539" cy="6.29648" rx="3.14804" ry="3.14804" fill="#B4CDE6"/>
<ellipse cx="116.774" cy="3.14804" rx="3.14804" ry="3.14804" fill="#B4CDE6"/>
<ellipse cx="139.597" cy="45.9087" rx="3.93505" ry="3.93505" fill="#B4CDE6"/>
<ellipse cx="139.597" cy="10.7554" rx="3.93505" ry="3.93505" fill="#B4CDE6"/>
<ellipse cx="11.5776" cy="59.5503" rx="3.93505" ry="3.93505" fill="#B4CDE6"/>
</svg>
