<svg width="300" height="362" viewBox="0 0 300 362" fill="none" xmlns="http://www.w3.org/2000/svg">
<ellipse cx="115.609" cy="162.118" rx="65.8565" ry="37.0038" transform="rotate(-35.0959 115.609 162.118)" fill="#E6B38E"/>
<ellipse cx="117.685" cy="262.257" rx="90.5758" ry="42.9531" transform="rotate(-71.9689 117.685 262.257)" fill="#E6B38E"/>
<ellipse rx="90.5758" ry="44.1528" transform="matrix(-0.309533 -0.950889 -0.950889 0.309533 186.336 261.887)" fill="#E6B38E"/>
<ellipse rx="90.5758" ry="37.3813" transform="matrix(-0.818191 -0.574947 -0.574947 0.818191 204.399 176.023)" fill="#E6B38E"/>
<ellipse cx="150.142" cy="85.1702" rx="75.1702" ry="75.1702" fill="#E6B38E"/>
<ellipse cx="129" cy="79" rx="9" ry="9" fill="#322658"/>
<ellipse cx="171" cy="79" rx="9" ry="9" fill="#322658"/>
<line x1="111.371" y1="62.0715" x2="141.371" y2="74.0715" stroke="#322658" stroke-width="2"/>
<path d="M189.629 61.0713L159.629 73.0713" stroke="#322658" stroke-width="2"/>
<path d="M132.05 104.63C150.155 113.442 167.82 106.585 174.39 102.055" stroke="#322658" stroke-width="3"/>
<ellipse cx="153" cy="181" rx="9" ry="9" fill="#A4688F"/>
<ellipse cx="153" cy="217" rx="9" ry="9" fill="#A4688F"/>
<path d="M87.2879 72.074C95.8646 73.2956 102.736 81.7318 106.801 94.7174C110.854 107.664 112.052 124.958 109.407 143.522C106.763 162.087 100.784 178.359 93.2782 189.659C85.7491 200.993 76.796 207.176 68.2193 205.954C59.6426 204.732 52.7717 196.296 48.7065 183.311C44.6536 170.364 43.4556 153.07 46.0998 134.506C48.7439 115.941 54.7227 99.6691 62.229 88.3691C69.7581 77.0348 78.7112 70.8524 87.2879 72.074Z" fill="#E6B38E" stroke="#DB9F74"/>
<path fill-rule="evenodd" clip-rule="evenodd" d="M128.93 42L95.803 62.5611C94.6515 63.2759 93.4007 63.8165 92.0911 64.1656C79.0609 67.6389 69.3312 52.2391 78.0632 41.9628L105.582 9.57706C106.924 7.99791 108.442 6.68803 110.077 5.64341C113.678 2.15036 118.589 0 124.002 0H189.002C200.047 0 209.002 8.95431 209.002 20V22C209.002 33.0457 200.047 42 189.002 42H128.93Z" fill="#006563"/>
<ellipse cx="150.5" cy="22" rx="12.5" ry="12" fill="#FAC213"/>
<circle cx="150.5" cy="22.5" r="7.5" fill="#322658"/>
<path fill-rule="evenodd" clip-rule="evenodd" d="M157.407 23.0084C157.599 22.8506 157.796 22.6814 158 22.5C158 18.3579 154.642 15 150.5 15C146.358 15 143 18.3579 143 22.5C143.061 22.4826 143.121 22.4653 143.181 22.4482C146.124 21.6064 147.647 21.1707 150.273 23.0329C150.462 23.1457 150.645 23.2597 150.823 23.3707L150.951 23.4501C151.868 24.0193 152.66 24.4802 153.591 24.5481C154.498 24.6143 155.629 24.3084 157.195 23.1036C157.26 23.0539 157.333 23.0225 157.407 23.0084Z" fill="#AF2010"/>
</svg>
