<svg width="88" height="88" viewBox="0 0 88 88" fill="none" xmlns="http://www.w3.org/2000/svg">
<g filter="url(#filter0_d_352_12884)">
<circle cx="44" cy="40" r="40" fill="white"/>
<circle cx="44" cy="40" r="38.5" stroke="#AF2010" stroke-width="3"/>
</g>
<path d="M32.716 25.098C33.409 25.098 33.969 24.846 34.305 24.503V22.347H32.618V22.886H33.703V24.23C33.507 24.412 33.15 24.524 32.779 24.524C31.68 24.524 31.071 23.719 31.071 22.424C31.071 21.143 31.736 20.345 32.772 20.345C33.29 20.345 33.619 20.562 33.878 20.828L34.235 20.408C33.934 20.1 33.465 19.778 32.758 19.778C31.4 19.778 30.406 20.786 30.406 22.438C30.406 24.104 31.372 25.098 32.716 25.098ZM35.5262 25H36.1772V19.869H35.5262V25ZM37.577 25H38.193V22.312C38.193 21.766 38.144 21.227 38.109 20.709H38.144L38.697 21.766L40.559 25H41.231V19.869H40.608V22.536C40.608 23.068 40.657 23.649 40.699 24.167H40.664L40.111 23.103L38.242 19.869H37.577V25ZM44.6515 25.098C45.3445 25.098 45.9045 24.846 46.2405 24.503V22.347H44.5535V22.886H45.6385V24.23C45.4425 24.412 45.0855 24.524 44.7145 24.524C43.6155 24.524 43.0065 23.719 43.0065 22.424C43.0065 21.143 43.6715 20.345 44.7075 20.345C45.2255 20.345 45.5545 20.562 45.8135 20.828L46.1705 20.408C45.8695 20.1 45.4005 19.778 44.6935 19.778C43.3355 19.778 42.3415 20.786 42.3415 22.438C42.3415 24.104 43.3075 25.098 44.6515 25.098ZM47.4617 25H50.4927V24.454H48.1127V22.578H50.0517V22.025H48.1127V20.415H50.4157V19.869H47.4617V25ZM51.5838 25H52.2348V22.83H53.1868C54.2298 22.83 54.9788 22.34 54.9788 21.311C54.9788 20.247 54.2298 19.869 53.1868 19.869H51.5838V25ZM52.2348 22.305V20.401H53.0958C53.8938 20.401 54.3348 20.639 54.3348 21.311C54.3348 21.976 53.8938 22.305 53.0958 22.305H52.2348ZM54.4048 25H55.1328L53.5648 22.319L53.0608 22.655L54.4048 25Z" fill="black"/>
<path d="M32.7 64H33.351V61.585H35.745V64H36.389V58.869H35.745V61.018H33.351V58.869H32.7V64ZM39.6898 64.098C40.9778 64.098 41.8738 63.062 41.8738 61.417C41.8738 59.779 40.9778 58.778 39.6898 58.778C38.3948 58.778 37.4988 59.772 37.4988 61.417C37.4988 63.062 38.3948 64.098 39.6898 64.098ZM39.6898 63.524C38.7658 63.524 38.1638 62.698 38.1638 61.417C38.1638 60.136 38.7658 59.345 39.6898 59.345C40.6068 59.345 41.2158 60.136 41.2158 61.417C41.2158 62.698 40.6068 63.524 39.6898 63.524ZM43.847 64H44.505V59.415H46.052V58.869H42.3V59.415H43.847V64ZM46.9734 64H50.0044V63.454H47.6244V61.578H49.5634V61.025H47.6244V59.415H49.9274V58.869H46.9734V64ZM51.0955 64H53.9865V63.454H51.7465V58.869H51.0955V64Z" fill="black"/>
<circle cx="44" cy="40" r="33.5" stroke="#AF2010" stroke-width="3"/>
<line x1="13" y1="52.5" x2="74" y2="52.5" stroke="#AF2010"/>
<line x1="12.9949" y1="29.75" x2="76.001" y2="29.75" stroke="#AF2010"/>
<defs>
<filter id="filter0_d_352_12884" x="0" y="0" width="88" height="88" filterUnits="userSpaceOnUse" color-interpolation-filters="sRGB">
<feFlood flood-opacity="0" result="BackgroundImageFix"/>
<feColorMatrix in="SourceAlpha" type="matrix" values="0 0 0 0 0 0 0 0 0 0 0 0 0 0 0 0 0 0 127 0" result="hardAlpha"/>
<feOffset dy="4"/>
<feGaussianBlur stdDeviation="2"/>
<feComposite in2="hardAlpha" operator="out"/>
<feColorMatrix type="matrix" values="0 0 0 0 0 0 0 0 0 0 0 0 0 0 0 0 0 0 0.25 0"/>
<feBlend mode="normal" in2="BackgroundImageFix" result="effect1_dropShadow_352_12884"/>
<feBlend mode="normal" in="SourceGraphic" in2="effect1_dropShadow_352_12884" result="shape"/>
</filter>
</defs>
</svg>
