<svg width="159" height="183" viewBox="0 0 159 183" fill="none" xmlns="http://www.w3.org/2000/svg">
<path d="M48.75 21.9707L44.5 12.9707C28.269 16.9996 40.9603 94.2232 22.25 108.471L41.7501 82.4707C49.155 66.2557 57.1705 38.1862 48.75 21.9707Z" fill="#4E262C"/>
<path d="M100.57 22.1919L105 11.8076C122.25 22.5576 108.36 94.4444 127.07 108.692L107.57 82.6919C100.165 66.4769 92.1498 38.4073 100.57 22.1919Z" fill="#4E262C"/>
<ellipse cx="47.6917" cy="89.3861" rx="45.2879" ry="18.5019" transform="rotate(-35.0959 47.6917 89.3861)" fill="#E6B38E"/>
<ellipse cx="58.8422" cy="132.35" rx="45.2879" ry="21.4766" transform="rotate(-71.9689 58.8422 132.35)" fill="#E6B38E"/>
<ellipse rx="45.2879" ry="22.0764" transform="matrix(-0.309533 -0.950889 -0.950889 0.309533 93.1684 132.164)" fill="#E6B38E"/>
<ellipse rx="45.2879" ry="18.6907" transform="matrix(-0.818191 -0.574947 -0.574947 0.818191 102.2 89.2329)" fill="#E6B38E"/>
<circle cx="74.508" cy="43.8058" r="37.5851" fill="#E6B38E"/>
<circle cx="64.5" cy="43.0283" r="4.5" fill="#322658"/>
<ellipse cx="85.5" cy="43.0283" rx="4.5" ry="4.5" fill="#322658"/>
<path d="M67.8327 55.6504C74.8316 59.2065 81.764 56.6516 84.3554 54.9297" stroke="#322658" stroke-width="2"/>
<path d="M42.7782 114.726C42.9286 114.311 43.3324 114.045 43.7723 114.068L76.291 115.831C76.3453 115.834 76.3998 115.833 76.4538 115.827L108.71 112.303C109.155 112.254 109.579 112.508 109.746 112.923L122.552 144.678C122.785 145.257 122.425 145.908 121.814 146.033C87.547 152.989 68.9653 152.922 32.6634 145.998C32.0592 145.883 31.6901 145.252 31.9001 144.674L42.7782 114.726Z" fill="#F87AE5"/>
<path d="M46.25 78.7207C69.3795 84.2335 82.0572 84.1177 104.25 78.7207L106.5 106.942C82.1107 109.984 68.4263 109.976 44 106.942L46.25 78.7207Z" fill="white"/>
<path d="M107 19.9707C116.731 32.0173 109.13 30.7211 90.9154 29.5459C75.7568 29.5459 47 20.4643 47 13.9735C47 7.48259 59.2885 2.2207 74.4472 2.2207C89.6058 2.2207 105 6.7207 107 19.9707Z" fill="#4E262C"/>
<path d="M58.8072 28.891C51.6204 33.542 32.5 39.221 38 34.2209C36.75 28.891 39.6677 15.0722 46.8544 10.4213C60 2.47095 62.5429 6.13459 65.8436 11.2349C69.1442 16.3351 65.994 24.2401 58.8072 28.891Z" fill="#4E262C"/>
<path d="M103.15 11.2508C111.25 17.9712 108.839 21.3401 106.042 24.2053C103.245 27.0705 97.4151 25.916 93.0211 21.6266C88.6272 17.3372 87.3325 11.5372 90.1295 8.67203C92.9265 5.80684 93.5001 4.22127 103.15 11.2508Z" fill="#4E262C"/>
<path fill-rule="evenodd" clip-rule="evenodd" d="M110.25 64.0824C112.321 64.0824 114 60.8674 114 56.9016C113.235 55.4563 112.741 54.5545 112.352 53.8423C111.644 52.5495 111.279 51.8815 110.25 49.7207C109.052 52.1589 108.709 52.8848 108.336 53.5945C107.989 54.255 107.615 54.9015 106.5 56.9016C106.5 60.8674 108.179 64.0824 110.25 64.0824ZM110.25 61.2207C111.493 61.2207 112.5 59.206 112.5 56.7207C112.041 55.815 111.745 55.2499 111.511 54.8036C111.087 53.9934 110.867 53.5748 110.25 52.2207C109.53 53.7496 109.325 54.2041 109.101 54.6491C108.893 55.0627 108.669 55.4682 108 56.7207C108 59.206 109.007 61.2207 110.25 61.2207Z" fill="#A4D6CB"/>
<path fill-rule="evenodd" clip-rule="evenodd" d="M40.25 64.0824C42.3211 64.0824 44 60.8674 44 56.9016C43.2348 55.4563 42.7415 54.5545 42.3518 53.8423C41.6444 52.5495 41.279 51.8815 40.25 49.7207C39.0516 52.1589 38.7093 52.8848 38.3363 53.5945C37.9892 54.255 37.6154 54.9015 36.5 56.9016C36.5 60.8674 38.1789 64.0824 40.25 64.0824ZM40.25 61.2207C41.4926 61.2207 42.5 59.206 42.5 56.7207C42.0409 55.815 41.7449 55.2499 41.5111 54.8036C41.0867 53.9934 40.8674 53.5748 40.25 52.2207C39.5305 53.7496 39.3253 54.2041 39.1014 54.6491C38.8932 55.0627 38.6688 55.4682 38 56.7207C38 59.206 39.0074 61.2207 40.25 61.2207Z" fill="#A4D6CB"/>
<path d="M108.5 26.721L111.454 27.7212L114.592 49.4962L112 50.7212C108.483 42.4297 107.362 35.4081 108.5 26.721Z" fill="#4E262C"/>
<path d="M41.7129 28.6175L38.759 29.6177L35.6204 39.4996L35.6204 51.3927L38.2131 52.6177C41.7304 44.3262 42.8513 37.3045 41.7129 28.6175Z" fill="#4E262C"/>
<path d="M71.1369 37.8177C63.7703 33.3081 57.1414 37.298 54.9654 41.6141" stroke="#322658" stroke-width="2"/>
<path d="M79.243 37.5521C86.6096 33.0425 93.2384 37.0324 95.4145 41.3485" stroke="#322658" stroke-width="2"/>
<ellipse cx="59.6427" cy="50.7169" rx="6.5656" ry="3.15149" fill="#E07272" fill-opacity="0.3"/>
<ellipse cx="93.258" cy="50.7169" rx="6.5656" ry="3.15149" fill="#E07272" fill-opacity="0.3"/>
<line x1="55.5415" y1="35.1502" x2="57.0577" y2="38.4677" stroke="#322658" stroke-width="1.5"/>
<line y1="-0.75" x2="3.64759" y2="-0.75" transform="matrix(-0.415675 0.909513 0.909514 0.415673 95.5205 35.1953)" stroke="#322658" stroke-width="1.5"/>
<line x1="57.8491" y1="33.9959" x2="59.3653" y2="37.3134" stroke="#322658" stroke-width="1.5"/>
<line y1="-0.75" x2="3.64758" y2="-0.75" transform="matrix(-0.415676 0.909513 0.909514 0.415673 93.2129 34.041)" stroke="#322658" stroke-width="1.5"/>
<rect x="98.7881" y="20.4619" width="2.30769" height="10.1834" rx="1.15385" transform="rotate(17.2422 98.7881 20.4619)" fill="#F9C267"/>
<rect x="95.5869" y="19.3076" width="2.30769" height="11.0646" rx="1.15385" transform="rotate(17.2421 95.5869 19.3076)" fill="#A4D6CB"/>
<mask id="path-30-inside-1_1493_56927" fill="white">
<path fill-rule="evenodd" clip-rule="evenodd" d="M130.754 102.594C135.61 100.855 140.907 102.796 142.943 106.78L142.988 106.763L143.25 107.46C143.282 107.54 143.312 107.62 143.342 107.701L143.343 107.705L150.058 125.54L147.241 126.601L141.835 112.241C141.762 112.131 141.686 112.022 141.606 111.911C139.961 107.315 135.582 104.679 131.826 106.024C128.901 107.071 127.216 110.223 127.391 113.738L133.744 130.611L130.927 131.671L124.483 114.555C124.45 114.471 124.418 114.387 124.388 114.302C124.387 114.301 124.387 114.299 124.386 114.298L124.211 113.833L124.233 113.824C122.938 109.348 125.716 104.397 130.754 102.594Z"/>
</mask>
<path fill-rule="evenodd" clip-rule="evenodd" d="M130.754 102.594C135.61 100.855 140.907 102.796 142.943 106.78L142.988 106.763L143.25 107.46C143.282 107.54 143.312 107.62 143.342 107.701L143.343 107.705L150.058 125.54L147.241 126.601L141.835 112.241C141.762 112.131 141.686 112.022 141.606 111.911C139.961 107.315 135.582 104.679 131.826 106.024C128.901 107.071 127.216 110.223 127.391 113.738L133.744 130.611L130.927 131.671L124.483 114.555C124.45 114.471 124.418 114.387 124.388 114.302C124.387 114.301 124.387 114.299 124.386 114.298L124.211 113.833L124.233 113.824C122.938 109.348 125.716 104.397 130.754 102.594Z" fill="#F4AFCE"/>
<path d="M142.943 106.78L142.053 107.236L142.459 108.031L143.295 107.716L142.943 106.78ZM130.754 102.594L131.091 103.535L130.754 102.594ZM142.988 106.763L143.924 106.411L143.572 105.475L142.636 105.827L142.988 106.763ZM143.25 107.46L142.315 107.812L142.318 107.82L142.321 107.828L143.25 107.46ZM143.342 107.701L144.283 107.365L144.283 107.364L143.342 107.701ZM143.343 107.705L142.401 108.042L142.404 108.05L142.407 108.057L143.343 107.705ZM150.058 125.54L150.41 126.476L151.346 126.124L150.994 125.188L150.058 125.54ZM147.241 126.601L146.306 126.953L146.658 127.889L147.594 127.537L147.241 126.601ZM141.835 112.241L142.771 111.888L142.73 111.781L142.667 111.686L141.835 112.241ZM141.606 111.911L140.665 112.248L140.712 112.381L140.795 112.496L141.606 111.911ZM131.826 106.024L131.489 105.082L131.489 105.082L131.826 106.024ZM127.391 113.738L126.392 113.787L126.4 113.944L126.455 114.09L127.391 113.738ZM133.744 130.611L134.096 131.547L135.032 131.194L134.68 130.258L133.744 130.611ZM130.927 131.671L129.991 132.024L130.344 132.959L131.28 132.607L130.927 131.671ZM124.483 114.555L125.419 114.202L125.416 114.194L125.413 114.186L124.483 114.555ZM124.388 114.302L123.446 114.639L123.446 114.639L124.388 114.302ZM124.386 114.298L125.328 113.961L125.325 113.953L125.322 113.945L124.386 114.298ZM124.211 113.833L123.859 112.897L122.923 113.249L123.275 114.185L124.211 113.833ZM124.233 113.824L124.586 114.76L125.451 114.435L125.194 113.547L124.233 113.824ZM143.834 106.325C141.537 101.832 135.678 99.7687 130.417 101.652L131.091 103.535C135.543 101.941 140.277 103.761 142.053 107.236L143.834 106.325ZM142.636 105.827L142.591 105.844L143.295 107.716L143.341 107.699L142.636 105.827ZM144.186 107.107L143.924 106.411L142.052 107.116L142.315 107.812L144.186 107.107ZM144.283 107.364C144.25 107.273 144.216 107.182 144.18 107.092L142.321 107.828C142.348 107.897 142.375 107.968 142.4 108.038L144.283 107.364ZM144.284 107.368L144.283 107.365L142.4 108.038L142.401 108.042L144.284 107.368ZM150.994 125.188L144.279 107.353L142.407 108.057L149.122 125.893L150.994 125.188ZM147.594 127.537L150.41 126.476L149.706 124.604L146.889 125.665L147.594 127.537ZM140.899 112.593L146.306 126.953L148.177 126.248L142.771 111.888L140.899 112.593ZM140.795 112.496C140.867 112.596 140.937 112.696 141.002 112.795L142.667 111.686C142.587 111.567 142.504 111.447 142.418 111.327L140.795 112.496ZM132.163 106.965C135.231 105.867 139.139 107.986 140.665 112.248L142.548 111.574C140.783 106.645 135.934 103.491 131.489 105.082L132.163 106.965ZM128.39 113.688C128.23 110.482 129.765 107.824 132.163 106.965L131.489 105.082C128.037 106.318 126.202 109.965 126.392 113.787L128.39 113.688ZM126.455 114.09L132.808 130.963L134.68 130.258L128.327 113.385L126.455 114.09ZM133.392 129.675L130.575 130.735L131.28 132.607L134.096 131.547L133.392 129.675ZM131.863 131.319L125.419 114.202L123.547 114.907L129.991 132.024L131.863 131.319ZM123.446 114.639C123.48 114.735 123.516 114.829 123.553 114.923L125.413 114.186C125.384 114.113 125.356 114.04 125.329 113.965L123.446 114.639ZM123.444 114.634C123.445 114.636 123.446 114.638 123.446 114.639L125.329 113.965C125.329 113.964 125.328 113.963 125.328 113.961L123.444 114.634ZM125.322 113.945L125.147 113.48L123.275 114.185L123.45 114.65L125.322 113.945ZM124.563 114.769L124.586 114.76L123.881 112.889L123.859 112.897L124.563 114.769ZM130.417 101.652C124.968 103.602 121.806 109.035 123.273 114.102L125.194 113.547C124.07 109.661 126.464 105.191 131.091 103.535L130.417 101.652Z" fill="#DF6F6F" mask="url(#path-30-inside-1_1493_56927)"/>
<rect x="120.85" y="124.377" width="33.4012" height="17.1487" rx="4.5" transform="rotate(-19.9479 120.85 124.377)" fill="#F4AFCE" stroke="#DF6F6F"/>
<path d="M108.461 18.1541C108.461 25.8012 90.7333 15.2695 73.8461 15.2695C56.9589 15.2695 35.1924 27.9618 40.9614 17.5772C40.9614 9.9302 56.9589 0.269531 73.8461 0.269531C90.7333 0.269531 108.461 10.5071 108.461 18.1541Z" fill="#4E262C"/>
<path d="M46.1543 71.2305C70.0472 82.3077 82.6183 82.0212 103.847 71.2305" stroke="#FCF4E9" stroke-linecap="round" stroke-dasharray="3 3"/>
<path d="M76.8078 82.1922C76.8078 83.6191 75.9001 84.5769 75.0001 84.5769C74.1001 84.5769 73.1924 83.6191 73.1924 82.1922C73.1924 80.7654 74.1001 79.8076 75.0001 79.8076C75.9001 79.8076 76.8078 80.7654 76.8078 82.1922Z" fill="#A4D6CB" stroke="#A4D6CB"/>
<path d="M17.8096 91.2308C17.4955 90.8039 17.5717 90.204 17.979 89.8648C28.0283 81.4939 33.8351 75.6821 44.7049 68.9174C45.3725 68.5019 46.2323 68.9922 46.2187 69.7784L45.4908 112.103C45.4868 112.34 45.399 112.569 45.2384 112.744C43.1601 115.006 41.141 115.931 37.3885 116.822C37.0019 116.914 36.5976 116.764 36.3621 116.443L17.8096 91.2308Z" fill="#F6D3F4"/>
<path d="M132.334 91.1046C132.644 90.6776 132.566 90.0815 132.161 89.744C122.126 81.3853 116.322 75.5785 105.487 68.8276C104.808 68.4046 103.936 68.9189 103.974 69.7179L105.976 111.978C105.991 112.289 106.151 112.576 106.406 112.752C108.899 114.478 110.083 115.201 113.025 116.424C113.449 116.6 113.939 116.459 114.209 116.087L132.334 91.1046Z" fill="#F6D3F4"/>
</svg>
