<svg width="227" height="40" viewBox="0 0 227 40" fill="none" xmlns="http://www.w3.org/2000/svg">
<path d="M7.28173 0H218.768L227 19.5455L218.768 40H7.28173L0 19.0909L7.28173 0Z" fill="#AF2010"/>
<path d="M34.9766 13.6719C35.3828 13.6927 35.612 13.974 35.6641 14.5156L36.3516 22.7656L37.5547 16.8906C37.5964 16.6406 37.763 16.5208 38.0547 16.5312C38.3568 16.5417 38.5391 16.6615 38.6016 16.8906L39.6484 22.75L40.4141 14.4062C40.4557 13.8854 40.6745 13.6354 41.0703 13.6562C41.4661 13.6771 41.6641 13.974 41.6641 14.5469C41.112 20.5469 40.6953 24.1458 40.4141 25.3438C40.2578 25.7604 40.0339 25.9583 39.7422 25.9375C39.4505 25.9167 39.2474 25.7604 39.1328 25.4688C38.7682 24.7292 38.4297 23.0365 38.1172 20.3906C38.0755 20.1406 38.0443 20.1406 38.0234 20.3906C37.638 23.0365 37.2682 24.7292 36.9141 25.4688C36.7891 25.7708 36.5755 25.9219 36.2734 25.9219C35.9818 25.9115 35.7682 25.7083 35.6328 25.3125C35.2786 24.1562 34.8568 20.5833 34.3672 14.5938C34.3672 13.9583 34.5703 13.651 34.9766 13.6719ZM45.9141 18.2656C48.1432 18.4323 49.2109 19.1667 49.1172 20.4688C48.9505 21.7604 48.4141 22.5 47.5078 22.6875C46.0703 22.9375 44.7005 22.8854 43.3984 22.5312C43.4089 23.3646 43.6797 24 44.2109 24.4375C45.1276 24.7812 46.0807 24.7812 47.0703 24.4375C47.7474 24.2604 48.4818 24.0104 49.2734 23.6875C49.638 23.625 49.8203 23.7188 49.8203 23.9688C49.8203 24.2083 49.7109 24.4479 49.4922 24.6875C48.6797 25.4271 47.3516 25.8854 45.5078 26.0625C44.0911 26.0625 43.1068 25.5521 42.5547 24.5312C42.3464 24.2708 42.1953 23.8594 42.1016 23.2969C42.0286 22.4427 42.0443 21.6458 42.1484 20.9062C42.4193 19.3125 43.6745 18.4323 45.9141 18.2656ZM43.4297 21.2812C44.6693 21.625 45.8203 21.6927 46.8828 21.4844C47.4557 21.3906 47.737 21.0573 47.7266 20.4844C47.7891 20.0365 47.3672 19.7396 46.4609 19.5938C46.0964 19.5104 45.7214 19.5208 45.3359 19.625C44.6276 19.7917 44.1224 20.0156 43.8203 20.2969C43.5391 20.5885 43.4089 20.9167 43.4297 21.2812ZM52.7422 13.7031C53.1172 13.6927 53.2682 14.1562 53.1953 15.0938C53.1328 16.0312 53.1016 17.4219 53.1016 19.2656V20.625V21.2031V25.6719C53.1016 25.9323 52.9714 26.0625 52.7109 26.0625C52.2318 26.0521 51.9714 25.8073 51.9297 25.3281C51.9297 24.776 51.9297 24.2188 51.9297 23.6562C51.9297 23.0833 51.9297 22.526 51.9297 21.9844C51.9297 21.099 51.9297 20.3125 51.9297 19.625C51.9297 18.9271 51.9297 17.7396 51.9297 16.0625C51.9922 14.4896 52.263 13.7031 52.7422 13.7031ZM58.7891 18.2969C61.1432 18.1198 62.3984 18.9844 62.5547 20.8906C62.5547 21.1719 62.4505 21.3542 62.2422 21.4375C62.0443 21.5208 61.8568 21.4219 61.6797 21.1406C61.4401 20.0365 60.6224 19.4948 59.2266 19.5156C57.5391 19.7031 56.6536 20.5417 56.5703 22.0312C56.5078 22.4375 56.5182 22.8177 56.6016 23.1719C57.1328 24.2135 57.9245 24.7604 58.9766 24.8125C59.8828 24.8542 61.0859 24.599 62.5859 24.0469C62.7839 23.9844 62.9245 24.0625 63.0078 24.2812C63.1016 24.5 63.0599 24.6771 62.8828 24.8125C62.1536 25.6771 60.6745 26.0938 58.4453 26.0625C56.7161 25.875 55.638 24.776 55.2109 22.7656V22.1094C55.2005 20.026 56.3932 18.7552 58.7891 18.2969ZM65.2422 18.75C66.3047 18.3854 67.388 18.3333 68.4922 18.5938C69.5547 18.9167 70.1484 19.974 70.2734 21.7656C70.0547 24.0677 69.2057 25.4167 67.7266 25.8125C66.9974 26.125 66.2161 26.1146 65.3828 25.7812C64.2474 25.0625 63.6797 23.9323 63.6797 22.3906C63.7526 19.9531 64.0443 18.7292 64.5547 18.7188H64.8203C64.9036 18.7188 65.0443 18.7292 65.2422 18.75ZM65.0859 23.4844C65.388 24.5677 66.0339 24.9688 67.0234 24.6875C68.013 24.4062 68.6693 23.5469 68.9922 22.1094C68.9297 20.4531 68.2786 19.6354 67.0391 19.6562C66.0495 19.6562 65.3932 20.0781 65.0703 20.9219C64.9036 21.7552 64.9089 22.6094 65.0859 23.4844ZM75.5234 19.6719C75.8359 18.7344 76.3932 18.2969 77.1953 18.3594C77.9661 18.4427 78.4193 18.9531 78.5547 19.8906L78.6953 25.625C78.6953 25.8021 78.5339 25.9479 78.2109 26.0625C77.888 26.1771 77.6641 26.0312 77.5391 25.625L77.4297 22.4062C77.4609 20.8646 77.362 20.0625 77.1328 20C76.9036 19.9271 76.6745 20.3542 76.4453 21.2812C76.2266 22.1979 75.8984 23.5677 75.4609 25.3906C75.388 25.7969 75.1641 26 74.7891 26C74.4245 25.9896 74.2057 25.7708 74.1328 25.3438C73.8932 23.6354 73.6901 22.2865 73.5234 21.2969C73.3568 20.2969 73.1068 19.8438 72.7734 19.9375C72.4505 20.0312 72.2526 20.4948 72.1797 21.3281L72.0859 24.4062L72.1016 25.5312C72.0391 25.9479 71.8411 26.1406 71.5078 26.1094C71.1745 26.0677 70.9714 25.8021 70.8984 25.3125L70.9766 20.0156C71.0286 19.5365 71.2266 19.1562 71.5703 18.875C71.9245 18.5938 72.3516 18.4115 72.8516 18.3281C73.737 18.3073 74.2891 18.75 74.5078 19.6562L74.8984 22.3438L75.5234 19.6719ZM83.2109 18.2656C85.4401 18.4323 86.5078 19.1667 86.4141 20.4688C86.2474 21.7604 85.7109 22.5 84.8047 22.6875C83.3672 22.9375 81.9974 22.8854 80.6953 22.5312C80.7057 23.3646 80.9766 24 81.5078 24.4375C82.4245 24.7812 83.3776 24.7812 84.3672 24.4375C85.0443 24.2604 85.7786 24.0104 86.5703 23.6875C86.9349 23.625 87.1172 23.7188 87.1172 23.9688C87.1172 24.2083 87.0078 24.4479 86.7891 24.6875C85.9766 25.4271 84.6484 25.8854 82.8047 26.0625C81.388 26.0625 80.4036 25.5521 79.8516 24.5312C79.6432 24.2708 79.4922 23.8594 79.3984 23.2969C79.3255 22.4427 79.3411 21.6458 79.4453 20.9062C79.7161 19.3125 80.9714 18.4323 83.2109 18.2656ZM80.7266 21.2812C81.9661 21.625 83.1172 21.6927 84.1797 21.4844C84.7526 21.3906 85.0339 21.0573 85.0234 20.4844C85.0859 20.0365 84.6641 19.7396 83.7578 19.5938C83.3932 19.5104 83.0182 19.5208 82.6328 19.625C81.9245 19.7917 81.4193 20.0156 81.1172 20.2969C80.8359 20.5885 80.7057 20.9167 80.7266 21.2812ZM98.6641 18.5312C99.0286 18.5417 99.2318 18.7135 99.2734 19.0469C99.3255 19.3802 99.2109 19.5885 98.9297 19.6719L96.7422 19.7031V24.9219L98.4766 24.8125C99.1641 24.8333 99.5234 25.0677 99.5547 25.5156C99.5443 25.7865 99.1016 25.974 98.2266 26.0781C97.362 26.1719 96.8203 26.2188 96.6016 26.2188H96.4453C95.9245 26.2292 95.6172 25.9479 95.5234 25.375L95.5391 19.7031L93.4766 19.7188C93.2161 19.7083 93.0807 19.5052 93.0703 19.1094C93.0703 18.7135 93.2786 18.5156 93.6953 18.5156H95.5391V14.2656C95.5911 13.9115 95.7786 13.7344 96.1016 13.7344C96.4349 13.7344 96.638 13.9062 96.7109 14.25V18.5312H98.6641ZM101.43 18.75C102.492 18.3854 103.576 18.3333 104.68 18.5938C105.742 18.9167 106.336 19.974 106.461 21.7656C106.242 24.0677 105.393 25.4167 103.914 25.8125C103.185 26.125 102.404 26.1146 101.57 25.7812C100.435 25.0625 99.8672 23.9323 99.8672 22.3906C99.9401 19.9531 100.232 18.7292 100.742 18.7188H101.008C101.091 18.7188 101.232 18.7292 101.43 18.75ZM101.273 23.4844C101.576 24.5677 102.221 24.9688 103.211 24.6875C104.201 24.4062 104.857 23.5469 105.18 22.1094C105.117 20.4531 104.466 19.6354 103.227 19.6562C102.237 19.6562 101.581 20.0781 101.258 20.9219C101.091 21.7552 101.096 22.6094 101.273 23.4844ZM116.961 13.7188C118.294 13.9375 118.977 14.6406 119.008 15.8281C119.029 16.1615 118.93 16.375 118.711 16.4688C118.492 16.5521 118.336 16.5312 118.242 16.4062C118.076 15.75 117.737 15.3177 117.227 15.1094C116.602 14.901 115.977 15.0312 115.352 15.5C114.049 16.6771 113.497 18.724 113.695 21.6406C114.237 23.4635 115.055 24.4323 116.148 24.5469L116.18 23.0156L116.195 21.1094L116.18 20.375L114.648 20.4688C114.451 20.3958 114.315 20.2135 114.242 19.9219C114.169 19.6302 114.211 19.4062 114.367 19.25C116.576 19.1354 118.195 19.0729 119.227 19.0625C119.383 19.0521 119.461 19.2448 119.461 19.6406C119.461 20.026 119.393 20.2292 119.258 20.25L117.461 20.3281L117.414 22.3438V24.5C117.977 24.3438 118.409 24.1302 118.711 23.8594C118.971 23.651 119.174 23.6042 119.32 23.7188C119.466 23.8229 119.492 24.0312 119.398 24.3438C119.013 25.3021 118.164 25.8229 116.852 25.9062H115.992C114.419 25.8333 113.253 24.6719 112.492 22.4219C112.294 21.3906 112.279 20.224 112.445 18.9219C112.758 16.474 113.695 14.7969 115.258 13.8906C115.789 13.6719 116.357 13.6146 116.961 13.7188ZM120.727 16.7656C120.841 16.526 121.174 16.474 121.727 16.6094C122.529 16.9427 122.914 17.2396 122.883 17.5C122.862 17.75 122.706 17.8854 122.414 17.9062C121.31 17.7708 120.727 17.5365 120.664 17.2031L120.727 16.7656ZM121.148 19.7344C121.232 19.2552 121.44 19.0104 121.773 19C122.107 18.9792 122.32 19.1823 122.414 19.6094L122.43 25.625C122.378 25.9688 122.18 26.1406 121.836 26.1406C121.492 26.1406 121.268 25.9531 121.164 25.5781L121.148 19.7344ZM127.18 18.1875C127.836 17.9583 128.393 17.9688 128.852 18.2188C129.966 18.4479 130.643 19.901 130.883 22.5781L131.258 25.5781C131.154 25.9323 130.945 26.0885 130.633 26.0469C130.247 26.0469 130.018 25.7396 129.945 25.125L129.539 22.0156C129.341 20.724 129.023 19.9271 128.586 19.625C128.232 19.2396 127.737 19.2552 127.102 19.6719C126.716 19.9219 126.393 20.3802 126.133 21.0469C125.883 21.6302 125.742 23.0781 125.711 25.3906C125.596 25.849 125.336 26.0625 124.93 26.0312C124.523 25.9896 124.367 25.4323 124.461 24.3594C124.555 22.2031 124.742 20.8333 125.023 20.25C125.451 19.1667 126.169 18.4792 127.18 18.1875ZM135.555 17.9531C136.773 18.1302 137.544 18.5729 137.867 19.2812C138.003 19.6146 138.044 20.0312 137.992 20.5312L137.758 27.9375C137.706 28.4271 137.508 28.7396 137.164 28.875C136.758 29.0312 136.169 29.0833 135.398 29.0312C134.096 29.0104 133.023 28.3698 132.18 27.1094C132.003 26.6719 131.904 26.2344 131.883 25.7969C131.82 25.099 131.898 24.7396 132.117 24.7188C132.346 24.6875 132.513 24.8438 132.617 25.1875C132.69 25.8646 133.221 26.625 134.211 27.4688C135.065 27.8854 135.872 27.9792 136.633 27.75L136.836 22.2031C136.576 22.5573 136.102 22.849 135.414 23.0781C134.56 23.224 133.857 23.1406 133.305 22.8281C132.773 22.6615 132.383 22.2708 132.133 21.6562C131.893 20.8229 131.898 19.9948 132.148 19.1719C132.409 18.3906 133.544 17.9844 135.555 17.9531ZM133.18 20.4375C133.096 21.3333 133.643 21.8333 134.82 21.9375C135.258 21.8646 135.638 21.7135 135.961 21.4844C136.336 21.3385 136.602 20.974 136.758 20.3906C136.727 19.6094 136.18 19.1771 135.117 19.0938C133.826 19.1354 133.18 19.5833 133.18 20.4375ZM142.492 18.2656C144.721 18.4323 145.789 19.1667 145.695 20.4688C145.529 21.7604 144.992 22.5 144.086 22.6875C142.648 22.9375 141.279 22.8854 139.977 22.5312C139.987 23.3646 140.258 24 140.789 24.4375C141.706 24.7812 142.659 24.7812 143.648 24.4375C144.326 24.2604 145.06 24.0104 145.852 23.6875C146.216 23.625 146.398 23.7188 146.398 23.9688C146.398 24.2083 146.289 24.4479 146.07 24.6875C145.258 25.4271 143.93 25.8854 142.086 26.0625C140.669 26.0625 139.685 25.5521 139.133 24.5312C138.924 24.2708 138.773 23.8594 138.68 23.2969C138.607 22.4427 138.622 21.6458 138.727 20.9062C138.997 19.3125 140.253 18.4323 142.492 18.2656ZM140.008 21.2812C141.247 21.625 142.398 21.6927 143.461 21.4844C144.034 21.3906 144.315 21.0573 144.305 20.4844C144.367 20.0365 143.945 19.7396 143.039 19.5938C142.674 19.5104 142.299 19.5208 141.914 19.625C141.206 19.7917 140.701 20.0156 140.398 20.2969C140.117 20.5885 139.987 20.9167 140.008 21.2812ZM147.758 18.0156C148.133 17.9635 148.357 18.1146 148.43 18.4688L148.414 21.3594C149.258 19.526 150.398 18.5573 151.836 18.4531C153.18 18.2865 153.852 18.474 153.852 19.0156C153.82 19.401 153.409 19.6094 152.617 19.6406C152.398 19.6719 152.039 19.75 151.539 19.875C150.164 20.375 149.122 22.1875 148.414 25.3125C148.341 25.9062 148.112 26.2031 147.727 26.2031C147.341 26.2031 147.128 25.8698 147.086 25.2031L147.102 19.7344V18.7188C147.174 18.2917 147.393 18.0573 147.758 18.0156ZM160.086 13.7031C160.492 13.6615 160.763 13.8229 160.898 14.1875V19.1875L164.898 19.1719L164.914 14.2188C164.966 13.8646 165.19 13.6979 165.586 13.7188C165.982 13.7292 166.206 13.8958 166.258 14.2188V20.5156L166.273 25.4219C166.211 25.8385 165.982 26.0365 165.586 26.0156C165.19 25.9948 164.961 25.7865 164.898 25.3906V20.4844H160.883C160.893 23.4531 160.888 25.1823 160.867 25.6719C160.826 25.9948 160.602 26.1406 160.195 26.1094C159.799 26.0781 159.57 25.9375 159.508 25.6875C159.497 24.2083 159.492 22.1979 159.492 19.6562L159.508 14.3438C159.497 13.9479 159.69 13.7344 160.086 13.7031ZM168.414 18.75C169.477 18.3854 170.56 18.3333 171.664 18.5938C172.727 18.9167 173.32 19.974 173.445 21.7656C173.227 24.0677 172.378 25.4167 170.898 25.8125C170.169 26.125 169.388 26.1146 168.555 25.7812C167.419 25.0625 166.852 23.9323 166.852 22.3906C166.924 19.9531 167.216 18.7292 167.727 18.7188H167.992C168.076 18.7188 168.216 18.7292 168.414 18.75ZM168.258 23.4844C168.56 24.5677 169.206 24.9688 170.195 24.6875C171.185 24.4062 171.841 23.5469 172.164 22.1094C172.102 20.4531 171.451 19.6354 170.211 19.6562C169.221 19.6562 168.565 20.0781 168.242 20.9219C168.076 21.7552 168.081 22.6094 168.258 23.4844ZM179.633 18.5312C179.997 18.5417 180.201 18.7135 180.242 19.0469C180.294 19.3802 180.18 19.5885 179.898 19.6719L177.711 19.7031V24.9219L179.445 24.8125C180.133 24.8333 180.492 25.0677 180.523 25.5156C180.513 25.7865 180.07 25.974 179.195 26.0781C178.331 26.1719 177.789 26.2188 177.57 26.2188H177.414C176.893 26.2292 176.586 25.9479 176.492 25.375L176.508 19.7031L174.445 19.7188C174.185 19.7083 174.049 19.5052 174.039 19.1094C174.039 18.7135 174.247 18.5156 174.664 18.5156H176.508V14.2656C176.56 13.9115 176.747 13.7344 177.07 13.7344C177.404 13.7344 177.607 13.9062 177.68 14.25V18.5312H179.633ZM184.742 18.2656C186.971 18.4323 188.039 19.1667 187.945 20.4688C187.779 21.7604 187.242 22.5 186.336 22.6875C184.898 22.9375 183.529 22.8854 182.227 22.5312C182.237 23.3646 182.508 24 183.039 24.4375C183.956 24.7812 184.909 24.7812 185.898 24.4375C186.576 24.2604 187.31 24.0104 188.102 23.6875C188.466 23.625 188.648 23.7188 188.648 23.9688C188.648 24.2083 188.539 24.4479 188.32 24.6875C187.508 25.4271 186.18 25.8854 184.336 26.0625C182.919 26.0625 181.935 25.5521 181.383 24.5312C181.174 24.2708 181.023 23.8594 180.93 23.2969C180.857 22.4427 180.872 21.6458 180.977 20.9062C181.247 19.3125 182.503 18.4323 184.742 18.2656ZM182.258 21.2812C183.497 21.625 184.648 21.6927 185.711 21.4844C186.284 21.3906 186.565 21.0573 186.555 20.4844C186.617 20.0365 186.195 19.7396 185.289 19.5938C184.924 19.5104 184.549 19.5208 184.164 19.625C183.456 19.7917 182.951 20.0156 182.648 20.2969C182.367 20.5885 182.237 20.9167 182.258 21.2812ZM191.57 13.7031C191.945 13.6927 192.096 14.1562 192.023 15.0938C191.961 16.0312 191.93 17.4219 191.93 19.2656V20.625V21.2031V25.6719C191.93 25.9323 191.799 26.0625 191.539 26.0625C191.06 26.0521 190.799 25.8073 190.758 25.3281C190.758 24.776 190.758 24.2188 190.758 23.6562C190.758 23.0833 190.758 22.526 190.758 21.9844C190.758 21.099 190.758 20.3125 190.758 19.625C190.758 18.9271 190.758 17.7396 190.758 16.0625C190.82 14.4896 191.091 13.7031 191.57 13.7031Z" fill="white"/>
<path d="M11.66 8.39338L12.5307 6.79779L12.9696 7.03731L13.2629 6.5H13.9731V6H15.9869V6.5H18.0008V6H20.0146V6.5H22.0285V6H24.0423V6.5H26.0561V6H28.07V6.5H30.0838V6H32.0977V6.5H34.1115V6H36.1253V6.5H38.1392V6H40.153V6.5H42.1669V6H44.1807V6.5H46.1945V6H48.2084V6.5H50.2222V6H52.2361V6.5H54.2499V6H56.2637V6.5H58.2776V6H60.2914V6.5H62.3053V6H64.3191V6.5H66.3329V6H68.3468V6.5H70.3606V6H72.3745V6.5H74.3883V6H76.4021V6.5H78.416V6H80.4298V6.5H82.4437V6H84.4575V6.5H86.4713V6H88.4852V6.5H90.499V6H92.5129V6.5H94.5267V6H96.5406V6.5H98.5544V6H100.568V6.5H102.582V6H104.596V6.5H106.61V6H108.624V6.5H110.638V6H112.651V6.5H114.665V6H116.679V6.5H118.693V6H120.707V6.5H122.721V6H124.734V6.5H126.748V6H128.762V6.5H130.776V6H132.79V6.5H134.804V6H136.818V6.5H138.831V6H140.845V6.5H142.859V6H144.873V6.5H146.887V6H148.901V6.5H150.914V6H152.928V6.5H154.942V6H156.956V6.5H158.97V6H160.984V6.5H162.998V6H165.011V6.5H167.025V6H169.039V6.5H171.053V6H173.067V6.5H175.081V6H177.094V6.5H179.108V6H181.122V6.5H183.136V6H185.15V6.5H187.164V6H189.177V6.5H191.191V6H193.205V6.5H195.219V6H197.233V6.5H199.247V6H201.261V6.5H203.274V6H205.288V6.5H207.302V6H209.316V6.5H211.33V6H213.344V6.5H214.047L214.323 7.02879L214.766 6.7978L215.597 8.39338L215.154 8.62438L215.985 10.22L216.428 9.98897L217.26 11.5846L216.816 11.8156L217.647 13.4111L218.091 13.1801L218.922 14.7757L218.479 15.0067L219.31 16.6023L219.753 16.3713L220.584 17.9669L220.141 18.1979L220.446 18.7837L220.126 19.5169L220.584 19.7169L219.753 21.6213L219.295 21.4213L218.464 23.3257L218.922 23.5257L218.091 25.4301L217.633 25.2301L216.801 27.1346L217.26 27.3346L216.428 29.239L215.97 29.039L215.139 30.9434L215.597 31.1434L214.766 33.0478L214.308 32.8478L214.023 33.5H213.344V34H211.33V33.5H209.316V34H207.302V33.5H205.288V34H203.274V33.5H201.261V34H199.247V33.5H197.233V34H195.219V33.5H193.205V34H191.191V33.5H189.177V34H187.164V33.5H185.15V34H183.136V33.5H181.122V34H179.108V33.5H177.094V34H175.081V33.5H173.067V34H171.053V33.5H169.039V34H167.025V33.5H165.011V34H162.998V33.5H160.984V34H158.97V33.5H156.956V34H154.942V33.5H152.928V34H150.915V33.5H148.901V34H146.887V33.5H144.873V34H142.859V33.5H140.845V34H138.831V33.5H136.818V34H134.804V33.5H132.79V34H130.776V33.5H128.762V34H126.748V33.5H124.735V34H122.721V33.5H120.707V34H118.693V33.5H116.679V34H114.665V33.5H112.651V34H110.638V33.5H108.624V34H106.61V33.5H104.596V34H102.582V33.5H100.568V34H98.5545V33.5H96.5407V34H94.5268V33.5H92.513V34H90.4991V33.5H88.4853V34H86.4714V33.5H84.4576V34H82.4437V33.5H80.4299V34H78.416V33.5H76.4022V34H74.3884V33.5H72.3745V34H70.3607V33.5H68.3468V34H66.333V33.5H64.3191V34H62.3053V33.5H60.2915V34H58.2776V33.5H56.2638V34H54.2499V33.5H52.2361V34H50.2222V33.5H48.2084V34H46.1945V33.5H44.1807V34H42.1669V33.5H40.153V34H38.1392V33.5H36.1253V34H34.1115V33.5H32.0976V34H30.0838V33.5H28.07V34H26.0561V33.5H24.0423V34H22.0284V33.5H20.0146V34H18.0007V33.5H15.9869V34H13.973V33.5H13.2873L12.9855 32.8399L12.5307 33.0478L11.66 31.1434L12.1147 30.9355L11.2439 29.0311L10.7892 29.239L9.91845 27.3346L10.3732 27.1266L9.5024 25.2222L9.04768 25.4301L8.17691 23.5257L8.63164 23.3178L7.76087 21.4134L7.30615 21.6213L6.43538 19.7169L6.8901 19.509L6.55882 18.7845L6.87428 18.2064L6.43538 17.9669L7.30615 16.3713L7.74505 16.6108L8.61581 15.0153L8.17691 14.7757L9.04768 13.1801L9.48658 13.4197L10.3573 11.8241L9.91845 11.5846L10.7892 9.98897L11.2281 10.2285L12.0989 8.6329L11.66 8.39338Z" stroke="white" stroke-dasharray="2 2"/>
</svg>
